# Blender 5.1.2
# www.blender.org
mtllib Hammerhead.mtl
o Hammerhead.001
v -0.414894 1.595745 -0.654255
v -0.414894 0.000000 -0.654255
v -0.414894 0.000000 -2.250000
v -0.414894 1.595745 -2.250000
v -1.372341 0.000000 -2.250000
v -1.372341 0.000000 -0.654255
v -1.372341 1.595745 -0.654255
v -1.372341 1.595745 -2.250000
v -1.404256 0.414894 -0.781915
v -0.382979 0.414894 -0.781915
v -0.382979 0.797873 -0.686170
v -1.404256 0.797873 -0.686170
v -0.382979 1.180851 -0.781915
v -1.404256 1.180851 -0.781915
v -0.382979 1.468085 -1.069149
v -1.404256 1.468085 -1.069149
v -0.382979 1.563830 -1.452127
v -1.404256 1.563830 -1.452127
v -0.382979 1.468085 -1.835106
v -1.404256 1.468085 -1.835106
v -0.382979 1.180851 -2.122341
v -1.404256 1.180851 -2.122341
v -0.382979 0.797873 -2.218085
v -1.404256 0.797873 -2.218085
v -0.382979 0.414894 -2.122341
v -1.404256 0.414894 -2.122341
v -0.382979 0.127659 -1.835106
v -1.404256 0.127659 -1.835106
v -0.382979 0.031915 -1.452127
v -1.404256 0.031915 -1.452127
v -0.382979 0.127659 -1.069149
v -1.404256 0.127659 -1.069149
v -0.414894 1.595745 1.962767
v -0.414894 0.000000 1.962767
v -0.414894 0.000000 0.367021
v -0.414894 1.595745 0.367021
v -1.372341 0.000000 0.367021
v -1.372341 0.000000 1.962767
v -1.372341 1.595745 1.962767
v -1.372341 1.595745 0.367021
v -1.404256 0.414894 1.835106
v -0.382979 0.414894 1.835106
v -0.382979 0.797873 1.930851
v -1.404256 0.797873 1.930851
v -0.382979 1.180851 1.835106
v -1.404256 1.180851 1.835106
v -0.382979 1.468085 1.547873
v -1.404256 1.468085 1.547873
v -0.382979 1.563830 1.164894
v -1.404256 1.563830 1.164894
v -0.382979 1.468085 0.781915
v -1.404256 1.468085 0.781915
v -0.382979 1.180851 0.494680
v -1.404256 1.180851 0.494680
v -0.382979 0.797873 0.398936
v -1.404256 0.797873 0.398936
v -0.382979 0.414894 0.494680
v -1.404256 0.414894 0.494680
v -0.382979 0.127659 0.781915
v -1.404256 0.127659 0.781915
v -0.382979 0.031915 1.164894
v -1.404256 0.031915 1.164894
v -0.382979 0.127659 1.547873
v -1.404256 0.127659 1.547873
v 0.414894 1.595745 -2.250000
v 0.414894 0.000000 -2.250000
v 0.414894 0.000000 -0.654255
v 0.414894 1.595745 -0.654255
v 1.372341 1.595745 -2.250000
v 1.372341 1.595745 -0.654255
v 1.372341 0.000000 -0.654255
v 1.372341 0.000000 -2.250000
v 1.404256 0.797873 -0.686170
v 0.382979 0.797873 -0.686170
v 0.382979 0.414894 -0.781915
v 1.404256 0.414894 -0.781915
v 1.404256 1.180851 -0.781915
v 0.382979 1.180851 -0.781915
v 1.404256 1.468085 -1.069149
v 0.382979 1.468085 -1.069149
v 1.404256 1.563830 -1.452127
v 0.382979 1.563830 -1.452127
v 1.404256 1.468085 -1.835106
v 0.382979 1.468085 -1.835106
v 1.404256 1.180851 -2.122341
v 0.382979 1.180851 -2.122341
v 1.404256 0.797873 -2.218085
v 0.382979 0.797873 -2.218085
v 1.404256 0.414894 -2.122341
v 0.382979 0.414894 -2.122341
v 1.404256 0.127659 -1.835106
v 0.382979 0.127659 -1.835106
v 1.404256 0.031915 -1.452127
v 0.382979 0.031915 -1.452127
v 1.404256 0.127659 -1.069149
v 0.382979 0.127659 -1.069149
v 0.414894 1.595745 0.367021
v 0.414894 0.000000 0.367021
v 0.414894 0.000000 1.962767
v 0.414894 1.595745 1.962767
v 1.372341 1.595745 0.367021
v 1.372341 1.595745 1.962767
v 1.372341 0.000000 1.962767
v 1.372341 0.000000 0.367021
v 1.404256 0.797873 1.930851
v 0.382979 0.797873 1.930851
v 0.382979 0.414894 1.835106
v 1.404256 0.414894 1.835106
v 1.404256 1.180851 1.835106
v 0.382979 1.180851 1.835106
v 1.404256 1.468085 1.547873
v 0.382979 1.468085 1.547873
v 1.404256 1.563830 1.164894
v 0.382979 1.563830 1.164894
v 1.404256 1.468085 0.781915
v 0.382979 1.468085 0.781915
v 1.404256 1.180851 0.494680
v 0.382979 1.180851 0.494680
v 1.404256 0.797873 0.398936
v 0.382979 0.797873 0.398936
v 1.404256 0.414894 0.494680
v 0.382979 0.414894 0.494680
v 1.404256 0.127659 0.781915
v 0.382979 0.127659 0.781915
v 1.404256 0.031915 1.164894
v 0.382979 0.031915 1.164894
v 1.404256 0.127659 1.547873
v 0.382979 0.127659 1.547873
v 0.893617 1.978724 1.962767
v 0.734042 1.978724 2.058511
v 0.765958 1.659574 2.122341
v 0.925532 1.659574 2.026596
v -0.925532 1.659574 2.026596
v -0.765958 1.659574 2.122341
v -0.734042 1.978724 2.058511
v -0.893617 1.978724 1.962767
v 0.765958 2.553192 -0.590426
v 0.989362 2.553192 -0.462765
v 0.989362 2.936171 -0.462765
v 0.765958 2.936171 -0.590426
v 0.702127 2.936171 -0.590426
v -0.382979 0.797873 -1.388298
v -0.382979 1.531915 -1.388298
v 0.000000 1.531915 -1.388298
v -0.382979 0.797873 1.164894
v -0.382979 1.531915 1.164894
v -0.000000 1.531915 1.164894
v 0.382979 1.531915 1.164894
v 0.382979 0.797873 1.164894
v -0.000000 0.797873 1.164894
v 0.382979 1.531915 -1.388298
v 0.382979 0.797873 -1.388298
v -0.000000 0.797873 -1.388298
v -0.765958 2.936171 -0.590426
v -0.989362 2.936171 -0.462765
v -0.989362 2.553192 -0.462765
v -0.765958 2.553192 -0.590426
v -0.702127 2.936171 -0.590426
v 0.670212 3.382979 -0.430851
v 0.670212 3.095745 -0.430851
v -0.670212 3.095745 -0.430851
v -0.670212 3.382979 -0.430851
v 0.765958 1.946809 0.781915
v 0.765958 1.946809 2.058511
v 0.893617 1.659574 2.058511
v 0.893617 1.659574 0.781915
v 0.765958 1.659574 0.367021
v -0.893617 1.659574 0.781915
v -0.893617 1.659574 2.058511
v -0.765958 1.946809 2.058511
v -0.765958 1.946809 0.781915
v -0.765958 1.659574 0.367021
v 0.319149 3.255320 0.111702
v -0.319149 3.255320 0.111702
v -0.319149 3.095745 0.941489
v 0.319149 3.095745 0.941489
v -0.765958 1.914894 -2.058511
v -0.765958 1.914894 -2.218085
v -0.765958 1.659574 -2.218085
v -0.765958 1.659574 -2.090426
v -0.765958 1.914894 2.186171
v -0.765958 1.914894 2.058511
v -0.765958 1.659574 2.250000
v -0.765958 2.585106 1.898936
v -0.765958 2.617021 0.175532
v -0.765958 1.659574 0.175532
v -0.765958 2.617021 -0.813830
v -0.765958 1.659574 -0.813830
v 0.765958 2.585106 1.898936
v 0.765958 1.914894 2.058511
v 0.765958 1.914894 2.186171
v 0.765958 1.914894 -2.218085
v 0.765958 1.659574 -2.218085
v 0.765958 1.914894 -2.058511
v 0.765958 1.659574 -2.090426
v 0.765958 1.659574 2.250000
v 0.765958 1.659574 0.175532
v 0.765958 2.617021 0.175532
v 0.765958 1.659574 -0.813830
v 0.765958 2.617021 -0.813830
v 0.638298 3.159574 1.452127
v 0.702127 2.968085 1.707447
v 0.670212 3.063830 0.111702
v -0.638298 3.159574 1.452127
v -0.670212 3.063830 0.111702
v -0.702127 2.968085 1.707447
v -0.734042 2.425532 -2.026596
v -0.734042 1.659574 -2.090426
v 0.734042 2.425532 -2.026596
v 0.734042 1.659574 -2.090426
v -0.670212 3.031915 -0.430851
v 0.670212 3.031915 -0.430851
v 0.319149 3.063830 0.111702
v -0.319149 3.063830 0.111702
v -0.670212 3.095745 -0.335106
v -0.670212 3.319150 -0.335106
v -0.670212 3.319150 -0.558511
v -0.670212 3.095745 -0.558511
v 0.670212 3.319150 -0.335106
v 0.670212 3.095745 -0.335106
v 0.670212 3.095745 -0.558511
v 0.670212 3.319150 -0.558511
v -0.765958 2.585106 -0.973404
v -0.765958 2.585106 -1.388298
v -0.829788 2.489362 -1.388298
v -0.829788 2.489362 -0.973404
v -0.765958 2.361703 -1.388298
v -0.765958 2.361703 -0.973404
v -0.765958 2.521277 -1.388298
v -0.765958 2.521277 -1.930851
v -0.765958 2.457447 -1.930851
v -0.765958 2.457447 -1.388298
v -0.382979 1.531915 1.803192
v -0.382979 1.531915 -1.930851
v 0.382979 1.531915 -1.930851
v 0.382979 1.531915 1.803192
v 0.765958 2.457447 -1.388298
v 0.765958 2.457447 -1.930851
v 0.765958 2.521277 -1.930851
v 0.765958 2.521277 -1.388298
v 0.765958 2.361703 -0.973404
v 0.765958 2.361703 -1.388298
v 0.829788 2.489362 -1.388298
v 0.829788 2.489362 -0.973404
v 0.765958 2.585106 -1.388298
v 0.765958 2.585106 -0.973404
v -0.382979 1.659574 -1.930851
v 0.382979 1.659574 -1.930851
v -0.382979 1.659574 1.803192
v 0.319149 1.531915 -0.143617
v 0.319149 1.531915 -0.303191
v 0.319149 0.957447 -1.388298
v -0.319149 1.531915 -0.303191
v -0.319149 1.531915 -0.143617
v -0.319149 0.861703 -1.388298
v -0.319149 1.531915 0.015958
v -0.319149 0.861703 1.164894
v 0.319149 1.531915 0.015958
v 0.319149 0.957447 1.164894
v 0.382979 1.659574 1.803192
v 0.319149 0.861703 -1.388298
v -0.319149 0.957447 -1.388298
v -0.319149 0.957447 1.164894
v 0.319149 0.861703 1.164894
vn 1.0000 -0.0000 -0.0000
vn -1.0000 -0.0000 -0.0000
vn -0.0000 -0.4927 0.8702
vn -0.0000 -0.0000 1.0000
vn -0.0000 0.4927 0.8702
vn -0.0000 0.8702 0.4927
vn -0.0000 1.0000 -0.0000
vn -0.0000 0.8702 -0.4927
vn -0.0000 0.4927 -0.8702
vn -0.0000 -0.0000 -1.0000
vn -0.0000 -0.4927 -0.8702
vn -0.0000 -0.8702 -0.4927
vn -0.0000 -1.0000 -0.0000
vn -0.0000 -0.8702 0.4927
vn 0.5022 0.2176 0.8369
vn 0.9462 0.0815 0.3131
vn -0.5022 0.2176 0.8369
vn -0.9462 0.0814 0.3131
vn -0.4961 -0.0000 0.8682
vn 0.0001 -0.0000 -1.0000
vn -0.0001 -0.0000 -1.0000
vn 0.4961 -0.0000 0.8682
vn 0.9085 0.4038 -0.1078
vn 0.9138 0.4061 -0.0000
vn 0.9059 0.4026 -0.1312
vn 0.8797 0.3910 -0.2707
vn -0.9059 0.4026 -0.1312
vn -0.9138 0.4061 -0.0000
vn -0.9085 0.4038 -0.1078
vn -0.8797 0.3910 -0.2707
vn 0.5680 0.6346 -0.5241
vn -0.5680 0.6345 -0.5241
vn -0.1439 0.9718 0.1869
vn 0.1439 0.9718 0.1869
vn -0.6774 0.7356 -0.0000
vn -0.5774 0.5774 -0.5773
vn -0.5773 -0.5774 -0.5773
vn -0.7335 -0.6797 -0.0000
vn -0.5913 0.6356 0.4963
vn -0.4736 0.6911 0.5459
vn -0.5656 -0.5075 0.6501
vn -0.6925 0.2891 0.6610
vn -0.9944 0.1061 0.0011
vn -0.7880 0.5523 -0.2722
vn -0.7098 -0.7043 -0.0089
vn 0.6926 0.2894 0.6607
vn 0.4736 0.6911 0.5459
vn 0.5913 0.6356 0.4963
vn 0.5773 0.5774 -0.5774
vn 0.5774 -0.5774 -0.5773
vn 0.6774 0.7356 -0.0000
vn 0.7335 -0.6797 -0.0000
vn 0.5655 -0.5075 0.6500
vn 0.9462 0.0814 0.3131
vn 0.9941 0.1082 0.0004
vn 0.7100 -0.7042 -0.0092
vn 0.7880 0.5526 -0.2713
vn 0.5460 0.8109 0.2105
vn 0.6909 0.5376 0.4834
vn 0.6330 0.7730 -0.0431
vn -0.5447 0.8115 0.2114
vn -0.6308 0.7748 -0.0411
vn -0.6909 0.5376 0.4834
vn -0.5819 0.5503 -0.5988
vn -0.5651 -0.5561 -0.6095
vn 0.5823 0.5501 -0.5986
vn 0.5654 -0.5560 -0.6093
vn -0.5380 0.7760 -0.3292
vn 0.5447 0.7727 -0.3260
vn 0.6983 -0.0000 -0.7158
vn -0.6983 -0.0000 -0.7158
vn -0.7792 0.5195 0.3506
vn -0.7792 0.5195 -0.3506
vn -0.7911 0.0492 -0.6097
vn -0.7911 0.0493 0.6097
vn -0.8578 -0.4289 -0.2831
vn -0.8578 -0.4289 0.2831
vn -0.5774 -0.5773 0.5774
vn -0.5774 -0.5774 -0.5773
vn 0.5774 -0.5773 -0.5774
vn 0.5774 -0.5774 0.5773
vn 0.8578 -0.4289 0.2831
vn 0.8578 -0.4289 -0.2831
vn 0.7911 0.0493 -0.6097
vn 0.7911 0.0492 0.6097
vn 0.7792 0.5195 -0.3506
vn 0.7792 0.5195 0.3506
vn -0.7071 -0.0000 -0.7071
vn 0.7071 -0.0000 -0.7071
vn -0.7071 -0.0000 0.7071
vn 0.7071 -0.0000 0.7071
vt 0.000000 0.000000
vt 0.984375 0.000000
vt 0.984375 -0.984375
vt 0.000000 -0.984375
vt 0.984375 -0.968750
vt 0.000000 -0.968750
vt 0.703125 0.000000
vt 0.562500 0.000000
vt 0.562500 -0.265625
vt 0.703125 -0.265625
vt 0.781250 -0.312500
vt 0.953125 -0.312500
vt 0.953125 0.000000
vt 0.781250 0.000000
vt 0.734375 0.000000
vt 0.203125 -0.796875
vt 0.203125 -0.593750
vt 0.421875 -0.593750
vt 0.421875 -0.796875
vt 0.546875 0.000000
vt 0.296875 0.000000
vt 0.296875 -0.562500
vt 0.546875 -0.562500
vt 0.320312 -0.914062
vt 0.046875 -0.906250
vt 0.015625 -0.992188
vt 0.289062 -0.992188
vt 0.382812 -0.968750
vt 0.453125 -0.679688
vt 0.390625 -0.687500
vt 0.390625 -0.757812
vt 0.453125 -0.750000
vt 0.492188 -0.453125
vt 0.562500 -0.453125
vt 0.539062 -0.507812
vt 0.476562 -0.507812
vt 0.000000 -0.453125
vt 0.039062 -0.453125
vt 0.039062 -0.515625
vt 0.007812 -0.507812
vt 0.046875 -0.773438
vt 0.453125 -0.765625
vt 0.460938 -0.984375
vt 0.000000 -0.976562
vt 0.687500 -0.765625
vt 0.695312 -0.984375
vt 0.539062 -0.140625
vt 0.000000 -0.140625
vt 0.000000 -0.460938
vt 0.539062 -0.460938
vt 0.546875 -0.460938
vt 0.000000 -0.507812
vt 0.546875 -0.515625
vt 0.000000 -0.523438
vt 0.000000 -0.445312
vt 0.554688 -0.445312
vt 0.531250 -0.460938
vt 0.000000 -0.468750
vt 0.000000 -0.515625
vt 0.531250 -0.507812
vt 0.992188 -0.445312
vt 1.070312 -0.445312
vt 1.046875 -0.515625
vt 0.953125 -0.523438
vt 0.500000 -0.515625
vt 0.492188 -0.468750
vt 0.015625 -0.460938
vt 0.015625 -0.523438
vt 0.531250 -0.523438
vt 0.523438 -0.460938
vt 0.148438 -0.640625
vt 0.093750 -0.687500
vt 0.460938 -0.664062
vt 0.000000 -0.023438
vt 0.023438 0.000000
vt 0.023438 -0.023438
vt 0.507812 -0.093750
vt 0.023438 -0.093750
vt 0.031250 -0.976562
vt 0.023438 -1.093750
vt 0.507812 -1.093750
vt 0.492188 -0.976562
vt 0.976562 -0.804688
vt 0.992188 -0.984375
vt 1.546875 -0.671875
vt 0.992188 -0.671875
vt 0.984375 -0.445312
vt 1.539062 -0.445312
vt 0.585938 -0.664062
vt 0.492188 -0.031250
vt 0.031250 -0.039062
vt 0.007812 -0.195312
vt 0.531250 -0.195312
vt 0.632812 -0.210938
vt 0.632812 0.000000
vt 0.554688 0.000000
vt 0.554688 -0.210938
vt 0.015625 -0.710938
vt 0.046875 -0.601562
vt 0.000000 -0.609375
vt 0.039062 -0.664062
vt 0.007812 -0.648438
vt 0.015625 -0.718750
vt 0.492188 -0.218750
vt 0.054688 -0.210938
vt 0.054688 -0.460938
vt 0.476562 -0.460938
vt 0.015625 -0.031250
vt 0.000000 -0.039062
vt 0.656250 -0.023438
vt 0.742188 -0.023438
vt 0.656250 0.000000
vt 0.742188 -0.015625
vt 0.656250 -0.015625
vt 0.742188 0.000000
vt 0.312500 -0.750000
vt 0.312500 -0.078125
vt 0.250000 -0.078125
vt 0.250000 -0.750000
vt 0.156250 -0.078125
vt 0.156250 -0.734375
vt 0.515625 -0.718750
vt 0.515625 -0.421875
vt 0.437500 -0.421875
vt 0.437500 -0.718750
vt 0.031250 -0.250000
vt 0.015625 -1.000000
vt 0.953125 -1.000000
vt 0.968750 -0.250000
vt 0.062500 0.000000
vt 0.046875 -1.000000
vt 0.984375 -1.000000
vt 0.046875 -0.968750
vt 0.718750 -0.921875
vt 0.750000 -0.031250
vt 0.281250 -0.031250
vt 0.250000 -0.921875
s 1
usemtl material_0.005
f 1/1/1 2/2/1 3/3/1
f 1/1/1 3/3/1 4/4/1
f 5/3/2 6/2/2 7/1/2
f 5/3/2 7/1/2 8/4/2
f 33/1/1 34/2/1 35/3/1
f 33/1/1 35/3/1 36/4/1
f 37/3/2 38/2/2 39/1/2
f 37/3/2 39/1/2 40/4/2
f 65/4/2 66/3/2 67/2/2
f 65/4/2 67/2/2 68/1/2
f 69/4/1 70/1/1 71/2/1
f 69/4/1 71/2/1 72/3/1
f 97/4/2 98/3/2 99/2/2
f 97/4/2 99/2/2 100/1/2
f 101/4/1 102/1/1 103/2/1
f 101/4/1 103/2/1 104/3/1
usemtl material_1.005
f 9/5/3 10/6/3 11/1/4
f 9/5/3 11/1/4 12/2/4
f 12/5/4 11/6/4 13/1/5
f 12/5/4 13/1/5 14/2/5
f 14/5/5 13/6/5 15/1/6
f 14/5/5 15/1/6 16/2/6
f 16/5/6 15/6/6 17/1/7
f 16/5/6 17/1/7 18/2/7
f 18/5/7 17/6/7 19/1/8
f 18/5/7 19/1/8 20/2/8
f 20/5/8 19/6/8 21/1/9
f 20/5/8 21/1/9 22/2/9
f 22/5/9 21/6/9 23/1/10
f 22/5/9 23/1/10 24/2/10
f 24/5/10 23/6/10 25/1/11
f 24/5/10 25/1/11 26/2/11
f 26/5/11 25/6/11 27/1/12
f 26/5/11 27/1/12 28/2/12
f 28/5/12 27/6/12 29/1/13
f 28/5/12 29/1/13 30/2/13
f 30/5/13 29/6/13 31/1/14
f 30/5/13 31/1/14 32/2/14
f 32/5/14 31/6/14 10/1/3
f 32/5/14 10/1/3 9/2/3
f 41/5/3 42/6/3 43/1/4
f 41/5/3 43/1/4 44/2/4
f 44/5/4 43/6/4 45/1/5
f 44/5/4 45/1/5 46/2/5
f 46/5/5 45/6/5 47/1/6
f 46/5/5 47/1/6 48/2/6
f 48/5/6 47/6/6 49/1/7
f 48/5/6 49/1/7 50/2/7
f 50/5/7 49/6/7 51/1/8
f 50/5/7 51/1/8 52/2/8
f 52/5/8 51/6/8 53/1/9
f 52/5/8 53/1/9 54/2/9
f 54/5/9 53/6/9 55/1/10
f 54/5/9 55/1/10 56/2/10
f 56/5/10 55/6/10 57/1/11
f 56/5/10 57/1/11 58/2/11
f 58/5/11 57/6/11 59/1/12
f 58/5/11 59/1/12 60/2/12
f 60/5/12 59/6/12 61/1/13
f 60/5/12 61/1/13 62/2/13
f 62/5/13 61/6/13 63/1/14
f 62/5/13 63/1/14 64/2/14
f 64/5/14 63/6/14 42/1/3
f 64/5/14 42/1/3 41/2/3
f 73/2/4 74/1/4 75/6/3
f 73/2/4 75/6/3 76/5/3
f 77/2/5 78/1/5 74/6/4
f 77/2/5 74/6/4 73/5/4
f 79/2/6 80/1/6 78/6/5
f 79/2/6 78/6/5 77/5/5
f 81/2/7 82/1/7 80/6/6
f 81/2/7 80/6/6 79/5/6
f 83/2/8 84/1/8 82/6/7
f 83/2/8 82/6/7 81/5/7
f 85/2/9 86/1/9 84/6/8
f 85/2/9 84/6/8 83/5/8
f 87/2/10 88/1/10 86/6/9
f 87/2/10 86/6/9 85/5/9
f 89/2/11 90/1/11 88/6/10
f 89/2/11 88/6/10 87/5/10
f 91/2/12 92/1/12 90/6/11
f 91/2/12 90/6/11 89/5/11
f 93/2/13 94/1/13 92/6/12
f 93/2/13 92/6/12 91/5/12
f 95/2/14 96/1/14 94/6/13
f 95/2/14 94/6/13 93/5/13
f 76/2/3 75/1/3 96/6/14
f 76/2/3 96/6/14 95/5/14
f 105/2/4 106/1/4 107/6/3
f 105/2/4 107/6/3 108/5/3
f 109/2/5 110/1/5 106/6/4
f 109/2/5 106/6/4 105/5/4
f 111/2/6 112/1/6 110/6/5
f 111/2/6 110/6/5 109/5/5
f 113/2/7 114/1/7 112/6/6
f 113/2/7 112/6/6 111/5/6
f 115/2/8 116/1/8 114/6/7
f 115/2/8 114/6/7 113/5/7
f 117/2/9 118/1/9 116/6/8
f 117/2/9 116/6/8 115/5/8
f 119/2/10 120/1/10 118/6/9
f 119/2/10 118/6/9 117/5/9
f 121/2/11 122/1/11 120/6/10
f 121/2/11 120/6/10 119/5/10
f 123/2/12 124/1/12 122/6/11
f 123/2/12 122/6/11 121/5/11
f 125/2/13 126/1/13 124/6/12
f 125/2/13 124/6/12 123/5/12
f 127/2/14 128/1/14 126/6/13
f 127/2/14 126/6/13 125/5/13
f 108/2/3 107/1/3 128/6/14
f 108/2/3 128/6/14 127/5/14
usemtl material_2.004
f 129/7/15 130/8/15 131/9/16
f 129/7/15 131/9/16 132/10/15
f 133/9/17 134/10/18 135/7/17
f 133/9/17 135/7/17 136/8/17
f 137/11/19 138/12/19 139/13/19
f 137/11/19 139/13/19 140/14/20
f 141/15/4 137/11/4 140/14/10
f 142/16/10 143/17/10 144/18/10
f 145/16/10 146/17/10 147/18/10
f 148/17/10 149/16/10 150/19/10
f 151/17/10 152/16/10 153/19/10
f 154/14/21 155/13/22 156/12/22
f 154/14/21 156/12/22 157/11/22
f 157/11/4 158/15/4 154/14/10
f 159/20/10 160/21/10 161/22/10
f 159/20/10 161/22/10 162/23/10
f 142/16/10 144/18/10 153/19/10
f 145/16/10 147/18/10 150/19/10
f 148/17/10 150/19/10 147/18/10
f 151/17/10 153/19/10 144/18/10
f 226/1/75 228/1/77 223/1/72
usemtl material_3.003
f 163/24/23 164/25/24 165/26/24
f 163/24/23 165/26/24 166/27/25
f 166/27/25 167/28/26 163/24/23
f 168/27/27 169/26/28 170/25/28
f 168/27/27 170/25/28 171/24/29
f 172/28/30 168/27/27 171/24/29
f 173/29/31 174/30/32 175/31/33
f 173/29/31 175/31/33 176/32/34
f 177/33/35 178/34/36 179/35/37
f 177/33/35 179/35/37 180/36/38
f 181/37/39 182/38/40 134/39/18
f 181/37/39 134/39/18 183/40/41
f 184/41/42 185/42/43 186/43/2
f 184/41/42 186/43/2 134/44/18
f 185/42/43 187/45/44 188/46/45
f 185/42/43 188/46/45 186/43/2
f 189/47/46 184/48/42 182/49/40
f 189/47/46 182/49/40 190/50/47
f 190/51/47 182/37/40 181/52/39
f 190/51/47 181/52/39 191/53/48
f 178/53/36 192/54/49 193/55/50
f 178/53/36 193/55/50 179/56/37
f 177/57/35 194/58/51 192/59/49
f 177/57/35 192/59/49 178/60/36
f 195/61/52 193/62/50 192/63/49
f 195/61/52 192/63/49 194/64/51
f 196/65/53 131/53/54 190/51/47
f 196/65/53 190/51/47 191/66/48
f 131/44/54 197/43/1 198/42/55
f 131/44/54 198/42/55 189/41/46
f 197/43/1 199/46/56 200/45/57
f 197/43/1 200/45/57 198/42/55
f 181/67/39 183/68/41 196/69/53
f 181/67/39 196/69/53 191/70/48
f 189/41/46 201/71/58 202/72/59
f 198/42/55 203/73/60 201/71/58
f 198/42/55 201/71/58 189/41/46
f 184/41/42 204/71/61 205/73/62
f 184/41/42 205/73/62 185/42/43
f 204/71/61 184/41/42 206/72/63
f 205/74/62 204/1/61 201/75/58
f 205/74/62 201/75/58 203/76/60
f 202/77/59 206/78/63 184/48/42
f 202/77/59 184/48/42 189/47/46
f 204/79/61 206/80/63 202/81/59
f 204/79/61 202/81/59 201/82/58
f 187/45/44 207/83/64 208/84/65
f 187/45/44 208/84/65 188/46/45
f 207/85/64 209/86/66 210/87/67
f 207/85/64 210/87/67 208/88/65
f 199/46/56 210/84/67 209/83/66
f 199/46/56 209/83/66 200/45/57
f 205/73/62 211/89/68 187/45/44
f 205/73/62 187/45/44 185/42/43
f 211/90/68 212/91/69 200/92/57
f 211/90/68 200/92/57 187/93/44
f 198/42/55 200/45/57 212/89/69
f 198/42/55 212/89/69 203/73/60
f 174/94/32 173/95/31 213/96/70
f 174/94/32 213/96/70 214/97/71
f 175/98/33 174/99/32 214/100/71
f 213/101/70 173/102/31 176/103/34
f 187/104/44 200/105/57 209/106/66
f 187/104/44 209/106/66 207/107/64
f 203/76/60 212/108/69 211/109/68
f 203/76/60 211/109/68 205/74/62
f 215/110/2 216/111/2 217/15/2
f 215/110/2 217/15/2 218/112/2
f 219/113/1 220/114/1 221/112/1
f 219/113/1 221/112/1 222/115/1
f 250/1/1 258/1/1 259/1/1
f 250/1/1 259/1/1 264/1/1
usemtl material_4.003
f 223/116/72 224/117/73 225/118/74
f 223/116/72 225/118/74 226/119/75
f 226/119/75 225/118/74 227/120/76
f 226/119/75 227/120/76 228/121/77
f 229/122/2 230/123/2 231/124/2
f 229/122/2 231/124/2 232/125/2
f 199/126/56 196/127/53 183/128/41
f 199/126/56 183/128/41 188/129/45
f 210/130/67 199/126/56 188/129/45
f 210/130/67 188/129/45 208/13/65
f 195/131/52 180/132/38 179/5/37
f 195/131/52 179/5/37 193/133/50
f 233/134/78 234/135/79 235/136/80
f 233/134/78 235/136/80 236/137/81
f 237/125/1 238/124/1 239/123/1
f 237/125/1 239/123/1 240/122/1
f 241/121/82 242/120/83 243/118/84
f 241/121/82 243/118/84 244/119/85
f 244/119/85 243/118/84 245/117/86
f 244/119/85 245/117/86 246/116/87
f 224/1/73 227/1/76 225/1/74
f 242/1/83 245/1/86 243/1/84
f 241/1/82 244/1/85 246/1/87
f 247/1/88 234/1/79 233/1/78
f 248/1/89 235/1/80 234/1/79
f 249/1/90 233/1/78 236/1/81
f 250/1/2 251/1/2 252/1/2
f 253/1/2 254/1/1 255/1/1
f 256/1/2 254/1/2 257/1/2
f 247/1/88 233/1/78 249/1/90
f 248/1/89 234/1/79 247/1/88
f 249/1/90 236/1/81 260/1/91
f 250/1/2 252/1/2 261/1/2
f 253/1/2 255/1/1 262/1/1
f 256/1/2 257/1/2 263/1/2
f 235/1/80 248/1/89 260/1/91
f 235/1/80 260/1/91 236/1/81
