# Blender 5.1.2
# www.blender.org
mtllib Twister.mtl
o Twister
v 0.464286 0.821429 1.250000
v -0.464286 0.821429 1.250000
v 0.464286 0.285714 1.250000
v -0.464286 0.821429 1.250000
v -0.464286 0.285714 1.250000
v 0.464286 0.285714 1.250000
v 0.464286 0.821429 1.250000
v 0.464286 0.285714 1.250000
v 0.714286 0.821429 1.250000
v 0.464286 0.285714 1.250000
v 0.714286 0.285714 1.250000
v 0.714286 0.821429 1.250000
v 0.678571 0.535714 -1.321429
v 0.678571 0.285714 -1.321429
v 0.321429 0.535714 -1.214286
v 0.678571 0.285714 -1.321429
v 0.321429 0.285714 -1.214286
v 0.321429 0.535714 -1.214286
v 0.750000 0.214286 -1.750000
v 0.714286 0.250000 -2.250000
v 0.750000 0.428571 -1.785714
v 0.714286 0.250000 -2.250000
v 0.714286 0.428571 -2.250000
v 0.750000 0.428571 -1.785714
v 0.321429 0.535714 -1.214286
v 0.642857 0.607143 -0.785714
v 0.321429 0.285714 -1.214286
v 0.642857 0.607143 -0.785714
v 0.642857 0.285714 -0.785714
v 0.321429 0.285714 -1.214286
v 0.785714 0.678572 -0.107143
v -0.785714 0.678572 -0.107143
v 0.821429 0.750000 0.607143
v -0.785714 0.678572 -0.107143
v -0.821429 0.750000 0.607143
v 0.821429 0.750000 0.607143
v 0.821429 0.750000 0.607143
v -0.821429 0.750000 0.607143
v 0.464286 0.821429 1.250000
v -0.821429 0.750000 0.607143
v -0.464286 0.821429 1.250000
v 0.464286 0.821429 1.250000
v 0.642857 0.607143 -0.785714
v -0.642857 0.607143 -0.785714
v 0.785714 0.678572 -0.107143
v -0.642857 0.607143 -0.785714
v -0.785714 0.678572 -0.107143
v 0.785714 0.678572 -0.107143
v 0.321429 0.535714 -1.214286
v -0.285714 0.535714 -1.214286
v 0.642857 0.607143 -0.785714
v -0.285714 0.535714 -1.214286
v -0.642857 0.607143 -0.785714
v 0.642857 0.607143 -0.785714
v -0.714286 0.821429 1.250000
v -0.714286 0.285714 1.250000
v -0.464286 0.821429 1.250000
v -0.714286 0.285714 1.250000
v -0.464286 0.285714 1.250000
v -0.464286 0.821429 1.250000
v -0.321429 0.535714 -1.214286
v -0.285714 0.285714 -1.214286
v -0.678571 0.535714 -1.321429
v -0.285714 0.285714 -1.214286
v -0.678571 0.285714 -1.321429
v -0.678571 0.535714 -1.321429
v 0.000000 0.821429 1.250000
v 0.000000 1.000000 0.607143
v -0.178571 0.928572 0.607143
v 0.000000 0.821429 1.250000
v -0.178571 0.928572 0.607143
v -0.321429 0.750000 0.607143
v 0.000000 1.000000 0.607143
v 0.000000 0.821429 1.250000
v 0.178571 0.928572 0.607143
v 0.178571 0.928572 0.607143
v 0.000000 0.821429 1.250000
v 0.321429 0.750000 0.607143
v 0.000000 0.285714 -2.214286
v 0.321429 0.285714 -1.214286
v -0.285714 0.285714 -1.214286
v -0.285714 0.535714 -1.214286
v 0.000000 0.392857 -2.214286
v -0.285714 0.285714 -1.214286
v 0.000000 0.392857 -2.214286
v 0.000000 0.285714 -2.214286
v -0.285714 0.285714 -1.214286
v 0.000000 0.392857 -2.214286
v 0.321429 0.535714 -1.214286
v 0.000000 0.285714 -2.214286
v 0.321429 0.535714 -1.214286
v 0.321429 0.285714 -1.214286
v 0.000000 0.285714 -2.214286
v -0.750000 0.428571 -1.785714
v -0.714286 0.428571 -2.250000
v -0.750000 0.214286 -1.750000
v -0.714286 0.428571 -2.250000
v -0.714286 0.250000 -2.250000
v -0.750000 0.214286 -1.750000
v -0.750000 0.392857 -1.785714
v -0.107143 0.392857 -1.785714
v -0.714286 0.321429 -2.214286
v -0.107143 0.392857 -1.785714
v 0.000000 0.321429 -2.214286
v -0.714286 0.321429 -2.214286
v 0.714286 0.321429 -2.214286
v 0.000000 0.321429 -2.214286
v 0.750000 0.392857 -1.785714
v 0.000000 0.321429 -2.214286
v 0.107143 0.392857 -1.785714
v 0.750000 0.392857 -1.785714
v -0.250000 0.892857 -0.107143
v -0.178571 0.928572 0.607143
v 0.000000 1.000000 -0.107143
v -0.178571 0.928572 0.607143
v 0.000000 1.000000 0.607143
v 0.000000 1.000000 -0.107143
v -0.428571 0.678572 -0.107143
v -0.321429 0.750000 0.607143
v -0.250000 0.892857 -0.107143
v -0.321429 0.750000 0.607143
v -0.178571 0.928572 0.607143
v -0.250000 0.892857 -0.107143
v -0.392857 0.571429 -0.785714
v -0.428571 0.678572 -0.107143
v -0.250000 0.821429 -0.785714
v -0.428571 0.678572 -0.107143
v -0.250000 0.892857 -0.107143
v -0.250000 0.821429 -0.785714
v -0.250000 0.821429 -0.785714
v -0.250000 0.892857 -0.107143
v 0.000000 0.892857 -0.785714
v -0.250000 0.892857 -0.107143
v 0.000000 1.000000 -0.107143
v 0.000000 0.892857 -0.785714
v -0.178571 0.714286 -1.214286
v -0.250000 0.821429 -0.785714
v 0.000000 0.785714 -1.214286
v -0.250000 0.821429 -0.785714
v 0.000000 0.892857 -0.785714
v 0.000000 0.785714 -1.214286
v -0.285714 0.535714 -1.214286
v -0.392857 0.571429 -0.785714
v -0.178571 0.714286 -1.214286
v -0.392857 0.571429 -0.785714
v -0.250000 0.821429 -0.785714
v -0.178571 0.714286 -1.214286
v -0.178571 0.714286 -1.214286
v 0.000000 0.785714 -1.214286
v 0.000000 0.392857 -2.214286
v -0.285714 0.535714 -1.214286
v -0.178571 0.714286 -1.214286
v 0.000000 0.392857 -2.214286
v 0.000000 0.785714 -1.214286
v 0.178571 0.714286 -1.214286
v 0.000000 0.392857 -2.214286
v 0.178571 0.714286 -1.214286
v 0.321429 0.535714 -1.214286
v 0.000000 0.392857 -2.214286
v 0.000000 0.785714 -1.214286
v 0.000000 0.892857 -0.785714
v 0.178571 0.714286 -1.214286
v 0.000000 0.892857 -0.785714
v 0.250000 0.821429 -0.785714
v 0.178571 0.714286 -1.214286
v 0.000000 0.892857 -0.785714
v 0.000000 1.000000 -0.107143
v 0.250000 0.821429 -0.785714
v 0.000000 1.000000 -0.107143
v 0.250000 0.892857 -0.107143
v 0.250000 0.821429 -0.785714
v 0.000000 1.000000 -0.107143
v 0.000000 1.000000 0.607143
v 0.250000 0.892857 -0.107143
v 0.000000 1.000000 0.607143
v 0.178571 0.928572 0.607143
v 0.250000 0.892857 -0.107143
v 0.178571 0.714286 -1.214286
v 0.250000 0.821429 -0.785714
v 0.321429 0.535714 -1.214286
v 0.250000 0.821429 -0.785714
v 0.428571 0.571429 -0.785714
v 0.321429 0.535714 -1.214286
v -0.357143 0.892857 -0.785714
v -0.357143 0.892857 -1.071429
v -0.321429 0.678571 -0.785714
v -0.357143 0.892857 -1.071429
v -0.321429 0.678571 -1.071429
v -0.321429 0.678571 -0.785714
v -0.321429 0.857143 -1.571429
v -0.321429 0.785714 -1.571429
v -0.357143 0.857143 -1.071429
v -0.321429 0.785714 -1.571429
v -0.357143 0.785714 -1.071429
v -0.357143 0.857143 -1.071429
v 0.321429 0.678571 -0.785714
v 0.321429 0.678571 -1.071429
v 0.357143 0.892857 -0.785714
v 0.321429 0.678571 -1.071429
v 0.357143 0.892857 -1.071429
v 0.357143 0.892857 -0.785714
v 0.357143 0.857143 -1.071429
v 0.357143 0.785714 -1.071429
v 0.321429 0.857143 -1.571429
v 0.357143 0.785714 -1.071429
v 0.321429 0.785714 -1.571429
v 0.321429 0.857143 -1.571429
v 0.250000 0.821429 -0.785714
v 0.250000 0.892857 -0.107143
v 0.428571 0.571429 -0.785714
v 0.250000 0.892857 -0.107143
v 0.464286 0.678572 -0.107143
v 0.428571 0.571429 -0.785714
v 0.250000 0.892857 -0.107143
v 0.178571 0.928572 0.607143
v 0.464286 0.678572 -0.107143
v 0.178571 0.928572 0.607143
v 0.321429 0.750000 0.607143
v 0.464286 0.678572 -0.107143
v 0.000000 1.178572 1.892857
v 0.000000 1.107143 1.535714
v 0.000000 0.821429 1.607143
v 0.000000 1.107143 1.535714
v 0.000000 0.821429 1.250000
v 0.000000 0.821429 1.607143
v 0.464286 0.285714 1.250000
v 0.821429 0.285714 0.607143
v 0.464286 0.821429 1.250000
v 0.821429 0.285714 0.607143
v 0.821429 0.750000 0.607143
v 0.464286 0.821429 1.250000
v -0.464286 0.821429 1.250000
v -0.821429 0.750000 0.607143
v -0.464286 0.285714 1.250000
v -0.821429 0.750000 0.607143
v -0.821429 0.285714 0.607143
v -0.464286 0.285714 1.250000
v 0.464286 0.285714 1.250000
v -0.464286 0.285714 1.250000
v 0.821429 0.285714 0.607143
v -0.464286 0.285714 1.250000
v -0.821429 0.285714 0.607143
v 0.821429 0.285714 0.607143
v 0.821429 0.285714 0.607143
v -0.821429 0.285714 0.607143
v 0.785714 0.285714 -0.107143
v -0.821429 0.285714 0.607143
v -0.785714 0.285714 -0.107143
v 0.785714 0.285714 -0.107143
v -0.785714 0.285714 -0.107143
v -0.821429 0.285714 0.607143
v -0.785714 0.678572 -0.107143
v -0.821429 0.285714 0.607143
v -0.821429 0.750000 0.607143
v -0.785714 0.678572 -0.107143
v -0.642857 0.285714 -0.785714
v -0.785714 0.285714 -0.107143
v -0.642857 0.607143 -0.785714
v -0.785714 0.285714 -0.107143
v -0.785714 0.678572 -0.107143
v -0.642857 0.607143 -0.785714
v -0.285714 0.285714 -1.214286
v -0.642857 0.285714 -0.785714
v -0.285714 0.535714 -1.214286
v -0.642857 0.285714 -0.785714
v -0.642857 0.607143 -0.785714
v -0.285714 0.535714 -1.214286
v 0.642857 0.607143 -0.785714
v 0.785714 0.678572 -0.107143
v 0.642857 0.285714 -0.785714
v 0.785714 0.678572 -0.107143
v 0.785714 0.285714 -0.107143
v 0.642857 0.285714 -0.785714
v 0.785714 0.678572 -0.107143
v 0.821429 0.750000 0.607143
v 0.785714 0.285714 -0.107143
v 0.821429 0.750000 0.607143
v 0.821429 0.285714 0.607143
v 0.785714 0.285714 -0.107143
v 0.642857 0.285714 -0.785714
v -0.642857 0.285714 -0.785714
v 0.321429 0.285714 -1.214286
v -0.642857 0.285714 -0.785714
v -0.285714 0.285714 -1.214286
v 0.321429 0.285714 -1.214286
v 0.785714 0.285714 -0.107143
v -0.785714 0.285714 -0.107143
v 0.642857 0.285714 -0.785714
v -0.785714 0.285714 -0.107143
v -0.642857 0.285714 -0.785714
v 0.642857 0.285714 -0.785714
v -0.642857 1.071429 1.500000
v -0.642857 1.250000 2.071429
v -0.642857 1.214286 1.571429
v -0.642857 1.250000 2.107143
v -0.642857 1.071429 1.500000
v -0.642857 0.964286 2.000000
v -0.642857 1.071429 1.500000
v -0.642857 0.964286 1.428571
v -0.642857 0.964286 2.000000
v 0.642857 1.071429 1.500000
v 0.642857 1.214286 1.571429
v 0.642857 1.250000 2.071429
v 0.642857 0.964286 1.428571
v 0.642857 1.071429 1.500000
v 0.642857 0.964286 2.000000
v 0.642857 1.071429 1.500000
v 0.642857 1.250000 2.107143
v 0.642857 0.964286 2.000000
v 0.285714 1.142857 2.250000
v 0.285714 0.857143 2.250000
v 0.285714 1.142857 1.178571
v 0.285714 0.857143 2.250000
v 0.285714 0.857143 1.178571
v 0.285714 1.142857 1.178571
v 0.142857 1.000000 2.250000
v 0.428571 1.000000 2.250000
v 0.142857 1.000000 1.178571
v 0.428571 1.000000 2.250000
v 0.428571 1.000000 1.178571
v 0.142857 1.000000 1.178571
v -0.142857 1.000000 1.178571
v -0.428571 1.000000 1.178571
v -0.142857 1.000000 2.250000
v -0.428571 1.000000 1.178571
v -0.428571 1.000000 2.250000
v -0.142857 1.000000 2.250000
v -0.285714 1.142857 1.178571
v -0.285714 0.857143 1.178571
v -0.285714 1.142857 2.250000
v -0.285714 0.857143 1.178571
v -0.285714 0.857143 2.250000
v -0.285714 1.142857 2.250000
v 0.642857 1.107143 1.535714
v -0.642857 1.107143 1.535714
v 0.642857 1.214286 1.964286
v -0.642857 1.107143 1.535714
v -0.642857 1.214286 1.964286
v 0.642857 1.214286 1.964286
v 0.464286 0.821429 1.250000
v 0.714286 0.821429 1.250000
v 0.464286 0.285714 1.250000
v 0.714286 0.821429 1.250000
v 0.714286 0.285714 1.250000
v 0.464286 0.285714 1.250000
v 0.678571 0.535714 -1.321429
v 0.321429 0.535714 -1.214286
v 0.678571 0.285714 -1.321429
v 0.321429 0.535714 -1.214286
v 0.321429 0.285714 -1.214286
v 0.678571 0.285714 -1.321429
v 0.750000 0.214286 -1.750000
v 0.750000 0.428571 -1.785714
v 0.714286 0.250000 -2.250000
v 0.750000 0.428571 -1.785714
v 0.714286 0.428571 -2.250000
v 0.714286 0.250000 -2.250000
v -0.714286 0.821429 1.250000
v -0.464286 0.821429 1.250000
v -0.714286 0.285714 1.250000
v -0.464286 0.821429 1.250000
v -0.464286 0.285714 1.250000
v -0.714286 0.285714 1.250000
v -0.321429 0.535714 -1.214286
v -0.678571 0.535714 -1.321429
v -0.285714 0.285714 -1.214286
v -0.678571 0.535714 -1.321429
v -0.678571 0.285714 -1.321429
v -0.285714 0.285714 -1.214286
v -0.750000 0.428571 -1.785714
v -0.750000 0.214286 -1.750000
v -0.714286 0.428571 -2.250000
v -0.750000 0.214286 -1.750000
v -0.714286 0.250000 -2.250000
v -0.714286 0.428571 -2.250000
v -0.750000 0.392857 -1.785714
v -0.714286 0.321429 -2.214286
v -0.107143 0.392857 -1.785714
v -0.714286 0.321429 -2.214286
v 0.000000 0.321429 -2.214286
v -0.107143 0.392857 -1.785714
v 0.714286 0.321429 -2.214286
v 0.750000 0.392857 -1.785714
v 0.000000 0.321429 -2.214286
v 0.750000 0.392857 -1.785714
v 0.107143 0.392857 -1.785714
v 0.000000 0.321429 -2.214286
v -0.357143 0.892857 -0.785714
v -0.321429 0.678571 -0.785714
v -0.357143 0.892857 -1.071429
v -0.321429 0.678571 -0.785714
v -0.321429 0.678571 -1.071429
v -0.357143 0.892857 -1.071429
v -0.321429 0.857143 -1.571429
v -0.357143 0.857143 -1.071429
v -0.321429 0.785714 -1.571429
v -0.357143 0.857143 -1.071429
v -0.357143 0.785714 -1.071429
v -0.321429 0.785714 -1.571429
v 0.321429 0.678571 -0.785714
v 0.357143 0.892857 -0.785714
v 0.321429 0.678571 -1.071429
v 0.357143 0.892857 -0.785714
v 0.357143 0.892857 -1.071429
v 0.321429 0.678571 -1.071429
v 0.357143 0.857143 -1.071429
v 0.321429 0.857143 -1.571429
v 0.357143 0.785714 -1.071429
v 0.321429 0.857143 -1.571429
v 0.321429 0.785714 -1.571429
v 0.357143 0.785714 -1.071429
v 0.000000 1.178572 1.892857
v 0.000000 0.821429 1.607143
v 0.000000 1.107143 1.535714
v 0.000000 0.821429 1.607143
v 0.000000 0.821429 1.250000
v 0.000000 1.107143 1.535714
v -0.642857 1.214286 1.571429
v -0.642857 1.250000 2.071429
v -0.642857 1.071429 1.500000
v -0.642857 1.250000 2.107143
v -0.642857 0.964286 2.000000
v -0.642857 1.071429 1.500000
v -0.642857 0.964286 2.000000
v -0.642857 0.964286 1.428571
v -0.642857 1.071429 1.500000
v 0.642857 1.250000 2.071429
v 0.642857 1.214286 1.571429
v 0.642857 1.071429 1.500000
v 0.642857 0.964286 1.428571
v 0.642857 0.964286 2.000000
v 0.642857 1.071429 1.500000
v 0.642857 0.964286 2.000000
v 0.642857 1.250000 2.107143
v 0.642857 1.071429 1.500000
v 0.285714 1.142857 2.250000
v 0.285714 1.142857 1.178571
v 0.285714 0.857143 2.250000
v 0.285714 1.142857 1.178571
v 0.285714 0.857143 1.178571
v 0.285714 0.857143 2.250000
v 0.142857 1.000000 2.250000
v 0.142857 1.000000 1.178571
v 0.428571 1.000000 2.250000
v 0.142857 1.000000 1.178571
v 0.428571 1.000000 1.178571
v 0.428571 1.000000 2.250000
v -0.142857 1.000000 1.178571
v -0.142857 1.000000 2.250000
v -0.428571 1.000000 1.178571
v -0.142857 1.000000 2.250000
v -0.428571 1.000000 2.250000
v -0.428571 1.000000 1.178571
v -0.285714 1.142857 1.178571
v -0.285714 1.142857 2.250000
v -0.285714 0.857143 1.178571
v -0.285714 1.142857 2.250000
v -0.285714 0.857143 2.250000
v -0.285714 0.857143 1.178571
v 0.642857 1.107143 1.535714
v 0.642857 1.214286 1.964286
v -0.642857 1.107143 1.535714
v 0.642857 1.214286 1.964286
v -0.642857 1.214286 1.964286
v -0.642857 1.107143 1.535714
v -1.285714 0.857143 1.607143
v -1.285714 0.857143 0.857143
v -1.285714 0.071429 1.607143
v -1.285714 0.857143 0.857143
v -1.285714 0.071429 0.857143
v -1.285714 0.071429 1.607143
v -0.714286 0.071429 1.607143
v -0.714286 0.071429 0.857143
v -0.714286 0.857143 1.607143
v -0.714286 0.071429 0.857143
v -0.714286 0.857143 0.857143
v -0.714286 0.857143 1.607143
v -1.285714 0.714286 1.535714
v -0.714286 0.714286 1.535714
v -1.285714 0.857143 1.285714
v -0.714286 0.714286 1.535714
v -0.714286 0.857143 1.285714
v -1.285714 0.857143 1.285714
v -1.285714 0.107143 1.214286
v -0.714286 0.107143 1.214286
v -1.285714 0.178572 1.464286
v -0.714286 0.107143 1.214286
v -0.714286 0.178572 1.464286
v -1.285714 0.178572 1.464286
v -1.285714 0.428572 1.607143
v -0.714286 0.428572 1.607143
v -1.285714 0.714286 1.535714
v -0.714286 0.428572 1.607143
v -0.714286 0.714286 1.535714
v -1.285714 0.714286 1.535714
v -1.285714 0.178572 1.464286
v -0.714286 0.178572 1.464286
v -1.285714 0.428572 1.607143
v -0.714286 0.178572 1.464286
v -0.714286 0.428572 1.607143
v -1.285714 0.428572 1.607143
v -1.285714 0.857143 1.285714
v -0.714286 0.857143 1.285714
v -1.285714 0.785714 1.000000
v -0.714286 0.857143 1.285714
v -0.714286 0.785714 1.000000
v -1.285714 0.785714 1.000000
v -1.285714 0.785714 1.000000
v -0.714286 0.785714 1.000000
v -1.285714 0.500000 0.857143
v -0.714286 0.785714 1.000000
v -0.714286 0.500000 0.857143
v -1.285714 0.500000 0.857143
v -1.285714 0.500000 0.857143
v -0.714286 0.500000 0.857143
v -1.285714 0.214286 0.928571
v -0.714286 0.500000 0.857143
v -0.714286 0.214286 0.928571
v -1.285714 0.214286 0.928571
v -1.285714 0.214286 0.928571
v -0.714286 0.214286 0.928571
v -1.285714 0.107143 1.214286
v -0.714286 0.214286 0.928571
v -0.714286 0.107143 1.214286
v -1.285714 0.107143 1.214286
v 1.285714 0.428572 1.607143
v 0.714286 0.428572 1.607143
v 1.285714 0.178572 1.464286
v 0.714286 0.428572 1.607143
v 0.714286 0.178572 1.464286
v 1.285714 0.178572 1.464286
v 1.285714 0.714286 1.535714
v 0.714286 0.714286 1.535714
v 1.285714 0.428572 1.607143
v 0.714286 0.714286 1.535714
v 0.714286 0.428572 1.607143
v 1.285714 0.428572 1.607143
v 1.285714 0.107143 1.214286
v 0.714286 0.107143 1.214286
v 1.285714 0.214286 0.928571
v 0.714286 0.107143 1.214286
v 0.714286 0.214286 0.928571
v 1.285714 0.214286 0.928571
v 1.285714 0.178572 1.464286
v 0.714286 0.178572 1.464286
v 1.285714 0.107143 1.214286
v 0.714286 0.178572 1.464286
v 0.714286 0.107143 1.214286
v 1.285714 0.107143 1.214286
v 1.285714 0.214286 0.928571
v 0.714286 0.214286 0.928571
v 1.285714 0.500000 0.857143
v 0.714286 0.214286 0.928571
v 0.714286 0.500000 0.857143
v 1.285714 0.500000 0.857143
v 1.285714 0.785714 1.000000
v 0.714286 0.785714 1.000000
v 1.285714 0.857143 1.285714
v 0.714286 0.785714 1.000000
v 0.714286 0.857143 1.285714
v 1.285714 0.857143 1.285714
v 1.285714 0.857143 1.285714
v 0.714286 0.857143 1.285714
v 1.285714 0.714286 1.535714
v 0.714286 0.857143 1.285714
v 0.714286 0.714286 1.535714
v 1.285714 0.714286 1.535714
v 1.285714 0.071429 1.607143
v 1.285714 0.071429 0.857143
v 1.285714 0.857143 1.607143
v 1.285714 0.071429 0.857143
v 1.285714 0.857143 0.857143
v 1.285714 0.857143 1.607143
v 1.285714 0.500000 0.857143
v 0.714286 0.500000 0.857143
v 1.285714 0.785714 1.000000
v 0.714286 0.500000 0.857143
v 0.714286 0.785714 1.000000
v 1.285714 0.785714 1.000000
v 0.714286 0.857143 1.607143
v 0.714286 0.857143 0.857143
v 0.714286 0.071429 1.607143
v 0.714286 0.857143 0.857143
v 0.714286 0.071429 0.857143
v 0.714286 0.071429 1.607143
v -1.107143 0.821429 -0.964286
v -1.107143 0.821429 -1.678571
v -1.107143 0.071429 -0.964286
v -1.107143 0.821429 -1.678571
v -1.107143 0.071429 -1.678571
v -1.107143 0.071429 -0.964286
v -0.678571 0.071429 -0.964286
v -0.678571 0.071429 -1.678571
v -0.678571 0.821429 -0.964286
v -0.678571 0.071429 -1.678571
v -0.678571 0.821429 -1.678571
v -0.678571 0.821429 -0.964286
v -1.107143 0.107143 -1.357143
v -0.678571 0.107143 -1.357143
v -1.107143 0.178571 -1.107143
v -0.678571 0.107143 -1.357143
v -0.678571 0.178571 -1.107143
v -1.107143 0.178571 -1.107143
v -1.107143 0.178571 -1.107143
v -0.678571 0.178571 -1.107143
v -1.107143 0.392857 -0.964286
v -0.678571 0.178571 -1.107143
v -0.678571 0.392857 -0.964286
v -1.107143 0.392857 -0.964286
v -1.107143 0.678571 -1.035714
v -0.678571 0.678571 -1.035714
v -1.107143 0.785714 -1.285714
v -0.678571 0.678571 -1.035714
v -0.678571 0.785714 -1.285714
v -1.107143 0.785714 -1.285714
v -1.107143 0.392857 -0.964286
v -0.678571 0.392857 -0.964286
v -1.107143 0.678571 -1.035714
v -0.678571 0.392857 -0.964286
v -0.678571 0.678571 -1.035714
v -1.107143 0.678571 -1.035714
v -1.107143 0.785714 -1.285714
v -0.678571 0.785714 -1.285714
v -1.107143 0.750000 -1.535714
v -0.678571 0.785714 -1.285714
v -0.678571 0.750000 -1.535714
v -1.107143 0.750000 -1.535714
v -1.107143 0.750000 -1.535714
v -0.678571 0.750000 -1.535714
v -1.107143 0.500000 -1.678571
v -0.678571 0.750000 -1.535714
v -0.678571 0.500000 -1.678571
v -1.107143 0.500000 -1.678571
v -1.107143 0.500000 -1.678571
v -0.678571 0.500000 -1.678571
v -1.107143 0.250000 -1.607143
v -0.678571 0.500000 -1.678571
v -0.678571 0.250000 -1.607143
v -1.107143 0.250000 -1.607143
v -1.107143 0.250000 -1.607143
v -0.678571 0.250000 -1.607143
v -1.107143 0.107143 -1.357143
v -0.678571 0.250000 -1.607143
v -0.678571 0.107143 -1.357143
v -1.107143 0.107143 -1.357143
v 0.678571 0.821429 -0.964286
v 0.678571 0.821429 -1.678571
v 0.678571 0.071429 -0.964286
v 0.678571 0.821429 -1.678571
v 0.678571 0.071429 -1.678571
v 0.678571 0.071429 -0.964286
v 1.107143 0.071429 -0.964286
v 1.107143 0.071429 -1.678571
v 1.107143 0.821429 -0.964286
v 1.107143 0.071429 -1.678571
v 1.107143 0.821429 -1.678571
v 1.107143 0.821429 -0.964286
v 1.107143 0.678571 -1.035714
v 0.678571 0.678571 -1.035714
v 1.107143 0.392857 -0.964286
v 0.678571 0.678571 -1.035714
v 0.678571 0.392857 -0.964286
v 1.107143 0.392857 -0.964286
v 1.107143 0.785714 -1.285714
v 0.678571 0.785714 -1.285714
v 1.107143 0.678571 -1.035714
v 0.678571 0.785714 -1.285714
v 0.678571 0.678571 -1.035714
v 1.107143 0.678571 -1.035714
v 1.107143 0.392857 -0.964286
v 0.678571 0.392857 -0.964286
v 1.107143 0.178571 -1.107143
v 0.678571 0.392857 -0.964286
v 0.678571 0.178571 -1.107143
v 1.107143 0.178571 -1.107143
v 1.107143 0.178571 -1.107143
v 0.678571 0.178571 -1.107143
v 1.107143 0.107143 -1.357143
v 0.678571 0.178571 -1.107143
v 0.678571 0.107143 -1.357143
v 1.107143 0.107143 -1.357143
v 1.107143 0.107143 -1.357143
v 0.678571 0.107143 -1.357143
v 1.107143 0.250000 -1.607143
v 0.678571 0.107143 -1.357143
v 0.678571 0.250000 -1.607143
v 1.107143 0.250000 -1.607143
v 1.107143 0.250000 -1.607143
v 0.678571 0.250000 -1.607143
v 1.107143 0.500000 -1.678571
v 0.678571 0.250000 -1.607143
v 0.678571 0.500000 -1.678571
v 1.107143 0.500000 -1.678571
v 1.107143 0.500000 -1.678571
v 0.678571 0.500000 -1.678571
v 1.107143 0.750000 -1.535714
v 0.678571 0.500000 -1.678571
v 0.678571 0.750000 -1.535714
v 1.107143 0.750000 -1.535714
v 1.107143 0.750000 -1.535714
v 0.678571 0.750000 -1.535714
v 1.107143 0.785714 -1.285714
v 0.678571 0.750000 -1.535714
v 0.678571 0.785714 -1.285714
v 1.107143 0.785714 -1.285714
v -1.285714 0.928572 1.535714
v -1.285714 0.785714 0.785714
v -1.285714 0.178572 1.678571
v -1.285714 0.785714 0.785714
v -1.285714 0.000000 0.964286
v -1.285714 0.178572 1.678571
v -0.714286 0.178572 1.678571
v -0.714286 0.000000 0.964286
v -0.714286 0.928572 1.535714
v -0.714286 0.000000 0.964286
v -0.714286 0.785714 0.785714
v -0.714286 0.928572 1.535714
v -1.285714 0.785715 1.464286
v -0.714286 0.785715 1.464286
v -1.285714 0.857143 1.214286
v -0.714286 0.785715 1.464286
v -0.714286 0.857143 1.214286
v -1.285714 0.857143 1.214286
v -1.285714 0.107143 1.285714
v -0.714286 0.107143 1.285714
v -1.285714 0.214286 1.535714
v -0.714286 0.107143 1.285714
v -0.714286 0.214286 1.535714
v -1.285714 0.214286 1.535714
v -1.285714 0.500000 1.607143
v -0.714286 0.500000 1.607143
v -1.285714 0.785715 1.464286
v -0.714286 0.500000 1.607143
v -0.714286 0.785715 1.464286
v -1.285714 0.785715 1.464286
v -1.285714 0.214286 1.535714
v -0.714286 0.214286 1.535714
v -1.285714 0.500000 1.607143
v -0.714286 0.214286 1.535714
v -0.714286 0.500000 1.607143
v -1.285714 0.500000 1.607143
v -1.285714 0.857143 1.214286
v -0.714286 0.857143 1.214286
v -1.285714 0.714286 0.928571
v -0.714286 0.857143 1.214286
v -0.714286 0.714286 0.928571
v -1.285714 0.714286 0.928571
v -1.285714 0.714286 0.928571
v -0.714286 0.714286 0.928571
v -1.285714 0.428572 0.857143
v -0.714286 0.714286 0.928571
v -0.714286 0.428572 0.857143
v -1.285714 0.428572 0.857143
v -1.285714 0.428572 0.857143
v -0.714286 0.428572 0.857143
v -1.285714 0.178572 1.000000
v -0.714286 0.428572 0.857143
v -0.714286 0.178572 1.000000
v -1.285714 0.178572 1.000000
v -1.285714 0.178572 1.000000
v -0.714286 0.178572 1.000000
v -1.285714 0.107143 1.285714
v -0.714286 0.178572 1.000000
v -0.714286 0.107143 1.285714
v -1.285714 0.107143 1.285714
v 1.285714 0.500000 1.607143
v 0.714286 0.500000 1.607143
v 1.285714 0.214286 1.535714
v 0.714286 0.500000 1.607143
v 0.714286 0.214286 1.535714
v 1.285714 0.214286 1.535714
v 1.285714 0.785715 1.464286
v 0.714286 0.785715 1.464286
v 1.285714 0.500000 1.607143
v 0.714286 0.785715 1.464286
v 0.714286 0.500000 1.607143
v 1.285714 0.500000 1.607143
v 1.285714 0.107143 1.285714
v 0.714286 0.107143 1.285714
v 1.285714 0.178572 1.000000
v 0.714286 0.107143 1.285714
v 0.714286 0.178572 1.000000
v 1.285714 0.178572 1.000000
v 1.285714 0.214286 1.535714
v 0.714286 0.214286 1.535714
v 1.285714 0.107143 1.285714
v 0.714286 0.214286 1.535714
v 0.714286 0.107143 1.285714
v 1.285714 0.107143 1.285714
v 1.285714 0.178572 1.000000
v 0.714286 0.178572 1.000000
v 1.285714 0.428572 0.857143
v 0.714286 0.178572 1.000000
v 0.714286 0.428572 0.857143
v 1.285714 0.428572 0.857143
v 1.285714 0.714286 0.928571
v 0.714286 0.714286 0.928571
v 1.285714 0.857143 1.214286
v 0.714286 0.714286 0.928571
v 0.714286 0.857143 1.214286
v 1.285714 0.857143 1.214286
v 1.285714 0.857143 1.214286
v 0.714286 0.857143 1.214286
v 1.285714 0.785715 1.464286
v 0.714286 0.857143 1.214286
v 0.714286 0.785715 1.464286
v 1.285714 0.785715 1.464286
v 1.285714 0.178572 1.678571
v 1.285714 0.000000 0.964286
v 1.285714 0.928572 1.535714
v 1.285714 0.000000 0.964286
v 1.285714 0.785714 0.785714
v 1.285714 0.928572 1.535714
v 1.285714 0.428572 0.857143
v 0.714286 0.428572 0.857143
v 1.285714 0.714286 0.928571
v 0.714286 0.428572 0.857143
v 0.714286 0.714286 0.928571
v 1.285714 0.714286 0.928571
v 0.714286 0.928572 1.535714
v 0.714286 0.785714 0.785714
v 0.714286 0.178572 1.678571
v 0.714286 0.785714 0.785714
v 0.714286 0.000000 0.964286
v 0.714286 0.178572 1.678571
v -1.107143 0.892857 -1.035714
v -1.107143 0.750000 -1.750000
v -1.107143 0.142857 -0.892857
v -1.107143 0.750000 -1.750000
v -1.107143 0.000000 -1.607143
v -1.107143 0.142857 -0.892857
v -0.678571 0.142857 -0.892857
v -0.678571 0.000000 -1.607143
v -0.678571 0.892857 -1.035714
v -0.678571 0.000000 -1.607143
v -0.678571 0.750000 -1.750000
v -0.678571 0.892857 -1.035714
v -1.107143 0.107143 -1.285714
v -0.678571 0.107143 -1.285714
v -1.107143 0.214286 -1.035714
v -0.678571 0.107143 -1.285714
v -0.678571 0.214286 -1.035714
v -1.107143 0.214286 -1.035714
v -1.107143 0.214286 -1.035714
v -0.678571 0.214286 -1.035714
v -1.107143 0.464286 -0.964286
v -0.678571 0.214286 -1.035714
v -0.678571 0.464286 -0.964286
v -1.107143 0.464286 -0.964286
v -1.107143 0.714286 -1.071429
v -0.678571 0.714286 -1.071429
v -1.107143 0.821429 -1.357143
v -0.678571 0.714286 -1.071429
v -0.678571 0.821429 -1.357143
v -1.107143 0.821429 -1.357143
v -1.107143 0.464286 -0.964286
v -0.678571 0.464286 -0.964286
v -1.107143 0.714286 -1.071429
v -0.678571 0.464286 -0.964286
v -0.678571 0.714286 -1.071429
v -1.107143 0.714286 -1.071429
v -1.107143 0.821429 -1.357143
v -0.678571 0.821429 -1.357143
v -1.107143 0.678571 -1.607143
v -0.678571 0.821429 -1.357143
v -0.678571 0.678571 -1.607143
v -1.107143 0.678571 -1.607143
v -1.107143 0.678571 -1.607143
v -0.678571 0.678571 -1.607143
v -1.107143 0.428571 -1.678571
v -0.678571 0.678571 -1.607143
v -0.678571 0.428571 -1.678571
v -1.107143 0.428571 -1.678571
v -1.107143 0.428571 -1.678571
v -0.678571 0.428571 -1.678571
v -1.107143 0.178571 -1.571429
v -0.678571 0.428571 -1.678571
v -0.678571 0.178571 -1.571429
v -1.107143 0.178571 -1.571429
v -1.107143 0.178571 -1.571429
v -0.678571 0.178571 -1.571429
v -1.107143 0.107143 -1.285714
v -0.678571 0.178571 -1.571429
v -0.678571 0.107143 -1.285714
v -1.107143 0.107143 -1.285714
v 0.678571 0.892857 -1.035714
v 0.678571 0.750000 -1.750000
v 0.678571 0.142857 -0.892857
v 0.678571 0.750000 -1.750000
v 0.678571 0.000000 -1.607143
v 0.678571 0.142857 -0.892857
v 1.107143 0.142857 -0.892857
v 1.107143 0.000000 -1.607143
v 1.107143 0.892857 -1.035714
v 1.107143 0.000000 -1.607143
v 1.107143 0.750000 -1.750000
v 1.107143 0.892857 -1.035714
v 1.107143 0.714286 -1.071429
v 0.678571 0.714286 -1.071429
v 1.107143 0.464286 -0.964286
v 0.678571 0.714286 -1.071429
v 0.678571 0.464286 -0.964286
v 1.107143 0.464286 -0.964286
v 1.107143 0.821429 -1.357143
v 0.678571 0.821429 -1.357143
v 1.107143 0.714286 -1.071429
v 0.678571 0.821429 -1.357143
v 0.678571 0.714286 -1.071429
v 1.107143 0.714286 -1.071429
v 1.107143 0.464286 -0.964286
v 0.678571 0.464286 -0.964286
v 1.107143 0.214286 -1.035714
v 0.678571 0.464286 -0.964286
v 0.678571 0.214286 -1.035714
v 1.107143 0.214286 -1.035714
v 1.107143 0.214286 -1.035714
v 0.678571 0.214286 -1.035714
v 1.107143 0.107143 -1.285714
v 0.678571 0.214286 -1.035714
v 0.678571 0.107143 -1.285714
v 1.107143 0.107143 -1.285714
v 1.107143 0.107143 -1.285714
v 0.678571 0.107143 -1.285714
v 1.107143 0.178571 -1.571429
v 0.678571 0.107143 -1.285714
v 0.678571 0.178571 -1.571429
v 1.107143 0.178571 -1.571429
v 1.107143 0.178571 -1.571429
v 0.678571 0.178571 -1.571429
v 1.107143 0.428571 -1.678571
v 0.678571 0.178571 -1.571429
v 0.678571 0.428571 -1.678571
v 1.107143 0.428571 -1.678571
v 1.107143 0.428571 -1.678571
v 0.678571 0.428571 -1.678571
v 1.107143 0.678571 -1.607143
v 0.678571 0.428571 -1.678571
v 0.678571 0.678571 -1.607143
v 1.107143 0.678571 -1.607143
v 1.107143 0.678571 -1.607143
v 0.678571 0.678571 -1.607143
v 1.107143 0.821429 -1.357143
v 0.678571 0.678571 -1.607143
v 0.678571 0.821429 -1.357143
v 1.107143 0.821429 -1.357143
v -1.285714 0.785715 1.678571
v -1.285714 0.928572 0.964286
v -1.285714 0.000000 1.535714
v -1.285714 0.928572 0.964286
v -1.285714 0.178572 0.785714
v -1.285714 0.000000 1.535714
v -0.714286 0.000000 1.535714
v -0.714286 0.178572 0.785714
v -0.714286 0.785715 1.678571
v -0.714286 0.178572 0.785714
v -0.714286 0.928572 0.964286
v -0.714286 0.785715 1.678571
v -1.285714 0.642857 1.571429
v -0.714286 0.642857 1.571429
v -1.285714 0.857143 1.357143
v -0.714286 0.642857 1.571429
v -0.714286 0.857143 1.357143
v -1.285714 0.857143 1.357143
v -1.285714 0.107143 1.107143
v -0.714286 0.107143 1.107143
v -1.285714 0.142857 1.428571
v -0.714286 0.107143 1.107143
v -0.714286 0.142857 1.428571
v -1.285714 0.142857 1.428571
v -1.285714 0.357143 1.607143
v -0.714286 0.357143 1.607143
v -1.285714 0.642857 1.571429
v -0.714286 0.357143 1.607143
v -0.714286 0.642857 1.571429
v -1.285714 0.642857 1.571429
v -1.285714 0.142857 1.428571
v -0.714286 0.142857 1.428571
v -1.285714 0.357143 1.607143
v -0.714286 0.142857 1.428571
v -0.714286 0.357143 1.607143
v -1.285714 0.357143 1.607143
v -1.285714 0.857143 1.357143
v -0.714286 0.857143 1.357143
v -1.285714 0.821429 1.071429
v -0.714286 0.857143 1.357143
v -0.714286 0.821429 1.071429
v -1.285714 0.821429 1.071429
v -1.285714 0.821429 1.071429
v -0.714286 0.821429 1.071429
v -1.285714 0.607143 0.857143
v -0.714286 0.821429 1.071429
v -0.714286 0.607143 0.857143
v -1.285714 0.607143 0.857143
v -1.285714 0.607143 0.857143
v -0.714286 0.607143 0.857143
v -1.285714 0.285714 0.892857
v -0.714286 0.607143 0.857143
v -0.714286 0.285714 0.892857
v -1.285714 0.285714 0.892857
v -1.285714 0.285714 0.892857
v -0.714286 0.285714 0.892857
v -1.285714 0.107143 1.107143
v -0.714286 0.285714 0.892857
v -0.714286 0.107143 1.107143
v -1.285714 0.107143 1.107143
v 1.285714 0.357143 1.607143
v 0.714286 0.357143 1.607143
v 1.285714 0.142857 1.428571
v 0.714286 0.357143 1.607143
v 0.714286 0.142857 1.428571
v 1.285714 0.142857 1.428571
v 1.285714 0.642857 1.571429
v 0.714286 0.642857 1.571429
v 1.285714 0.357143 1.607143
v 0.714286 0.642857 1.571429
v 0.714286 0.357143 1.607143
v 1.285714 0.357143 1.607143
v 1.285714 0.107143 1.107143
v 0.714286 0.107143 1.107143
v 1.285714 0.285714 0.892857
v 0.714286 0.107143 1.107143
v 0.714286 0.285714 0.892857
v 1.285714 0.285714 0.892857
v 1.285714 0.142857 1.428571
v 0.714286 0.142857 1.428571
v 1.285714 0.107143 1.107143
v 0.714286 0.142857 1.428571
v 0.714286 0.107143 1.107143
v 1.285714 0.107143 1.107143
v 1.285714 0.285714 0.892857
v 0.714286 0.285714 0.892857
v 1.285714 0.607143 0.857143
v 0.714286 0.285714 0.892857
v 0.714286 0.607143 0.857143
v 1.285714 0.607143 0.857143
v 1.285714 0.821429 1.071429
v 0.714286 0.821429 1.071429
v 1.285714 0.857143 1.357143
v 0.714286 0.821429 1.071429
v 0.714286 0.857143 1.357143
v 1.285714 0.857143 1.357143
v 1.285714 0.857143 1.357143
v 0.714286 0.857143 1.357143
v 1.285714 0.642857 1.571429
v 0.714286 0.857143 1.357143
v 0.714286 0.642857 1.571429
v 1.285714 0.642857 1.571429
v 1.285714 0.000000 1.535714
v 1.285714 0.178572 0.785714
v 1.285714 0.785715 1.678571
v 1.285714 0.178572 0.785714
v 1.285714 0.928572 0.964286
v 1.285714 0.785715 1.678571
v 1.285714 0.607143 0.857143
v 0.714286 0.607143 0.857143
v 1.285714 0.821429 1.071429
v 0.714286 0.607143 0.857143
v 0.714286 0.821429 1.071429
v 1.285714 0.821429 1.071429
v 0.714286 0.785715 1.678571
v 0.714286 0.928572 0.964286
v 0.714286 0.000000 1.535714
v 0.714286 0.928572 0.964286
v 0.714286 0.178572 0.785714
v 0.714286 0.000000 1.535714
v -1.107143 0.750000 -0.892857
v -1.107143 0.892857 -1.607143
v -1.107143 0.000000 -1.035714
v -1.107143 0.892857 -1.607143
v -1.107143 0.142857 -1.750000
v -1.107143 0.000000 -1.035714
v -0.678571 0.000000 -1.035714
v -0.678571 0.142857 -1.750000
v -0.678571 0.750000 -0.892857
v -0.678571 0.142857 -1.750000
v -0.678571 0.892857 -1.607143
v -0.678571 0.750000 -0.892857
v -1.107143 0.107143 -1.428571
v -0.678571 0.107143 -1.428571
v -1.107143 0.107143 -1.178571
v -0.678571 0.107143 -1.428571
v -0.678571 0.107143 -1.178571
v -1.107143 0.107143 -1.178571
v -1.107143 0.107143 -1.178571
v -0.678571 0.107143 -1.178571
v -1.107143 0.321429 -1.000000
v -0.678571 0.107143 -1.178571
v -0.678571 0.321429 -1.000000
v -1.107143 0.321429 -1.000000
v -1.107143 0.607143 -1.000000
v -0.678571 0.607143 -1.000000
v -1.107143 0.785714 -1.214286
v -0.678571 0.607143 -1.000000
v -0.678571 0.785714 -1.214286
v -1.107143 0.785714 -1.214286
v -1.107143 0.321429 -1.000000
v -0.678571 0.321429 -1.000000
v -1.107143 0.607143 -1.000000
v -0.678571 0.321429 -1.000000
v -0.678571 0.607143 -1.000000
v -1.107143 0.607143 -1.000000
v -1.107143 0.785714 -1.214286
v -0.678571 0.785714 -1.214286
v -1.107143 0.785714 -1.464286
v -0.678571 0.785714 -1.214286
v -0.678571 0.785714 -1.464286
v -1.107143 0.785714 -1.464286
v -1.107143 0.785714 -1.464286
v -0.678571 0.785714 -1.464286
v -1.107143 0.571429 -1.642857
v -0.678571 0.785714 -1.464286
v -0.678571 0.571429 -1.642857
v -1.107143 0.571429 -1.642857
v -1.107143 0.571429 -1.642857
v -0.678571 0.571429 -1.642857
v -1.107143 0.285714 -1.642857
v -0.678571 0.571429 -1.642857
v -0.678571 0.285714 -1.642857
v -1.107143 0.285714 -1.642857
v -1.107143 0.285714 -1.642857
v -0.678571 0.285714 -1.642857
v -1.107143 0.107143 -1.428571
v -0.678571 0.285714 -1.642857
v -0.678571 0.107143 -1.428571
v -1.107143 0.107143 -1.428571
v 0.678571 0.750000 -0.892857
v 0.678571 0.892857 -1.607143
v 0.678571 0.000000 -1.035714
v 0.678571 0.892857 -1.607143
v 0.678571 0.142857 -1.750000
v 0.678571 0.000000 -1.035714
v 1.107143 0.000000 -1.035714
v 1.107143 0.142857 -1.750000
v 1.107143 0.750000 -0.892857
v 1.107143 0.142857 -1.750000
v 1.107143 0.892857 -1.607143
v 1.107143 0.750000 -0.892857
v 1.107143 0.607143 -1.000000
v 0.678571 0.607143 -1.000000
v 1.107143 0.321429 -1.000000
v 0.678571 0.607143 -1.000000
v 0.678571 0.321429 -1.000000
v 1.107143 0.321429 -1.000000
v 1.107143 0.785714 -1.214286
v 0.678571 0.785714 -1.214286
v 1.107143 0.607143 -1.000000
v 0.678571 0.785714 -1.214286
v 0.678571 0.607143 -1.000000
v 1.107143 0.607143 -1.000000
v 1.107143 0.321429 -1.000000
v 0.678571 0.321429 -1.000000
v 1.107143 0.107143 -1.178571
v 0.678571 0.321429 -1.000000
v 0.678571 0.107143 -1.178571
v 1.107143 0.107143 -1.178571
v 1.107143 0.107143 -1.178571
v 0.678571 0.107143 -1.178571
v 1.107143 0.107143 -1.428571
v 0.678571 0.107143 -1.178571
v 0.678571 0.107143 -1.428571
v 1.107143 0.107143 -1.428571
v 1.107143 0.107143 -1.428571
v 0.678571 0.107143 -1.428571
v 1.107143 0.285714 -1.642857
v 0.678571 0.107143 -1.428571
v 0.678571 0.285714 -1.642857
v 1.107143 0.285714 -1.642857
v 1.107143 0.285714 -1.642857
v 0.678571 0.285714 -1.642857
v 1.107143 0.571429 -1.642857
v 0.678571 0.285714 -1.642857
v 0.678571 0.571429 -1.642857
v 1.107143 0.571429 -1.642857
v 1.107143 0.571429 -1.642857
v 0.678571 0.571429 -1.642857
v 1.107143 0.785714 -1.464286
v 0.678571 0.571429 -1.642857
v 0.678571 0.785714 -1.464286
v 1.107143 0.785714 -1.464286
v 1.107143 0.785714 -1.464286
v 0.678571 0.785714 -1.464286
v 1.107143 0.785714 -1.214286
v 0.678571 0.785714 -1.464286
v 0.678571 0.785714 -1.214286
v 1.107143 0.785714 -1.214286
vn -0.0000 -0.0000 1.0000
vn -0.2873 -0.0000 -0.9578
vn 0.9973 -0.0120 -0.0721
vn 0.9971 -0.0000 -0.0767
vn 0.8000 -0.0000 -0.6000
vn -0.0000 0.9950 -0.0995
vn -0.0000 0.9939 -0.1104
vn -0.0000 0.9945 -0.1047
vn -0.0000 0.9864 -0.1644
vn 0.2871 0.0410 -0.9570
vn 0.2631 -0.0000 -0.9648
vn -0.3596 0.8991 0.2497
vn -0.7435 0.5948 0.3057
vn 0.3596 0.8991 0.2497
vn 0.7435 0.5948 0.3057
vn -0.0000 -1.0000 -0.0000
vn -0.9615 -0.0000 -0.2747
vn 0.9520 -0.0000 -0.3060
vn -0.9970 -0.0128 -0.0767
vn -0.9975 -0.0000 -0.0712
vn -0.3939 0.9191 -0.0066
vn -0.3714 0.9285 -0.0000
vn -0.7672 0.6393 0.0511
vn -0.7800 0.6240 0.0468
vn -0.8616 0.4924 -0.1231
vn -0.7665 0.6387 -0.0672
vn -0.2733 0.9566 -0.1007
vn -0.3898 0.9096 -0.1436
vn -0.3563 0.8908 -0.2821
vn -0.2671 0.9349 -0.2337
vn -0.8305 0.4983 -0.2491
vn -0.8385 0.4791 -0.2595
vn -0.3489 0.8723 -0.3427
vn -0.8171 0.4902 -0.3035
vn 0.3489 0.8723 -0.3427
vn 0.7393 0.5914 -0.3221
vn 0.3618 0.9044 -0.2261
vn 0.2641 0.9244 -0.2751
vn 0.2716 0.9506 -0.1501
vn 0.3921 0.9149 -0.0963
vn 0.3939 0.9191 -0.0000
vn 0.3714 0.9284 -0.0093
vn 0.7507 0.6006 -0.2753
vn 0.7891 0.5636 -0.2442
vn -0.9864 -0.1644 -0.0000
vn 0.9864 -0.1644 -0.0000
vn 0.9975 -0.0000 -0.0712
vn 0.8122 0.5802 -0.0611
vn 0.6994 0.6994 -0.1472
vn 0.7067 0.7067 0.0353
vn 0.7775 0.6220 0.0933
vn -1.0000 -0.0000 -0.0000
vn 0.8742 -0.0000 0.4856
vn -0.8742 -0.0000 0.4856
vn -0.9988 -0.0000 -0.0499
vn -0.9785 -0.0000 -0.2060
vn -0.7682 -0.0000 -0.6402
vn 0.9785 -0.0000 -0.2060
vn 0.9988 -0.0000 -0.0499
vn 1.0000 -0.0000 -0.0000
vn -0.0000 1.0000 -0.0000
vn -0.0000 0.9701 -0.2425
vn -0.0000 -0.0000 -1.0000
vn 0.2873 -0.0000 0.9578
vn -0.9973 0.0120 0.0721
vn -0.9971 -0.0000 0.0767
vn -0.2871 -0.0410 0.9570
vn -0.2631 -0.0000 0.9648
vn 0.9970 0.0128 0.0767
vn 0.9975 -0.0000 0.0712
vn -0.0000 -0.9864 0.1644
vn 0.9864 0.1644 -0.0000
vn -0.9864 0.1644 -0.0000
vn -0.9975 -0.0000 0.0712
vn -0.0000 -0.9701 0.2425
vn -0.0000 0.8682 0.4961
vn -0.0000 -0.9615 0.2747
vn -0.0000 0.2425 0.9701
vn -0.0000 -0.4961 0.8682
vn -0.0000 0.4472 -0.8944
vn -0.0000 -0.2425 -0.9701
vn -0.0000 -0.9363 -0.3511
vn -0.0000 -0.5547 0.8321
vn -0.0000 0.9191 0.3939
vn -0.0000 0.9899 -0.1414
vn -0.0000 0.4961 -0.8682
vn -0.0000 -0.2747 -0.9615
vn -0.0000 -0.8682 -0.4961
vn -0.0000 0.9615 0.2747
vn -0.0000 -0.9191 0.3939
vn -0.0000 0.4472 0.8944
vn -0.0000 -0.2425 0.9701
vn -0.0000 0.8944 -0.4472
vn -0.0000 0.2425 -0.9701
vn -0.0000 -0.4961 -0.8682
vn -0.0000 -0.9701 -0.2425
vn -0.0000 -0.2747 0.9615
vn -0.0000 0.9363 0.3511
vn -0.0000 0.3939 0.9191
vn -0.0000 0.8682 -0.4961
vn -0.0000 0.2747 -0.9615
vn -0.0000 -0.3939 -0.9191
vn -0.0000 0.7071 0.7071
vn -0.0000 -0.9939 0.1104
vn -0.0000 0.1240 0.9923
vn -0.0000 -0.6402 0.7682
vn -0.0000 0.9923 -0.1240
vn -0.0000 0.7071 -0.7071
vn -0.0000 -0.1104 -0.9939
vn -0.0000 -0.7682 -0.6402
vn -0.0000 0.7682 0.6402
vn -0.0000 0.6402 -0.7682
vt 0.710938 -0.882812
vt 0.710938 -0.515625
vt 0.546875 -0.882812
vt 0.546875 -0.515625
vt 0.546875 -0.656250
vt 0.531250 -0.796875
vt 0.343750 -0.656250
vt 0.335938 -0.796875
vt 0.531250 -0.648438
vt 0.539062 -0.812500
vt 0.328125 -0.640625
vt 0.328125 -0.812500
vt 0.101562 -0.460938
vt 0.000000 -0.453125
vt 0.101562 -0.398438
vt 0.000000 -0.406250
vt 0.789062 -0.781250
vt 0.960938 -0.750000
vt 0.789062 -0.843750
vt 0.953125 -0.835938
vt 0.492188 -0.007812
vt 0.492188 -0.382812
vt 0.664062 0.000000
vt 0.664062 -0.390625
vt 0.820312 -0.085938
vt 0.820312 -0.304688
vt 0.335938 -0.039062
vt 0.335938 -0.351562
vt 0.234375 -0.125000
vt 0.234375 -0.265625
vt 0.820312 -0.195312
vt 0.664062 -0.195312
vt 0.664062 -0.242188
vt 0.664062 -0.273438
vt 0.664062 -0.148438
vt 0.664062 -0.117188
vt 0.781250 -0.890625
vt 0.765625 -0.906250
vt 0.789062 -0.906250
vt 1.218750 -0.921875
vt 0.984375 -0.953125
vt 1.226562 -0.976562
vt 0.992188 -0.976562
vt 0.101562 -0.375000
vt 0.101562 -0.218750
vt 0.007812 -0.367188
vt 0.007812 -0.195312
vt 0.007812 -0.023438
vt 0.101562 -0.015625
vt 0.101562 -0.171875
vt 0.492188 -0.257812
vt 0.492188 -0.195312
vt 0.492188 -0.304688
vt 0.335938 -0.296875
vt 0.335938 -0.250000
vt 0.335938 -0.195312
vt 0.234375 -0.234375
vt 0.234375 -0.195312
vt 0.000000 -0.195312
vt 0.234375 -0.156250
vt 0.335938 -0.140625
vt 0.492188 -0.132812
vt 0.335938 -0.093750
vt 0.671875 -0.625000
vt 0.578125 -0.625000
vt 0.679688 -0.671875
vt 0.578125 -0.679688
vt 0.671875 -0.554688
vt 0.585938 -0.554688
vt 0.679688 -0.851562
vt 0.593750 -0.851562
vt 0.492188 -0.085938
vt 0.992188 -0.453125
vt 0.921875 -0.484375
vt 0.937500 -0.570312
vt 0.867188 -0.570312
vt 0.093750 -0.992188
vt 0.289062 -0.976562
vt 0.085938 -0.843750
vt 0.289062 -0.851562
vt 0.804688 -0.843750
vt 0.648438 -0.859375
vt 0.812500 -0.976562
vt 0.656250 -0.976562
vt 0.765625 -0.960938
vt 0.796875 -0.960938
vt 0.750000 -0.945312
vt 0.812500 -0.945312
vt 0.750000 -0.929688
vt 0.812500 -0.929688
vt 0.484375 -0.976562
vt 0.476562 -0.875000
vt 0.320312 -0.976562
vt 0.320312 -0.898438
vt 0.718750 -0.890625
vt 0.507812 -0.867188
vt 0.718750 -0.968750
vt 0.515625 -0.976562
vt 0.750000 -0.914062
vt 0.804688 -0.914062
vt 0.859375 -0.406250
vt 0.968750 -0.375000
vt 0.875000 -0.375000
vt 0.976562 -0.375000
vt 0.960938 -0.437500
vt 0.843750 -0.437500
vt 0.960938 -0.406250
vt 0.953125 -0.375000
vt 0.859375 -0.367188
vt 0.976562 -0.437500
vt 0.867188 -0.437500
vt 0.351562 -0.500000
vt 0.351562 -0.414062
vt 0.812500 -0.500000
vt 0.812500 -0.414062
vt 0.882812 -0.039062
vt 0.882812 -0.351562
vt 0.984375 -0.039062
vt 0.984375 -0.351562
vt 0.312500 -0.484375
vt 0.007812 -0.484375
vt 0.312500 -0.789062
vt 0.007812 -0.789062
vt 0.742188 -0.734375
vt 0.976562 -0.734375
vt 0.742188 -0.609375
vt 0.976562 -0.601562
vt 0.734375 -0.742188
vt 0.992188 -0.734375
vt 0.734375 -0.593750
vt 0.992188 -0.585938
s 1
usemtl material_img_0.008
f 1/1/1 2/2/1 3/3/1
f 4/2/1 5/4/1 6/3/1
f 7/5/1 8/6/1 9/7/1
f 10/6/1 11/8/1 12/7/1
f 13/9/2 14/10/2 15/11/2
f 16/10/2 17/12/2 18/11/2
f 19/13/3 20/14/3 21/15/3
f 22/14/4 23/16/4 24/15/4
f 25/17/5 26/18/5 27/19/5
f 28/18/5 29/20/5 30/19/5
f 31/21/6 32/22/6 33/23/6
f 34/22/6 35/24/6 36/23/6
f 37/23/7 38/24/7 39/25/7
f 40/24/7 41/26/7 42/25/7
f 43/27/8 44/28/8 45/21/8
f 46/28/8 47/22/8 48/21/8
f 49/29/9 50/30/9 51/27/9
f 52/30/9 53/28/9 54/27/9
f 55/7/1 56/8/1 57/5/1
f 58/8/1 59/6/1 60/5/1
f 61/11/10 62/12/10 63/9/10
f 64/12/11 65/10/11 66/9/11
f 67/31/12 68/32/12 69/33/12
f 70/31/13 71/33/13 72/34/13
f 73/32/14 74/31/14 75/35/14
f 76/35/15 77/31/15 78/36/15
f 79/37/16 80/38/16 81/39/16
f 82/40/17 83/41/17 84/42/17
f 85/41/17 86/43/17 87/42/17
f 88/41/18 89/40/18 90/43/18
f 91/40/18 92/42/18 93/43/18
f 94/15/19 95/16/19 96/13/19
f 97/16/20 98/14/20 99/13/20
f 100/44/9 101/45/9 102/46/9
f 103/45/9 104/47/9 105/46/9
f 106/48/9 107/47/9 108/49/9
f 109/47/9 110/50/9 111/49/9
f 112/51/21 113/33/21 114/52/21
f 115/33/22 116/32/22 117/52/22
f 118/53/23 119/34/23 120/51/23
f 121/34/24 122/33/24 123/51/24
f 124/54/25 125/53/25 126/55/25
f 127/53/26 128/51/26 129/55/26
f 130/55/27 131/51/27 132/56/27
f 133/51/28 134/52/28 135/56/28
f 136/57/29 137/55/29 138/58/29
f 139/55/30 140/56/30 141/58/30
f 142/30/31 143/54/31 144/57/31
f 145/54/32 146/55/32 147/57/32
f 148/57/33 149/58/33 150/59/33
f 151/30/34 152/57/34 153/59/34
f 154/58/35 155/60/35 156/59/35
f 157/60/36 158/29/36 159/59/36
f 160/58/37 161/56/37 162/60/37
f 163/56/38 164/61/38 165/60/38
f 166/56/39 167/52/39 168/61/39
f 169/52/40 170/62/40 171/61/40
f 172/52/41 173/32/41 174/62/41
f 175/32/42 176/35/42 177/62/42
f 178/60/43 179/61/43 180/29/43
f 181/61/44 182/63/44 183/29/44
f 184/64/45 185/65/45 186/66/45
f 187/65/45 188/67/45 189/66/45
f 190/68/20 191/69/20 192/70/20
f 193/69/20 194/71/20 195/70/20
f 196/66/46 197/67/46 198/64/46
f 199/67/46 200/65/46 201/64/46
f 202/70/47 203/71/47 204/68/47
f 205/71/47 206/69/47 207/68/47
f 208/61/48 209/62/48 210/63/48
f 211/62/49 212/72/49 213/63/49
f 214/62/50 215/35/50 216/72/50
f 217/35/51 218/36/51 219/72/51
f 220/73/52 221/74/52 222/75/52
f 223/74/52 224/76/52 225/75/52
f 226/77/53 227/78/53 228/79/53
f 229/78/53 230/80/53 231/79/53
f 232/81/54 233/82/54 234/83/54
f 235/82/54 236/84/54 237/83/54
f 238/85/16 239/86/16 240/87/16
f 241/86/16 242/88/16 243/87/16
f 244/87/16 245/88/16 246/89/16
f 247/88/16 248/90/16 249/89/16
f 250/91/55 251/84/55 252/92/55
f 253/84/55 254/82/55 255/92/55
f 256/93/56 257/91/56 258/94/56
f 259/91/56 260/92/56 261/94/56
f 262/19/57 263/20/57 264/17/57
f 265/20/57 266/18/57 267/17/57
f 268/95/58 269/96/58 270/97/58
f 271/96/58 272/98/58 273/97/58
f 274/96/59 275/80/59 276/98/59
f 277/80/59 278/78/59 279/98/59
f 280/99/16 281/100/16 282/38/16
f 283/100/16 284/39/16 285/38/16
f 286/89/16 287/90/16 288/99/16
f 289/90/16 290/100/16 291/99/16
f 292/101/52 293/102/52 294/103/52
f 295/104/52 296/101/52 297/105/52
f 298/101/52 299/106/52 300/105/52
f 301/107/60 302/108/60 303/109/60
f 304/110/60 305/107/60 306/111/60
f 307/107/60 308/109/60 309/111/60
f 310/112/60 311/113/60 312/114/60
f 313/113/60 314/115/60 315/114/60
f 316/112/61 317/113/61 318/114/61
f 319/113/61 320/115/61 321/114/61
f 322/114/61 323/115/61 324/112/61
f 325/115/61 326/113/61 327/112/61
f 328/114/52 329/115/52 330/112/52
f 331/115/52 332/113/52 333/112/52
f 334/116/62 335/117/62 336/118/62
f 337/117/62 338/119/62 339/118/62
f 340/5/63 341/7/63 342/6/63
f 343/7/63 344/8/63 345/6/63
f 346/9/64 347/11/64 348/10/64
f 349/11/64 350/12/64 351/10/64
f 352/13/65 353/15/65 354/14/65
f 355/15/66 356/16/66 357/14/66
f 358/7/63 359/5/63 360/8/63
f 361/5/63 362/6/63 363/8/63
f 364/11/67 365/9/67 366/12/67
f 367/9/68 368/10/68 369/12/68
f 370/15/69 371/13/69 372/16/69
f 373/13/70 374/14/70 375/16/70
f 376/44/71 377/46/71 378/45/71
f 379/46/71 380/47/71 381/45/71
f 382/48/71 383/49/71 384/47/71
f 385/49/71 386/50/71 387/47/71
f 388/64/72 389/66/72 390/65/72
f 391/66/72 392/67/72 393/65/72
f 394/68/70 395/70/70 396/69/70
f 397/70/70 398/71/70 399/69/70
f 400/66/73 401/64/73 402/67/73
f 403/64/73 404/65/73 405/67/73
f 406/70/74 407/68/74 408/71/74
f 409/68/74 410/69/74 411/71/74
f 412/73/60 413/75/60 414/74/60
f 415/75/60 416/76/60 417/74/60
f 418/103/60 419/102/60 420/101/60
f 421/104/60 422/105/60 423/101/60
f 424/105/60 425/106/60 426/101/60
f 427/109/52 428/108/52 429/107/52
f 430/110/52 431/111/52 432/107/52
f 433/111/52 434/109/52 435/107/52
f 436/112/52 437/114/52 438/113/52
f 439/114/52 440/115/52 441/113/52
f 442/112/16 443/114/16 444/113/16
f 445/114/16 446/115/16 447/113/16
f 448/114/16 449/112/16 450/115/16
f 451/112/16 452/113/16 453/115/16
f 454/114/60 455/112/60 456/115/60
f 457/112/60 458/113/60 459/115/60
f 460/116/75 461/118/75 462/117/75
f 463/118/75 464/119/75 465/117/75
f 466/120/52 467/121/52 468/122/52
f 469/121/52 470/123/52 471/122/52
f 472/122/60 473/123/60 474/120/60
f 475/123/60 476/121/60 477/120/60
f 478/124/76 479/125/76 480/126/76
f 481/125/76 482/127/76 483/126/76
f 484/124/77 485/125/77 486/126/77
f 487/125/77 488/127/77 489/126/77
f 490/124/78 491/125/78 492/126/78
f 493/125/78 494/127/78 495/126/78
f 496/124/79 497/125/79 498/126/79
f 499/125/79 500/127/79 501/126/79
f 502/124/62 503/125/62 504/126/62
f 505/125/62 506/127/62 507/126/62
f 508/124/80 509/125/80 510/126/80
f 511/125/80 512/127/80 513/126/80
f 514/124/81 515/125/81 516/126/81
f 517/125/81 518/127/81 519/126/81
f 520/124/82 521/125/82 522/126/82
f 523/125/82 524/127/82 525/126/82
f 526/126/79 527/127/79 528/124/79
f 529/127/79 530/125/79 531/124/79
f 532/126/78 533/127/78 534/124/78
f 535/127/78 536/125/78 537/124/78
f 538/126/82 539/127/82 540/124/82
f 541/127/82 542/125/82 543/124/82
f 544/126/77 545/127/77 546/124/77
f 547/127/77 548/125/77 549/124/77
f 550/126/81 551/127/81 552/124/81
f 553/127/81 554/125/81 555/124/81
f 556/126/62 557/127/62 558/124/62
f 559/127/62 560/125/62 561/124/62
f 562/126/76 563/127/76 564/124/76
f 565/127/76 566/125/76 567/124/76
f 568/122/60 569/123/60 570/120/60
f 571/123/60 572/121/60 573/120/60
f 574/126/80 575/127/80 576/124/80
f 577/127/80 578/125/80 579/124/80
f 580/120/52 581/121/52 582/122/52
f 583/121/52 584/123/52 585/122/52
f 586/120/52 587/121/52 588/122/52
f 589/121/52 590/123/52 591/122/52
f 592/122/60 593/123/60 594/120/60
f 595/123/60 596/121/60 597/120/60
f 598/128/77 599/129/77 600/130/77
f 601/129/77 602/131/77 603/130/77
f 604/128/83 605/129/83 606/130/83
f 607/129/83 608/131/83 609/130/83
f 610/128/84 611/129/84 612/130/84
f 613/129/84 614/131/84 615/130/84
f 616/128/78 617/129/78 618/130/78
f 619/129/78 620/131/78 621/130/78
f 622/128/85 623/129/85 624/130/85
f 625/129/85 626/131/85 627/130/85
f 628/128/86 629/129/86 630/130/86
f 631/129/86 632/131/86 633/130/86
f 634/128/87 635/129/87 636/130/87
f 637/129/87 638/131/87 639/130/87
f 640/128/88 641/129/88 642/130/88
f 643/129/88 644/131/88 645/130/88
f 646/120/52 647/121/52 648/122/52
f 649/121/52 650/123/52 651/122/52
f 652/122/60 653/123/60 654/120/60
f 655/123/60 656/121/60 657/120/60
f 658/130/78 659/131/78 660/128/78
f 661/131/78 662/129/78 663/128/78
f 664/130/84 665/131/84 666/128/84
f 667/131/84 668/129/84 669/128/84
f 670/130/83 671/131/83 672/128/83
f 673/131/83 674/129/83 675/128/83
f 676/130/77 677/131/77 678/128/77
f 679/131/77 680/129/77 681/128/77
f 682/130/88 683/131/88 684/128/88
f 685/131/88 686/129/88 687/128/88
f 688/130/87 689/131/87 690/128/87
f 691/131/87 692/129/87 693/128/87
f 694/130/86 695/131/86 696/128/86
f 697/131/86 698/129/86 699/128/86
f 700/130/85 701/131/85 702/128/85
f 703/131/85 704/129/85 705/128/85
f 706/120/52 707/121/52 708/122/52
f 709/121/52 710/123/52 711/122/52
f 712/122/60 713/123/60 714/120/60
f 715/123/60 716/121/60 717/120/60
f 718/124/89 719/125/89 720/126/89
f 721/125/89 722/127/89 723/126/89
f 724/124/90 725/125/90 726/126/90
f 727/125/90 728/127/90 729/126/90
f 730/124/91 731/125/91 732/126/91
f 733/125/91 734/127/91 735/126/91
f 736/124/92 737/125/92 738/126/92
f 739/125/92 740/127/92 741/126/92
f 742/124/93 743/125/93 744/126/93
f 745/125/93 746/127/93 747/126/93
f 748/124/94 749/125/94 750/126/94
f 751/125/94 752/127/94 753/126/94
f 754/124/95 755/125/95 756/126/95
f 757/125/95 758/127/95 759/126/95
f 760/124/96 761/125/96 762/126/96
f 763/125/96 764/127/96 765/126/96
f 766/126/92 767/127/92 768/124/92
f 769/127/92 770/125/92 771/124/92
f 772/126/91 773/127/91 774/124/91
f 775/127/91 776/125/91 777/124/91
f 778/126/96 779/127/96 780/124/96
f 781/127/96 782/125/96 783/124/96
f 784/126/90 785/127/90 786/124/90
f 787/127/90 788/125/90 789/124/90
f 790/126/95 791/127/95 792/124/95
f 793/127/95 794/125/95 795/124/95
f 796/126/93 797/127/93 798/124/93
f 799/127/93 800/125/93 801/124/93
f 802/126/89 803/127/89 804/124/89
f 805/127/89 806/125/89 807/124/89
f 808/122/60 809/123/60 810/120/60
f 811/123/60 812/121/60 813/120/60
f 814/126/94 815/127/94 816/124/94
f 817/127/94 818/125/94 819/124/94
f 820/120/52 821/121/52 822/122/52
f 823/121/52 824/123/52 825/122/52
f 826/120/52 827/121/52 828/122/52
f 829/121/52 830/123/52 831/122/52
f 832/122/60 833/123/60 834/120/60
f 835/123/60 836/121/60 837/120/60
f 838/128/90 839/129/90 840/130/90
f 841/129/90 842/131/90 843/130/90
f 844/128/97 845/129/97 846/130/97
f 847/129/97 848/131/97 849/130/97
f 850/128/98 851/129/98 852/130/98
f 853/129/98 854/131/98 855/130/98
f 856/128/99 857/129/99 858/130/99
f 859/129/99 860/131/99 861/130/99
f 862/128/100 863/129/100 864/130/100
f 865/129/100 866/131/100 867/130/100
f 868/128/101 869/129/101 870/130/101
f 871/129/101 872/131/101 873/130/101
f 874/128/102 875/129/102 876/130/102
f 877/129/102 878/131/102 879/130/102
f 880/128/96 881/129/96 882/130/96
f 883/129/96 884/131/96 885/130/96
f 886/120/52 887/121/52 888/122/52
f 889/121/52 890/123/52 891/122/52
f 892/122/60 893/123/60 894/120/60
f 895/123/60 896/121/60 897/120/60
f 898/130/99 899/131/99 900/128/99
f 901/131/99 902/129/99 903/128/99
f 904/130/98 905/131/98 906/128/98
f 907/131/98 908/129/98 909/128/98
f 910/130/97 911/131/97 912/128/97
f 913/131/97 914/129/97 915/128/97
f 916/130/90 917/131/90 918/128/90
f 919/131/90 920/129/90 921/128/90
f 922/130/96 923/131/96 924/128/96
f 925/131/96 926/129/96 927/128/96
f 928/130/102 929/131/102 930/128/102
f 931/131/102 932/129/102 933/128/102
f 934/130/101 935/131/101 936/128/101
f 937/131/101 938/129/101 939/128/101
f 940/130/100 941/131/100 942/128/100
f 943/131/100 944/129/100 945/128/100
f 946/120/52 947/121/52 948/122/52
f 949/121/52 950/123/52 951/122/52
f 952/122/60 953/123/60 954/120/60
f 955/123/60 956/121/60 957/120/60
f 958/124/103 959/125/103 960/126/103
f 961/125/103 962/127/103 963/126/103
f 964/124/104 965/125/104 966/126/104
f 967/125/104 968/127/104 969/126/104
f 970/124/105 971/125/105 972/126/105
f 973/125/105 974/127/105 975/126/105
f 976/124/106 977/125/106 978/126/106
f 979/125/106 980/127/106 981/126/106
f 982/124/107 983/125/107 984/126/107
f 985/125/107 986/127/107 987/126/107
f 988/124/108 989/125/108 990/126/108
f 991/125/108 992/127/108 993/126/108
f 994/124/109 995/125/109 996/126/109
f 997/125/109 998/127/109 999/126/109
f 1000/124/110 1001/125/110 1002/126/110
f 1003/125/110 1004/127/110 1005/126/110
f 1006/126/106 1007/127/106 1008/124/106
f 1009/127/106 1010/125/106 1011/124/106
f 1012/126/105 1013/127/105 1014/124/105
f 1015/127/105 1016/125/105 1017/124/105
f 1018/126/110 1019/127/110 1020/124/110
f 1021/127/110 1022/125/110 1023/124/110
f 1024/126/104 1025/127/104 1026/124/104
f 1027/127/104 1028/125/104 1029/124/104
f 1030/126/109 1031/127/109 1032/124/109
f 1033/127/109 1034/125/109 1035/124/109
f 1036/126/107 1037/127/107 1038/124/107
f 1039/127/107 1040/125/107 1041/124/107
f 1042/126/103 1043/127/103 1044/124/103
f 1045/127/103 1046/125/103 1047/124/103
f 1048/122/60 1049/123/60 1050/120/60
f 1051/123/60 1052/121/60 1053/120/60
f 1054/126/108 1055/127/108 1056/124/108
f 1057/127/108 1058/125/108 1059/124/108
f 1060/120/52 1061/121/52 1062/122/52
f 1063/121/52 1064/123/52 1065/122/52
f 1066/120/52 1067/121/52 1068/122/52
f 1069/121/52 1070/123/52 1071/122/52
f 1072/122/60 1073/123/60 1074/120/60
f 1075/123/60 1076/121/60 1077/120/60
f 1078/128/16 1079/129/16 1080/130/16
f 1081/129/16 1082/131/16 1083/130/16
f 1084/128/106 1085/129/106 1086/130/106
f 1087/129/106 1088/131/106 1089/130/106
f 1090/128/111 1091/129/111 1092/130/111
f 1093/129/111 1094/131/111 1095/130/111
f 1096/128/1 1097/129/1 1098/130/1
f 1099/129/1 1100/131/1 1101/130/1
f 1102/128/61 1103/129/61 1104/130/61
f 1105/129/61 1106/131/61 1107/130/61
f 1108/128/112 1109/129/112 1110/130/112
f 1111/129/112 1112/131/112 1113/130/112
f 1114/128/63 1115/129/63 1116/130/63
f 1117/129/63 1118/131/63 1119/130/63
f 1120/128/110 1121/129/110 1122/130/110
f 1123/129/110 1124/131/110 1125/130/110
f 1126/120/52 1127/121/52 1128/122/52
f 1129/121/52 1130/123/52 1131/122/52
f 1132/122/60 1133/123/60 1134/120/60
f 1135/123/60 1136/121/60 1137/120/60
f 1138/130/1 1139/131/1 1140/128/1
f 1141/131/1 1142/129/1 1143/128/1
f 1144/130/111 1145/131/111 1146/128/111
f 1147/131/111 1148/129/111 1149/128/111
f 1150/130/106 1151/131/106 1152/128/106
f 1153/131/106 1154/129/106 1155/128/106
f 1156/130/16 1157/131/16 1158/128/16
f 1159/131/16 1160/129/16 1161/128/16
f 1162/130/110 1163/131/110 1164/128/110
f 1165/131/110 1166/129/110 1167/128/110
f 1168/130/63 1169/131/63 1170/128/63
f 1171/131/63 1172/129/63 1173/128/63
f 1174/130/112 1175/131/112 1176/128/112
f 1177/131/112 1178/129/112 1179/128/112
f 1180/130/61 1181/131/61 1182/128/61
f 1183/131/61 1184/129/61 1185/128/61
