# Blender 5.1.2
# www.blender.org
mtllib Minion.mtl
o Minion
v -0.375000 1.928571 -0.696429
v -0.267857 1.982143 -0.696429
v -0.267857 1.928571 -0.696429
v -0.321429 1.892857 -0.696429
v -0.375000 1.982143 -0.696429
v -0.321429 2.000000 -0.696429
v -0.375000 1.946429 -0.071429
v -0.321429 1.928571 -0.071429
v -0.267857 1.946429 -0.071429
v -0.267857 2.000000 -0.071429
v -0.321429 2.035714 -0.089286
v -0.375000 2.000000 -0.071429
v 0.375000 1.946429 -0.071429
v 0.375000 1.928571 -0.696429
v 0.375000 1.982143 -0.696429
v 0.375000 2.000000 -0.071429
v 0.321429 2.000000 -0.696429
v 0.321429 2.035714 -0.089286
v 0.267857 1.982143 -0.696429
v 0.267857 2.000000 -0.071429
v 0.267857 1.928571 -0.696429
v 0.267857 1.946429 -0.071429
v 0.321429 1.892857 -0.696429
v 0.321429 1.928571 -0.071429
v -0.321429 2.089286 0.196429
v -0.321429 2.089286 -0.089286
v -0.428571 1.892857 -0.089286
v -0.428571 1.892857 0.303571
v -0.214286 1.892857 0.303571
v -0.214286 1.892857 -0.089286
v 0.214286 1.892857 -0.089286
v 0.321429 2.089286 -0.089286
v 0.428571 1.892857 -0.089286
v 0.428571 1.892857 0.303571
v 0.321429 2.089286 0.196429
v 0.214286 1.892857 0.303571
v 0.107143 1.678571 -0.410714
v 0.053571 1.660714 -1.285714
v 0.053571 1.714286 -1.285714
v 0.107143 1.785714 -0.339286
v 0.000000 1.732143 -1.285714
v 0.000000 1.857143 -0.321429
v 0.000000 1.607143 -0.428571
v 0.000000 1.625000 -1.285714
v -0.107143 1.785714 -0.339286
v -0.053571 1.714286 -1.285714
v -0.053571 1.660714 -1.285714
v -0.107143 1.678571 -0.410714
v 0.214286 1.892857 -0.303571
v -0.214286 1.892857 -0.303571
v -0.517857 1.892857 -0.000000
v 0.517857 1.892857 0.000000
v -0.517857 1.892857 0.428571
v 0.517857 1.892857 0.428571
v 0.214286 1.892857 0.732143
v -0.214286 1.892857 0.732143
v 0.267857 1.571429 -0.464286
v -0.267857 1.571429 -0.464286
v 0.678572 1.571429 -0.053571
v 0.678572 1.571429 0.482143
v 0.267857 1.571429 0.892857
v -0.267857 1.571429 0.892857
v -0.678572 1.571429 0.482143
v -0.678572 1.571429 -0.053571
v -0.750000 1.571429 -0.750000
v -0.964286 1.142857 -2.250000
v -0.964286 1.142857 -0.750000
v -0.964286 1.142857 0.750000
v -0.750000 1.571429 0.750000
v -0.964286 1.142857 2.250000
v -0.750000 1.571429 1.821429
v 0.750000 1.571429 1.821429
v 0.964286 1.142857 2.250000
v 0.750000 1.571429 0.750000
v 0.964286 1.142857 0.750000
v 0.750000 1.571429 -0.750000
v 0.964286 1.142857 -0.750000
v 0.964286 1.142857 -2.250000
v -0.892857 1.071429 2.196429
v -0.678572 1.071429 2.196429
v -0.678572 1.142857 2.196429
v -0.892857 1.142857 2.196429
v -0.892857 1.142857 2.125000
v -0.678572 1.142857 2.125000
v -0.678572 1.071429 2.125000
v -0.892857 1.071429 2.125000
v 0.892857 1.071429 2.196429
v 0.678572 1.071429 2.196429
v 0.678572 1.071429 2.125000
v 0.892857 1.071429 2.125000
v 0.678572 1.142857 2.196429
v 0.678572 1.142857 2.125000
v 0.892857 1.142857 2.125000
v 0.892857 1.142857 2.196429
v -0.892857 1.071429 -2.196429
v -0.678572 1.071429 -2.196429
v -0.678572 1.071429 -2.125000
v -0.892857 1.071429 -2.125000
v -0.678572 1.142857 -2.196429
v -0.678572 1.142857 -2.125000
v -0.892857 1.142857 -2.125000
v -0.892857 1.142857 -2.196429
v 0.892857 1.071429 -2.196429
v 0.678572 1.071429 -2.196429
v 0.678572 1.142857 -2.196429
v 0.892857 1.142857 -2.196429
v 0.892857 1.142857 -2.125000
v 0.678572 1.142857 -2.125000
v 0.678572 1.071429 -2.125000
v 0.892857 1.071429 -2.125000
v -0.589286 0.392857 1.285714
v -0.589286 0.392857 -1.285714
v 0.589286 0.392857 -1.285714
v 0.589286 0.392857 1.285714
v 0.589286 1.142857 -2.035714
v 0.589286 1.142857 2.035714
v -0.589286 1.142857 2.035714
v -0.589286 1.142857 -2.035714
v -0.964286 1.142857 2.250000
v -0.964286 1.142857 -2.250000
v 0.964286 1.142857 -2.250000
v 0.964286 1.142857 2.250000
v 0.964286 0.017857 -1.178571
v 0.642857 0.017857 -1.178571
v 0.642857 0.160714 -1.517857
v 0.964286 0.160714 -1.517857
v 0.964286 0.160714 -0.839286
v 0.642857 0.160714 -0.839286
v 0.964286 0.500000 -0.696429
v 0.642857 0.500000 -0.696429
v 0.964286 0.839286 -0.839286
v 0.642857 0.839286 -0.839286
v 0.964286 0.982143 -1.178571
v 0.642857 0.982143 -1.178571
v 0.964286 0.839286 -1.517857
v 0.642857 0.839286 -1.517857
v 0.964286 0.500000 -1.660714
v 0.642857 0.500000 -1.660714
v 0.964286 1.000000 -0.678572
v 0.964286 0.000000 -0.678572
v 0.964286 0.000000 -1.678571
v 0.964286 1.000000 -1.678571
v 0.642857 1.000000 -1.678571
v 0.642857 0.000000 -1.678571
v 0.642857 0.000000 -0.678572
v 0.642857 1.000000 -0.678572
v 0.964286 0.017857 0.000000
v 0.642857 0.017857 0.000000
v 0.642857 0.160714 -0.339286
v 0.964286 0.160714 -0.339286
v 0.964286 0.160714 0.339286
v 0.642857 0.160714 0.339286
v 0.964286 0.500000 0.482143
v 0.642857 0.500000 0.482143
v 0.964286 0.839286 0.339286
v 0.642857 0.839286 0.339286
v 0.964286 0.982143 0.000000
v 0.642857 0.982143 0.000000
v 0.964286 0.839286 -0.339286
v 0.642857 0.839286 -0.339286
v 0.964286 0.500000 -0.482143
v 0.642857 0.500000 -0.482143
v 0.964286 1.000000 0.500000
v 0.964286 0.000000 0.500000
v 0.964286 0.000000 -0.500000
v 0.964286 1.000000 -0.500000
v 0.642857 1.000000 -0.500000
v 0.642857 0.000000 -0.500000
v 0.642857 0.000000 0.500000
v 0.642857 1.000000 0.500000
v 0.964286 0.017857 1.178571
v 0.642857 0.017857 1.178571
v 0.642857 0.160714 0.839286
v 0.964286 0.160714 0.839286
v 0.964286 0.160714 1.517857
v 0.642857 0.160714 1.517857
v 0.964286 0.500000 1.660714
v 0.642857 0.500000 1.660714
v 0.964286 0.839286 1.517857
v 0.642857 0.839286 1.517857
v 0.964286 0.982143 1.178571
v 0.642857 0.982143 1.178571
v 0.964286 0.839286 0.839286
v 0.642857 0.839286 0.839286
v 0.964286 0.500000 0.696429
v 0.642857 0.500000 0.696429
v 0.964286 1.000000 1.678571
v 0.964286 0.000000 1.678571
v 0.964286 0.000000 0.678572
v 0.964286 1.000000 0.678572
v 0.642857 1.000000 0.678572
v 0.642857 0.000000 0.678572
v 0.642857 0.000000 1.678571
v 0.642857 1.000000 1.678571
v -0.964286 0.500000 -0.696429
v -0.642857 0.500000 -0.696429
v -0.642857 0.839286 -0.839286
v -0.964286 0.839286 -0.839286
v -0.964286 0.160714 -0.839286
v -0.642857 0.160714 -0.839286
v -0.964286 0.017857 -1.178571
v -0.642857 0.017857 -1.178571
v -0.964286 0.160714 -1.517857
v -0.642857 0.160714 -1.517857
v -0.964286 0.500000 -1.660714
v -0.642857 0.500000 -1.660714
v -0.964286 0.839286 -1.517857
v -0.642857 0.839286 -1.517857
v -0.964286 0.982143 -1.178571
v -0.642857 0.982143 -1.178571
v -0.964286 0.000000 -1.678571
v -0.964286 0.000000 -0.678572
v -0.964286 1.000000 -0.678572
v -0.964286 1.000000 -1.678571
v -0.642857 1.000000 -1.678571
v -0.642857 1.000000 -0.678572
v -0.642857 0.000000 -0.678572
v -0.642857 0.000000 -1.678571
v -0.964286 0.500000 0.482143
v -0.642857 0.500000 0.482143
v -0.642857 0.839286 0.339286
v -0.964286 0.839286 0.339286
v -0.964286 0.160714 0.339286
v -0.642857 0.160714 0.339286
v -0.964286 0.017857 -0.000000
v -0.642857 0.017857 -0.000000
v -0.964286 0.160714 -0.339286
v -0.642857 0.160714 -0.339286
v -0.964286 0.500000 -0.482143
v -0.642857 0.500000 -0.482143
v -0.964286 0.839286 -0.339286
v -0.642857 0.839286 -0.339286
v -0.964286 0.982143 -0.000000
v -0.642857 0.982143 -0.000000
v -0.964286 0.000000 -0.500000
v -0.964286 0.000000 0.500000
v -0.964286 1.000000 0.500000
v -0.964286 1.000000 -0.500000
v -0.642857 1.000000 -0.500000
v -0.642857 1.000000 0.500000
v -0.642857 0.000000 0.500000
v -0.642857 0.000000 -0.500000
v -0.964286 0.500000 1.660714
v -0.642857 0.500000 1.660714
v -0.642857 0.839286 1.517857
v -0.964286 0.839286 1.517857
v -0.964286 0.160714 1.517857
v -0.642857 0.160714 1.517857
v -0.964286 0.017857 1.178571
v -0.642857 0.017857 1.178571
v -0.964286 0.160714 0.839286
v -0.642857 0.160714 0.839286
v -0.964286 0.500000 0.696429
v -0.642857 0.500000 0.696429
v -0.964286 0.839286 0.839286
v -0.642857 0.839286 0.839286
v -0.964286 0.982143 1.178571
v -0.642857 0.982143 1.178571
v -0.964286 0.000000 0.678572
v -0.964286 0.000000 1.678571
v -0.964286 1.000000 1.678571
v -0.964286 1.000000 0.678572
v -0.642857 1.000000 0.678572
v -0.642857 1.000000 1.678571
v -0.642857 0.000000 1.678571
v -0.642857 0.000000 0.678572
vn -0.6961 -0.3793 -0.6096
vn 0.6516 0.4611 -0.6023
vn 0.6965 -0.3863 -0.6047
vn 0.0060 -0.8114 -0.5845
vn -0.6522 0.4525 -0.6082
vn 0.0069 0.7521 -0.6590
vn -0.8209 -0.5702 0.0316
vn 0.0087 -0.9990 0.0437
vn 0.8162 -0.5775 0.0165
vn 0.8996 0.4360 -0.0246
vn 0.0100 0.9990 -0.0444
vn -0.9021 0.4314 -0.0123
vn 0.6516 0.4611 -0.6024
vn -0.0000 0.9490 0.3153
vn -0.0000 0.8331 -0.5531
vn -0.7253 0.3956 -0.5635
vn -0.5599 0.6108 0.5599
vn 0.5599 0.6108 0.5599
vn 0.7252 0.3956 -0.5635
vn 0.9400 -0.3377 -0.0490
vn 0.6786 -0.3757 -0.6311
vn 0.6339 0.4479 -0.6305
vn 0.7733 0.6259 -0.1014
vn 0.0080 0.7293 -0.6841
vn 0.0038 0.9927 -0.1204
vn -0.0001 -0.9998 -0.0207
vn -0.0001 -0.7934 -0.6087
vn -0.7785 0.6208 -0.0918
vn -0.6359 0.4372 -0.6360
vn -0.6798 -0.3751 -0.6302
vn -0.9405 -0.3361 -0.0508
vn 0.2347 0.8004 -0.5515
vn -0.2347 0.8004 -0.5515
vn -0.5515 0.8004 -0.2347
vn 0.5515 0.8004 -0.2347
vn -0.5515 0.8004 0.2347
vn 0.5515 0.8005 0.2347
vn 0.2347 0.8004 0.5515
vn -0.2347 0.8004 0.5515
vn 0.3330 0.4655 -0.8200
vn -0.3330 0.4655 -0.8200
vn 0.8200 0.4655 -0.3330
vn 0.8200 0.4655 0.3330
vn 0.3330 0.4655 0.8200
vn -0.3330 0.4655 0.8200
vn -0.8200 0.4655 0.3330
vn -0.8200 0.4655 -0.3330
vn -0.4903 0.8668 -0.0908
vn -0.1737 0.9532 -0.2475
vn -0.8944 0.4472 -0.0000
vn -0.5257 0.8507 -0.0000
vn -0.4435 0.7349 0.5131
vn -0.4421 0.8487 0.2902
vn 0.4420 0.8487 0.2902
vn 0.4435 0.7349 0.5131
vn 0.5257 0.8507 -0.0000
vn 0.8944 0.4472 -0.0000
vn 0.4903 0.8668 -0.0908
vn 0.1737 0.9532 -0.2475
vn -0.5774 -0.5774 0.5773
vn 0.5774 -0.5773 0.5773
vn 0.7071 -0.0000 0.7071
vn -0.7071 -0.0000 0.7071
vn -0.7071 -0.0000 -0.7071
vn 0.7071 -0.0000 -0.7071
vn 0.5774 -0.5774 -0.5773
vn -0.5774 -0.5773 -0.5773
vn -0.6303 -0.7173 0.2971
vn -0.6303 -0.7173 -0.2971
vn 0.6303 -0.7173 -0.2971
vn 0.6303 -0.7173 0.2971
vn 0.4472 -0.6325 -0.6325
vn 0.4472 -0.6325 0.6325
vn -0.4472 -0.6325 0.6325
vn -0.4472 -0.6325 -0.6325
vn -0.0000 -1.0000 -0.0000
vn -0.0000 -0.7071 -0.7071
vn -0.0000 -0.7071 0.7071
vn -0.0000 -0.0000 1.0000
vn -0.0000 0.7071 0.7071
vn -0.0000 1.0000 -0.0000
vn -0.0000 0.7071 -0.7071
vn -0.0000 -0.0000 -1.0000
vn 1.0000 -0.0000 -0.0000
vn -1.0000 -0.0000 -0.0000
vt 0.746094 -0.054688
vt 0.718750 -0.023438
vt 0.718750 -0.046875
vt 0.734375 -0.062500
vt 0.746094 -0.023438
vt 0.730469 -0.007812
vt 0.355469 -0.062500
vt 0.714844 -0.062500
vt 0.710938 -0.078125
vt 0.355469 -0.078125
vt 0.714844 -0.015625
vt 0.355469 -0.015625
vt 0.714844 0.000000
vt 0.355469 0.000000
vt 0.718750 -0.015625
vt 0.730469 -0.062500
vt 0.746094 -0.046875
vt 0.644531 -0.710938
vt 0.644531 -0.531250
vt 0.574219 -0.539062
vt 0.574219 -0.781250
vt 0.644531 -0.539062
vt 0.792969 -0.117188
vt 0.769531 -0.203125
vt 0.808594 -0.203125
vt 0.671875 -0.109375
vt 0.644531 -0.226562
vt 0.699219 -0.218750
vt 0.640625 -0.226562
vt 0.757812 -0.062500
vt 0.382812 -0.039062
vt 0.382812 -0.015625
vt 0.785156 -0.015625
vt 0.382812 -0.007812
vt 0.796875 0.000000
vt 0.746094 -0.085938
vt 0.386719 -0.046875
vt 0.031250 -0.703125
vt 0.031250 -0.859375
vt 0.097656 -0.976562
vt 0.093750 -0.593750
vt 0.191406 -0.976562
vt 0.187500 -0.593750
vt 0.253906 -0.703125
vt 0.253906 -0.859375
vt 0.628906 -0.117188
vt 0.593750 -0.117188
vt 0.589844 -0.195312
vt 0.632812 -0.203125
vt 0.921875 -0.304688
vt 0.871094 -0.304688
vt 0.863281 -0.406250
vt 0.929688 -0.414062
vt 0.867188 -0.304688
vt 0.000000 0.000000
vt 0.000000 1659661533305088201417818112.000000
vt 0.546875 -0.453125
vt 0.468750 -0.976562
vt 0.468750 -0.453125
vt 0.437500 -0.242188
vt 0.707031 -0.242188
vt 0.707031 -0.085938
vt 0.437500 -0.085938
vt 0.718750 -0.234375
vt 0.988281 -0.234375
vt 0.914062 -0.085938
vt 0.718750 -0.085938
vt 0.781250 -0.265625
vt 0.511719 -0.257812
vt 0.472656 -0.414062
vt 0.820312 -0.421875
vt 0.460938 -0.445312
vt 0.265625 -0.445312
vt 0.265625 -0.992188
vt 0.460938 -0.992188
vt 0.000000 -0.445312
vt 0.000000 -0.992188
vt 0.824219 -0.437500
vt 0.554688 -0.437500
vt 0.519531 -0.992188
vt 0.867188 -0.992188
vt 0.343750 -0.078125
vt 0.222656 -0.078125
vt 0.222656 0.000000
vt 0.343750 0.000000
vt 0.343750 -0.125000
vt 0.410156 -0.117188
vt 0.410156 -0.195312
vt 0.343750 -0.203125
vt 0.773438 -0.789062
vt 0.593750 -0.796875
vt 0.593750 -0.960938
vt 0.777344 -0.960938
vt 0.437500 -0.234375
vt 0.707031 -0.093750
vt 0.441406 -0.242188
vt 0.437500 -0.093750
vt 0.210938 -0.085938
vt 0.000000 -0.085938
vt 0.000000 -0.437500
vt 0.210938 -0.437500
vt 0.429688 -0.085938
vt 0.214844 -0.085938
vt 0.218750 -0.437500
vt 0.429688 -0.437500
vt 0.230469 -0.460938
vt 0.003906 -0.460938
vt 0.003906 -0.976562
vt 0.226562 -0.976562
vt 0.968750 -0.968750
vt 0.000000 -0.968750
vt 0.968750 0.000000
vt 0.000000 -0.984375
vt 0.984375 0.000000
vt 0.984375 -0.984375
s 1
usemtl material_0.007
f 1/1/1 2/2/2 3/3/3
f 1/1/1 3/3/3 4/4/4
f 5/5/5 6/6/6 2/2/2
f 5/5/5 2/2/2 1/1/1
f 7/7/7 1/8/1 4/9/4
f 7/7/7 4/9/4 8/10/8
f 8/10/8 4/9/4 3/8/3
f 8/10/8 3/8/3 9/7/9
f 9/7/9 3/8/3 2/11/2
f 9/7/9 2/11/2 10/12/10
f 10/12/10 2/11/2 6/13/6
f 10/12/10 6/13/6 11/14/11
f 11/14/11 6/13/6 5/11/5
f 11/14/11 5/11/5 12/12/12
f 12/12/12 5/11/5 1/8/1
f 12/12/12 1/8/1 7/7/7
f 13/7/9 14/8/3 15/11/13
f 13/7/9 15/11/13 16/12/10
f 16/12/10 15/11/13 17/13/6
f 16/12/10 17/13/6 18/14/11
f 18/14/11 17/13/6 19/11/5
f 18/14/11 19/11/5 20/12/12
f 20/12/12 19/11/5 21/8/1
f 20/12/12 21/8/1 22/7/7
f 22/7/7 21/8/1 23/9/4
f 22/7/7 23/9/4 24/10/8
f 24/10/8 23/9/4 14/8/3
f 24/10/8 14/8/3 13/7/9
f 14/3/3 19/5/5 17/6/6
f 14/3/3 17/6/6 15/15/13
f 23/16/4 21/17/1 19/5/5
f 23/16/4 19/5/5 14/3/3
f 25/18/14 26/19/15 27/20/16
f 25/18/14 27/20/16 28/21/17
f 26/22/15 25/18/14 29/21/18
f 26/22/15 29/21/18 30/20/19
f 25/23/14 28/24/17 29/25/18
f 26/26/15 30/27/19 27/28/16
f 31/28/16 32/26/15 33/29/19
f 34/24/18 35/23/14 36/25/17
f 31/20/16 36/21/17 35/18/14
f 31/20/16 35/18/14 32/22/15
f 34/21/18 33/20/19 32/19/15
f 34/21/18 32/19/15 35/18/14
f 37/30/20 38/31/21 39/32/22
f 37/30/20 39/32/22 40/33/23
f 40/33/23 39/32/22 41/34/24
f 40/33/23 41/34/24 42/35/25
f 43/36/26 44/37/27 38/31/21
f 43/36/26 38/31/21 37/30/20
f 45/33/28 46/32/29 47/31/30
f 45/33/28 47/31/30 48/30/31
f 42/35/25 41/34/24 46/32/29
f 42/35/25 46/32/29 45/33/28
f 48/30/31 47/31/30 44/37/27
f 48/30/31 44/37/27 43/36/26
f 49/38/32 50/39/33 51/40/34
f 49/38/32 51/40/34 52/41/35
f 52/41/35 51/40/34 53/42/36
f 52/41/35 53/42/36 54/43/37
f 55/44/38 54/43/37 53/42/36
f 55/44/38 53/42/36 56/45/39
f 50/46/33 49/47/32 57/48/40
f 50/46/33 57/48/40 58/49/41
f 49/50/32 52/51/35 59/52/42
f 49/50/32 59/52/42 57/53/40
f 52/50/35 54/54/37 60/52/43
f 52/50/35 60/52/43 59/53/42
f 54/50/37 55/51/38 61/52/44
f 54/50/37 61/52/44 60/53/43
f 55/50/38 56/54/39 62/52/45
f 55/50/38 62/52/45 61/53/44
f 63/52/46 62/53/45 56/50/39
f 63/52/46 56/50/39 53/51/36
f 64/52/47 63/53/46 53/50/36
f 64/52/47 53/50/36 51/54/34
f 58/52/41 64/53/47 51/50/34
f 58/52/41 51/50/34 50/51/33
f 46/55/29 41/55/24 39/55/22
f 46/55/29 39/55/22 47/55/30
f 47/55/30 39/56/22 38/55/21
f 47/55/30 38/55/21 44/55/27
f 65/57/48 66/58/49 67/59/50
f 67/60/50 68/61/50 69/62/51
f 67/60/50 69/62/51 65/63/48
f 68/64/50 70/65/52 71/66/53
f 68/64/50 71/66/53 69/67/51
f 72/68/54 71/69/53 70/70/52
f 72/68/54 70/70/52 73/71/55
f 72/72/54 74/73/56 69/74/51
f 72/72/54 69/74/51 71/75/53
f 74/67/56 72/66/54 73/65/55
f 74/67/56 73/65/55 75/64/57
f 76/63/58 74/62/56 75/61/57
f 76/63/58 75/61/57 77/60/57
f 78/58/59 76/57/58 77/59/57
f 74/73/56 76/76/58 65/77/48
f 74/73/56 65/77/48 69/74/51
f 65/78/48 76/79/58 78/80/59
f 65/78/48 78/80/59 66/81/49
f 79/82/60 80/83/61 81/84/62
f 79/82/60 81/84/62 82/85/63
f 83/86/64 84/87/65 85/88/66
f 83/86/64 85/88/66 86/89/67
f 82/86/63 83/87/64 86/88/67
f 82/86/63 86/88/67 79/89/60
f 80/89/61 85/88/66 84/87/65
f 80/89/61 84/87/65 81/86/62
f 86/86/67 85/87/66 80/88/61
f 86/86/67 80/88/61 79/89/60
f 87/89/61 88/88/60 89/87/67
f 87/89/61 89/87/67 90/86/66
f 91/86/63 92/87/64 89/88/67
f 91/86/63 89/88/67 88/89/60
f 87/89/61 90/88/66 93/87/65
f 87/89/61 93/87/65 94/86/62
f 90/89/66 89/88/67 92/87/64
f 90/89/66 92/87/64 93/86/65
f 94/85/62 91/84/63 88/83/60
f 94/85/62 88/83/60 87/82/61
f 95/89/67 96/88/66 97/87/61
f 95/89/67 97/87/61 98/86/60
f 99/86/65 100/87/62 97/88/61
f 99/86/65 97/88/61 96/89/66
f 95/89/67 98/88/60 101/87/63
f 95/89/67 101/87/63 102/86/64
f 98/89/60 97/88/61 100/87/62
f 98/89/60 100/87/62 101/86/63
f 102/85/64 99/84/65 96/83/66
f 102/85/64 96/83/66 95/82/67
f 103/82/66 104/83/67 105/84/64
f 103/82/66 105/84/64 106/85/65
f 107/86/62 108/87/63 109/88/60
f 107/86/62 109/88/60 110/89/61
f 106/86/65 107/87/62 110/88/61
f 106/86/65 110/88/61 103/89/66
f 104/89/67 109/88/60 108/87/63
f 104/89/67 108/87/63 105/86/64
f 110/86/61 109/87/60 104/88/67
f 110/86/61 104/88/67 103/89/66
f 111/90/68 112/91/69 113/92/70
f 111/90/68 113/92/70 114/93/71
f 115/61/72 116/94/73 114/63/71
f 115/61/72 114/63/71 113/95/70
f 117/61/74 118/96/75 112/97/69
f 117/61/74 112/97/69 111/62/68
f 116/98/73 117/99/74 111/100/68
f 116/98/73 111/100/68 114/101/71
f 118/102/75 115/103/72 113/104/70
f 118/102/75 113/104/70 112/105/69
f 119/106/76 120/107/76 121/108/76
f 119/106/76 121/108/76 122/109/76
usemtl material_2.005
f 123/110/76 124/111/76 125/55/77
f 123/110/76 125/55/77 126/112/77
f 127/110/78 128/111/78 124/55/76
f 127/110/78 124/55/76 123/112/76
f 129/110/79 130/111/79 128/55/78
f 129/110/79 128/55/78 127/112/78
f 131/110/80 132/111/80 130/55/79
f 131/110/80 130/55/79 129/112/79
f 133/110/81 134/111/81 132/55/80
f 133/110/81 132/55/80 131/112/80
f 135/110/82 136/111/82 134/55/81
f 135/110/82 134/55/81 133/112/81
f 137/110/83 138/111/83 136/55/82
f 137/110/83 136/55/82 135/112/82
f 126/110/77 125/111/77 138/55/83
f 126/110/77 138/55/83 137/112/83
f 147/110/76 148/111/76 149/55/77
f 147/110/76 149/55/77 150/112/77
f 151/110/78 152/111/78 148/55/76
f 151/110/78 148/55/76 147/112/76
f 153/110/79 154/111/79 152/55/78
f 153/110/79 152/55/78 151/112/78
f 155/110/80 156/111/80 154/55/79
f 155/110/80 154/55/79 153/112/79
f 157/110/81 158/111/81 156/55/80
f 157/110/81 156/55/80 155/112/80
f 159/110/82 160/111/82 158/55/81
f 159/110/82 158/55/81 157/112/81
f 161/110/83 162/111/83 160/55/82
f 161/110/83 160/55/82 159/112/82
f 150/110/77 149/111/77 162/55/83
f 150/110/77 162/55/83 161/112/83
f 171/110/76 172/111/76 173/55/77
f 171/110/76 173/55/77 174/112/77
f 175/110/78 176/111/78 172/55/76
f 175/110/78 172/55/76 171/112/76
f 177/110/79 178/111/79 176/55/78
f 177/110/79 176/55/78 175/112/78
f 179/110/80 180/111/80 178/55/79
f 179/110/80 178/55/79 177/112/79
f 181/110/81 182/111/81 180/55/80
f 181/110/81 180/55/80 179/112/80
f 183/110/82 184/111/82 182/55/81
f 183/110/82 182/55/81 181/112/81
f 185/110/83 186/111/83 184/55/82
f 185/110/83 184/55/82 183/112/82
f 174/110/77 173/111/77 186/55/83
f 174/110/77 186/55/83 185/112/83
f 195/110/79 196/111/79 197/55/80
f 195/110/79 197/55/80 198/112/80
f 199/110/78 200/111/78 196/55/79
f 199/110/78 196/55/79 195/112/79
f 201/110/76 202/111/76 200/55/78
f 201/110/76 200/55/78 199/112/78
f 203/110/77 204/111/77 202/55/76
f 203/110/77 202/55/76 201/112/76
f 205/110/83 206/111/83 204/55/77
f 205/110/83 204/55/77 203/112/77
f 207/110/82 208/111/82 206/55/83
f 207/110/82 206/55/83 205/112/83
f 209/110/81 210/111/81 208/55/82
f 209/110/81 208/55/82 207/112/82
f 198/110/80 197/111/80 210/55/81
f 198/110/80 210/55/81 209/112/81
f 219/110/79 220/111/79 221/55/80
f 219/110/79 221/55/80 222/112/80
f 223/110/78 224/111/78 220/55/79
f 223/110/78 220/55/79 219/112/79
f 225/110/76 226/111/76 224/55/78
f 225/110/76 224/55/78 223/112/78
f 227/110/77 228/111/77 226/55/76
f 227/110/77 226/55/76 225/112/76
f 229/110/83 230/111/83 228/55/77
f 229/110/83 228/55/77 227/112/77
f 231/110/82 232/111/82 230/55/83
f 231/110/82 230/55/83 229/112/83
f 233/110/81 234/111/81 232/55/82
f 233/110/81 232/55/82 231/112/82
f 222/110/80 221/111/80 234/55/81
f 222/110/80 234/55/81 233/112/81
f 243/110/79 244/111/79 245/55/80
f 243/110/79 245/55/80 246/112/80
f 247/110/78 248/111/78 244/55/79
f 247/110/78 244/55/79 243/112/79
f 249/110/76 250/111/76 248/55/78
f 249/110/76 248/55/78 247/112/78
f 251/110/77 252/111/77 250/55/76
f 251/110/77 250/55/76 249/112/76
f 253/110/83 254/111/83 252/55/77
f 253/110/83 252/55/77 251/112/77
f 255/110/82 256/111/82 254/55/83
f 255/110/82 254/55/83 253/112/83
f 257/110/81 258/111/81 256/55/82
f 257/110/81 256/55/82 255/112/82
f 246/110/80 245/111/80 258/55/81
f 246/110/80 258/55/81 257/112/81
usemtl material_3.004
f 139/113/84 140/55/84 141/114/84
f 139/113/84 141/114/84 142/115/84
f 143/115/85 144/114/85 145/55/85
f 143/115/85 145/55/85 146/113/85
f 163/113/84 164/55/84 165/114/84
f 163/113/84 165/114/84 166/115/84
f 167/115/85 168/114/85 169/55/85
f 167/115/85 169/55/85 170/113/85
f 187/113/84 188/55/84 189/114/84
f 187/113/84 189/114/84 190/115/84
f 191/115/85 192/114/85 193/55/85
f 191/115/85 193/55/85 194/113/85
f 211/113/85 212/55/85 213/114/85
f 211/113/85 213/114/85 214/115/85
f 215/115/84 216/114/84 217/55/84
f 215/115/84 217/55/84 218/113/84
f 235/113/85 236/55/85 237/114/85
f 235/113/85 237/114/85 238/115/85
f 239/115/84 240/114/84 241/55/84
f 239/115/84 241/55/84 242/113/84
f 259/113/85 260/55/85 261/114/85
f 259/113/85 261/114/85 262/115/85
f 263/115/84 264/114/84 265/55/84
f 263/115/84 265/55/84 266/113/84
