# Blender 5.1.2
# www.blender.org
mtllib Sweet Tooth.mtl
o Sweet_Tooth.001
v -0.399048 2.563565 0.437155
v 0.370015 2.563565 0.437155
v -0.399048 3.542410 0.437155
v 0.370015 3.542410 0.437155
v 1.059677 1.190323 -2.250000
v 1.030645 1.132258 -2.250000
v 1.059677 1.190323 -1.466129
v 1.030645 1.132258 -2.250000
v 1.030645 1.132258 -1.524194
v 1.059677 1.190323 -1.466129
v -1.059677 1.190323 -1.466129
v -1.059677 1.132258 -1.524194
v -1.059677 1.190323 -2.250000
v -1.059677 1.132258 -1.524194
v -1.059677 1.132258 -2.250000
v -1.059677 1.190323 -2.250000
v -0.653226 0.232258 -0.333871
v -0.653226 0.000000 -0.450000
v -0.653226 0.232258 -1.001613
v -0.653226 0.000000 -0.450000
v -0.653226 0.000000 -0.885484
v -0.653226 0.232258 -1.001613
v -0.653226 0.232258 1.727419
v -0.653226 0.000000 1.611290
v -0.653226 0.232258 1.059677
v -0.653226 0.000000 1.611290
v -0.653226 0.000000 1.175807
v -0.653226 0.232258 1.059677
v 0.624194 0.232258 1.059677
v 0.624194 0.000000 1.175807
v 0.624194 0.232258 1.727419
v 0.624194 0.000000 1.175807
v 0.624194 0.000000 1.611290
v 0.624194 0.232258 1.727419
v 0.624194 0.232258 -1.001613
v 0.624194 0.000000 -0.885484
v 0.624194 0.232258 -0.333871
v 0.624194 0.000000 -0.885484
v 0.624194 0.000000 -0.450000
v 0.624194 0.232258 -0.333871
v 1.059677 1.190323 -2.250000
v 1.059677 1.190323 -1.466129
v 1.030645 1.132258 -2.250000
v 1.059677 1.190323 -1.466129
v 1.030645 1.132258 -1.524194
v 1.030645 1.132258 -2.250000
v -1.059677 1.190323 -1.466129
v -1.059677 1.190323 -2.250000
v -1.059677 1.132258 -1.524194
v -1.059677 1.190323 -2.250000
v -1.059677 1.132258 -2.250000
v -1.059677 1.132258 -1.524194
v -0.856452 0.522581 -1.611290
v 0.827419 0.522581 -1.611290
v -0.972581 0.493548 -1.698387
v 0.827419 0.522581 -1.611290
v 0.943548 0.493548 -1.698387
v -0.972581 0.493548 -1.698387
v 0.827419 0.522581 2.133871
v -0.856452 0.522581 2.133871
v 0.943548 0.493549 2.250000
v -0.856452 0.522581 2.133871
v -0.972581 0.493549 2.250000
v 0.943548 0.493549 2.250000
v -0.943548 2.206452 -1.233871
v 0.914516 2.206452 -1.233871
v -0.943548 1.974194 -1.379032
v 0.914516 2.206452 -1.233871
v 0.914516 1.974194 -1.379032
v -0.943548 1.974194 -1.379032
v -0.885484 1.277419 -1.350000
v 0.856452 1.277419 -1.350000
v -0.885484 1.045161 -1.640323
v 0.856452 1.277419 -1.350000
v 0.856452 1.045161 -1.640323
v -0.885484 1.045161 -1.640323
v 0.856452 1.045161 -1.640323
v 0.827419 0.522581 -1.611290
v -0.885484 1.045161 -1.640323
v 0.827419 0.522581 -1.611290
v -0.856452 0.522581 -1.611290
v -0.885484 1.045161 -1.640323
v -0.943548 2.322581 2.133871
v -0.856452 0.522581 2.133871
v 0.914516 2.322581 2.133871
v -0.856452 0.522581 2.133871
v 0.827419 0.522581 2.133871
v 0.914516 2.322581 2.133871
v -1.117742 1.161290 -0.420968
v -0.885484 1.045161 -0.246774
v -0.885484 1.277419 -0.246774
v -0.943548 1.974194 -1.379032
v 0.914516 1.974194 -1.379032
v -0.885484 1.277419 -1.350000
v 0.914516 1.974194 -1.379032
v 0.856452 1.277419 -1.350000
v -0.885484 1.277419 -1.350000
v -1.117742 1.161290 -0.420968
v -1.117742 1.161290 -1.495161
v -0.885484 1.045161 -0.246774
v -1.117742 1.161290 -1.495161
v -0.885484 1.045161 -1.640323
v -0.885484 1.045161 -0.246774
v -0.885484 1.277419 -0.246774
v -0.885484 1.277419 -1.350000
v -1.117742 1.161290 -0.420968
v -0.885484 1.277419 -1.350000
v -1.117742 1.161290 -1.495161
v -1.117742 1.161290 -0.420968
v -0.972581 0.493548 -1.698387
v 0.943548 0.493548 -1.698387
v -0.943548 0.232258 -1.669355
v 0.943548 0.493548 -1.698387
v 0.914516 0.232258 -1.669355
v -0.943548 0.232258 -1.669355
v -0.856452 0.522581 -1.611290
v -0.972581 0.493548 -1.698387
v -0.827419 0.232258 -1.582258
v -0.972581 0.493548 -1.698387
v -0.943548 0.232258 -1.669355
v -0.827419 0.232258 -1.582258
v -0.885484 1.277419 -1.350000
v -0.885484 1.045161 -1.640323
v -1.117742 1.161290 -1.495161
v 0.943548 0.493549 2.250000
v -0.972581 0.493549 2.250000
v 0.914516 0.232258 2.220968
v -0.972581 0.493549 2.250000
v -0.943548 0.232258 2.220968
v 0.914516 0.232258 2.220968
v 0.856452 1.045161 -1.640323
v 0.856452 1.277419 -1.350000
v 1.088710 1.161290 -1.495161
v -0.827419 2.322581 -1.117742
v -0.827419 2.409678 2.017742
v 0.798387 2.322581 -1.117742
v -0.827419 2.409678 2.017742
v 0.798387 2.409678 2.017742
v 0.798387 2.322581 -1.117742
v 0.798387 2.322581 -1.117742
v 0.914516 2.206452 -1.233871
v -0.827419 2.322581 -1.117742
v 0.914516 2.206452 -1.233871
v -0.943548 2.206452 -1.233871
v -0.827419 2.322581 -1.117742
v 0.914516 2.322581 2.133871
v 0.798387 2.409678 2.017742
v -0.943548 2.322581 2.133871
v 0.798387 2.409678 2.017742
v -0.827419 2.409678 2.017742
v -0.943548 2.322581 2.133871
v 0.856452 1.045161 -0.246774
v 1.117742 1.161290 -0.420968
v 0.885484 1.277419 -0.246774
v 1.117742 1.161290 -0.420968
v 1.088710 1.161290 -1.495161
v 0.885484 1.277419 -0.246774
v 1.088710 1.161290 -1.495161
v 0.856452 1.277419 -1.350000
v 0.885484 1.277419 -0.246774
v -0.972581 0.493549 2.250000
v -0.856452 0.522581 2.133871
v -0.943548 0.232258 2.220968
v -0.856452 0.522581 2.133871
v -0.827419 0.232258 2.133871
v -0.943548 0.232258 2.220968
v 0.914516 0.232258 2.220968
v 0.798387 0.232258 2.133871
v 0.943548 0.493549 2.250000
v 0.798387 0.232258 2.133871
v 0.827419 0.522581 2.133871
v 0.943548 0.493549 2.250000
v 0.798387 0.232258 -1.582258
v 0.914516 0.232258 -1.669355
v 0.827419 0.522581 -1.611290
v 0.914516 0.232258 -1.669355
v 0.943548 0.493548 -1.698387
v 0.827419 0.522581 -1.611290
v 0.856452 1.045161 -0.246774
v 0.856452 1.045161 -1.640323
v 1.117742 1.161290 -0.420968
v 0.856452 1.045161 -1.640323
v 1.088710 1.161290 -1.495161
v 1.117742 1.161290 -0.420968
v -0.943548 2.322581 2.133871
v -0.943548 2.206452 -1.233871
v -0.827419 0.232258 2.133871
v -0.943548 2.206452 -1.233871
v -0.943548 1.974194 -1.379032
v -0.827419 0.232258 2.133871
v -0.943548 1.974194 -1.379032
v -0.885484 1.277419 -1.350000
v -0.827419 0.232258 2.133871
v -0.827419 2.409678 2.017742
v -0.827419 2.322581 -1.117742
v -0.943548 2.322581 2.133871
v -0.827419 2.322581 -1.117742
v -0.943548 2.206452 -1.233871
v -0.943548 2.322581 2.133871
v 0.914516 2.322581 2.133871
v 0.914516 2.206452 -1.233871
v 0.798387 2.409678 2.017742
v 0.914516 2.206452 -1.233871
v 0.798387 2.322581 -1.117742
v 0.798387 2.409678 2.017742
v 0.914516 2.206452 -1.233871
v 0.914516 2.322581 2.133871
v 0.798387 0.232258 2.133871
v 0.798387 0.232258 2.133871
v 0.856452 1.277419 -1.350000
v 0.914516 2.206452 -1.233871
v 0.856452 1.277419 -1.350000
v 0.914516 1.974194 -1.379032
v 0.914516 2.206452 -1.233871
v 0.798387 0.232258 -1.582258
v 0.856452 1.045161 -1.640323
v 0.798387 0.232258 -0.508064
v 0.856452 1.045161 -1.640323
v 0.856452 1.277419 -1.350000
v 0.798387 0.232258 -0.508064
v 0.798387 0.232258 -0.508064
v 0.856452 1.277419 -1.350000
v 0.798387 0.232258 2.133871
v -0.885484 1.277419 -1.350000
v -0.885484 1.045161 -1.640323
v -0.827419 0.232258 -0.508064
v -0.885484 1.045161 -1.640323
v -0.827419 0.232258 -1.582258
v -0.827419 0.232258 -0.508064
v -0.885484 1.277419 -1.350000
v -0.827419 0.232258 -0.508064
v -0.827419 0.232258 2.133871
v -0.943548 0.232258 2.220968
v -0.827419 0.232258 2.133871
v 0.914516 0.232258 2.220968
v -0.827419 0.232258 2.133871
v 0.798387 0.232258 2.133871
v 0.914516 0.232258 2.220968
v -0.827419 0.232258 -1.582258
v -0.943548 0.232258 -1.669355
v 0.798387 0.232258 -1.582258
v -0.943548 0.232258 -1.669355
v 0.914516 0.232258 -1.669355
v 0.798387 0.232258 -1.582258
v -0.827419 0.232258 2.133871
v -0.827419 0.232258 -1.582258
v 0.798387 0.232258 2.133871
v -0.827419 0.232258 -1.582258
v 0.798387 0.232258 -1.582258
v 0.798387 0.232258 2.133871
v -0.653226 0.232258 1.727419
v -0.827419 0.232258 1.727419
v -0.653226 0.000000 1.379032
v -0.827419 0.232258 1.727419
v -0.827419 0.000000 1.379032
v -0.653226 0.000000 1.379032
v -0.653226 0.000000 1.379032
v -0.827419 0.000000 1.379032
v -0.653226 0.232258 1.059677
v -0.827419 0.000000 1.379032
v -0.827419 0.232258 1.059677
v -0.653226 0.232258 1.059677
v 0.624194 0.000000 1.379032
v 0.798387 0.000000 1.379032
v 0.624194 0.232258 1.727419
v 0.798387 0.000000 1.379032
v 0.798387 0.232258 1.727419
v 0.624194 0.232258 1.727419
v 0.624194 0.232258 1.059677
v 0.798387 0.232258 1.059677
v 0.624194 0.000000 1.379032
v 0.798387 0.232258 1.059677
v 0.798387 0.000000 1.379032
v 0.624194 0.000000 1.379032
v -0.653226 0.232258 -0.333871
v -0.827419 0.232258 -0.333871
v -0.653226 0.000000 -0.653226
v -0.827419 0.232258 -0.333871
v -0.827419 0.000000 -0.653226
v -0.653226 0.000000 -0.653226
v -0.653226 0.000000 -0.653226
v -0.827419 0.000000 -0.653226
v -0.653226 0.232258 -1.001613
v -0.827419 0.000000 -0.653226
v -0.827419 0.232258 -1.001613
v -0.653226 0.232258 -1.001613
v 0.624194 0.000000 -0.653226
v 0.798387 0.000000 -0.653226
v 0.624194 0.232258 -0.333871
v 0.798387 0.000000 -0.653226
v 0.798387 0.232258 -0.333871
v 0.624194 0.232258 -0.333871
v 0.624194 0.232258 -1.001613
v 0.798387 0.232258 -1.001613
v 0.624194 0.000000 -0.653226
v 0.798387 0.232258 -1.001613
v 0.798387 0.000000 -0.653226
v 0.624194 0.000000 -0.653226
v 0.856452 0.638710 -1.001613
v 0.856452 0.638710 -0.333871
v 0.798387 0.000000 -1.001613
v 0.856452 0.638710 -0.333871
v 0.798387 0.000000 -0.333871
v 0.798387 0.000000 -1.001613
v 0.856452 0.638710 1.059677
v 0.856452 0.638710 1.727419
v 0.798387 0.000000 1.059678
v 0.856452 0.638710 1.727419
v 0.798387 0.000000 1.727419
v 0.798387 0.000000 1.059678
v -0.827419 0.000000 -1.001613
v -0.827419 0.000000 -0.333871
v -0.856452 0.638710 -1.001613
v -0.827419 0.000000 -0.333871
v -0.856452 0.638710 -0.333871
v -0.856452 0.638710 -1.001613
v -0.827419 0.000000 1.059678
v -0.827419 0.000000 1.727419
v -0.856452 0.638710 1.059677
v -0.827419 0.000000 1.727419
v -0.856452 0.638710 1.727419
v -0.856452 0.638710 1.059677
v 0.798387 0.000000 1.727419
v 0.798387 0.000000 1.059678
v 0.856452 0.638710 1.727419
v 0.798387 0.000000 1.059678
v 0.856452 0.638710 1.059677
v 0.856452 0.638710 1.727419
v 0.798387 0.000000 -0.333871
v 0.798387 0.000000 -1.001613
v 0.856452 0.638710 -0.333871
v 0.798387 0.000000 -1.001613
v 0.856452 0.638710 -1.001613
v 0.856452 0.638710 -0.333871
v -0.856452 0.638710 1.727419
v -0.856452 0.638710 1.059677
v -0.827419 0.000000 1.727419
v -0.856452 0.638710 1.059677
v -0.827419 0.000000 1.059678
v -0.827419 0.000000 1.727419
v -0.856452 0.638710 -0.333871
v -0.856452 0.638710 -1.001613
v -0.827419 0.000000 -0.333871
v -0.856452 0.638710 -1.001613
v -0.827419 0.000000 -1.001613
v -0.827419 0.000000 -0.333871
v -0.102121 2.355601 0.437155
v 0.073089 2.355601 0.437155
v -0.102121 2.578603 0.437155
v 0.073089 2.578603 0.437155
vn -0.0000 -0.0000 1.0000
vn -0.8944 0.4472 -0.0000
vn 1.0000 -0.0000 -0.0000
vn -1.0000 -0.0000 -0.0000
vn 0.8944 -0.4472 -0.0000
vn -0.0000 0.9487 -0.3162
vn -0.0000 0.9701 0.2425
vn -0.0000 0.5300 -0.8480
vn -0.0000 0.7809 -0.6247
vn -0.0000 -0.0555 -0.9985
vn -0.6000 -0.0000 0.8000
vn -0.0000 -0.0416 -0.9991
vn -0.4472 -0.8944 -0.0000
vn -0.4472 0.8944 -0.0000
vn -0.0000 -0.1104 -0.9939
vn -0.6030 0.0195 0.7975
vn -0.5999 0.0222 0.7998
vn -0.0000 -0.1104 0.9939
vn -0.0000 0.9996 -0.0278
vn -0.0000 0.7071 -0.7071
vn -0.0000 0.8000 0.6000
vn 0.5752 -0.0719 0.8149
vn 0.4400 0.8979 -0.0119
vn 0.4414 0.8973 -0.0116
vn -0.7071 -0.0000 -0.7071
vn -0.5989 -0.0599 -0.7986
vn 0.5999 0.0222 -0.7998
vn 0.6966 -0.0697 -0.7140
vn 0.5999 0.0200 0.7998
vn 0.6033 0.0215 0.7972
vn 0.4061 -0.9138 -0.0000
vn 0.4533 -0.8913 -0.0123
vn -0.9985 -0.0555 0.0019
vn -0.9996 -0.0158 0.0252
vn -0.9965 -0.0834 -0.0084
vn -0.6138 0.7892 -0.0219
vn -0.6944 0.7192 -0.0248
vn 0.6170 0.7865 -0.0271
vn 0.6969 0.7169 -0.0199
vn 0.9985 -0.0555 0.0019
vn 0.9981 -0.0621 -0.0020
vn 0.9893 -0.0773 0.1237
vn 0.9975 -0.0712 -0.0000
vn 0.9991 -0.0338 0.0270
vn 0.9985 -0.0555 -0.0000
vn -0.9991 -0.0338 0.0270
vn -0.9975 -0.0712 -0.0000
vn -0.9985 -0.0555 -0.0000
vn -0.0000 -1.0000 -0.0000
vn -0.0000 -0.8321 0.5547
vn -0.0000 -0.8087 -0.5882
vn -0.0000 -0.8087 0.5882
vn -0.0000 -0.8321 -0.5547
vn 0.9959 -0.0905 -0.0000
vn -0.9990 -0.0454 -0.0000
vt 0.000000 0.000000
vt 1.000000 0.000000
vt 1.000000 1.000000
vt 0.000000 1.000000
vt 0.617188 -0.765625
vt 0.617188 -0.796875
vt 0.414062 -0.765625
vt 0.421875 -0.796875
vt 0.000000 -0.921875
vt 0.000000 -0.992188
vt 0.203125 -0.921875
vt 0.203125 -0.992188
vt 0.312500 -0.648438
vt 0.015625 -0.648438
vt 0.328125 -0.656250
vt 0.000000 -0.656250
vt 0.015625 -0.054688
vt 0.320312 -0.054688
vt 0.000000 -0.046875
vt 0.343750 -0.046875
vt 0.328125 -0.359375
vt 0.000000 -0.359375
vt 0.320312 -0.398438
vt 0.000000 -0.398438
vt 0.312500 -0.523438
vt 0.007812 -0.523438
vt 0.312500 -0.562500
vt 0.015625 -0.562500
vt 0.343750 -0.351562
vt 0.335938 -0.062500
vt 0.000000 -0.351562
vt 0.023438 -0.062500
vt 0.523438 -0.539062
vt 0.554688 -0.562500
vt 0.554688 -0.523438
vt 0.343750 -0.539062
vt 0.367188 -0.523438
vt 0.328125 -0.703125
vt 0.000000 -0.703125
vt 0.320312 -0.648438
vt 0.304688 -0.656250
vt 0.312500 -0.703125
vt 0.507812 -0.851562
vt 0.515625 -0.945312
vt 0.414062 -0.898438
vt 0.335938 0.000000
vt 0.507812 -0.953125
vt 0.421875 -0.898438
vt 0.390625 -0.335938
vt 0.960938 -0.320312
vt 0.390625 -0.062500
vt 0.960938 -0.046875
vt 0.367188 -0.046875
vt 0.367188 -0.359375
vt 0.976562 -0.023438
vt 0.953125 -0.046875
vt 0.984375 -0.343750
vt 0.960938 -0.328125
vt 0.984375 -0.656250
vt 0.968750 -0.648438
vt 0.976562 -0.703125
vt 0.960938 -0.703125
vt 0.976562 -0.343750
vt 0.382812 -0.359375
vt 0.359375 -0.398438
vt 0.367188 -0.515625
vt 0.953125 -0.328125
vt 0.406250 -0.343750
vt 0.320312 -0.695312
vt 0.304688 -0.554688
vt 0.507812 -0.695312
vt 0.000000 -0.984375
vt 0.046875 -0.953125
vt 0.984375 -0.984375
vt 0.921875 -0.953125
vt 0.046875 -0.015625
vt 0.921875 -0.015625
vt 0.984375 0.000000
vt 0.937500 -0.968750
vt 0.921875 0.000000
vt 0.031250 -0.968750
vt 0.031250 0.000000
vt 0.203125 -0.796875
vt 0.000000 -0.796875
vt 0.203125 -0.789062
vt 0.000000 -0.789062
vt 0.540306 0.171168
vt 0.540306 0.080139
vt 0.631334 0.080139
vt 0.631334 0.171168
s 1
usemtl material_img_0.005
f 5/5/2 6/6/2 7/7/2
f 8/6/2 9/8/2 10/7/2
f 11/7/3 12/8/3 13/5/3
f 14/8/3 15/6/3 16/5/3
f 17/9/3 18/10/3 19/11/3
f 20/10/3 21/12/3 22/11/3
f 23/11/3 24/12/3 25/9/3
f 26/12/3 27/10/3 28/9/3
f 29/9/4 30/10/4 31/11/4
f 32/10/4 33/12/4 34/11/4
f 35/11/4 36/12/4 37/9/4
f 38/12/4 39/10/4 40/9/4
f 41/5/5 42/7/5 43/6/5
f 44/7/5 45/8/5 46/6/5
f 47/7/4 48/5/4 49/8/4
f 50/5/4 51/6/4 52/8/4
f 299/83/54 300/84/54 301/12/54
f 302/84/54 303/10/54 304/12/54
f 305/85/54 306/86/54 307/12/54
f 308/86/54 309/10/54 310/12/54
f 311/12/55 312/10/55 313/83/55
f 314/10/55 315/84/55 316/83/55
f 317/12/55 318/10/55 319/85/55
f 320/10/55 321/86/55 322/85/55
f 323/12/54 324/10/54 325/83/54
f 326/10/54 327/84/54 328/83/54
f 329/12/54 330/10/54 331/85/54
f 332/10/54 333/86/54 334/85/54
f 335/83/55 336/84/55 337/12/55
f 338/84/55 339/10/55 340/12/55
f 341/85/55 342/86/55 343/12/55
f 344/86/55 345/10/55 346/12/55
s 0
f 347/87/1 348/88/1 350/89/1 349/90/1
s 1
usemtl material_img_1.005
f 53/13/6 54/14/6 55/15/6
f 56/14/6 57/16/6 58/15/6
f 59/17/7 60/18/7 61/19/7
f 62/18/7 63/20/7 64/19/7
f 65/21/8 66/22/8 67/23/8
f 68/22/8 69/24/8 70/23/8
f 71/25/9 72/26/9 73/27/9
f 74/26/9 75/28/9 76/27/9
f 77/28/10 78/14/10 79/27/10
f 80/14/10 81/13/10 82/27/10
f 83/29/1 84/30/1 85/31/1
f 86/30/1 87/32/1 88/31/1
f 89/33/11 90/34/11 91/35/11
f 92/23/12 93/24/12 94/25/12
f 95/24/12 96/26/12 97/25/12
f 98/33/13 99/36/13 100/34/13
f 101/36/13 102/27/13 103/34/13
f 104/35/14 105/37/14 106/33/14
f 107/37/14 108/36/14 109/33/14
f 110/15/15 111/16/15 112/38/15
f 113/16/15 114/39/15 115/38/15
f 116/40/16 117/41/16 118/38/16
f 119/41/17 120/42/17 121/38/17
f 122/43/9 123/44/9 124/45/9
f 125/19/18 126/20/18 127/1/18
f 128/20/18 129/46/18 130/1/18
f 131/47/9 132/43/9 133/48/9
f 134/49/19 135/50/19 136/51/19
f 137/50/19 138/52/19 139/51/19
f 140/51/20 141/53/20 142/49/20
f 143/53/20 144/54/20 145/49/20
f 146/55/21 147/56/21 148/57/21
f 149/56/21 150/58/21 151/57/21
f 152/34/22 153/33/22 154/35/22
f 155/33/23 156/36/23 157/35/23
f 158/36/24 159/37/24 160/35/24
f 161/59/25 162/60/25 163/61/25
f 164/60/26 165/62/26 166/61/26
f 167/61/27 168/62/27 169/59/27
f 170/62/28 171/60/28 172/59/28
f 173/38/29 174/42/29 175/40/29
f 176/42/30 177/41/30 178/40/30
f 179/34/31 180/27/31 181/33/31
f 182/27/32 183/36/32 184/33/32
f 185/63/33 186/64/33 187/61/33
f 188/64/34 189/65/34 190/61/34
f 191/65/35 192/66/35 193/61/35
f 194/67/36 195/68/36 196/63/36
f 197/68/37 198/64/37 199/63/37
f 200/63/38 201/64/38 202/67/38
f 203/64/39 204/68/39 205/67/39
f 206/64/40 207/63/40 208/61/40
f 209/61/41 210/66/41 211/64/41
f 212/66/42 213/65/42 214/64/42
f 215/69/43 216/70/43 217/71/43
f 218/70/44 219/66/44 220/71/44
f 221/71/45 222/66/45 223/61/45
f 224/66/46 225/70/46 226/71/46
f 227/70/47 228/69/47 229/71/47
f 230/66/48 231/71/48 232/61/48
usemtl material_img_3.001
f 233/72/49 234/73/49 235/74/49
f 236/73/49 237/75/49 238/74/49
f 239/76/49 240/1/49 241/77/49
f 242/1/49 243/78/49 244/77/49
f 245/79/49 246/80/49 247/81/49
f 248/80/49 249/82/49 250/81/49
f 251/1/50 252/1/50 253/1/50
f 254/1/50 255/1/50 256/1/50
f 257/1/51 258/1/51 259/1/51
f 260/1/51 261/1/51 262/1/51
f 263/1/50 264/1/50 265/1/50
f 266/1/50 267/1/50 268/1/50
f 269/1/51 270/1/51 271/1/51
f 272/1/51 273/1/51 274/1/51
f 275/1/52 276/1/52 277/1/52
f 278/1/52 279/1/52 280/1/52
f 281/1/53 282/1/53 283/1/53
f 284/1/53 285/1/53 286/1/53
f 287/1/52 288/1/52 289/1/52
f 290/1/52 291/1/52 292/1/52
f 293/1/53 294/1/53 295/1/53
f 296/1/53 297/1/53 298/1/53
s 0
usemtl Material.001
f 1/1/1 2/2/1 4/3/1 3/4/1
