# Blender 5.1.2
# www.blender.org
mtllib Grasshopper.mtl
o Grasshopper
v 0.670673 1.514423 -0.302884
v 0.670673 1.557693 0.346154
v 0.800481 1.038463 0.389423
v 0.800481 0.995193 -0.259616
v 0.584135 2.206732 -0.389423
v 0.497597 2.379808 0.865384
v 0.454327 2.250000 0.822116
v 0.454327 2.076924 -0.389423
v -0.497597 2.076924 -0.389423
v -0.497597 2.250000 0.822116
v -0.540866 2.379808 0.865384
v -0.584134 2.206732 -0.389423
v -0.497597 1.211539 -2.163463
v -0.540866 1.384616 -1.341347
v 0.540866 1.384616 -1.341347
v 0.454327 1.211539 -2.163463
v -0.627403 1.600962 -0.519231
v 0.584135 1.600962 -0.519231
v -0.887020 1.903846 0.086539
v -0.887020 1.860577 -0.605770
v -1.103365 1.903846 0.086539
v -0.887020 1.514423 -0.605770
v -1.103365 1.471155 0.086539
v -0.887020 1.471155 0.086539
v 0.887020 1.514423 -0.605770
v 1.103365 1.471155 0.086539
v 0.887020 1.471155 0.086539
v 0.887020 1.903846 0.086539
v 1.103365 1.903846 0.086539
v 0.887020 1.860577 -0.605770
v -0.540866 2.336539 2.250000
v -0.584134 2.336539 1.168269
v -0.454327 2.206732 1.038461
v -0.454327 2.206732 2.250000
v 0.411058 2.206732 2.250000
v 0.411058 2.206732 1.038461
v 0.584135 2.336539 1.168269
v 0.540866 2.336539 2.250000
v 0.194712 1.817309 0.908653
v 0.411058 2.206732 1.817307
v 0.194712 1.817309 1.644230
v -0.194711 1.817309 1.644230
v -0.454327 2.206732 1.817307
v -0.194711 1.817309 0.908653
v -0.367788 1.730770 1.644230
v -0.108173 1.860577 1.644230
v -0.108173 1.860577 0.865384
v -0.367788 1.730770 0.908653
v 0.064904 1.860577 1.644230
v 0.324519 1.730770 1.644230
v 0.324519 1.730770 0.908653
v 0.064904 1.860577 0.865384
v -0.843750 0.908654 -0.778846
v -1.060096 0.778846 -0.865385
v 1.060096 0.778846 -0.865385
v 0.800481 0.908654 -0.778846
v -0.237980 1.471155 1.644230
v -0.021635 1.687501 1.644230
v 0.194712 1.471155 1.644230
v -0.843750 0.995193 0.822116
v 0.800481 0.995193 0.822116
v -0.584134 0.822116 -2.250000
v 0.540866 0.822116 -2.250000
v -0.713942 1.471155 0.822116
v 0.670673 1.471155 0.822116
v 0.930289 0.865385 0.865384
v -0.973557 0.865385 0.865384
v -0.021635 1.687501 0.908653
v -0.237980 1.471155 0.951922
v 0.194712 1.471155 0.951922
v 0.540866 1.471155 1.860577
v -0.584134 1.471155 1.860577
v -0.670673 1.125000 1.817307
v 0.627403 1.125000 1.817307
v 0.237980 2.206732 -0.432693
v -0.281250 2.206732 -0.432693
v -0.281250 2.379808 -0.432693
v 0.237980 2.379808 -0.432693
v -0.843750 0.692309 -1.600962
v -0.843750 0.865385 -1.514423
v -0.713942 0.995193 -1.298078
v -0.627403 0.908654 -1.298078
v -0.800481 0.995193 1.038461
v -0.973557 0.822116 1.254807
v -0.973557 0.692309 1.341346
v -0.757212 0.865385 1.125000
v 0.930289 0.822116 1.254807
v 0.800481 0.995193 1.038461
v 0.757212 0.865385 1.125000
v 0.930289 0.692309 1.341346
v 0.670673 0.995193 -1.298078
v 0.800481 0.865385 -1.514423
v 0.800481 0.692309 -1.600962
v 0.627403 0.908654 -1.298078
v 0.237980 2.206732 0.432693
v -0.281250 2.206732 0.432693
v 0.713942 0.562501 -1.427884
v 0.800481 0.562501 -0.778846
v -0.843750 0.562501 -0.778846
v -0.713942 0.562501 -1.427884
v 0.627403 0.562501 -2.076924
v -0.627403 0.562501 -2.076924
v 0.800481 0.562501 0.822116
v -0.843750 0.562501 0.822116
v 0.237980 2.076924 -0.389423
v -0.281250 2.076924 -0.389423
v 0.973557 1.600962 -0.865385
v 0.973557 1.600962 -0.302884
v 0.887020 1.730770 -0.605770
v -0.973557 1.600962 -0.302884
v -0.973557 1.600962 -0.865385
v -0.887020 1.730770 -0.865385
v 0.887020 1.730770 -0.865385
v -0.887020 1.730770 -0.605770
v -0.584134 1.341347 -2.250000
v 0.540866 1.341347 -2.250000
v -0.843750 1.081732 -0.735577
v -0.843750 0.043269 -1.081731
v -0.843750 0.389423 -2.206731
v -0.843750 1.427886 -1.903846
v -1.319711 1.427886 -1.903846
v -1.319711 0.389423 -2.206731
v -1.319711 0.043269 -1.081731
v -1.319711 1.081732 -0.735577
v -0.973557 1.254808 2.033653
v -0.973557 0.043269 1.687499
v -0.973557 0.432693 0.475961
v -0.973557 1.644231 0.822116
v -1.579327 1.644231 0.822116
v -1.579327 0.432693 0.432693
v -1.579327 0.000000 1.730769
v -1.579327 1.254808 2.076922
v 0.800481 1.427886 -1.903846
v 0.800481 0.389423 -2.206731
v 0.800481 0.043269 -1.081731
v 0.800481 1.081732 -0.735577
v 1.319712 1.081732 -0.735577
v 1.319712 0.043269 -1.081731
v 1.319712 0.389423 -2.206731
v 1.319712 1.427886 -1.903846
v 0.930289 1.644231 0.822116
v 0.930289 0.432693 0.475961
v 0.930289 0.043269 1.687499
v 0.930289 1.254808 2.033653
v 1.579327 1.254808 2.076922
v 1.579327 0.000000 1.730769
v 1.579327 0.432693 0.432693
v 1.579327 1.644231 0.822116
v -1.319711 1.168269 -1.860577
v -1.319711 1.254808 -1.298078
v -0.843750 1.254808 -1.298078
v -0.843750 1.168269 -1.860577
v -1.319711 0.735577 -2.033654
v -0.843750 0.735577 -2.033654
v -1.319711 0.302886 -1.817307
v -0.843750 0.302886 -1.817307
v -1.319711 0.173078 -1.471154
v -0.843750 0.173078 -1.471154
v -1.319711 0.432693 -0.995193
v -0.843750 0.432693 -0.995193
v -1.319711 0.865385 -0.908654
v -0.843750 0.865385 -0.908654
v -0.930288 1.038463 1.860577
v -0.930288 1.471155 1.427884
v -1.579327 1.471155 1.427884
v -1.579327 1.038463 1.860577
v -0.930288 0.432693 1.774038
v -1.579327 0.432693 1.774038
v -0.930288 0.173078 1.254807
v -1.579327 0.173078 1.254807
v -0.930288 0.302886 0.822116
v -1.579327 0.302886 0.822116
v -0.930288 0.778846 0.605769
v -1.579327 0.778846 0.605769
v -0.930288 1.384616 0.822116
v -1.579327 1.384616 0.822116
v 0.800481 1.168269 -1.860577
v 0.800481 1.254808 -1.298078
v 1.319712 1.254808 -1.298078
v 1.319712 1.168269 -1.860577
v 0.800481 0.735577 -2.033654
v 1.319712 0.735577 -2.033654
v 0.800481 0.302886 -1.817307
v 1.319712 0.302886 -1.817307
v 0.800481 0.173078 -1.471154
v 1.319712 0.173078 -1.471154
v 0.800481 0.432693 -0.995193
v 1.319712 0.432693 -0.995193
v 0.800481 0.865385 -0.908654
v 1.319712 0.865385 -0.908654
v 1.579327 1.471155 1.427884
v 1.579327 1.384616 0.822116
v 0.930289 1.384616 0.822116
v 0.930289 1.471155 1.427884
v 1.579327 0.778846 0.605769
v 0.930289 0.778846 0.605769
v 1.579327 0.302886 0.822116
v 0.930289 0.302886 0.822116
v 1.579327 0.173078 1.254807
v 0.930289 0.173078 1.254807
v 1.579327 0.432693 1.774038
v 0.930289 0.432693 1.774038
v 1.579327 1.038463 1.860577
v 0.930289 1.038463 1.860577
v -0.843750 1.427886 -1.081731
v -0.843750 0.389423 -0.735577
v -0.843750 0.043269 -1.903846
v -0.843750 1.081732 -2.206731
v -1.319711 1.081732 -2.206731
v -1.319711 0.043269 -1.903846
v -1.319711 0.389423 -0.735577
v -1.319711 1.427886 -1.081731
v -0.973557 1.644231 1.687499
v -0.973557 0.432693 2.076922
v -0.973557 0.043269 0.822116
v -0.973557 1.254808 0.432693
v -1.579327 1.254808 0.432693
v -1.579327 0.000000 0.822116
v -1.579327 0.432693 2.076922
v -1.579327 1.644231 1.730769
v 0.800481 1.081732 -2.206731
v 0.800481 0.043269 -1.903846
v 0.800481 0.389423 -0.735577
v 0.800481 1.427886 -1.081731
v 1.319712 1.427886 -1.081731
v 1.319712 0.389423 -0.735577
v 1.319712 0.043269 -1.903846
v 1.319712 1.081732 -2.206731
v 0.930289 1.254808 0.432693
v 0.930289 0.043269 0.822116
v 0.930289 0.432693 2.076922
v 0.930289 1.644231 1.687499
v 1.579327 1.644231 1.730769
v 1.579327 0.432693 2.076922
v 1.579327 0.000000 0.822116
v 1.579327 1.254808 0.432693
v -1.319711 0.865385 -2.033654
v -1.319711 1.298078 -1.600962
v -0.843750 1.298078 -1.600962
v -0.843750 0.865385 -2.033654
v -1.319711 0.432693 -1.947116
v -0.843750 0.432693 -1.947116
v -1.319711 0.173078 -1.471154
v -0.843750 0.173078 -1.471154
v -1.319711 0.302886 -1.125000
v -0.843750 0.302886 -1.125000
v -1.319711 0.735577 -0.908654
v -0.843750 0.735577 -0.908654
v -1.319711 1.168269 -1.081731
v -0.843750 1.168269 -1.081731
v -0.930288 1.341347 1.644230
v -0.930288 1.471155 1.081731
v -1.579327 1.471155 1.081731
v -1.579327 1.341347 1.644230
v -0.930288 0.778846 1.903846
v -1.579327 0.778846 1.903846
v -0.930288 0.259616 1.644230
v -1.579327 0.259616 1.644230
v -0.930288 0.129808 1.211539
v -1.579327 0.129808 1.211539
v -0.930288 0.432693 0.735577
v -1.579327 0.432693 0.735577
v -0.930288 1.038463 0.605769
v -1.579327 1.038463 0.605769
v 0.800481 0.865385 -2.033654
v 0.800481 1.298078 -1.600962
v 1.319712 1.298078 -1.600962
v 1.319712 0.865385 -2.033654
v 0.800481 0.432693 -1.947116
v 1.319712 0.432693 -1.947116
v 0.800481 0.173078 -1.471154
v 1.319712 0.173078 -1.471154
v 0.800481 0.302886 -1.125000
v 1.319712 0.302886 -1.125000
v 0.800481 0.735577 -0.908654
v 1.319712 0.735577 -0.908654
v 0.800481 1.168269 -1.081731
v 1.319712 1.168269 -1.081731
v 1.579327 1.471155 1.081731
v 1.579327 1.038463 0.605769
v 0.930289 1.038463 0.605769
v 0.930289 1.471155 1.081731
v 1.579327 0.432693 0.735577
v 0.930289 0.432693 0.735577
v 1.579327 0.129808 1.211539
v 0.930289 0.129808 1.211539
v 1.579327 0.259616 1.644230
v 0.930289 0.259616 1.644230
v 1.579327 0.778846 1.903846
v 0.930289 0.778846 1.903846
v 1.579327 1.341347 1.644230
v 0.930289 1.341347 1.644230
vn 0.9703 0.2412 -0.0161
vn 0.8814 0.4517 -0.1379
vn 0.9309 -0.3477 0.1122
vn 0.8367 -0.4950 -0.2344
vn 0.5058 0.6788 -0.5323
vn -0.6838 -0.6312 0.3662
vn -0.4803 0.6816 0.5521
vn -0.9336 -0.3542 0.0533
vn 0.5519 -0.7648 0.3325
vn -0.4910 0.6308 -0.6008
vn -0.0000 0.9728 -0.2315
vn 0.4693 0.6408 -0.6075
vn -0.3247 0.7164 -0.6175
vn 0.3197 0.7275 -0.6071
vn 0.5742 0.5967 0.5606
vn 0.1299 0.5084 -0.8513
vn -0.6607 0.5798 0.4768
vn 0.1298 -0.5084 -0.8513
vn -0.6607 -0.5798 0.4767
vn 0.5741 -0.5967 0.5606
vn -0.1299 -0.5084 -0.8513
vn 0.6607 -0.5798 0.4768
vn -0.5742 -0.5967 0.5606
vn -0.5741 0.5967 0.5606
vn 0.6607 0.5798 0.4767
vn -0.1298 0.5084 -0.8513
vn -0.0110 -0.2055 -0.9786
vn -0.6928 -0.7206 0.0277
vn -0.8466 -0.5294 -0.0547
vn -0.8321 -0.5547 -0.0000
vn 0.0379 0.0284 -0.9989
vn 0.6250 0.4688 0.6242
vn 0.6000 -0.8000 -0.0000
vn -0.3162 0.9487 -0.0000
vn 0.7068 -0.7068 0.0283
vn 0.9376 0.2636 0.2267
vn -0.2172 -0.3909 0.8944
vn 0.7837 -0.6162 -0.0783
vn 0.8742 -0.4856 -0.0000
vn 0.0134 0.9799 0.1989
vn -0.8944 -0.4473 -0.0025
vn -0.7746 0.2582 0.5774
vn 0.2582 0.7746 0.5774
vn 0.2915 0.9566 -0.0000
vn -0.9148 0.4038 -0.0000
vn -0.2582 0.7746 0.5774
vn 0.7746 0.2582 0.5774
vn 0.9149 0.4038 -0.0000
vn -0.2915 0.9566 -0.0000
vn -0.8636 -0.4689 -0.1850
vn 0.4211 0.8496 0.3177
vn 0.6047 -0.6083 -0.5142
vn -0.4977 0.6819 -0.5361
vn 0.0768 0.9179 -0.3892
vn 0.0881 -0.9610 -0.2623
vn -0.1940 0.2476 -0.9492
vn 0.9824 0.1604 -0.0952
vn 0.2911 -0.1003 0.9514
vn -0.0000 0.3162 -0.9487
vn 0.8580 0.2941 0.4211
vn -0.4802 0.6816 0.5521
vn 0.9223 -0.0350 -0.3849
vn -0.8085 -0.5885 -0.0000
vn -0.8029 0.2684 -0.5323
vn -0.4977 0.6818 -0.5361
vn -0.5466 -0.2733 0.7916
vn -0.0000 0.2537 0.9673
vn 0.5466 -0.2733 0.7915
vn -0.7032 0.1978 -0.6830
vn -0.9806 0.1670 -0.1029
vn -0.6392 -0.1787 -0.7480
vn 0.4979 0.2359 -0.8346
vn 0.9825 0.1604 -0.0952
vn 0.5057 0.6789 -0.5323
vn -0.2843 -0.9008 0.3281
vn 0.4852 0.6800 0.5497
vn 0.5058 0.6788 -0.5324
vn -0.4978 0.6818 -0.5361
vn -0.5891 -0.0605 -0.8058
vn -0.9806 0.1669 -0.1030
vn 0.3197 0.7275 -0.6070
vn 0.5719 -0.0511 -0.8187
vn 0.5058 0.6789 -0.5323
vn -0.5410 0.6523 0.5309
vn 0.5408 0.6569 0.5253
vn 0.2837 0.4856 -0.8269
vn 0.9825 0.1603 -0.0952
vn -0.4453 0.7374 0.5078
vn 0.3568 0.9309 -0.0784
vn -0.8379 0.3491 -0.4196
vn 0.2455 0.1648 0.9553
vn 0.4698 0.1342 -0.8725
vn -0.3771 0.2827 -0.8820
vn -0.0000 1.0000 -0.0000
vn -0.8944 -0.4472 -0.0000
vn 0.8944 -0.4472 -0.0000
vn 0.4539 0.5988 0.6599
vn -0.4582 0.5979 0.6578
vn -0.6187 -0.3505 0.7031
vn 0.6142 -0.3539 0.7054
vn 0.9891 0.1306 0.0683
vn -0.9889 0.1293 0.0735
vn 0.8736 -0.0000 -0.4866
vn -0.8736 -0.0000 -0.4866
vn -0.5677 0.6367 -0.5219
vn 0.5677 0.6367 -0.5219
vn 0.7018 -0.0280 -0.7118
vn 0.7220 0.3094 -0.6189
vn -0.1071 -0.0554 -0.9927
vn 0.4975 0.4975 -0.7107
vn -0.2904 0.2768 0.9160
vn 0.4366 0.4990 0.7485
vn -0.3614 -0.4245 0.8302
vn 0.2778 0.5953 0.7540
vn -0.7276 0.4851 -0.4851
vn -0.3802 0.5974 0.7061
vn -0.7276 0.4850 -0.4850
vn -0.4366 0.4990 0.7485
vn 0.0127 -0.2329 0.9724
vn -0.7220 0.3094 -0.6189
vn -0.9196 0.3927 0.0031
vn -0.6881 0.3440 -0.6389
vn 0.2198 0.9566 0.1913
vn -0.2198 0.9566 0.1913
vn -0.0000 -1.0000 -0.0000
vn 0.7231 -0.6880 -0.0616
vn -0.7260 -0.6851 -0.0601
vn 0.6652 -0.6084 -0.4327
vn -0.5960 -0.6725 -0.4387
vn 0.6647 -0.7129 0.2237
vn -0.6647 -0.7129 0.2237
vn 1.0000 -0.0000 -0.0000
vn -1.0000 -0.0000 -0.0000
vn -0.7071 -0.7071 -0.0000
vn 0.8321 -0.5547 -0.0000
vn 0.5719 -0.0510 -0.8187
vn -0.0000 -0.0000 -1.0000
vn -0.0000 0.7829 -0.6221
vn -0.0000 0.9504 0.3111
vn -0.0000 -0.0415 -0.9991
vn -0.0000 -0.0416 -0.9991
vn -0.0000 -0.7432 -0.6691
vn -0.0000 -0.9975 0.0702
vn -0.0000 -0.5927 0.8054
vn -0.0000 0.2898 0.9571
vn -0.0000 0.3162 0.9487
vn -0.0000 0.9487 0.3162
vn -0.0000 -0.5847 0.8113
vn -0.0000 -0.5847 0.8112
vn -0.0000 -0.9963 0.0860
vn -0.0000 -0.7532 -0.6577
vn -0.0000 -0.0418 -0.9991
vn -0.0000 0.7745 -0.6326
vn -0.0000 0.7745 -0.6325
vn -0.0000 0.2898 -0.9571
vn -0.0000 0.9637 -0.2669
vn -0.0000 -0.5927 -0.8054
vn -0.0000 -0.9975 -0.0702
vn -0.0000 -0.7432 0.6691
vn -0.0000 -0.0416 0.9991
vn -0.0000 -0.0415 0.9991
vn -0.0000 0.7534 0.6576
vn -0.0000 0.7759 0.6308
vn -0.0000 0.9675 -0.2528
vn -0.0000 0.9675 -0.2527
vn -0.0000 -0.0156 0.9999
vn -0.0000 -0.7653 0.6437
vn -0.0000 -0.9905 -0.1372
vn -0.0000 -0.5709 -0.8210
vn -0.0000 0.3059 -0.9521
vn -0.0000 0.3060 -0.9520
vt 0.687500 -0.187500
vt 0.570312 -0.187500
vt 0.570312 -0.296875
vt 0.687500 -0.304688
vt 0.000000 -0.835938
vt 0.234375 -0.851562
vt 0.218750 -0.976562
vt 0.007812 -0.976562
vt 0.250000 -0.593750
vt 0.382812 -0.609375
vt 0.382812 -0.375000
vt 0.250000 -0.390625
vt 0.523438 -0.632812
vt 0.523438 -0.359375
vt 0.929688 -0.468750
vt 0.796875 -0.507812
vt 0.929688 -0.507812
vt 0.937500 -0.570312
vt 0.812500 -0.585938
vt 0.812500 -0.406250
vt 0.820312 -0.187500
vt 0.914062 -0.187500
vt 0.914062 -0.148438
vt 0.804688 -0.585938
vt 0.937500 -0.429688
vt 0.921875 -0.468750
vt 0.796875 -0.476562
vt 0.820312 -0.148438
vt 0.992188 0.000000
vt 0.835938 0.000000
vt 0.828125 -0.023438
vt 0.992188 -0.031250
vt 0.804688 -0.125000
vt 0.804688 -0.039062
vt 0.945312 -0.039062
vt 0.945312 -0.125000
vt 0.945312 -0.140625
vt 0.945312 -0.109375
vt 0.796875 -0.109375
vt 0.796875 -0.140625
vt 0.218750 -0.968750
vt 0.234375 -0.859375
vt 0.023438 -0.992188
vt 0.000000 -0.859375
vt 0.015625 -0.992188
vt 0.218750 -0.992188
vt 0.000000 -0.851562
vt 0.781250 -0.773438
vt 0.734375 -0.796875
vt 0.757812 -0.851562
vt 0.804688 -0.812500
vt 0.875000 -0.796875
vt 0.820312 -0.773438
vt 0.851562 -0.851562
vt 0.781250 -0.031250
vt 0.546875 -0.062500
vt 0.476562 -0.328125
vt 0.781250 -0.304688
vt 0.781250 -0.593750
vt 0.781250 -0.390625
vt 0.546875 -0.390625
vt 0.546875 -0.593750
vt 0.250000 -0.343750
vt 0.523438 -0.171875
vt 0.250000 -0.281250
vt 0.421875 -0.945312
vt 0.601562 -0.945312
vt 0.632812 -0.835938
vt 0.390625 -0.835938
vt 0.898438 -0.695312
vt 0.710938 -0.695312
vt 0.671875 -0.851562
vt 0.937500 -0.851562
vt 0.031250 -0.984375
vt 0.046875 -0.851562
vt 0.195312 -0.843750
vt 0.203125 -0.984375
vt 0.015625 -0.984375
vt 0.218750 -0.984375
vt 0.945312 -0.148438
vt 0.804688 -0.148438
vt 0.945312 -0.195312
vt 0.812500 -0.195312
vt 0.914062 -0.851562
vt 0.695312 -0.851562
vt 0.671875 -0.929688
vt 0.937500 -0.929688
vt 0.812500 -0.351562
vt 0.804688 -0.640625
vt 0.976562 -0.617188
vt 0.976562 -0.375000
vt 0.976562 -0.195312
vt 0.976562 -0.273438
vt 0.421875 -0.718750
vt 0.601562 -0.718750
vt 0.617188 -0.656250
vt 0.406250 -0.656250
vt 0.312500 -0.992188
vt 0.312500 -0.835938
vt 0.242188 -0.835938
vt 0.242188 -0.992188
vt 0.992188 -0.117188
vt 0.945312 -0.085938
vt 0.945312 -0.031250
vt 0.992188 -0.023438
vt 0.945312 -0.070312
vt 0.992188 -0.171875
vt 0.992188 -0.093750
vt 0.976562 -0.039062
vt 0.296875 -0.437500
vt 0.171875 -0.437500
vt 0.171875 -0.671875
vt 0.296875 -0.671875
vt 0.984375 -0.625000
vt 0.984375 -0.546875
vt 0.000000 -0.546875
vt 0.000000 -0.625000
vt 0.984375 -0.703125
vt 0.000000 -0.703125
vt 0.984375 -0.265625
vt 0.000000 -0.265625
vt 0.890625 0.000000
vt 0.078125 0.000000
vt 0.140625 -1.000000
vt 0.828125 -1.000000
vt 0.218750 -1.015625
vt 0.359375 -0.921875
vt 0.359375 -0.671875
vt 0.125000 -0.218750
vt 0.359375 -0.218750
vt 0.125000 -1.218750
vt 0.046875 -0.921875
vt 0.359375 -1.218750
vt 0.156250 -0.734375
vt 0.156250 -0.296875
vt 0.218750 -0.296875
vt 0.281250 -0.312500
vt 0.218750 -0.750000
vt 0.203125 -0.312500
vt 0.203125 -0.546875
vt 0.234375 -0.140625
vt 0.507812 -0.140625
vt 0.507812 0.000000
vt 0.242188 0.000000
vt 0.234375 0.000000
vt 0.234375 -0.265625
vt 0.000000 0.000000
vt 0.234375 -0.273438
vt 0.234375 -0.546875
vt 0.000000 -0.273438
vt 0.117188 -0.632812
vt 0.117188 -0.570312
vt 0.000000 -0.570312
vt 0.000000 -0.632812
vt 0.117188 -0.750000
vt 0.000000 -0.750000
vt 0.117188 -0.835938
vt 0.117188 -0.625000
vt 0.117188 -0.562500
vt 0.234375 -0.562500
vt 0.234375 -0.625000
vt 0.117188 -0.742188
vt 0.234375 -0.742188
vt 0.234375 -0.835938
vt 0.234375 -0.632812
vt 0.234375 -0.750000
s 1
usemtl material_0.003
f 1/1/1 2/2/1 3/3/1
f 1/1/1 3/3/1 4/4/1
f 5/5/2 6/6/3 7/7/4
f 5/5/2 7/7/4 8/8/5
f 9/8/6 10/7/7 11/6/8
f 9/8/6 11/6/8 12/5/9
f 13/9/10 14/10/11 15/11/11
f 13/9/10 15/11/11 16/12/12
f 14/10/11 17/13/13 18/14/14
f 14/10/11 18/14/14 15/11/11
f 19/15/15 20/16/16 21/17/17
f 22/18/18 23/19/19 21/20/17
f 23/21/19 24/22/20 19/23/15
f 24/24/20 22/18/18 20/25/16
f 23/17/19 22/16/18 24/26/20
f 25/27/21 26/17/22 27/26/23
f 25/18/21 27/24/23 28/20/24
f 27/22/23 26/21/22 29/28/25
f 26/19/22 25/18/21 30/25/26
f 30/27/26 28/15/24 29/17/25
f 31/29/27 32/30/28 33/31/29
f 31/29/27 33/31/29 34/32/30
f 35/32/31 36/31/32 37/30/33
f 35/32/34 37/30/35 38/29/35
f 39/33/36 36/34/37 40/35/38
f 39/33/36 40/35/38 41/36/39
f 42/36/40 43/35/30 33/34/41
f 42/36/40 33/34/41 44/33/30
f 45/37/42 46/38/43 47/39/44
f 45/37/42 47/39/44 48/40/45
f 49/38/46 50/37/47 51/40/48
f 49/38/46 51/40/48 52/39/49
f 53/41/50 54/42/51 12/5/52
f 53/41/50 12/5/52 9/43/53
f 8/43/54 5/5/55 55/42/56
f 8/43/54 55/42/56 56/41/57
f 11/42/58 6/44/59 7/45/60
f 11/42/58 7/45/60 10/46/61
f 12/6/62 5/47/63 8/45/64
f 12/6/62 8/45/64 9/46/65
f 46/48/43 45/49/42 57/50/66
f 46/48/43 57/50/66 58/51/67
f 50/52/47 49/53/46 58/51/67
f 50/52/47 58/51/67 59/54/68
f 58/51/67 57/50/66 59/54/68
f 10/55/69 9/56/65 53/57/70
f 10/55/69 53/57/70 60/58/71
f 61/58/72 56/57/73 8/56/74
f 61/58/72 8/56/74 7/55/75
f 10/59/61 7/60/76 8/61/77
f 10/59/61 8/61/77 9/62/78
f 62/63/79 53/57/80 17/64/13
f 62/63/79 17/64/13 13/65/10
f 16/65/12 18/64/81 56/57/73
f 16/65/12 56/57/73 63/63/82
f 9/66/65 8/67/83 18/68/14
f 9/66/65 18/68/14 17/69/13
f 7/70/76 10/71/7 64/72/84
f 7/70/76 64/72/84 65/73/85
f 55/74/86 56/75/87 61/76/72
f 55/74/86 61/76/72 66/77/88
f 67/77/89 60/76/71 53/75/90
f 67/77/89 53/75/90 54/74/91
f 7/78/75 6/47/92 66/6/88
f 7/78/75 66/6/88 61/79/72
f 60/79/71 67/6/89 11/47/93
f 60/79/71 11/47/93 10/78/69
f 46/38/43 58/80/67 68/81/94
f 46/38/43 68/81/94 47/39/44
f 58/80/67 49/38/46 52/39/49
f 58/80/67 52/39/49 68/81/94
f 57/82/66 45/37/42 48/40/45
f 57/82/66 48/40/45 69/83/95
f 50/37/47 59/82/68 70/83/96
f 50/37/47 70/83/96 51/40/48
f 71/84/97 72/85/98 73/86/99
f 71/84/97 73/86/99 74/87/100
f 65/88/85 64/89/84 72/90/98
f 65/88/85 72/90/98 71/91/97
f 61/58/101 65/83/85 71/92/97
f 61/58/101 71/92/97 74/93/100
f 64/83/84 60/58/102 73/93/99
f 64/83/84 73/93/99 72/92/98
f 13/94/10 16/95/12 63/96/82
f 13/94/10 63/96/82 62/97/79
f 75/98/103 76/99/104 77/100/105
f 75/98/103 77/100/105 78/101/106
f 79/102/107 80/103/108 81/104/109
f 79/102/107 81/104/109 82/105/110
f 83/106/111 84/37/112 85/107/113
f 83/106/111 85/107/113 86/108/114
f 87/37/115 88/106/116 89/108/116
f 87/37/117 89/108/118 90/107/118
f 91/104/119 92/103/120 93/102/121
f 91/104/119 93/102/121 94/109/122
f 22/18/18 21/20/17 20/25/16
f 23/21/19 19/23/15 21/28/17
f 24/24/20 20/25/16 19/20/15
f 25/18/21 28/20/24 30/25/26
f 27/22/23 29/28/25 28/23/24
f 26/19/22 30/25/26 29/20/25
f 149/151/138 150/152/139 151/153/139
f 149/151/138 151/153/139 152/154/138
f 153/155/140 149/151/138 152/154/138
f 153/155/140 152/154/138 154/156/141
f 155/157/142 153/155/140 154/156/141
f 155/157/142 154/156/141 156/5/142
f 157/157/143 155/157/142 156/5/142
f 157/157/143 156/5/142 158/5/143
f 159/155/144 157/157/143 158/5/143
f 159/155/144 158/5/143 160/156/144
f 161/151/145 159/155/144 160/156/144
f 161/151/145 160/156/144 162/154/145
f 150/152/139 161/151/145 162/154/145
f 150/152/139 162/154/145 151/153/139
f 163/158/146 164/159/147 165/160/147
f 163/158/146 165/160/147 166/161/146
f 167/162/148 163/158/146 166/161/146
f 167/162/148 166/161/146 168/163/149
f 169/157/150 167/162/148 168/163/149
f 169/157/150 168/163/149 170/164/150
f 171/157/151 169/157/150 170/164/150
f 171/157/151 170/164/150 172/164/151
f 173/162/152 171/157/151 172/164/151
f 173/162/152 172/164/151 174/163/152
f 175/158/153 173/162/152 174/163/152
f 175/158/153 174/163/152 176/161/154
f 164/159/147 175/158/153 176/161/154
f 164/159/147 176/161/154 165/160/147
f 177/165/138 178/160/139 179/159/139
f 177/165/138 179/159/139 180/151/138
f 181/166/140 177/165/138 180/151/138
f 181/166/140 180/151/138 182/155/141
f 183/164/142 181/166/140 182/155/141
f 183/164/142 182/155/141 184/157/142
f 185/164/143 183/164/142 184/157/142
f 185/164/143 184/157/142 186/157/143
f 187/166/144 185/164/143 186/157/143
f 187/166/144 186/157/143 188/155/144
f 189/165/145 187/166/144 188/155/144
f 189/165/145 188/155/144 190/151/145
f 178/160/139 189/165/145 190/151/145
f 178/160/139 190/151/145 179/159/139
f 191/153/147 192/117/153 193/158/154
f 191/153/147 193/158/154 194/152/147
f 192/117/153 195/156/152 196/155/152
f 192/117/153 196/155/152 193/158/154
f 195/156/152 197/5/151 198/157/151
f 195/156/152 198/157/151 196/155/152
f 197/5/151 199/5/150 200/157/150
f 197/5/151 200/157/150 198/157/151
f 199/5/150 201/156/148 202/155/149
f 199/5/150 202/155/149 200/157/150
f 201/156/148 203/117/146 204/158/146
f 201/156/148 204/158/146 202/155/149
f 203/117/146 191/153/147 194/152/147
f 203/117/146 194/152/147 204/158/146
f 237/151/155 238/152/156 239/153/156
f 237/151/155 239/153/156 240/154/155
f 241/155/157 237/151/155 240/154/155
f 241/155/157 240/154/155 242/156/157
f 243/157/158 241/155/157 242/156/157
f 243/157/158 242/156/157 244/5/158
f 245/157/159 243/157/158 244/5/158
f 245/157/159 244/5/158 246/5/159
f 247/155/160 245/157/159 246/5/159
f 247/155/160 246/5/159 248/156/161
f 249/151/162 247/155/160 248/156/161
f 249/151/162 248/156/161 250/154/162
f 238/152/156 249/151/162 250/154/162
f 238/152/156 250/154/162 239/153/156
f 251/158/163 252/159/164 253/160/165
f 251/158/163 253/160/165 254/161/163
f 255/162/166 251/158/163 254/161/163
f 255/162/166 254/161/163 256/163/166
f 257/157/167 255/162/166 256/163/166
f 257/157/167 256/163/166 258/164/167
f 259/157/168 257/157/167 258/164/167
f 259/157/168 258/164/167 260/164/168
f 261/162/169 259/157/168 260/164/168
f 261/162/169 260/164/168 262/163/169
f 263/158/170 261/162/169 262/163/169
f 263/158/170 262/163/169 264/161/171
f 252/159/164 263/158/170 264/161/171
f 252/159/164 264/161/171 253/160/165
f 265/165/155 266/160/156 267/159/156
f 265/165/155 267/159/156 268/151/155
f 269/166/157 265/165/155 268/151/155
f 269/166/157 268/151/155 270/155/157
f 271/164/158 269/166/157 270/155/157
f 271/164/158 270/155/157 272/157/158
f 273/164/159 271/164/158 272/157/158
f 273/164/159 272/157/158 274/157/159
f 275/166/160 273/164/159 274/157/159
f 275/166/160 274/157/159 276/155/161
f 277/165/162 275/166/160 276/155/161
f 277/165/162 276/155/161 278/151/162
f 266/160/156 277/165/162 278/151/162
f 266/160/156 278/151/162 267/159/156
f 279/153/164 280/117/170 281/158/171
f 279/153/164 281/158/171 282/152/165
f 280/117/170 283/156/169 284/155/169
f 280/117/170 284/155/169 281/158/171
f 283/156/169 285/5/168 286/157/168
f 283/156/169 286/157/168 284/155/169
f 285/5/168 287/5/167 288/157/167
f 285/5/168 288/157/167 286/157/168
f 287/5/167 289/156/166 290/155/166
f 287/5/167 290/155/166 288/157/167
f 289/156/166 291/117/163 292/158/163
f 289/156/166 292/158/163 290/155/166
f 291/117/163 279/153/164 282/152/165
f 291/117/163 282/152/165 292/158/163
usemtl material_1.003
f 95/110/123 78/111/106 77/112/105
f 95/110/123 77/112/105 96/113/124
f 97/114/125 98/115/126 99/116/127
f 97/114/125 99/116/127 100/117/125
f 101/118/128 97/114/125 100/117/125
f 101/118/128 100/117/125 102/119/129
f 98/115/126 103/120/130 104/121/131
f 98/115/126 104/121/131 99/116/127
f 74/122/100 73/123/99 104/121/131
f 74/122/100 104/121/131 103/120/130
f 62/124/79 63/125/82 101/118/128
f 62/124/79 101/118/128 102/119/129
f 53/112/80 62/126/79 102/127/129
f 53/112/80 102/127/129 99/128/127
f 63/126/82 56/112/73 98/128/126
f 63/126/82 98/128/126 101/127/128
f 56/112/73 61/129/101 103/130/130
f 56/112/73 103/130/130 98/128/126
f 61/131/101 74/132/100 103/133/130
f 60/129/102 53/112/80 99/128/127
f 60/129/102 99/128/127 104/130/131
f 60/131/102 104/133/131 73/132/99
f 95/134/123 105/135/132 75/136/103
f 95/134/123 75/136/103 78/137/106
f 77/137/105 76/136/104 106/135/133
f 77/137/105 106/135/133 96/134/124
f 107/138/30 108/139/30 109/140/134
f 110/139/135 111/138/135 112/138/95
f 107/138/30 109/140/134 113/138/30
f 110/139/135 112/138/95 114/140/135
usemtl material_2.002
f 63/141/136 62/142/79 115/143/137
f 63/141/82 115/143/137 116/144/137
f 117/145/132 118/146/132 119/121/132
f 117/145/132 119/121/132 120/147/132
f 121/147/133 122/121/133 123/146/133
f 121/147/133 123/146/133 124/145/133
f 125/148/132 126/149/132 127/116/132
f 125/148/132 127/116/132 128/150/132
f 129/150/133 130/116/133 131/149/133
f 129/150/133 131/149/133 132/148/133
f 133/147/133 134/121/133 135/146/133
f 133/147/133 135/146/133 136/145/133
f 137/145/132 138/146/132 139/121/132
f 137/145/132 139/121/132 140/147/132
f 141/150/133 142/116/133 143/149/133
f 141/150/133 143/149/133 144/148/133
f 145/148/132 146/149/132 147/116/132
f 145/148/132 147/116/132 148/150/132
f 205/145/132 206/146/132 207/121/132
f 205/145/132 207/121/132 208/147/132
f 209/147/133 210/121/133 211/146/133
f 209/147/133 211/146/133 212/145/133
f 213/148/132 214/149/132 215/116/132
f 213/148/132 215/116/132 216/150/132
f 217/150/133 218/116/133 219/149/133
f 217/150/133 219/149/133 220/148/133
f 221/147/133 222/121/133 223/146/133
f 221/147/133 223/146/133 224/145/133
f 225/145/132 226/146/132 227/121/132
f 225/145/132 227/121/132 228/147/132
f 229/150/133 230/116/133 231/149/133
f 229/150/133 231/149/133 232/148/133
f 233/148/132 234/149/132 235/116/132
f 233/148/132 235/116/132 236/150/132
