# Blender 5.1.2
# www.blender.org
mtllib Spectre.mtl
o Spectre
v -1.026316 0.355263 -1.776316
v 1.026316 0.355263 -1.776316
v -1.026316 0.197369 -0.986842
v 1.026316 0.355263 -1.776316
v 1.026316 0.197369 -0.986842
v -1.026316 0.197369 -0.986842
v -0.947368 0.394737 -1.934211
v 0.947368 0.394737 -1.934211
v -1.026316 0.355263 -1.776316
v 0.947368 0.394737 -1.934211
v 1.026316 0.355263 -1.776316
v -1.026316 0.355263 -1.776316
v -1.026316 0.197369 -0.986842
v 1.026316 0.197369 -0.986842
v -1.026316 0.197369 0.828947
v 1.026316 0.197369 -0.986842
v 1.026316 0.197369 0.828947
v -1.026316 0.197369 0.828947
v -1.026316 0.197369 0.828947
v 1.026316 0.197369 0.828947
v -1.026316 0.197369 1.618421
v 1.026316 0.197369 0.828947
v 1.026316 0.197369 1.618421
v -1.026316 0.197369 1.618421
v 1.026316 0.197369 1.618421
v 0.868421 0.355263 2.092105
v -1.026316 0.197369 1.618421
v 0.868421 0.355263 2.092105
v -0.868421 0.355263 2.092105
v -1.026316 0.197369 1.618421
v -0.907895 0.828947 -0.828947
v -0.907895 0.828947 -1.618421
v -0.907895 1.026316 -0.828947
v -0.907895 0.828947 -1.618421
v -0.907895 1.026316 -1.618421
v -0.907895 1.026316 -0.828947
v 0.907895 1.026316 -0.828947
v 0.907895 1.026316 -1.618421
v 0.907895 0.828947 -0.828947
v 0.907895 1.026316 -1.618421
v 0.907895 0.828947 -1.618421
v 0.907895 0.828947 -0.828947
v -0.947368 0.986842 -1.618421
v -0.947368 0.986842 -2.250000
v -0.986842 0.907895 -1.618421
v -0.947368 0.986842 -2.250000
v -0.986842 0.907895 -2.250000
v -0.986842 0.907895 -1.618421
v -1.026316 0.828947 -0.828947
v -1.026316 0.828947 -1.618421
v -0.907895 0.828947 -0.828947
v -1.026316 0.828947 -1.618421
v -0.907895 0.828947 -1.618421
v -0.907895 0.828947 -0.828947
v -0.907895 1.026316 -0.828947
v -0.907895 1.026316 -1.618421
v -1.026316 1.026316 -0.828947
v -0.907895 1.026316 -1.618421
v -1.026316 1.026316 -1.618421
v -1.026316 1.026316 -0.828947
v -1.026316 1.026316 -0.828947
v -1.026316 1.026316 -1.618421
v -1.026316 0.828947 -0.828947
v -1.026316 1.026316 -1.618421
v -1.026316 0.828947 -1.618421
v -1.026316 0.828947 -0.828947
v -0.907895 0.828947 -1.618421
v -1.026316 0.828947 -1.618421
v -0.907895 1.026316 -1.618421
v -1.026316 0.828947 -1.618421
v -1.026316 1.026316 -1.618421
v -0.907895 1.026316 -1.618421
v -0.907895 1.026316 -0.828947
v -1.026316 1.026316 -0.828947
v -0.907895 0.828947 -0.828947
v -1.026316 1.026316 -0.828947
v -1.026316 0.828947 -0.828947
v -0.907895 0.828947 -0.828947
v 0.986842 0.907895 -1.618421
v 0.986842 0.907895 -2.250000
v 0.947368 0.986842 -1.618421
v 0.986842 0.907895 -2.250000
v 0.947368 0.986842 -2.250000
v 0.947368 0.986842 -1.618421
v 0.907895 0.828947 -0.828947
v 0.907895 0.828947 -1.618421
v 1.026316 0.828947 -0.828947
v 0.907895 0.828947 -1.618421
v 1.026316 0.828947 -1.618421
v 1.026316 0.828947 -0.828947
v 1.026316 1.026316 -0.828947
v 1.026316 1.026316 -1.618421
v 0.907895 1.026316 -0.828947
v 1.026316 1.026316 -1.618421
v 0.907895 1.026316 -1.618421
v 0.907895 1.026316 -0.828947
v 1.026316 0.828947 -0.828947
v 1.026316 0.828947 -1.618421
v 1.026316 1.026316 -0.828947
v 1.026316 0.828947 -1.618421
v 1.026316 1.026316 -1.618421
v 1.026316 1.026316 -0.828947
v 0.907895 1.026316 -1.618421
v 1.026316 1.026316 -1.618421
v 0.907895 0.828947 -1.618421
v 1.026316 1.026316 -1.618421
v 1.026316 0.828947 -1.618421
v 0.907895 0.828947 -1.618421
v 0.907895 0.828947 -0.828947
v 1.026316 0.828947 -0.828947
v 0.907895 1.026316 -0.828947
v 1.026316 0.828947 -0.828947
v 1.026316 1.026316 -0.828947
v 0.907895 1.026316 -0.828947
v -0.947368 0.986842 -1.618421
v -0.986842 0.907895 -1.618421
v -0.947368 0.986842 -2.250000
v -0.986842 0.907895 -1.618421
v -0.986842 0.907895 -2.250000
v -0.947368 0.986842 -2.250000
v 0.986842 0.907895 -1.618421
v 0.947368 0.986842 -1.618421
v 0.986842 0.907895 -2.250000
v 0.947368 0.986842 -1.618421
v 0.947368 0.986842 -2.250000
v 0.986842 0.907895 -2.250000
v 0.710526 0.000000 -1.184210
v 0.710526 0.197369 -0.986842
v 0.710526 0.000000 -1.776316
v 0.710526 0.197369 -0.986842
v 0.710526 0.355263 -1.776316
v 0.710526 0.000000 -1.776316
v 0.631579 0.000000 1.026316
v 0.631579 0.000000 1.381579
v 0.631579 0.197369 0.828947
v 0.631579 0.000000 1.381579
v 0.631579 0.197369 1.618421
v 0.631579 0.197369 0.828947
v -0.631579 0.197369 0.828947
v -0.631579 0.197369 1.618421
v -0.631579 0.000000 1.026316
v -0.631579 0.197369 1.618421
v -0.631579 0.000000 1.381579
v -0.631579 0.000000 1.026316
v -0.710526 0.000000 -1.776316
v -0.710526 0.355263 -1.776316
v -0.710526 0.000000 -1.184210
v -0.710526 0.355263 -1.776316
v -0.710526 0.197369 -0.986842
v -0.710526 0.000000 -1.184210
v -0.513158 1.263158 0.078947
v 0.000000 0.907895 -0.276316
v -0.710526 0.907895 -0.276316
v -0.513158 1.263158 0.078947
v 0.513158 1.263158 0.078947
v 0.000000 0.907895 -0.276316
v 0.513158 1.263158 0.078947
v 0.710526 0.907895 -0.276316
v 0.000000 0.907895 -0.276316
v 0.000000 0.789474 -1.618421
v -0.828947 0.631579 -2.092105
v -0.631579 0.789474 -1.618421
v -0.355263 1.302632 0.197368
v 0.355263 1.302632 0.197368
v -0.513158 1.263158 0.078947
v 0.355263 1.302632 0.197368
v 0.513158 1.263158 0.078947
v -0.513158 1.263158 0.078947
v -0.710526 0.907895 -0.276316
v -0.710526 0.907895 0.907895
v -0.513158 1.263158 0.078947
v -0.710526 0.907895 0.907895
v -0.552632 1.184211 0.907895
v -0.513158 1.263158 0.078947
v 0.513158 1.263158 0.078947
v 0.552632 1.184211 0.907895
v 0.710526 0.907895 -0.276316
v 0.552632 1.184211 0.907895
v 0.710526 0.907895 0.907895
v 0.710526 0.907895 -0.276316
v -0.828947 0.828948 0.631579
v -1.026316 0.671053 0.986842
v -0.789474 0.907895 0.947368
v -0.828947 0.828948 0.631579
v -0.828947 0.828947 -0.671053
v -1.026316 0.671053 0.986842
v -0.828947 0.828947 -0.671053
v -1.026316 0.671053 -1.144737
v -1.026316 0.671053 0.986842
v 0.789474 0.907895 0.947368
v 1.026316 0.671053 0.986842
v 0.828947 0.828948 0.631579
v 0.828947 0.828947 -0.671053
v 0.828947 0.828948 0.631579
v 1.026316 0.671053 -1.144737
v 0.828947 0.828948 0.631579
v 1.026316 0.671053 0.986842
v 1.026316 0.671053 -1.144737
v -0.315789 0.868421 1.776316
v -0.552632 1.184211 0.907895
v -0.394737 0.789474 1.697368
v -0.552632 1.184211 0.907895
v -0.710526 0.907895 0.907895
v -0.394737 0.789474 1.697368
v -0.552632 1.184211 0.907895
v -0.315789 0.868421 1.776316
v -0.355263 1.263158 0.907895
v -0.315789 0.868421 1.776316
v 0.000000 0.947369 1.855263
v -0.355263 1.263158 0.907895
v 0.355263 1.263158 0.907895
v 0.000000 0.947369 1.855263
v 0.552632 1.184211 0.907895
v 0.000000 0.947369 1.855263
v 0.315789 0.868421 1.776316
v 0.552632 1.184211 0.907895
v 0.552632 1.184211 0.907895
v 0.315789 0.868421 1.776316
v 0.710526 0.907895 0.907895
v 0.315789 0.868421 1.776316
v 0.394737 0.789474 1.697368
v 0.710526 0.907895 0.907895
v -0.315789 0.868421 1.776316
v -0.394737 0.789474 1.697368
v 0.000000 0.671053 2.250000
v -0.315789 0.868421 1.776316
v 0.000000 0.671053 2.250000
v 0.000000 0.947369 1.855263
v 0.000000 0.947369 1.855263
v 0.000000 0.671053 2.250000
v 0.315789 0.868421 1.776316
v 0.315789 0.868421 1.776316
v 0.000000 0.671053 2.250000
v 0.394737 0.789474 1.697368
v -0.710526 0.907895 0.907895
v -0.710526 0.907895 -0.276316
v -0.828947 0.828948 0.631579
v -0.710526 0.907895 -0.276316
v -0.828947 0.828947 -0.671053
v -0.828947 0.828948 0.631579
v 0.710526 0.907895 -0.276316
v 0.710526 0.907895 0.907895
v 0.828947 0.828947 -0.671053
v 0.710526 0.907895 0.907895
v 0.828947 0.828948 0.631579
v 0.828947 0.828947 -0.671053
v 0.710526 0.907895 0.907895
v 0.789474 0.907895 0.947368
v 0.828947 0.828948 0.631579
v -0.710526 0.907895 0.907895
v -0.828947 0.828948 0.631579
v -0.789474 0.907895 0.947368
v -0.828947 0.671053 2.250000
v -0.868421 0.355263 2.092105
v 0.000000 0.671053 2.250000
v -0.394737 0.789474 1.697368
v -0.828947 0.868421 1.697368
v -0.828947 0.671053 2.250000
v 0.394737 0.789474 1.697368
v 0.000000 0.671053 2.250000
v 0.828947 0.671053 2.250000
v 0.394737 0.789474 1.697368
v 0.828947 0.671053 2.250000
v 0.828947 0.868421 1.697368
v 0.394737 0.789474 1.697368
v 0.828947 0.868421 1.697368
v 0.789474 0.907895 0.947368
v 0.710526 0.907895 0.907895
v 0.394737 0.789474 1.697368
v 0.789474 0.907895 0.947368
v -0.828947 0.868421 1.697368
v -0.394737 0.789474 1.697368
v -0.789474 0.907895 0.947368
v -0.789474 0.907895 0.947368
v -0.394737 0.789474 1.697368
v -0.710526 0.907895 0.907895
v 0.750000 0.868421 -1.618421
v 0.828947 0.828947 -0.671053
v 1.026316 0.671053 -1.618421
v 0.828947 0.828947 -0.671053
v 1.026316 0.671053 -1.144737
v 1.026316 0.671053 -1.618421
v -0.828947 0.828947 -0.671053
v -0.750000 0.868421 -1.618421
v -1.026316 0.671053 -1.144737
v -0.750000 0.868421 -1.618421
v -1.026316 0.671053 -1.618421
v -1.026316 0.671053 -1.144737
v 0.828947 0.828947 -0.671053
v 0.631579 0.789474 -1.618421
v 0.710526 0.907895 -0.276316
v -0.710526 0.907895 -0.276316
v -0.631579 0.789474 -1.618421
v -0.828947 0.828947 -0.671053
v -0.394737 0.789474 1.697368
v -0.828947 0.671053 2.250000
v 0.000000 0.671053 2.250000
v 0.000000 0.907895 -0.276316
v 0.710526 0.907895 -0.276316
v 0.000000 0.868421 -0.947368
v 0.710526 0.907895 -0.276316
v 0.671053 0.868421 -0.947368
v 0.000000 0.868421 -0.947368
v -0.710526 0.907895 -0.276316
v 0.000000 0.907895 -0.276316
v -0.671053 0.868421 -0.947368
v 0.000000 0.907895 -0.276316
v 0.000000 0.868421 -0.947368
v -0.671053 0.868421 -0.947368
v -0.671053 0.868421 -0.947368
v 0.000000 0.868421 -0.947368
v -0.631579 0.789474 -1.618421
v 0.000000 0.868421 -0.947368
v 0.000000 0.789474 -1.618421
v -0.631579 0.789474 -1.618421
v 0.000000 0.868421 -0.947368
v 0.671053 0.868421 -0.947368
v 0.000000 0.789474 -1.618421
v 0.671053 0.868421 -0.947368
v 0.631579 0.789474 -1.618421
v 0.000000 0.789474 -1.618421
v -1.026316 0.671053 -1.618421
v -0.750000 0.868421 -1.618421
v -0.828947 0.631579 -2.092105
v -0.750000 0.868421 -1.618421
v -0.631579 0.789474 -1.618421
v -0.828947 0.631579 -2.092105
v -0.750000 0.868421 -1.618421
v -0.828947 0.828947 -0.671053
v -0.631579 0.789474 -1.618421
v 0.631579 0.789474 -1.618421
v 0.750000 0.868421 -1.618421
v 0.828947 0.631579 -2.092105
v 0.631579 0.789474 -1.618421
v 0.828947 0.828947 -0.671053
v 0.750000 0.868421 -1.618421
v 0.750000 0.868421 -1.618421
v 1.026316 0.671053 -1.618421
v 0.828947 0.631579 -2.092105
v -0.947368 0.394737 -1.934211
v -1.026316 0.355263 -1.776316
v -0.828947 0.631579 -2.092105
v -1.026316 0.355263 -1.776316
v -1.026316 0.671053 -1.618421
v -0.828947 0.631579 -2.092105
v 0.828947 0.631579 -2.092105
v 1.026316 0.671053 -1.618421
v 0.947368 0.394737 -1.934211
v 1.026316 0.671053 -1.618421
v 1.026316 0.355263 -1.776316
v 0.947368 0.394737 -1.934211
v -1.026316 0.671053 0.986842
v -1.026316 0.671053 -1.144737
v -1.026316 0.197369 0.828947
v -1.026316 0.671053 -1.144737
v -1.026316 0.197369 -0.986842
v -1.026316 0.197369 0.828947
v -0.828947 0.868421 1.697368
v -0.789474 0.907895 0.947368
v -1.026316 0.671053 1.697368
v -0.789474 0.907895 0.947368
v -1.026316 0.671053 0.986842
v -1.026316 0.671053 1.697368
v -0.828947 0.671053 2.250000
v -1.026316 0.671053 1.697368
v -0.868421 0.355263 2.092105
v -1.026316 0.671053 1.697368
v -1.026316 0.197369 1.618421
v -0.868421 0.355263 2.092105
v -0.828947 0.868421 1.697368
v -1.026316 0.671053 1.697368
v -0.828947 0.671053 2.250000
v 1.026316 0.671053 -1.144737
v 1.026316 0.671053 0.986842
v 1.026316 0.197369 -0.986842
v 1.026316 0.671053 0.986842
v 1.026316 0.197369 0.828947
v 1.026316 0.197369 -0.986842
v 0.789474 0.907895 0.947368
v 0.828947 0.868421 1.697368
v 1.026316 0.671053 0.986842
v 0.828947 0.868421 1.697368
v 1.026316 0.671053 1.697368
v 1.026316 0.671053 0.986842
v 1.026316 0.671053 1.697368
v 0.828947 0.671053 2.250000
v 1.026316 0.197369 1.618421
v 0.828947 0.671053 2.250000
v 0.868421 0.355263 2.092105
v 1.026316 0.197369 1.618421
v 0.828947 0.868421 1.697368
v 0.828947 0.671053 2.250000
v 1.026316 0.671053 1.697368
v -0.828947 0.631579 -2.092105
v 0.828947 0.631579 -2.092105
v -0.947368 0.394737 -1.934211
v 0.828947 0.631579 -2.092105
v 0.947368 0.394737 -1.934211
v -0.947368 0.394737 -1.934211
v 0.828947 0.671053 2.250000
v 0.000000 0.671053 2.250000
v 0.868421 0.355263 2.092105
v 0.000000 0.671053 2.250000
v -0.868421 0.355263 2.092105
v 0.868421 0.355263 2.092105
v -0.355263 1.263158 0.907895
v 0.000000 0.947369 1.855263
v 0.355263 1.263158 0.907895
v 0.355263 1.302632 0.197368
v 0.355263 1.263158 0.907895
v 0.513158 1.263158 0.078947
v 0.355263 1.263158 0.907895
v 0.552632 1.184211 0.907895
v 0.513158 1.263158 0.078947
v -0.355263 1.263158 0.907895
v 0.355263 1.263158 0.907895
v -0.355263 1.302632 0.197368
v 0.355263 1.263158 0.907895
v 0.355263 1.302632 0.197368
v -0.355263 1.302632 0.197368
v -0.355263 1.263158 0.907895
v -0.355263 1.302632 0.197368
v -0.552632 1.184211 0.907895
v -0.355263 1.302632 0.197368
v -0.513158 1.263158 0.078947
v -0.552632 1.184211 0.907895
v 0.631579 0.789474 -1.618421
v 0.828947 0.631579 -2.092105
v 0.000000 0.789474 -1.618421
v 0.000000 0.789474 -1.618421
v 0.828947 0.631579 -2.092105
v -0.828947 0.631579 -2.092105
v -1.026316 0.236842 -1.065789
v -1.026316 0.000000 -1.381579
v -0.710526 0.236842 -1.065789
v -1.026316 0.000000 -1.381579
v -0.710526 0.000000 -1.381579
v -0.710526 0.236842 -1.065789
v 0.710526 0.236842 -1.065789
v 0.710526 0.000000 -1.381579
v 1.026316 0.236842 -1.065789
v 0.710526 0.000000 -1.381579
v 1.026316 0.000000 -1.381579
v 1.026316 0.236842 -1.065789
v -0.631579 0.000000 1.223684
v -1.026316 0.000000 1.223684
v -0.631579 0.197369 0.907895
v -1.026316 0.000000 1.223684
v -1.026316 0.197369 0.907895
v -0.631579 0.197369 0.907895
v 0.631579 0.197369 0.907895
v 1.026316 0.197369 0.907895
v 0.631579 0.000000 1.223684
v 1.026316 0.197369 0.907895
v 1.026316 0.000000 1.223684
v 0.631579 0.000000 1.223684
v 0.710526 0.355263 -1.736842
v 1.026316 0.355263 -1.736842
v 0.710526 0.000000 -1.381579
v 1.026316 0.355263 -1.736842
v 1.026316 0.000000 -1.381579
v 0.710526 0.000000 -1.381579
v -1.026316 0.355263 -1.736842
v -0.710526 0.355263 -1.736842
v -1.026316 0.000000 -1.381579
v -0.710526 0.355263 -1.736842
v -0.710526 0.000000 -1.381579
v -1.026316 0.000000 -1.381579
v -1.026316 0.000000 1.223684
v -0.631579 0.000000 1.223684
v -1.026316 0.197369 1.500000
v -0.631579 0.000000 1.223684
v -0.631579 0.197369 1.500000
v -1.026316 0.197369 1.500000
v 1.026316 0.197369 1.500000
v 0.631579 0.197369 1.500000
v 1.026316 0.000000 1.223684
v 0.631579 0.197369 1.500000
v 0.631579 0.000000 1.223684
v 1.026316 0.000000 1.223684
v -1.026316 0.671053 -1.144737
v -1.026316 0.671053 -1.618421
v -1.026316 0.197369 -0.986842
v -1.026316 0.671053 -1.618421
v -1.026316 0.355263 -1.776316
v -1.026316 0.197369 -0.986842
v 1.026316 0.671053 -1.618421
v 1.026316 0.671053 -1.144737
v 1.026316 0.355263 -1.776316
v 1.026316 0.671053 -1.144737
v 1.026316 0.197369 -0.986842
v 1.026316 0.355263 -1.776316
v -1.026316 0.671053 1.697368
v -1.026316 0.671053 0.986842
v -1.026316 0.197369 1.618421
v -1.026316 0.671053 0.986842
v -1.026316 0.197369 0.828947
v -1.026316 0.197369 1.618421
v 1.026316 0.671053 0.986842
v 1.026316 0.671053 1.697368
v 1.026316 0.197369 0.828947
v 1.026316 0.671053 1.697368
v 1.026316 0.197369 1.618421
v 1.026316 0.197369 0.828947
v -0.710526 0.355263 -1.697368
v -0.710526 0.355263 -1.697368
v -0.710526 0.039474 -1.342105
v -0.710526 0.355263 -1.697368
v -0.710526 0.236842 -1.144737
v -0.710526 0.039474 -1.342105
v 0.710526 0.039474 -1.342105
v 0.710526 0.236842 -1.144737
v 0.710526 0.355263 -1.697368
v 0.710526 0.236842 -1.144737
v 0.710526 0.355263 -1.697368
v 0.710526 0.355263 -1.697368
v 1.026316 0.355263 0.907895
v 1.026316 0.671053 1.263158
v 1.026316 0.039474 1.263158
v 1.026316 0.671053 1.263158
v 1.026316 0.355263 1.578947
v 1.026316 0.039474 1.263158
v 1.026316 0.355263 -1.697368
v 1.026316 0.631579 -1.342105
v 1.026316 0.039474 -1.342105
v 1.026316 0.631579 -1.342105
v 1.026316 0.355263 -1.026316
v 1.026316 0.039474 -1.342105
v -1.026316 0.039474 1.263158
v -1.026316 0.355263 1.578947
v -1.026316 0.355263 0.907895
v -1.026316 0.355263 1.578947
v -1.026316 0.671053 1.263158
v -1.026316 0.355263 0.907895
v -1.026316 0.039474 -1.342105
v -1.026316 0.355263 -1.026316
v -1.026316 0.355263 -1.697368
v -1.026316 0.355263 -1.026316
v -1.026316 0.631579 -1.342105
v -1.026316 0.355263 -1.697368
v -1.026316 0.000000 -1.184210
v -1.026316 0.197369 -0.986842
v -1.026316 0.000000 -1.776316
v -1.026316 0.197369 -0.986842
v -1.026316 0.355263 -1.776316
v -1.026316 0.000000 -1.776316
v -1.026316 0.000000 1.026316
v -1.026316 0.000000 1.381579
v -1.026316 0.197369 0.828947
v -1.026316 0.000000 1.381579
v -1.026316 0.197369 1.618421
v -1.026316 0.197369 0.828947
v 1.026316 0.000000 -1.776316
v 1.026316 0.355263 -1.776316
v 1.026316 0.000000 -1.184210
v 1.026316 0.355263 -1.776316
v 1.026316 0.197369 -0.986842
v 1.026316 0.000000 -1.184210
v 1.026316 0.197369 0.828947
v 1.026316 0.197369 1.618421
v 1.026316 0.000000 1.026316
v 1.026316 0.197369 1.618421
v 1.026316 0.000000 1.381579
v 1.026316 0.000000 1.026316
v 1.026316 0.671053 -1.618421
v 1.026316 0.671053 -1.144737
v 1.026316 0.355263 -1.776316
v 1.026316 0.671053 -1.144737
v 1.026316 0.197369 -0.986842
v 1.026316 0.355263 -1.776316
v -1.026316 0.671053 -1.144737
v -1.026316 0.671053 -1.618421
v -1.026316 0.197369 -0.986842
v -1.026316 0.671053 -1.618421
v -1.026316 0.355263 -1.776316
v -1.026316 0.197369 -0.986842
v -1.026316 0.671053 1.697368
v -1.026316 0.671053 0.986842
v -1.026316 0.197369 1.618421
v -1.026316 0.671053 0.986842
v -1.026316 0.197369 0.828947
v -1.026316 0.197369 1.618421
v 1.026316 0.671053 0.986842
v 1.026316 0.671053 1.697368
v 1.026316 0.197369 0.828947
v 1.026316 0.671053 1.697368
v 1.026316 0.197369 1.618421
v 1.026316 0.197369 0.828947
v -1.026316 0.000000 -1.184210
v -1.026316 0.197369 -0.986842
v -1.026316 0.000000 -1.776316
v -1.026316 0.197369 -0.986842
v -1.026316 0.355263 -1.776316
v -1.026316 0.000000 -1.776316
v -1.026316 0.000000 1.026316
v -1.026316 0.000000 1.381579
v -1.026316 0.197369 0.828947
v -1.026316 0.000000 1.381579
v -1.026316 0.197369 1.618421
v -1.026316 0.197369 0.828947
v 1.026316 0.000000 -1.776316
v 1.026316 0.355263 -1.776316
v 1.026316 0.000000 -1.184210
v 1.026316 0.355263 -1.776316
v 1.026316 0.197369 -0.986842
v 1.026316 0.000000 -1.184210
v 1.026316 0.197369 0.828947
v 1.026316 0.197369 1.618421
v 1.026316 0.000000 1.026316
v 1.026316 0.197369 1.618421
v 1.026316 0.000000 1.381579
v 1.026316 0.000000 1.026316
vn -0.0000 -0.9806 -0.1961
vn -0.0000 -0.9701 -0.2425
vn -0.0000 -1.0000 -0.0000
vn -0.0000 -0.9487 0.3162
vn 1.0000 -0.0000 -0.0000
vn -1.0000 -0.0000 -0.0000
vn -0.8944 0.4472 -0.0000
vn -0.0000 1.0000 -0.0000
vn -0.0000 -0.0000 -1.0000
vn -0.0000 -0.0000 1.0000
vn 0.8944 0.4472 -0.0000
vn 0.8944 -0.4472 -0.0000
vn -0.8944 -0.4472 -0.0000
vn -0.0000 0.7071 -0.7071
vn -0.0000 0.9487 -0.3162
vn -0.8742 0.4856 -0.0000
vn -0.8682 0.4961 0.0059
vn 0.8759 0.4824 0.0042
vn 0.8682 0.4961 -0.0000
vn -0.7116 0.6974 -0.0854
vn -0.6247 0.7809 -0.0000
vn 0.7116 0.6974 -0.0854
vn 0.6247 0.7809 -0.0000
vn -0.8159 0.4351 0.3807
vn -0.8000 0.4572 0.3886
vn -0.3401 0.8502 0.4019
vn -0.3157 0.8583 0.4045
vn 0.3388 0.8471 0.4094
vn 0.3150 0.8611 0.3991
vn 0.8013 0.4579 0.3850
vn 0.8162 0.4259 0.3904
vn -0.7808 0.1837 0.5971
vn -0.3288 0.7737 0.5416
vn 0.3288 0.7737 0.5416
vn 0.7808 0.1837 0.5971
vn -0.5547 0.8321 -0.0000
vn 0.5547 0.8321 -0.0000
vn 0.1138 0.9671 -0.2276
vn -0.1138 0.9671 -0.2276
vn -0.0000 -0.4472 0.8944
vn 0.1688 0.9282 0.3315
vn -0.0000 0.9778 0.2095
vn -0.1688 0.9282 0.3315
vn -0.1786 0.9820 0.0611
vn -0.0619 0.9904 0.1238
vn 0.1786 0.9820 0.0611
vn 0.0619 0.9904 0.1238
vn 0.5812 0.8136 -0.0145
vn -0.5999 0.7999 -0.0167
vn -0.5812 0.8137 -0.0000
vn 0.2959 0.9499 -0.1012
vn -0.2959 0.9499 -0.1012
vn -0.0000 0.9983 -0.0587
vn -0.0000 0.9932 -0.1168
vn -0.5552 0.7772 -0.2961
vn 0.4945 0.7417 -0.4532
vn 0.5529 0.8293 0.0806
vn -0.4945 0.7417 -0.4532
vn -0.5529 0.8293 0.0806
vn 0.5552 0.7772 -0.2961
vn -0.8971 0.1794 -0.4037
vn -0.8994 0.1955 -0.3910
vn 0.9006 0.1896 -0.3911
vn 0.8955 0.1990 -0.3980
vn -0.7071 0.7071 -0.0000
vn -0.9405 -0.0504 0.3359
vn -0.9415 -0.0554 0.3323
vn -0.6856 0.6856 0.2449
vn 0.7071 0.7071 -0.0000
vn 0.9403 -0.0560 0.3358
vn 0.9428 -0.0471 0.3300
vn 0.6856 0.6856 0.2449
vn -0.0000 -0.5547 -0.8321
vn -0.0000 0.9487 0.3162
vn 0.2796 0.9586 0.0533
vn 0.3705 0.9262 0.0706
vn -0.0000 0.9985 0.0555
vn -0.3709 0.9272 0.0515
vn -0.2955 0.9523 0.0766
vn -0.0000 -0.8000 0.6000
vn -0.0000 -0.8480 -0.5300
vn -0.0000 -0.7071 -0.7071
vn -0.0000 -0.8137 0.5812
vt 0.984375 -0.078125
vt 0.000000 -0.078125
vt 0.984375 -0.265625
vt 0.000000 -0.265625
vt 0.937500 -0.046875
vt 0.015625 -0.046875
vt 0.984375 -0.671875
vt 0.000000 -0.671875
vt 0.984375 -0.859375
vt 0.000000 -0.859375
vt 0.046875 -0.984375
vt 0.906250 -0.984375
vt 0.328125 -0.750000
vt 0.328125 -0.250000
vt 0.171875 -0.750000
vt 0.171875 -0.250000
vt 0.953125 -0.656250
vt 0.953125 -0.234375
vt 0.906250 -0.656250
vt 0.906250 -0.234375
vt 0.015625 -0.234375
vt 0.187500 -0.234375
vt 0.015625 -0.187500
vt 0.187500 -0.187500
vt 0.312500 -0.750000
vt 0.312500 -0.250000
vt 0.234375 -0.750000
vt 0.234375 -0.250000
vt 0.375000 -0.406250
vt 0.593750 -0.406250
vt 0.375000 -0.203125
vt 0.593750 -0.203125
vt 0.773438 -0.937500
vt 0.726562 -0.500000
vt 0.898438 -0.937500
vt 0.906250 -0.187500
vt 0.281250 -0.937500
vt 0.195312 -0.937500
vt 0.328125 -0.500000
vt 0.148438 -0.500000
vt 0.859375 -0.398438
vt 0.742188 -0.554688
vt 0.921875 -0.554688
vt 0.617188 -0.398438
vt 0.562500 -0.554688
vt 0.726562 -0.742188
vt 0.929688 -0.812500
vt 0.890625 -0.742188
vt 0.664062 -0.718750
vt 0.609375 -0.718750
vt 0.671875 -0.734375
vt 0.601562 -0.734375
vt 0.460938 -0.828125
vt 0.156250 -0.835938
vt 0.320312 -0.703125
vt 0.117188 -0.710938
vt 0.382812 -0.140625
vt 0.296875 -0.171875
vt 0.312500 -0.117188
vt 0.671875 -0.140625
vt 0.773438 -0.171875
vt 0.085938 -0.390625
vt 0.132812 -0.500000
vt 0.039062 -0.406250
vt 0.140625 -0.390625
vt 0.242188 -0.507812
vt 0.343750 -0.390625
vt 0.390625 -0.390625
vt 0.445312 -0.406250
vt 0.351562 -0.500000
vt 0.242188 -0.562500
vt 0.320312 -0.117188
vt 0.585938 -0.117188
vt 0.007812 -0.562500
vt 0.000000 -0.664062
vt 0.234375 -0.562500
vt 0.007812 -0.492188
vt 0.007812 -0.570312
vt 0.468750 -0.562500
vt 0.468750 -0.492188
vt 0.460938 -0.406250
vt 0.015625 -0.414062
vt 0.890625 -0.125000
vt 0.882812 -0.171875
vt 0.531250 -0.609375
vt 0.570312 -0.742188
vt 0.945312 -0.609375
vt 0.734375 -0.648438
vt 0.562500 -0.648438
vt 0.906250 -0.648438
vt 0.992188 -0.179688
vt 0.914062 -0.742188
vt 0.539062 -0.742188
vt 0.515625 -0.820312
vt 0.945312 -0.242188
vt 0.906250 -0.242188
vt 0.328125 -0.281250
vt 0.726562 -0.281250
vt 0.140625 -0.125000
vt 0.140625 -0.171875
vt 0.015625 -0.171875
vt 0.046875 -0.250000
vt 0.148438 -0.281250
vt 0.945312 -0.835938
vt 0.539062 -0.835938
vt 0.968750 -0.937500
vt 0.515625 -0.929688
vt 0.484375 -0.664062
vt 0.609375 -0.593750
vt 0.601562 -0.593750
vt 0.664062 -0.593750
vt 0.671875 -0.593750
vt 0.000000 0.000000
vt 0.875000 -0.203125
vt 0.867188 -0.304688
vt 0.796875 -0.304688
vt 0.765625 -0.203125
vt 0.757812 -0.304688
s 1
usemtl material_img_1.004
f 1/1/1 2/2/1 3/3/1
f 4/2/1 5/4/1 6/3/1
f 7/5/2 8/6/2 9/1/2
f 10/6/2 11/2/2 12/1/2
f 13/3/3 14/4/3 15/7/3
f 16/4/3 17/8/3 18/7/3
f 19/7/3 20/8/3 21/9/3
f 22/8/3 23/10/3 24/9/3
f 25/10/4 26/11/4 27/9/4
f 28/11/4 29/12/4 30/9/4
f 31/13/5 32/14/5 33/15/5
f 34/14/5 35/16/5 36/15/5
f 37/15/6 38/16/6 39/13/6
f 40/16/6 41/14/6 42/13/6
f 43/17/7 44/18/7 45/19/7
f 46/18/7 47/20/7 48/19/7
f 49/21/3 50/22/3 51/23/3
f 52/22/3 53/24/3 54/23/3
f 55/25/8 56/26/8 57/27/8
f 58/26/8 59/28/8 60/27/8
f 61/15/6 62/16/6 63/13/6
f 64/16/6 65/14/6 66/13/6
f 67/29/9 68/30/9 69/31/9
f 70/30/9 71/32/9 72/31/9
f 73/31/10 74/32/10 75/29/10
f 76/32/10 77/30/10 78/29/10
f 79/19/11 80/20/11 81/17/11
f 82/20/11 83/18/11 84/17/11
f 85/23/3 86/24/3 87/21/3
f 88/24/3 89/22/3 90/21/3
f 91/27/8 92/28/8 93/25/8
f 94/28/8 95/26/8 96/25/8
f 97/13/5 98/14/5 99/15/5
f 100/14/5 101/16/5 102/15/5
f 103/31/9 104/32/9 105/29/9
f 106/32/9 107/30/9 108/29/9
f 109/29/10 110/30/10 111/31/10
f 112/30/10 113/32/10 114/31/10
f 115/17/12 116/19/12 117/18/12
f 118/19/12 119/20/12 120/18/12
f 121/19/13 122/17/13 123/20/13
f 124/17/13 125/18/13 126/20/13
f 433/113/80 434/113/80 435/113/80
f 436/113/80 437/113/80 438/113/80
f 439/113/80 440/113/80 441/113/80
f 442/113/80 443/113/80 444/113/80
f 445/113/81 446/113/81 447/113/81
f 448/113/81 449/113/81 450/113/81
f 451/113/81 452/113/81 453/113/81
f 454/113/81 455/113/81 456/113/81
f 457/113/82 458/113/82 459/113/82
f 460/113/82 461/113/82 462/113/82
f 463/113/82 464/113/82 465/113/82
f 466/113/82 467/113/82 468/113/82
f 469/113/83 470/113/83 471/113/83
f 472/113/83 473/113/83 474/113/83
f 475/113/83 476/113/83 477/113/83
f 478/113/83 479/113/83 480/113/83
usemtl material_img_2.002
f 127/33/6 128/34/6 129/35/6
f 130/34/6 131/36/6 132/35/6
f 133/37/6 134/38/6 135/39/6
f 136/38/6 137/40/6 138/39/6
f 139/39/5 140/40/5 141/37/5
f 142/40/5 143/38/5 144/37/5
f 145/35/5 146/36/5 147/33/5
f 148/36/5 149/34/5 150/33/5
f 541/33/6 542/34/6 543/35/6
f 544/34/6 545/36/6 546/35/6
f 547/37/6 548/38/6 549/39/6
f 550/38/6 551/40/6 552/39/6
f 553/35/5 554/36/5 555/33/5
f 556/36/5 557/34/5 558/33/5
f 559/39/5 560/40/5 561/37/5
f 562/40/5 563/38/5 564/37/5
f 589/33/6 590/34/6 591/35/6
f 592/34/6 593/36/6 594/35/6
f 595/37/6 596/38/6 597/39/6
f 598/38/6 599/40/6 600/39/6
f 601/35/5 602/36/5 603/33/5
f 604/36/5 605/34/5 606/33/5
f 607/39/5 608/40/5 609/37/5
f 610/40/5 611/38/5 612/37/5
usemtl material_img_0.004
f 151/41/14 152/42/14 153/43/14
f 154/41/14 155/44/14 156/42/14
f 157/44/14 158/45/14 159/42/14
f 160/46/15 161/47/15 162/48/15
f 163/49/15 164/50/15 165/51/15
f 166/50/15 167/52/15 168/51/15
f 169/53/16 170/54/16 171/55/16
f 172/54/17 173/56/17 174/55/17
f 175/55/18 176/56/18 177/53/18
f 178/56/19 179/54/19 180/53/19
f 181/57/20 182/58/20 183/59/20
f 184/57/21 185/60/21 186/58/21
f 187/60/21 188/61/21 189/58/21
f 190/59/22 191/58/22 192/57/22
f 193/60/23 194/57/23 195/61/23
f 196/57/23 197/58/23 198/61/23
f 199/40/24 200/62/24 201/63/24
f 202/62/25 203/64/25 204/63/25
f 205/62/26 206/40/26 207/65/26
f 208/40/27 209/66/27 210/65/27
f 211/67/28 212/66/28 213/68/28
f 214/66/29 215/39/29 216/68/29
f 217/68/30 218/39/30 219/69/30
f 220/39/31 221/70/31 222/69/31
f 223/40/32 224/63/32 225/71/32
f 226/40/33 227/71/33 228/66/33
f 229/66/34 230/71/34 231/39/34
f 232/39/35 233/71/35 234/70/35
f 235/72/36 236/73/36 237/57/36
f 238/73/36 239/60/36 240/57/36
f 241/73/37 242/72/37 243/60/37
f 244/72/37 245/57/37 246/60/37
f 247/72/38 248/59/38 249/57/38
f 250/72/39 251/57/39 252/59/39
f 253/74/40 254/75/40 255/76/40
f 256/63/41 257/77/41 258/78/41
f 259/70/42 260/71/42 261/79/42
f 262/70/43 263/79/43 264/80/43
f 265/70/44 266/80/44 267/81/44
f 268/69/45 269/70/45 270/81/45
f 271/77/46 272/63/46 273/82/46
f 274/82/47 275/63/47 276/64/47
f 277/83/48 278/60/48 279/84/48
f 280/60/23 281/61/23 282/84/23
f 283/60/49 284/83/49 285/61/49
f 286/83/50 287/84/50 288/61/50
f 289/85/51 290/86/51 291/45/51
f 292/43/52 293/48/52 294/87/52
f 295/63/42 296/78/42 297/71/42
f 298/42/53 299/45/53 300/88/53
f 301/45/53 302/89/53 303/88/53
f 304/43/53 305/42/53 306/90/53
f 307/42/53 308/88/53 309/90/53
f 310/90/54 311/88/54 312/48/54
f 313/88/54 314/46/54 315/48/54
f 316/88/54 317/89/54 318/46/54
f 319/89/54 320/86/54 321/46/54
f 322/84/55 323/83/55 324/91/55
f 325/92/56 326/48/56 327/47/56
f 328/92/57 329/87/57 330/48/57
f 331/86/58 332/93/58 333/94/58
f 334/86/59 335/85/59 336/93/59
f 337/83/60 338/84/60 339/91/60
f 340/95/61 341/96/61 342/91/61
f 343/96/62 344/84/62 345/91/62
f 346/91/63 347/84/63 348/95/63
f 349/84/64 350/96/64 351/95/64
f 352/58/6 353/61/6 354/97/6
f 355/61/6 356/98/6 357/97/6
f 358/99/65 359/59/65 360/100/65
f 361/59/65 362/58/65 363/100/65
f 364/101/66 365/100/66 366/102/66
f 367/100/67 368/103/67 369/102/67
f 370/99/68 371/100/68 372/101/68
f 373/61/5 374/58/5 375/98/5
f 376/58/5 377/97/5 378/98/5
f 379/59/69 380/99/69 381/58/69
f 382/99/69 383/100/69 384/58/69
f 385/100/70 386/101/70 387/103/70
f 388/101/71 389/102/71 390/103/71
f 391/99/72 392/101/72 393/100/72
f 394/104/73 395/105/73 396/106/73
f 397/105/73 398/107/73 399/106/73
f 400/79/40 401/76/40 402/108/40
f 403/76/40 404/75/40 405/108/40
f 406/65/74 407/66/74 408/67/74
f 409/50/75 410/109/75 411/52/75
f 412/109/76 413/110/76 414/52/76
f 415/111/77 416/109/77 417/49/77
f 418/109/77 419/50/77 420/49/77
f 421/111/78 422/49/78 423/112/78
f 424/49/79 425/51/79 426/112/79
f 427/86/15 428/94/15 429/46/15
f 430/46/15 431/94/15 432/47/15
f 481/61/6 482/84/6 483/98/6
f 484/84/6 485/96/6 486/98/6
f 487/84/5 488/61/5 489/96/5
f 490/61/5 491/98/5 492/96/5
f 493/100/6 494/58/6 495/103/6
f 496/58/6 497/97/6 498/103/6
f 499/58/5 500/100/5 501/97/5
f 502/100/5 503/103/5 504/97/5
s 0
f 505/114/10 506/114/10 507/115/10
s 1
f 508/114/5 509/116/5 510/115/5
f 511/115/6 512/116/6 513/114/6
s 0
f 514/116/10 515/114/10 516/114/10
s 1
f 517/114/5 518/117/5 519/115/5
f 520/117/5 521/118/5 522/115/5
f 523/114/5 524/117/5 525/115/5
f 526/117/5 527/118/5 528/115/5
f 529/115/6 530/118/6 531/114/6
f 532/118/6 533/117/6 534/114/6
f 535/115/6 536/118/6 537/114/6
f 538/118/6 539/117/6 540/114/6
f 565/84/5 566/61/5 567/96/5
f 568/61/5 569/98/5 570/96/5
f 571/61/6 572/84/6 573/98/6
f 574/84/6 575/96/6 576/98/6
f 577/100/6 578/58/6 579/103/6
f 580/58/6 581/97/6 582/103/6
f 583/58/5 584/100/5 585/97/5
f 586/100/5 587/103/5 588/97/5
