# Blender 5.1.2
# www.blender.org
mtllib Thumper.mtl
o Thumper
v 0.873134 0.067164 2.149254
v 0.873134 0.067164 0.873134
v 0.873134 0.268657 2.149254
v 0.873134 0.067164 0.873134
v 0.873134 0.268657 0.940299
v 0.873134 0.268657 2.149254
v 0.873134 0.067164 0.873134
v 0.873134 0.067164 -2.149254
v 0.873134 0.268657 0.940299
v 0.873134 0.067164 -2.149254
v 0.873134 0.268657 -2.149254
v 0.873134 0.268657 0.940299
v 0.873134 0.268657 2.149254
v 0.873134 0.268657 0.940299
v 0.873134 0.402985 2.250000
v 0.873134 0.268657 0.940299
v 0.873134 0.402985 0.973881
v 0.873134 0.402985 2.250000
v 0.873134 0.402985 0.973881
v 0.873134 0.268657 0.940299
v 0.873134 0.402985 -2.250000
v 0.873134 0.268657 0.940299
v 0.873134 0.268657 -2.149254
v 0.873134 0.402985 -2.250000
v -0.873134 0.268657 0.940299
v -0.873134 0.067164 0.873134
v -0.873134 0.268657 2.149254
v -0.873134 0.067164 0.873134
v -0.873134 0.067164 2.149254
v -0.873134 0.268657 2.149254
v -0.873134 0.067164 -2.149254
v -0.873134 0.067164 0.873134
v -0.873134 0.268657 -2.149254
v -0.873134 0.067164 0.873134
v -0.873134 0.268657 0.940299
v -0.873134 0.268657 -2.149254
v -0.873134 0.402985 0.973881
v -0.873134 0.268657 0.940299
v -0.873134 0.402985 2.250000
v -0.873134 0.268657 0.940299
v -0.873134 0.268657 2.149254
v -0.873134 0.402985 2.250000
v -0.873134 0.268657 -2.149254
v -0.873134 0.268657 0.940299
v -0.873134 0.402985 -2.250000
v -0.873134 0.268657 0.940299
v -0.873134 0.402985 0.973881
v -0.873134 0.402985 -2.250000
v -0.705224 0.604478 1.041045
v -0.805970 0.604478 1.041045
v -0.805970 0.604478 2.149254
v -0.705224 0.604478 1.041045
v -0.705224 0.604478 -0.940299
v -0.805970 0.604478 1.041045
v -0.705224 0.604478 -0.940299
v -0.805970 0.604478 -2.149254
v -0.805970 0.604478 1.041045
v 0.805970 0.604478 1.041045
v 0.705224 0.604478 1.041045
v 0.805970 0.604478 2.149254
v 0.705224 0.604478 1.041045
v 0.805970 0.604478 1.041045
v 0.705224 0.604478 -0.940299
v 0.805970 0.604478 1.041045
v 0.805970 0.604478 -2.149254
v 0.705224 0.604478 -0.940299
v 0.873134 0.402985 2.250000
v 0.873134 0.402985 0.973881
v 0.805970 0.604478 2.149254
v 0.873134 0.402985 0.973881
v 0.805970 0.604478 1.041045
v 0.805970 0.604478 2.149254
v 0.873134 0.402985 0.973881
v 0.873134 0.402985 -2.250000
v 0.805970 0.604478 1.041045
v 0.873134 0.402985 -2.250000
v 0.805970 0.604478 -2.149254
v 0.805970 0.604478 1.041045
v -0.805970 0.604478 1.041045
v -0.873134 0.402985 0.973881
v -0.805970 0.604478 2.149254
v -0.873134 0.402985 0.973881
v -0.873134 0.402985 2.250000
v -0.805970 0.604478 2.149254
v -0.873134 0.402985 -2.250000
v -0.873134 0.402985 0.973881
v -0.805970 0.604478 -2.149254
v -0.873134 0.402985 0.973881
v -0.805970 0.604478 1.041045
v -0.805970 0.604478 -2.149254
v -0.268657 0.671642 -1.141791
v 0.268657 0.671642 -1.141791
v -0.805970 0.604478 -2.149254
v 0.268657 0.671642 -1.141791
v 0.805970 0.604478 -2.149254
v -0.805970 0.604478 -2.149254
v -0.873134 0.402985 -2.250000
v 0.873134 0.402985 -2.250000
v -0.873134 0.268657 -2.149254
v 0.873134 0.402985 -2.250000
v 0.873134 0.268657 -2.149254
v -0.873134 0.268657 -2.149254
v -0.268657 0.671642 1.141791
v 0.805970 0.604478 2.149254
v 0.268657 0.671642 1.141791
v -0.805970 0.604478 2.149254
v 0.805970 0.604478 2.149254
v -0.268657 0.671642 1.141791
v -0.873134 0.402985 2.250000
v -0.873134 0.268657 2.149254
v 0.873134 0.402985 2.250000
v -0.873134 0.268657 2.149254
v 0.873134 0.268657 2.149254
v 0.873134 0.402985 2.250000
v -0.671642 0.973881 0.604478
v -0.671642 0.973881 -0.671642
v -0.705224 0.604478 1.041045
v -0.671642 0.973881 -0.671642
v -0.705224 0.604478 -0.940299
v -0.705224 0.604478 1.041045
v 0.705224 0.604478 1.041045
v 0.705224 0.604478 -0.940299
v 0.671642 0.973881 0.604478
v 0.705224 0.604478 -0.940299
v 0.671642 0.973881 -0.671642
v 0.671642 0.973881 0.604478
v -0.873134 0.268657 2.149254
v -0.873134 0.067164 2.149254
v 0.873134 0.268657 2.149254
v -0.873134 0.067164 2.149254
v 0.873134 0.067164 2.149254
v 0.873134 0.268657 2.149254
v 0.873134 0.268657 -2.149254
v 0.873134 0.067164 -2.149254
v -0.873134 0.268657 -2.149254
v 0.873134 0.067164 -2.149254
v -0.873134 0.067164 -2.149254
v -0.873134 0.268657 -2.149254
v 0.671642 0.973881 -0.671642
v 0.369403 1.074627 -0.738806
v 0.671642 0.973881 0.604478
v 0.369403 1.074627 -0.738806
v 0.369403 1.074627 0.402985
v 0.671642 0.973881 0.604478
v 0.369403 1.074627 -0.738806
v -0.369403 1.074627 -0.738806
v 0.369403 1.074627 0.402985
v -0.369403 1.074627 -0.738806
v -0.369403 1.074627 0.402985
v 0.369403 1.074627 0.402985
v -0.369403 1.074627 -0.738806
v -0.671642 0.973881 -0.671642
v -0.369403 1.074627 0.402985
v -0.671642 0.973881 -0.671642
v -0.671642 0.973881 0.604478
v -0.369403 1.074627 0.402985
v -0.805970 0.604478 2.149254
v -0.873134 0.402985 2.250000
v 0.805970 0.604478 2.149254
v -0.873134 0.402985 2.250000
v 0.873134 0.402985 2.250000
v 0.805970 0.604478 2.149254
v 0.805970 0.604478 -2.149254
v 0.873134 0.402985 -2.250000
v -0.805970 0.604478 -2.149254
v 0.873134 0.402985 -2.250000
v -0.873134 0.402985 -2.250000
v -0.805970 0.604478 -2.149254
v -0.369403 1.074627 0.402985
v -0.671642 0.973881 0.604478
v -0.268657 0.973881 0.738806
v 0.369403 1.074627 0.402985
v -0.369403 1.074627 0.402985
v 0.268657 0.973881 0.738806
v -0.369403 1.074627 0.402985
v -0.268657 0.973881 0.738806
v 0.268657 0.973881 0.738806
v 0.369403 1.074627 0.402985
v 0.268657 0.973881 0.738806
v 0.671642 0.973881 0.604478
v 0.268657 0.671642 1.141791
v 0.671642 0.973881 0.604478
v 0.268657 0.973881 0.738806
v 0.705224 0.604478 1.041045
v 0.671642 0.973881 0.604478
v 0.268657 0.671642 1.141791
v -0.671642 0.973881 0.604478
v -0.705224 0.604478 1.041045
v -0.268657 0.671642 1.141791
v -0.671642 0.973881 0.604478
v -0.268657 0.671642 1.141791
v -0.268657 0.973881 0.738806
v 0.705224 0.604478 1.041045
v 0.268657 0.671642 1.141791
v 0.805970 0.604478 2.149254
v -0.268657 0.671642 1.141791
v -0.705224 0.604478 1.041045
v -0.805970 0.604478 2.149254
v 0.705224 0.604478 -0.940299
v 0.805970 0.604478 -2.149254
v 0.268657 0.671642 -1.141791
v -0.268657 0.671642 -1.141791
v -0.805970 0.604478 -2.149254
v -0.705224 0.604478 -0.940299
v -0.369403 1.074627 -0.738806
v 0.369403 1.074627 -0.738806
v -0.268657 0.671642 -1.141791
v 0.369403 1.074627 -0.738806
v 0.268657 0.671642 -1.141791
v -0.268657 0.671642 -1.141791
v 0.705224 0.604478 -0.940299
v 0.268657 0.671642 -1.141791
v 0.671642 0.973881 -0.671642
v 0.268657 0.671642 -1.141791
v 0.369403 1.074627 -0.738806
v 0.671642 0.973881 -0.671642
v -0.671642 0.973881 -0.671642
v -0.369403 1.074627 -0.738806
v -0.705224 0.604478 -0.940299
v -0.369403 1.074627 -0.738806
v -0.268657 0.671642 -1.141791
v -0.705224 0.604478 -0.940299
v 0.268657 0.973881 0.738806
v -0.268657 0.973881 0.738806
v 0.268657 0.671642 1.141791
v -0.268657 0.973881 0.738806
v -0.268657 0.671642 1.141791
v 0.268657 0.671642 1.141791
v -0.873134 0.100746 -1.779851
v -0.873134 0.100746 -1.444030
v -0.873134 0.369403 -1.779851
v -0.873134 0.100746 -1.444030
v -0.873134 0.369403 -1.444030
v -0.873134 0.369403 -1.779851
v 0.873134 0.369403 -1.779851
v 0.873134 0.369403 -1.444030
v 0.873134 0.100746 -1.779851
v 0.873134 0.369403 -1.444030
v 0.873134 0.100746 -1.444030
v 0.873134 0.100746 -1.779851
v 0.873134 0.100746 -1.444030
v 0.873134 0.100746 -1.779851
v 0.873134 0.369403 -1.444030
v 0.873134 0.100746 -1.779851
v 0.873134 0.369403 -1.779851
v 0.873134 0.369403 -1.444030
v -0.873134 0.369403 -1.444030
v -0.873134 0.369403 -1.779851
v -0.873134 0.100746 -1.444030
v -0.873134 0.369403 -1.779851
v -0.873134 0.100746 -1.779851
v -0.873134 0.100746 -1.444030
v -0.873134 0.067164 -2.149254
v 0.873134 0.067164 -2.149254
v -0.873134 0.067164 2.149254
v 0.873134 0.067164 -2.149254
v 0.873134 0.067164 2.149254
v -0.873134 0.067164 2.149254
v -0.940299 0.705224 -1.679104
v -0.873134 0.705224 -1.679104
v -0.940299 0.604478 -1.679104
v -0.873134 0.705224 -1.679104
v -0.873134 0.604478 -1.679104
v -0.940299 0.604478 -1.679104
v -0.906716 0.638060 -2.014925
v -0.906716 0.638060 -1.679104
v -0.906716 0.671642 -2.014925
v -0.906716 0.638060 -1.679104
v -0.906716 0.671642 -1.679104
v -0.906716 0.671642 -2.014925
v -0.873134 0.705224 -1.679104
v -0.873134 0.705224 -1.276119
v -0.873134 0.604478 -1.679104
v -0.873134 0.705224 -1.276119
v -0.873134 0.604478 -1.276119
v -0.873134 0.604478 -1.679104
v -0.906716 0.705224 -1.343284
v -0.906716 0.805970 -1.343284
v -0.906716 0.705224 -1.410448
v -0.906716 0.805970 -1.343284
v -0.906716 0.805970 -1.376866
v -0.906716 0.705224 -1.410448
v -0.940299 0.604478 -1.276119
v -0.873134 0.604478 -1.276119
v -0.940299 0.705224 -1.276119
v -0.873134 0.604478 -1.276119
v -0.873134 0.705224 -1.276119
v -0.940299 0.705224 -1.276119
v -0.940299 0.705224 -1.276119
v -0.873134 0.705224 -1.276119
v -0.940299 0.705224 -1.679104
v -0.873134 0.705224 -1.276119
v -0.873134 0.705224 -1.679104
v -0.940299 0.705224 -1.679104
v -0.940299 0.604478 -1.679104
v -0.940299 0.604478 -1.276119
v -0.940299 0.705224 -1.679104
v -0.940299 0.604478 -1.276119
v -0.940299 0.705224 -1.276119
v -0.940299 0.705224 -1.679104
v -0.940299 0.604478 -1.679104
v -0.873134 0.604478 -1.679104
v -0.940299 0.604478 -1.276119
v -0.873134 0.604478 -1.679104
v -0.873134 0.604478 -1.276119
v -0.940299 0.604478 -1.276119
v 0.940299 0.604478 -1.679104
v 0.873134 0.604478 -1.679104
v 0.940299 0.705224 -1.679104
v 0.873134 0.604478 -1.679104
v 0.873134 0.705224 -1.679104
v 0.940299 0.705224 -1.679104
v 0.906716 0.671642 -2.014925
v 0.906716 0.671642 -1.679104
v 0.906716 0.638060 -2.014925
v 0.906716 0.671642 -1.679104
v 0.906716 0.638060 -1.679104
v 0.906716 0.638060 -2.014925
v 0.873134 0.604478 -1.679104
v 0.873134 0.604478 -1.276119
v 0.873134 0.705224 -1.679104
v 0.873134 0.604478 -1.276119
v 0.873134 0.705224 -1.276119
v 0.873134 0.705224 -1.679104
v 0.906716 0.705224 -1.410448
v 0.906716 0.805970 -1.376866
v 0.906716 0.705224 -1.343284
v 0.906716 0.805970 -1.376866
v 0.906716 0.805970 -1.343284
v 0.906716 0.705224 -1.343284
v 0.940299 0.705224 -1.276119
v 0.873134 0.705224 -1.276119
v 0.940299 0.604478 -1.276119
v 0.873134 0.705224 -1.276119
v 0.873134 0.604478 -1.276119
v 0.940299 0.604478 -1.276119
v 0.940299 0.705224 -1.679104
v 0.873134 0.705224 -1.679104
v 0.940299 0.705224 -1.276119
v 0.873134 0.705224 -1.679104
v 0.873134 0.705224 -1.276119
v 0.940299 0.705224 -1.276119
v 0.940299 0.705224 -1.679104
v 0.940299 0.705224 -1.276119
v 0.940299 0.604478 -1.679104
v 0.940299 0.705224 -1.276119
v 0.940299 0.604478 -1.276119
v 0.940299 0.604478 -1.679104
v 0.940299 0.604478 -1.276119
v 0.873134 0.604478 -1.276119
v 0.940299 0.604478 -1.679104
v 0.873134 0.604478 -1.276119
v 0.873134 0.604478 -1.679104
v 0.940299 0.604478 -1.679104
v -0.906716 0.638060 -2.014925
v -0.906716 0.671642 -2.014925
v -0.906716 0.638060 -1.679104
v -0.906716 0.671642 -2.014925
v -0.906716 0.671642 -1.679104
v -0.906716 0.638060 -1.679104
v -0.906716 0.705224 -1.343284
v -0.906716 0.705224 -1.410448
v -0.906716 0.805970 -1.343284
v -0.906716 0.705224 -1.410448
v -0.906716 0.805970 -1.376866
v -0.906716 0.805970 -1.343284
v 0.906716 0.671642 -2.014925
v 0.906716 0.638060 -2.014925
v 0.906716 0.671642 -1.679104
v 0.906716 0.638060 -2.014925
v 0.906716 0.638060 -1.679104
v 0.906716 0.671642 -1.679104
v 0.906716 0.705224 -1.410448
v 0.906716 0.705224 -1.343284
v 0.906716 0.805970 -1.376866
v 0.906716 0.705224 -1.343284
v 0.906716 0.805970 -1.343284
v 0.906716 0.805970 -1.376866
v -0.873134 0.100746 -1.410448
v -0.873134 0.100746 -1.813433
v -0.873134 0.000000 -1.544776
v -0.873134 0.100746 -1.813433
v -0.873134 0.000000 -1.679104
v -0.873134 0.000000 -1.544776
v -0.873134 0.000000 1.007463
v -0.873134 0.000000 1.141791
v -0.873134 0.067164 0.873134
v -0.873134 0.000000 1.141791
v -0.873134 0.067164 1.276119
v -0.873134 0.067164 0.873134
v 0.873134 0.000000 -1.544776
v 0.873134 0.000000 -1.679104
v 0.873134 0.100746 -1.410448
v 0.873134 0.000000 -1.679104
v 0.873134 0.100746 -1.813433
v 0.873134 0.100746 -1.410448
v 0.873134 0.067164 0.873134
v 0.873134 0.067164 1.276119
v 0.873134 0.000000 1.007463
v 0.873134 0.067164 1.276119
v 0.873134 0.000000 1.141791
v 0.873134 0.000000 1.007463
v 0.873134 0.100746 -1.444030
v 0.873134 0.100746 -1.779851
v 0.873134 0.369403 -1.444030
v 0.873134 0.100746 -1.779851
v 0.873134 0.369403 -1.779851
v 0.873134 0.369403 -1.444030
v -0.873134 0.369403 -1.444030
v -0.873134 0.369403 -1.779851
v -0.873134 0.100746 -1.444030
v -0.873134 0.369403 -1.779851
v -0.873134 0.100746 -1.779851
v -0.873134 0.100746 -1.444030
v -0.873134 0.100746 -1.779851
v -0.873134 0.100746 -1.444030
v -0.873134 0.369403 -1.779851
v -0.873134 0.100746 -1.444030
v -0.873134 0.369403 -1.444030
v -0.873134 0.369403 -1.779851
v 0.873134 0.369403 -1.779851
v 0.873134 0.369403 -1.444030
v 0.873134 0.100746 -1.779851
v 0.873134 0.369403 -1.444030
v 0.873134 0.100746 -1.444030
v 0.873134 0.100746 -1.779851
vn 1.0000 -0.0000 -0.0000
vn -1.0000 -0.0000 -0.0000
vn -0.0000 1.0000 -0.0000
vn 0.9487 0.3162 -0.0000
vn -0.9487 0.3162 -0.0000
vn -0.0000 0.9978 -0.0665
vn -0.0000 -0.6000 -0.8000
vn -0.0000 0.9978 0.0665
vn -0.0000 -0.6000 0.8000
vn -0.9959 0.0905 -0.0000
vn 0.9959 0.0905 -0.0000
vn -0.0000 -0.0000 1.0000
vn -0.0000 -0.0000 -1.0000
vn 0.3162 0.9487 -0.0000
vn -0.3162 0.9487 -0.0000
vn -0.0000 0.4472 0.8944
vn -0.0000 0.4472 -0.8944
vn -0.1048 0.9435 0.3145
vn -0.0000 0.9578 0.2873
vn 0.1048 0.9435 0.3145
vn 0.1961 0.7845 0.5883
vn 0.2564 0.7475 0.6128
vn -0.2564 0.7475 0.6128
vn -0.1961 0.7845 0.5883
vn 0.1490 0.9887 -0.0135
vn -0.1490 0.9887 -0.0135
vn 0.1465 0.9891 0.0122
vn -0.1465 0.9891 0.0122
vn -0.0000 0.7071 -0.7071
vn 0.4168 0.5591 -0.7167
vn 0.3606 0.6129 -0.7031
vn -0.3548 0.5708 -0.7405
vn -0.4112 0.5911 -0.6939
vn -0.0000 0.8000 0.6000
vn -0.0000 -1.0000 -0.0000
vt 0.953125 -0.976562
vt 0.679688 -0.976562
vt 0.953125 -0.929688
vt 0.687500 -0.929688
vt 0.023438 -0.984375
vt 0.015625 -0.937500
vt 0.968750 -0.898438
vt 0.695312 -0.906250
vt 0.000000 -0.906250
vt 0.671875 -0.976562
vt 0.015625 -0.976562
vt 0.695312 -0.898438
vt 0.976562 -0.898438
vt 0.781250 -0.625000
vt 0.781250 -0.640625
vt 0.984375 -0.640625
vt 0.414062 -0.625000
vt 0.195312 -0.648438
vt 0.781250 -0.351562
vt 0.781250 -0.367188
vt 0.984375 -0.351562
vt 0.414062 -0.375000
vt 0.195312 -0.351562
vt 0.945312 -0.859375
vt 0.710938 -0.859375
vt 0.015625 -0.859375
vt 0.710938 -0.851562
vt 0.953125 -0.851562
vt 0.382812 -0.546875
vt 0.382812 -0.453125
vt 0.117188 -0.789062
vt 0.117188 -0.296875
vt 0.070312 -0.789062
vt 0.070312 -0.296875
vt 0.796875 -0.546875
vt 0.796875 -0.453125
vt 0.000000 -0.078125
vt 0.000000 -0.140625
vt 0.992188 -0.078125
vt 0.992188 -0.140625
vt 0.617188 -0.765625
vt 0.351562 -0.765625
vt 0.703125 -0.851562
vt 0.289062 -0.843750
vt 0.703125 -0.843750
vt 0.000000 -0.148438
vt 0.000000 -0.273438
vt 0.992188 -0.156250
vt 0.992188 -0.281250
vt 0.062500 -0.296875
vt 0.000000 -0.296875
vt 0.062500 -0.781250
vt 0.000000 -0.781250
vt 0.468750 -0.375000
vt 0.453125 -0.429688
vt 0.703125 -0.375000
vt 0.664062 -0.429688
vt 0.453125 -0.562500
vt 0.664062 -0.562500
vt 0.468750 -0.617188
vt 0.703125 -0.617188
vt 0.039062 0.000000
vt 0.000000 -0.070312
vt 0.960938 0.000000
vt 0.992188 -0.070312
vt 0.187500 -0.320312
vt 0.187500 -0.765625
vt 0.726562 -0.546875
vt 0.726562 -0.453125
vt 0.171875 -0.976562
vt 0.101562 -0.976562
vt 0.171875 -0.914062
vt 0.101562 -0.914062
vt 0.984375 -0.046875
vt 0.000000 -0.046875
vt 0.984375 -0.984375
vt 0.000000 -0.984375
vt 0.531250 -0.265625
vt 0.484375 -0.265625
vt 0.531250 -0.187500
vt 0.484375 -0.187500
vt 0.921875 -0.218750
vt 0.921875 -0.687500
vt 0.953125 -0.218750
vt 0.953125 -0.703125
vt 0.187500 -0.312500
vt 0.187500 -0.687500
vt 0.312500 -0.312500
vt 0.312500 -0.687500
vt 0.078125 -0.859375
vt 0.109375 -0.765625
vt 0.078125 -0.765625
vt 0.000000 0.000000
s 1
usemtl material_img_1.007
f 1/1/1 2/2/1 3/3/1
f 4/2/1 5/4/1 6/3/1
f 7/2/1 8/5/1 9/4/1
f 10/5/1 11/6/1 12/4/1
f 13/3/1 14/4/1 15/7/1
f 16/4/1 17/8/1 18/7/1
f 19/8/1 20/4/1 21/9/1
f 22/4/1 23/6/1 24/9/1
f 25/4/2 26/10/2 27/3/2
f 28/10/2 29/1/2 30/3/2
f 31/11/2 32/10/2 33/6/2
f 34/10/2 35/4/2 36/6/2
f 37/12/2 38/4/2 39/13/2
f 40/4/2 41/3/2 42/13/2
f 43/6/2 44/4/2 45/9/2
f 46/4/2 47/12/2 48/9/2
f 49/14/3 50/15/3 51/16/3
f 52/14/3 53/17/3 54/15/3
f 55/17/3 56/18/3 57/15/3
f 58/19/3 59/20/3 60/21/3
f 61/20/3 62/19/3 63/22/3
f 64/19/3 65/23/3 66/22/3
f 67/7/4 68/8/4 69/24/4
f 70/8/4 71/25/4 72/24/4
f 73/8/4 74/9/4 75/25/4
f 76/9/4 77/26/4 78/25/4
f 79/27/5 80/12/5 81/28/5
f 82/12/5 83/13/5 84/28/5
f 85/9/5 86/12/5 87/26/5
f 88/12/5 89/27/5 90/26/5
f 91/29/6 92/30/6 93/18/6
f 94/30/6 95/23/6 96/18/6
f 97/31/7 98/32/7 99/33/7
f 100/32/7 101/34/7 102/33/7
f 103/35/8 104/21/8 105/36/8
f 106/16/8 107/21/8 108/35/8
f 109/37/9 110/38/9 111/39/9
f 112/38/9 113/40/9 114/39/9
f 115/41/10 116/42/10 117/43/10
f 118/42/10 119/44/10 120/43/10
f 121/45/11 122/44/11 123/41/11
f 124/44/11 125/42/11 126/41/11
f 127/46/12 128/47/12 129/48/12
f 130/47/12 131/49/12 132/48/12
f 133/50/13 134/51/13 135/52/13
f 136/51/13 137/53/13 138/52/13
f 139/54/14 140/55/14 141/56/14
f 142/55/14 143/57/14 144/56/14
f 145/55/3 146/58/3 147/57/3
f 148/58/3 149/59/3 150/57/3
f 151/58/15 152/60/15 153/59/15
f 154/60/15 155/61/15 156/59/15
f 157/62/16 158/63/16 159/64/16
f 160/63/16 161/65/16 162/64/16
f 163/66/17 164/32/17 165/67/17
f 166/32/17 167/31/17 168/67/17
f 169/59/18 170/61/18 171/68/18
f 172/57/19 173/59/19 174/69/19
f 175/59/19 176/68/19 177/69/19
f 178/57/20 179/69/20 180/56/20
f 181/36/21 182/56/21 183/69/21
f 184/20/22 185/56/22 186/36/22
f 187/61/23 188/14/23 189/35/23
f 190/61/24 191/35/24 192/68/24
f 193/20/25 194/36/25 195/21/25
f 196/35/26 197/14/26 198/16/26
f 199/22/27 200/23/27 201/30/27
f 202/29/28 203/18/28 204/17/28
f 205/58/29 206/55/29 207/29/29
f 208/55/29 209/30/29 210/29/29
f 211/22/30 212/30/30 213/54/30
f 214/30/31 215/55/31 216/54/31
f 217/60/32 218/58/32 219/17/32
f 220/58/33 221/29/33 222/17/33
f 223/69/34 224/68/34 225/36/34
f 226/68/34 227/35/34 228/36/34
f 229/70/2 230/71/2 231/72/2
f 232/71/2 233/73/2 234/72/2
f 235/72/1 236/73/1 237/70/1
f 238/73/1 239/71/1 240/70/1
f 241/70/1 242/71/1 243/72/1
f 244/71/1 245/73/1 246/72/1
f 247/72/2 248/73/2 249/70/2
f 250/73/2 251/71/2 252/70/2
f 403/70/1 404/71/1 405/72/1
f 406/71/1 407/73/1 408/72/1
f 409/72/2 410/73/2 411/70/2
f 412/73/2 413/71/2 414/70/2
f 415/70/2 416/71/2 417/72/2
f 418/71/2 419/73/2 420/72/2
f 421/72/1 422/73/1 423/70/1
f 424/73/1 425/71/1 426/70/1
usemtl material_img_0.007
f 253/74/35 254/75/35 255/76/35
f 256/75/35 257/77/35 258/76/35
f 259/78/13 260/79/13 261/80/13
f 262/79/13 263/81/13 264/80/13
f 265/82/2 266/83/2 267/84/2
f 268/83/2 269/85/2 270/84/2
f 271/86/1 272/87/1 273/88/1
f 274/87/1 275/89/1 276/88/1
f 277/90/2 278/91/2 279/26/2
f 280/91/2 281/92/2 282/26/2
f 283/89/12 284/89/12 285/87/12
f 286/89/12 287/87/12 288/87/12
f 289/87/3 290/87/3 291/86/3
f 292/87/3 293/86/3 294/86/3
f 295/88/2 296/89/2 297/86/2
f 298/89/2 299/87/2 300/86/2
f 301/88/35 302/88/35 303/89/35
f 304/88/35 305/89/35 306/89/35
f 307/80/13 308/81/13 309/78/13
f 310/81/13 311/79/13 312/78/13
f 313/84/1 314/85/1 315/82/1
f 316/85/1 317/83/1 318/82/1
f 319/88/2 320/89/2 321/86/2
f 322/89/2 323/87/2 324/86/2
f 325/26/1 326/92/1 327/90/1
f 328/92/1 329/91/1 330/90/1
f 331/87/12 332/87/12 333/89/12
f 334/87/12 335/89/12 336/89/12
f 337/86/3 338/86/3 339/87/3
f 340/86/3 341/87/3 342/87/3
f 343/86/1 344/87/1 345/88/1
f 346/87/1 347/89/1 348/88/1
f 349/89/35 350/89/35 351/88/35
f 352/89/35 353/88/35 354/88/35
f 355/82/1 356/84/1 357/83/1
f 358/84/1 359/85/1 360/83/1
f 361/90/1 362/26/1 363/91/1
f 364/26/1 365/92/1 366/91/1
f 367/84/2 368/82/2 369/85/2
f 370/82/2 371/83/2 372/85/2
f 373/26/2 374/90/2 375/92/2
f 376/90/2 377/91/2 378/92/2
f 379/93/2 380/93/2 381/93/2
f 382/93/2 383/93/2 384/93/2
f 385/93/2 386/93/2 387/93/2
f 388/93/2 389/93/2 390/93/2
f 391/93/1 392/93/1 393/93/1
f 394/93/1 395/93/1 396/93/1
f 397/93/1 398/93/1 399/93/1
f 400/93/1 401/93/1 402/93/1
