# Blender 5.1.2
# www.blender.org
mtllib Roadkill.mtl
o Roadkill
v 0.900000 0.825000 -0.450000
v 0.900000 0.825000 -1.200000
v 0.900000 1.050000 -0.450000
v 0.900000 0.825000 -1.200000
v 0.900000 1.050000 -1.200000
v 0.900000 1.050000 -0.450000
v -0.900000 1.050000 -0.450000
v -0.900000 1.050000 -1.200000
v -0.900000 0.825000 -0.450000
v -0.900000 1.050000 -1.200000
v -0.900000 0.825000 -1.200000
v -0.900000 0.825000 -0.450000
v 0.900000 1.050000 -0.450000
v 0.900000 1.050000 -1.200000
v 0.750000 1.050000 -0.450000
v 0.900000 1.050000 -1.200000
v 0.750000 1.050000 -1.200000
v 0.750000 1.050000 -0.450000
v -0.750000 1.050000 -0.450000
v -0.750000 1.050000 -1.200000
v -0.900000 1.050000 -0.450000
v -0.750000 1.050000 -1.200000
v -0.900000 1.050000 -1.200000
v -0.900000 1.050000 -0.450000
v 0.750000 1.050000 -0.450000
v 0.750000 1.050000 -1.200000
v 0.750000 0.825000 -0.450000
v 0.750000 1.050000 -1.200000
v 0.750000 0.825000 -1.200000
v 0.750000 0.825000 -0.450000
v -0.750000 0.825000 -0.450000
v -0.750000 0.825000 -1.200000
v -0.750000 1.050000 -0.450000
v -0.750000 0.825000 -1.200000
v -0.750000 1.050000 -1.200000
v -0.750000 1.050000 -0.450000
v 0.750000 0.825000 -0.450000
v 0.900000 0.825000 -0.450000
v 0.750000 1.050000 -0.450000
v 0.900000 0.825000 -0.450000
v 0.900000 1.050000 -0.450000
v 0.750000 1.050000 -0.450000
v -0.750000 1.050000 -0.450000
v -0.900000 1.050000 -0.450000
v -0.750000 0.825000 -0.450000
v -0.900000 1.050000 -0.450000
v -0.900000 0.825000 -0.450000
v -0.750000 0.825000 -0.450000
v 0.750000 1.050000 -1.200000
v 0.900000 1.050000 -1.200000
v 0.750000 0.825000 -1.200000
v 0.900000 1.050000 -1.200000
v 0.900000 0.825000 -1.200000
v 0.750000 0.825000 -1.200000
v -0.750000 0.825000 -1.200000
v -0.900000 0.825000 -1.200000
v -0.750000 1.050000 -1.200000
v -0.900000 0.825000 -1.200000
v -0.900000 1.050000 -1.200000
v -0.750000 1.050000 -1.200000
v -0.712500 0.487500 -2.062500
v 0.712500 0.487500 -2.062500
v -0.825000 0.375000 -2.212500
v 0.712500 0.487500 -2.062500
v 0.825000 0.375000 -2.212500
v -0.825000 0.375000 -2.212500
v -0.187500 0.825000 -1.612500
v 0.187500 0.825000 -1.612500
v -0.337500 0.600000 -1.612500
v 0.187500 0.825000 -1.612500
v 0.337500 0.600000 -1.612500
v -0.337500 0.600000 -1.612500
v -0.975000 0.187500 0.675000
v 0.975000 0.187500 0.675000
v -0.975000 0.187500 1.425000
v 0.975000 0.187500 0.675000
v 0.975000 0.187500 1.425000
v -0.975000 0.187500 1.425000
v -0.825000 0.187500 -1.050000
v 0.825000 0.187500 -1.050000
v -0.975000 0.187500 0.675000
v 0.825000 0.187500 -1.050000
v 0.975000 0.187500 0.675000
v -0.975000 0.187500 0.675000
v -0.825000 0.187500 -1.800000
v 0.825000 0.187500 -1.800000
v -0.825000 0.187500 -1.050000
v 0.825000 0.187500 -1.800000
v 0.825000 0.187500 -1.050000
v -0.825000 0.187500 -1.050000
v -0.825000 0.187500 -2.250000
v 0.825000 0.187500 -2.250000
v -0.825000 0.187500 -1.800000
v 0.825000 0.187500 -2.250000
v 0.825000 0.187500 -1.800000
v -0.825000 0.187500 -1.800000
v 0.975000 0.187500 1.425000
v 0.862500 0.337500 2.100000
v -0.975000 0.187500 1.425000
v 0.862500 0.337500 2.100000
v -0.862500 0.337500 2.100000
v -0.975000 0.187500 1.425000
v 0.900000 1.050000 -0.450000
v 0.750000 1.050000 -0.450000
v 0.900000 1.050000 -1.200000
v 0.750000 1.050000 -0.450000
v 0.750000 1.050000 -1.200000
v 0.900000 1.050000 -1.200000
v -0.750000 1.050000 -0.450000
v -0.900000 1.050000 -0.450000
v -0.750000 1.050000 -1.200000
v -0.900000 1.050000 -0.450000
v -0.900000 1.050000 -1.200000
v -0.750000 1.050000 -1.200000
v 0.750000 1.050000 -0.450000
v 0.750000 0.825000 -0.450000
v 0.750000 1.050000 -1.200000
v 0.750000 0.825000 -0.450000
v 0.750000 0.825000 -1.200000
v 0.750000 1.050000 -1.200000
v -0.750000 0.825000 -0.450000
v -0.750000 1.050000 -0.450000
v -0.750000 0.825000 -1.200000
v -0.750000 1.050000 -0.450000
v -0.750000 1.050000 -1.200000
v -0.750000 0.825000 -1.200000
v 0.750000 0.825000 -0.450000
v 0.750000 1.050000 -0.450000
v 0.900000 0.825000 -0.450000
v 0.750000 1.050000 -0.450000
v 0.900000 1.050000 -0.450000
v 0.900000 0.825000 -0.450000
v -0.750000 1.050000 -0.450000
v -0.750000 0.825000 -0.450000
v -0.900000 1.050000 -0.450000
v -0.750000 0.825000 -0.450000
v -0.900000 0.825000 -0.450000
v -0.900000 1.050000 -0.450000
v 0.750000 1.050000 -1.200000
v 0.750000 0.825000 -1.200000
v 0.900000 1.050000 -1.200000
v 0.750000 0.825000 -1.200000
v 0.900000 0.825000 -1.200000
v 0.900000 1.050000 -1.200000
v -0.750000 0.825000 -1.200000
v -0.750000 1.050000 -1.200000
v -0.900000 0.825000 -1.200000
v -0.750000 1.050000 -1.200000
v -0.900000 1.050000 -1.200000
v -0.900000 0.825000 -1.200000
v 0.862500 0.900000 -1.200000
v 0.862500 0.900000 -1.800000
v 0.787500 1.012500 -1.200000
v 0.862500 0.900000 -1.800000
v 0.787500 1.012500 -1.800000
v 0.787500 1.012500 -1.200000
v -0.787500 1.012500 -1.200000
v -0.787500 1.012500 -1.800000
v -0.862500 0.900000 -1.200000
v -0.787500 1.012500 -1.800000
v -0.862500 0.900000 -1.800000
v -0.862500 0.900000 -1.200000
v 0.712500 1.012500 1.800000
v -0.712500 1.012500 1.800000
v 0.637500 1.012500 2.250000
v -0.712500 1.012500 1.800000
v -0.637500 1.012500 2.250000
v 0.637500 1.012500 2.250000
v -0.712500 1.012500 1.800000
v -0.825000 0.862500 1.537500
v -0.637500 1.012500 2.250000
v -0.825000 0.862500 1.537500
v -0.787500 0.825000 2.062500
v -0.637500 1.012500 2.250000
v 0.637500 1.012500 2.250000
v 0.787500 0.825000 2.062500
v 0.712500 1.012500 1.800000
v 0.787500 0.825000 2.062500
v 0.825000 0.862500 1.537500
v 0.712500 1.012500 1.800000
v 0.787500 0.825000 2.062500
v -0.787500 0.825000 2.062500
v 0.862500 0.637500 2.100000
v -0.787500 0.825000 2.062500
v -0.862500 0.637500 2.100000
v 0.862500 0.637500 2.100000
v -0.825000 0.375000 -2.212500
v 0.825000 0.375000 -2.212500
v -0.825000 0.187500 -2.250000
v 0.825000 0.375000 -2.212500
v 0.825000 0.187500 -2.250000
v -0.825000 0.187500 -2.250000
v 0.825000 0.637500 -1.200000
v 0.975000 0.637500 0.825000
v 0.825000 0.187500 -1.050000
v 0.975000 0.637500 0.825000
v 0.975000 0.187500 0.675000
v 0.825000 0.187500 -1.050000
v -0.825000 0.862500 1.537500
v -0.900000 0.937500 0.937500
v -0.975000 0.637500 1.500000
v -0.900000 0.937500 0.937500
v -0.975000 0.637500 0.825000
v -0.975000 0.637500 1.500000
v -0.975000 0.637500 0.825000
v -0.825000 0.637500 -1.200000
v -0.975000 0.187500 0.675000
v -0.825000 0.637500 -1.200000
v -0.825000 0.187500 -1.050000
v -0.975000 0.187500 0.675000
v -0.262500 0.787500 -0.825000
v -0.337500 0.600000 -1.612500
v -0.675000 0.862500 -0.375000
v -0.337500 0.600000 -1.612500
v -0.712500 0.487500 -2.062500
v -0.675000 0.862500 -0.375000
v -0.337500 0.600000 -1.612500
v 0.337500 0.600000 -1.612500
v -0.712500 0.487500 -2.062500
v 0.337500 0.600000 -1.612500
v 0.712500 0.487500 -2.062500
v -0.712500 0.487500 -2.062500
v 0.262500 0.787500 -0.825000
v 0.675000 0.862500 -0.375000
v 0.337500 0.600000 -1.612500
v 0.675000 0.862500 -0.375000
v 0.712500 0.487500 -2.062500
v 0.337500 0.600000 -1.612500
v 0.262500 0.787500 -0.825000
v -0.262500 0.787500 -0.825000
v 0.675000 0.862500 -0.375000
v -0.262500 0.787500 -0.825000
v -0.675000 0.862500 -0.375000
v 0.675000 0.862500 -0.375000
v -0.675000 0.862500 -0.375000
v -0.712500 0.487500 -2.062500
v -0.825000 0.637500 -1.200000
v -0.712500 0.487500 -2.062500
v -0.825000 0.375000 -2.212500
v -0.825000 0.637500 -1.200000
v 0.712500 0.487500 -2.062500
v 0.675000 0.862500 -0.375000
v 0.825000 0.375000 -2.212500
v 0.675000 0.862500 -0.375000
v 0.825000 0.637500 -1.200000
v 0.825000 0.375000 -2.212500
v 0.337500 1.125000 0.900000
v 0.600000 0.862500 1.612500
v 0.675000 0.900000 0.900000
v -0.337500 1.125000 0.900000
v -0.675000 0.900000 0.900000
v -0.600000 0.862500 1.612500
v 0.675000 0.862500 -0.375000
v 0.675000 0.900000 0.900000
v 0.825000 0.637500 -1.200000
v 0.675000 0.900000 0.900000
v 0.975000 0.637500 0.825000
v 0.825000 0.637500 -1.200000
v -0.675000 0.900000 0.900000
v -0.675000 0.862500 -0.375000
v -0.975000 0.637500 0.825000
v -0.675000 0.862500 -0.375000
v -0.825000 0.637500 -1.200000
v -0.975000 0.637500 0.825000
v 0.675000 0.900000 0.900000
v 0.675000 0.862500 -0.375000
v 0.487500 1.125000 -0.037500
v -0.487500 1.125000 -0.037500
v 0.487500 1.125000 -0.037500
v -0.675000 0.862500 -0.375000
v 0.487500 1.125000 -0.037500
v 0.675000 0.862500 -0.375000
v -0.675000 0.862500 -0.375000
v -0.675000 0.862500 -0.375000
v -0.675000 0.900000 0.900000
v -0.487500 1.125000 -0.037500
v 0.337500 1.125000 0.900000
v -0.337500 1.125000 0.900000
v 0.600000 0.862500 1.612500
v -0.337500 1.125000 0.900000
v -0.600000 0.862500 1.612500
v 0.600000 0.862500 1.612500
v 0.825000 0.862500 1.537500
v -0.825000 0.862500 1.537500
v 0.787500 0.825000 2.062500
v -0.825000 0.862500 1.537500
v -0.787500 0.825000 2.062500
v 0.787500 0.825000 2.062500
v -0.600000 0.862500 1.612500
v -0.675000 0.900000 0.900000
v -0.825000 0.862500 1.537500
v -0.675000 0.900000 0.900000
v -0.900000 0.937500 0.937500
v -0.825000 0.862500 1.537500
v 0.675000 0.900000 0.900000
v 0.600000 0.862500 1.612500
v 0.900000 0.937500 0.937500
v 0.600000 0.862500 1.612500
v 0.825000 0.862500 1.537500
v 0.900000 0.937500 0.937500
v -0.825000 0.862500 1.537500
v -0.975000 0.637500 1.500000
v -0.862500 0.637500 2.100000
v -0.825000 0.375000 -2.212500
v -0.825000 0.187500 -2.250000
v -0.825000 0.187500 -1.800000
v 0.825000 0.375000 -2.212500
v 0.825000 0.187500 -1.800000
v 0.825000 0.187500 -2.250000
v -0.187500 0.825000 -0.900000
v -0.187500 0.825000 -1.612500
v -0.262500 0.787500 -0.825000
v -0.187500 0.825000 -1.612500
v -0.337500 0.600000 -1.612500
v -0.262500 0.787500 -0.825000
v 0.187500 0.825000 -0.900000
v 0.187500 0.825000 -1.612500
v -0.187500 0.825000 -0.900000
v 0.187500 0.825000 -1.612500
v -0.187500 0.825000 -1.612500
v -0.187500 0.825000 -0.900000
v 0.187500 0.825000 -0.900000
v -0.187500 0.825000 -0.900000
v 0.262500 0.787500 -0.825000
v -0.187500 0.825000 -0.900000
v -0.262500 0.787500 -0.825000
v 0.262500 0.787500 -0.825000
v 0.187500 0.825000 -1.612500
v 0.187500 0.825000 -0.900000
v 0.337500 0.600000 -1.612500
v 0.187500 0.825000 -0.900000
v 0.262500 0.787500 -0.825000
v 0.337500 0.600000 -1.612500
v -0.487500 1.125000 -0.037500
v -0.675000 0.900000 0.900000
v -0.337500 1.125000 0.900000
v 0.337500 1.125000 0.900000
v 0.675000 0.900000 0.900000
v 0.487500 1.125000 -0.037500
v -0.600000 0.187500 0.675000
v -0.600000 0.187500 1.425000
v -0.600000 0.000000 0.862500
v -0.600000 0.187500 1.425000
v -0.600000 0.000000 1.200000
v -0.600000 0.000000 0.862500
v 0.600000 0.000000 0.862500
v 0.600000 0.000000 1.200000
v 0.600000 0.187500 0.675000
v 0.600000 0.000000 1.200000
v 0.600000 0.187500 1.425000
v 0.600000 0.187500 0.675000
v -0.562500 0.000000 -1.800000
v -0.562500 0.187500 -1.800000
v -0.562500 0.000000 -1.237500
v -0.562500 0.187500 -1.800000
v -0.562500 0.187500 -1.050000
v -0.562500 0.000000 -1.237500
v 0.562500 0.000000 -1.237500
v 0.562500 0.187500 -1.050000
v 0.562500 0.000000 -1.800000
v 0.562500 0.187500 -1.050000
v 0.562500 0.187500 -1.800000
v 0.562500 0.000000 -1.800000
v -0.862500 0.637500 2.100000
v -0.975000 0.637500 1.500000
v -0.862500 0.337500 2.100000
v -0.975000 0.637500 1.500000
v -0.975000 0.187500 1.425000
v -0.862500 0.337500 2.100000
v 0.862500 0.637500 2.100000
v -0.862500 0.637500 2.100000
v 0.862500 0.337500 2.100000
v -0.862500 0.637500 2.100000
v -0.862500 0.337500 2.100000
v 0.862500 0.337500 2.100000
v 0.487500 1.125000 -0.037500
v -0.487500 1.125000 -0.037500
v 0.337500 1.125000 0.900000
v -0.487500 1.125000 -0.037500
v -0.337500 1.125000 0.900000
v 0.337500 1.125000 0.900000
v -0.675000 0.900000 0.900000
v -0.975000 0.637500 0.825000
v -0.900000 0.937500 0.937500
v 0.975000 0.637500 1.500000
v 0.975000 0.637500 0.825000
v 0.825000 0.862500 1.537500
v 0.975000 0.637500 0.825000
v 0.900000 0.937500 0.937500
v 0.825000 0.862500 1.537500
v 0.862500 0.337500 2.100000
v 0.975000 0.187500 1.425000
v 0.862500 0.637500 2.100000
v 0.975000 0.187500 1.425000
v 0.975000 0.637500 1.500000
v 0.862500 0.637500 2.100000
v 0.975000 0.637500 1.500000
v 0.825000 0.862500 1.537500
v 0.862500 0.637500 2.100000
v -0.787500 0.825000 2.062500
v -0.825000 0.862500 1.537500
v -0.862500 0.637500 2.100000
v 0.787500 0.825000 2.062500
v 0.862500 0.637500 2.100000
v 0.825000 0.862500 1.537500
v 0.975000 0.637500 0.825000
v 0.675000 0.900000 0.900000
v 0.900000 0.937500 0.937500
v 0.862500 0.900000 -1.200000
v 0.787500 1.012500 -1.200000
v 0.862500 0.900000 -1.800000
v 0.787500 1.012500 -1.200000
v 0.787500 1.012500 -1.800000
v 0.862500 0.900000 -1.800000
v -0.787500 1.012500 -1.200000
v -0.862500 0.900000 -1.200000
v -0.787500 1.012500 -1.800000
v -0.862500 0.900000 -1.200000
v -0.862500 0.900000 -1.800000
v -0.787500 1.012500 -1.800000
v 0.712500 1.012500 1.800000
v 0.637500 1.012500 2.250000
v -0.712500 1.012500 1.800000
v 0.637500 1.012500 2.250000
v -0.637500 1.012500 2.250000
v -0.712500 1.012500 1.800000
v -0.712500 1.012500 1.800000
v -0.637500 1.012500 2.250000
v -0.825000 0.862500 1.537500
v -0.637500 1.012500 2.250000
v -0.787500 0.825000 2.062500
v -0.825000 0.862500 1.537500
v 0.637500 1.012500 2.250000
v 0.712500 1.012500 1.800000
v 0.787500 0.825000 2.062500
v 0.712500 1.012500 1.800000
v 0.825000 0.862500 1.537500
v 0.787500 0.825000 2.062500
v 0.975000 0.187500 1.312500
v 0.600000 0.187500 1.312500
v 0.975000 0.000000 1.050000
v 0.600000 0.187500 1.312500
v 0.600000 0.000000 1.050000
v 0.975000 0.000000 1.050000
v -0.975000 0.000000 1.050000
v -0.600000 0.000000 1.050000
v -0.975000 0.187500 1.312500
v -0.600000 0.000000 1.050000
v -0.600000 0.187500 1.312500
v -0.975000 0.187500 1.312500
v 0.562500 0.225000 -1.125000
v 0.562500 0.000000 -1.425000
v 0.825000 0.225000 -1.125000
v 0.562500 0.000000 -1.425000
v 0.825000 0.000000 -1.425000
v 0.825000 0.225000 -1.125000
v -0.825000 0.225000 -1.125000
v -0.825000 0.000000 -1.425000
v -0.562500 0.225000 -1.125000
v -0.825000 0.000000 -1.425000
v -0.562500 0.000000 -1.425000
v -0.562500 0.225000 -1.125000
v -0.825000 0.187500 -1.762500
v -0.562500 0.187500 -1.762500
v -0.825000 0.000000 -1.425000
v -0.562500 0.187500 -1.762500
v -0.562500 0.000000 -1.425000
v -0.825000 0.000000 -1.425000
v 0.562500 0.187500 -1.762500
v 0.825000 0.187500 -1.762500
v 0.562500 0.000000 -1.425000
v 0.825000 0.187500 -1.762500
v 0.825000 0.000000 -1.425000
v 0.562500 0.000000 -1.425000
v -0.600000 0.000000 1.050000
v -0.975000 0.000000 1.050000
v -0.600000 0.187500 0.750000
v -0.975000 0.000000 1.050000
v -0.975000 0.187500 0.750000
v -0.600000 0.187500 0.750000
v 0.600000 0.187500 0.750000
v 0.975000 0.187500 0.750000
v 0.600000 0.000000 1.050000
v 0.975000 0.187500 0.750000
v 0.975000 0.000000 1.050000
v 0.600000 0.000000 1.050000
v 0.975000 0.525000 0.862500
v 0.975000 0.525000 1.237500
v 0.975000 0.150000 0.862500
v 0.975000 0.525000 1.237500
v 0.975000 0.150000 1.237500
v 0.975000 0.150000 0.862500
v 0.825000 0.525000 -1.612500
v 0.825000 0.525000 -1.237500
v 0.825000 0.150000 -1.612500
v 0.825000 0.525000 -1.237500
v 0.825000 0.150000 -1.237500
v 0.825000 0.150000 -1.612500
v -0.975000 0.150000 0.862500
v -0.975000 0.150000 1.237500
v -0.975000 0.525000 0.862500
v -0.975000 0.150000 1.237500
v -0.975000 0.525000 1.237500
v -0.975000 0.525000 0.862500
v -0.825000 0.150000 -1.612500
v -0.825000 0.150000 -1.237500
v -0.825000 0.525000 -1.612500
v -0.825000 0.150000 -1.237500
v -0.825000 0.525000 -1.237500
v -0.825000 0.525000 -1.612500
v 0.975000 0.637500 0.825000
v 0.975000 0.637500 1.500000
v 0.975000 0.187500 0.675000
v 0.975000 0.637500 1.500000
v 0.975000 0.187500 1.425000
v 0.975000 0.187500 0.675000
v 0.975000 0.187500 0.675000
v 0.975000 0.187500 1.425000
v 0.975000 0.000000 0.862500
v 0.975000 0.187500 1.425000
v 0.975000 0.000000 1.200000
v 0.975000 0.000000 0.862500
v 0.825000 0.000000 -1.800000
v 0.825000 0.187500 -1.800000
v 0.825000 0.000000 -1.237500
v 0.825000 0.187500 -1.800000
v 0.825000 0.187500 -1.050000
v 0.825000 0.000000 -1.237500
v -0.975000 0.637500 1.500000
v -0.975000 0.637500 0.825000
v -0.975000 0.187500 1.425000
v -0.975000 0.637500 0.825000
v -0.975000 0.187500 0.675000
v -0.975000 0.187500 1.425000
v -0.975000 0.000000 0.862500
v -0.975000 0.000000 1.200000
v -0.975000 0.187500 0.675000
v -0.975000 0.000000 1.200000
v -0.975000 0.187500 1.425000
v -0.975000 0.187500 0.675000
v -0.825000 0.637500 -1.200000
v -0.825000 0.375000 -2.212500
v -0.825000 0.187500 -1.050000
v -0.825000 0.375000 -2.212500
v -0.825000 0.187500 -1.800000
v -0.825000 0.187500 -1.050000
v -0.825000 0.000000 -1.237500
v -0.825000 0.187500 -1.050000
v -0.825000 0.000000 -1.800000
v -0.825000 0.187500 -1.050000
v -0.825000 0.187500 -1.800000
v -0.825000 0.000000 -1.800000
v 0.825000 0.375000 -2.212500
v 0.825000 0.637500 -1.200000
v 0.825000 0.187500 -1.800000
v 0.825000 0.637500 -1.200000
v 0.825000 0.187500 -1.050000
v 0.825000 0.187500 -1.800000
v 0.975000 0.637500 0.825000
v 0.975000 0.637500 1.500000
v 0.975000 0.187500 0.675000
v 0.975000 0.637500 1.500000
v 0.975000 0.187500 1.425000
v 0.975000 0.187500 0.675000
v 0.975000 0.187500 0.675000
v 0.975000 0.187500 1.425000
v 0.975000 0.000000 0.862500
v 0.975000 0.187500 1.425000
v 0.975000 0.000000 1.200000
v 0.975000 0.000000 0.862500
v 0.825000 0.000000 -1.800000
v 0.825000 0.187500 -1.800000
v 0.825000 0.000000 -1.237500
v 0.825000 0.187500 -1.800000
v 0.825000 0.187500 -1.050000
v 0.825000 0.000000 -1.237500
v -0.975000 0.637500 1.500000
v -0.975000 0.637500 0.825000
v -0.975000 0.187500 1.425000
v -0.975000 0.637500 0.825000
v -0.975000 0.187500 0.675000
v -0.975000 0.187500 1.425000
v -0.975000 0.000000 0.862500
v -0.975000 0.000000 1.200000
v -0.975000 0.187500 0.675000
v -0.975000 0.000000 1.200000
v -0.975000 0.187500 1.425000
v -0.975000 0.187500 0.675000
v -0.825000 0.637500 -1.200000
v -0.825000 0.375000 -2.212500
v -0.825000 0.187500 -1.050000
v -0.825000 0.375000 -2.212500
v -0.825000 0.187500 -1.800000
v -0.825000 0.187500 -1.050000
v -0.825000 0.000000 -1.237500
v -0.825000 0.187500 -1.050000
v -0.825000 0.000000 -1.800000
v -0.825000 0.187500 -1.050000
v -0.825000 0.187500 -1.800000
v -0.825000 0.000000 -1.800000
v 0.825000 0.375000 -2.212500
v 0.825000 0.637500 -1.200000
v 0.825000 0.187500 -1.800000
v 0.825000 0.637500 -1.200000
v 0.825000 0.187500 -1.050000
v 0.825000 0.187500 -1.800000
vn 1.0000 -0.0000 -0.0000
vn -1.0000 -0.0000 -0.0000
vn -0.0000 1.0000 -0.0000
vn -0.0000 -0.0000 1.0000
vn -0.0000 -0.0000 -1.0000
vn -0.0000 0.8000 -0.6000
vn -0.0000 -1.0000 -0.0000
vn -0.0000 -0.9762 0.2169
vn 0.8321 0.5547 -0.0000
vn -0.8321 0.5547 -0.0000
vn -0.8988 0.4120 0.1498
vn -0.8229 0.5596 0.0987
vn 0.8366 0.5298 0.1394
vn 0.8701 0.4834 0.0967
vn -0.0000 0.1961 0.9806
vn -0.0000 0.1961 -0.9806
vn 0.9970 -0.0246 -0.0738
vn 0.9958 0.0289 -0.0866
vn -0.8328 0.5269 0.1700
vn -0.9701 0.2425 -0.0000
vn -0.9970 0.0246 -0.0738
vn -0.9958 -0.0289 -0.0866
vn -0.0686 0.9720 -0.2249
vn -0.0334 0.9758 -0.2161
vn -0.0000 0.9701 -0.2425
vn 0.0686 0.9720 -0.2249
vn 0.0334 0.9758 -0.2161
vn -0.0000 0.9864 -0.1644
vn -0.2956 0.9339 -0.2010
vn -0.5351 0.8178 -0.2120
vn 0.5791 0.7985 -0.1646
vn 0.0715 0.9655 -0.2503
vn 0.5518 0.8277 0.1017
vn -0.5518 0.8277 0.1017
vn 0.8009 0.5985 -0.0176
vn 0.6509 0.7576 -0.0482
vn -0.6552 0.7551 -0.0222
vn -0.7282 0.6832 -0.0539
vn 0.8028 0.5960 -0.0175
vn -0.0000 0.7894 -0.6139
vn -0.8028 0.5960 -0.0175
vn -0.0000 0.9383 0.3457
vn -0.0000 0.9975 0.0712
vn -0.0182 0.9984 0.0545
vn 0.1797 0.9786 0.0999
vn -0.1698 0.9849 0.0340
vn 0.0431 0.9907 0.1292
vn -0.8336 0.5297 0.1563
vn -0.4472 0.8944 -0.0000
vn -0.8309 0.5539 -0.0528
vn -0.0000 0.8944 0.4472
vn 0.5531 0.8208 -0.1427
vn -0.5525 0.8288 0.0884
vn 0.5525 0.8288 0.0884
vn -0.9829 -0.0000 0.1843
vn -0.9850 -0.0284 0.1705
vn -0.0925 0.3698 -0.9245
vn 0.9713 0.1885 0.1450
vn 0.9864 -0.0000 0.1644
vn 0.9824 -0.0307 0.1842
vn 0.8336 0.5297 0.1563
vn -0.9179 0.3858 0.0931
vn 0.9179 0.3858 0.0931
vn 0.0925 0.3698 -0.9245
vn -0.8321 -0.5547 -0.0000
vn 0.8321 -0.5547 -0.0000
vn 0.8988 -0.4120 -0.1498
vn 0.8229 -0.5596 -0.0987
vn -0.8366 -0.5298 -0.1394
vn -0.8701 -0.4834 -0.0967
vn -0.0000 -0.8137 0.5812
vn -0.0000 -0.8000 0.6000
vn -0.0000 -0.8742 -0.4856
vn -0.0000 -0.8480 -0.5300
vt 0.328125 -0.750000
vt 0.328125 -0.250000
vt 0.171875 -0.750000
vt 0.171875 -0.250000
vt 0.234375 -0.750000
vt 0.234375 -0.250000
vt 0.312500 -0.750000
vt 0.312500 -0.250000
vt 0.375000 -0.406250
vt 0.593750 -0.406250
vt 0.375000 -0.203125
vt 0.593750 -0.203125
vt 0.171875 -0.265625
vt 0.156250 -0.750000
vt 0.328125 -0.218750
vt 0.328125 -0.796875
vt 0.640625 -0.718750
vt 0.312500 -0.718750
vt 0.765625 -0.937500
vt 0.187500 -0.937500
vt 2.046875 -0.656250
vt 0.921875 -0.656250
vt 2.031250 -0.828125
vt 0.921875 -0.828125
vt 1.968750 -0.250000
vt 1.015625 -0.250000
vt 0.984375 -0.078125
vt 0.031250 -0.078125
vt 0.968750 -0.250000
vt 0.015625 -0.250000
vt 0.984375 0.000000
vt 0.031250 0.000000
vt 0.984375 -0.984375
vt 1.984375 -0.984375
vt 0.226562 0.000000
vt 0.226562 -0.031250
vt 0.031250 -0.031250
vt 0.562500 -0.132812
vt 0.359375 -0.132812
vt 0.562500 -0.179688
vt 0.359375 -0.179688
vt 0.484375 -0.187500
vt 0.500000 -0.226562
vt 0.359375 -0.187500
vt 0.398438 -0.250000
vt 0.476562 -0.570312
vt 0.000000 -0.570312
vt 0.492188 -0.609375
vt 0.000000 -0.609375
vt 0.992188 -0.835938
vt 0.484375 -0.835938
vt 0.992188 -0.914062
vt 0.484375 -0.914062
vt 0.757812 -0.171875
vt 0.289062 -0.171875
vt 0.726562 -0.281250
vt 0.320312 -0.281250
vt 0.117188 -0.117188
vt 0.257812 -0.101562
vt 0.125000 -0.171875
vt 0.828125 -0.609375
vt 0.851562 -0.734375
vt 0.960938 -0.539062
vt 0.976562 -0.804688
vt 0.632812 -0.734375
vt 0.507812 -0.812500
vt 0.656250 -0.609375
vt 0.515625 -0.546875
vt 0.570312 -0.117188
vt 0.960938 -0.210938
vt 0.992188 -0.234375
vt 0.335938 -0.406250
vt 0.406250 -0.492188
vt 0.429688 -0.406250
vt 0.148438 -0.406250
vt 0.054688 -0.406250
vt 0.070312 -0.484375
vt 0.265625 -0.101562
vt 0.171875 -0.820312
vt 0.476562 -0.851562
vt 0.335938 -0.710938
vt 0.890625 -0.398438
vt 0.593750 -0.398438
vt 0.945312 -0.546875
vt 0.539062 -0.539062
vt 0.476562 -0.492188
vt 0.007812 -0.492188
vt 0.468750 -0.570312
vt 0.023438 -0.570312
vt 0.101562 -0.117188
vt 0.000000 -0.171875
vt 1.007812 -0.281250
vt 0.898438 -0.281250
vt 0.851562 -0.117188
vt 0.796875 -0.109375
vt 0.859375 -0.140625
vt 0.804688 -0.164062
vt 0.234375 -0.578125
vt 0.140625 -0.578125
vt 0.234375 -0.601562
vt 0.140625 -0.601562
vt 0.265625 -0.507812
vt 0.265625 -0.546875
vt 0.367188 -0.500000
vt 0.367188 -0.554688
vt 0.164062 -0.710938
vt 0.148438 -0.281250
vt 0.281250 -0.328125
vt 0.195312 -0.328125
vt 0.898438 -0.328125
vt 0.765625 -0.328125
vt 0.000000 -0.250000
vt 0.492188 -0.835938
vt 0.492188 -0.914062
vt 0.867188 -0.164062
vt 0.875000 -0.109375
vt 0.718750 -0.156250
vt 0.726562 -0.125000
vt 0.203125 -0.656250
vt 0.281250 -0.664062
vt 0.226562 -0.617188
vt 0.000000 -0.125000
vt 0.000000 0.000000
vt 0.281250 -0.203125
vt 0.187500 -0.203125
vt 0.281250 -0.289062
vt 0.187500 -0.289062
vt 0.859375 -0.203125
vt 0.765625 -0.203125
vt 0.859375 -0.289062
vt 0.765625 -0.289062
s 1
usemtl material_img_1.002
f 1/1/1 2/2/1 3/3/1
f 4/2/1 5/4/1 6/3/1
f 7/3/2 8/4/2 9/1/2
f 10/4/2 11/2/2 12/1/2
f 13/5/3 14/6/3 15/7/3
f 16/6/3 17/8/3 18/7/3
f 19/7/3 20/8/3 21/5/3
f 22/8/3 23/6/3 24/5/3
f 25/3/2 26/4/2 27/1/2
f 28/4/2 29/2/2 30/1/2
f 31/1/1 32/2/1 33/3/1
f 34/2/1 35/4/1 36/3/1
f 37/9/4 38/10/4 39/11/4
f 40/10/4 41/12/4 42/11/4
f 43/11/4 44/12/4 45/9/4
f 46/12/4 47/10/4 48/9/4
f 49/11/5 50/12/5 51/9/5
f 52/12/5 53/10/5 54/9/5
f 55/9/5 56/10/5 57/11/5
f 58/10/5 59/12/5 60/11/5
f 61/13/6 62/14/6 63/15/6
f 64/14/6 65/16/6 66/15/6
f 67/17/5 68/18/5 69/19/5
f 70/18/5 71/20/5 72/19/5
f 73/21/7 74/22/7 75/23/7
f 76/22/7 77/24/7 78/23/7
f 79/25/7 80/26/7 81/21/7
f 82/26/7 83/22/7 84/21/7
f 85/27/7 86/28/7 87/29/7
f 88/28/7 89/30/7 90/29/7
f 91/31/7 92/32/7 93/27/7
f 94/32/7 95/28/7 96/27/7
f 97/24/8 98/33/8 99/23/8
f 100/33/8 101/34/8 102/23/8
f 103/5/7 104/7/7 105/6/7
f 106/7/7 107/8/7 108/6/7
f 109/7/7 110/5/7 111/8/7
f 112/5/7 113/6/7 114/8/7
f 115/3/1 116/1/1 117/4/1
f 118/1/1 119/2/1 120/4/1
f 121/1/2 122/3/2 123/2/2
f 124/3/2 125/4/2 126/2/2
f 127/9/5 128/11/5 129/10/5
f 130/11/5 131/12/5 132/10/5
f 133/11/5 134/9/5 135/12/5
f 136/9/5 137/10/5 138/12/5
f 139/11/4 140/9/4 141/12/4
f 142/9/4 143/10/4 144/12/4
f 145/9/4 146/11/4 147/10/4
f 148/11/4 149/12/4 150/10/4
f 439/123/71 440/123/71 441/123/71
f 442/123/71 443/123/71 444/123/71
f 445/123/71 446/123/71 447/123/71
f 448/123/71 449/123/71 450/123/71
f 451/123/72 452/123/72 453/123/72
f 454/123/72 455/123/72 456/123/72
f 457/123/72 458/123/72 459/123/72
f 460/123/72 461/123/72 462/123/72
f 463/123/73 464/123/73 465/123/73
f 466/123/73 467/123/73 468/123/73
f 469/123/73 470/123/73 471/123/73
f 472/123/73 473/123/73 474/123/73
f 475/123/74 476/123/74 477/123/74
f 478/123/74 479/123/74 480/123/74
f 481/123/74 482/123/74 483/123/74
f 484/123/74 485/123/74 486/123/74
usemtl material_img_0.002
f 151/35/9 152/36/9 153/32/9
f 154/36/9 155/37/9 156/32/9
f 157/32/10 158/37/10 159/35/10
f 160/37/10 161/36/10 162/35/10
f 163/38/3 164/39/3 165/40/3
f 166/39/3 167/41/3 168/40/3
f 169/42/11 170/43/11 171/44/11
f 172/43/12 173/45/12 174/44/12
f 175/44/13 176/45/13 177/42/13
f 178/45/14 179/43/14 180/42/14
f 181/46/15 182/47/15 183/48/15
f 184/47/15 185/49/15 186/48/15
f 187/50/16 188/51/16 189/52/16
f 190/51/16 191/53/16 192/52/16
f 193/54/17 194/55/17 195/56/17
f 196/55/18 197/57/18 198/56/18
f 199/58/19 200/59/19 201/60/19
f 202/59/20 203/55/20 204/60/20
f 205/55/21 206/54/21 207/57/21
f 208/54/22 209/56/22 210/57/22
f 211/61/23 212/62/23 213/63/23
f 214/62/24 215/64/24 216/63/24
f 217/62/25 218/65/25 219/64/25
f 220/65/25 221/66/25 222/64/25
f 223/67/26 224/68/26 225/65/26
f 226/68/27 227/66/27 228/65/27
f 229/67/28 230/61/28 231/68/28
f 232/61/28 233/63/28 234/68/28
f 235/69/29 236/70/29 237/54/29
f 238/70/30 239/71/30 240/54/30
f 241/70/31 242/69/31 243/71/31
f 244/69/32 245/54/32 246/71/32
f 247/72/33 248/73/33 249/74/33
f 250/75/34 251/76/34 252/77/34
f 253/69/35 254/78/35 255/54/35
f 256/78/36 257/55/36 258/54/36
f 259/78/37 260/69/37 261/55/37
f 262/69/38 263/54/38 264/55/38
f 265/79/39 266/80/39 267/81/39
f 268/82/40 269/83/40 270/84/40
f 271/83/40 272/85/40 273/84/40
f 274/80/41 275/79/41 276/81/41
f 277/72/42 278/75/42 279/73/42
f 280/75/42 281/77/42 282/73/42
f 283/86/43 284/87/43 285/88/43
f 286/87/43 287/89/43 288/88/43
f 289/90/44 290/78/44 291/58/44
f 292/78/45 293/59/45 294/58/45
f 295/78/46 296/90/46 297/59/46
f 298/90/47 299/58/47 300/59/47
f 301/58/48 302/60/48 303/91/48
f 304/71/2 305/92/2 306/93/2
f 307/71/1 308/93/1 309/92/1
f 310/94/49 311/95/49 312/96/49
f 313/95/50 314/97/50 315/96/50
f 316/98/3 317/99/3 318/100/3
f 319/99/3 320/101/3 321/100/3
f 322/102/51 323/103/51 324/104/51
f 325/103/51 326/105/51 327/104/51
f 328/95/9 329/94/9 330/97/9
f 331/94/52 332/96/52 333/97/52
f 334/81/53 335/79/53 336/106/53
f 337/106/54 338/79/54 339/81/54
f 340/57/1 341/107/1 342/108/1
f 343/107/1 344/109/1 345/108/1
f 346/108/2 347/109/2 348/57/2
f 349/109/2 350/107/2 351/57/2
f 352/110/1 353/93/1 354/111/1
f 355/93/1 356/56/1 357/111/1
f 358/111/2 359/56/2 360/110/2
f 361/56/2 362/93/2 363/110/2
f 364/91/55 365/60/55 366/112/55
f 367/60/56 368/107/56 369/112/56
f 370/50/4 371/113/4 372/52/4
f 373/113/4 374/114/4 375/52/4
f 376/115/3 377/116/3 378/117/3
f 379/116/3 380/118/3 381/117/3
f 382/119/57 383/120/57 384/121/57
f 385/60/9 386/55/9 387/58/9
f 388/55/58 389/59/58 390/58/58
f 391/112/59 392/107/59 393/91/59
f 394/107/60 395/60/60 396/91/60
f 397/60/61 398/58/61 399/91/61
f 400/122/62 401/58/62 402/91/62
f 403/122/63 404/91/63 405/58/63
f 406/120/64 407/119/64 408/121/64
f 409/35/65 410/32/65 411/36/65
f 412/32/65 413/37/65 414/36/65
f 415/32/66 416/35/66 417/37/66
f 418/35/66 419/36/66 420/37/66
f 421/38/7 422/40/7 423/39/7
f 424/40/7 425/41/7 426/39/7
f 427/42/67 428/44/67 429/43/67
f 430/44/68 431/45/68 432/43/68
f 433/44/69 434/42/69 435/45/69
f 436/42/70 437/43/70 438/45/70
f 487/124/1 488/125/1 489/126/1
f 490/125/1 491/127/1 492/126/1
f 493/128/1 494/129/1 495/130/1
f 496/129/1 497/131/1 498/130/1
f 499/126/2 500/127/2 501/124/2
f 502/127/2 503/125/2 504/124/2
f 505/130/2 506/131/2 507/128/2
f 508/131/2 509/129/2 510/128/2
f 511/55/1 512/60/1 513/57/1
f 514/60/1 515/107/1 516/57/1
f 517/57/1 518/107/1 519/108/1
f 520/107/1 521/109/1 522/108/1
f 523/110/1 524/93/1 525/111/1
f 526/93/1 527/56/1 528/111/1
f 529/60/2 530/55/2 531/107/2
f 532/55/2 533/57/2 534/107/2
f 535/108/2 536/109/2 537/57/2
f 538/109/2 539/107/2 540/57/2
f 541/54/2 542/71/2 543/56/2
f 544/71/2 545/93/2 546/56/2
f 547/111/2 548/56/2 549/110/2
f 550/56/2 551/93/2 552/110/2
f 553/71/1 554/54/1 555/93/1
f 556/54/1 557/56/1 558/93/1
f 559/55/1 560/60/1 561/57/1
f 562/60/1 563/107/1 564/57/1
f 565/57/1 566/107/1 567/108/1
f 568/107/1 569/109/1 570/108/1
f 571/110/1 572/93/1 573/111/1
f 574/93/1 575/56/1 576/111/1
f 577/60/2 578/55/2 579/107/2
f 580/55/2 581/57/2 582/107/2
f 583/108/2 584/109/2 585/57/2
f 586/109/2 587/107/2 588/57/2
f 589/54/2 590/71/2 591/56/2
f 592/71/2 593/93/2 594/56/2
f 595/111/2 596/56/2 597/110/2
f 598/56/2 599/93/2 600/110/2
f 601/71/1 602/54/1 603/93/1
f 604/54/1 605/56/1 606/93/1
