# Blender 5.1.2
# www.blender.org
mtllib Axel.mtl
o Axel
v -1.280172 0.000000 -0.116380
v -1.280172 2.250000 -0.116380
v -1.280172 2.250000 2.133620
v -1.280172 0.038793 2.133620
v -1.280172 2.250000 -2.211207
v -1.280172 0.038793 -2.211207
v -1.280172 4.461207 -2.211207
v -1.280172 4.461207 -0.116380
v -1.280172 4.461207 2.133620
v -2.250000 0.038793 2.133620
v -2.250000 2.250000 2.133620
v -2.250000 2.250000 -0.116380
v -2.250000 0.000000 -0.116380
v -2.250000 0.038793 -2.211207
v -2.250000 2.250000 -2.211207
v -2.250000 4.461207 2.133620
v -2.250000 4.461207 -0.116380
v -2.250000 4.461207 -2.211207
v -2.250000 3.607759 -1.706897
v -1.241379 3.607759 -1.706897
v -1.241379 2.987069 -2.017242
v -2.250000 2.987069 -2.017242
v -2.250000 4.034483 -1.280173
v -1.241379 4.034483 -1.280173
v -2.250000 4.344828 -0.659483
v -1.241379 4.344828 -0.659483
v -2.250000 4.461207 0.038793
v -1.241379 4.461207 0.038793
v -2.250000 4.344828 0.698276
v -1.241379 4.344828 0.698276
v -2.250000 4.034483 1.318965
v -1.241379 4.034483 1.318965
v -2.250000 3.607759 1.745690
v -1.241379 3.607759 1.745690
v -2.250000 2.987069 2.056034
v -1.241379 2.987069 2.056034
v -2.250000 2.288793 2.211207
v -1.241379 2.288793 2.211207
v -2.250000 1.629310 2.056034
v -1.241379 1.629310 2.056034
v -2.250000 1.008621 1.745690
v -1.241379 1.008621 1.745690
v -2.250000 0.581897 1.318965
v -1.241379 0.581897 1.318965
v -2.250000 0.271552 0.698276
v -1.241379 0.271552 0.698276
v -2.250000 0.116379 0.038793
v -1.241379 0.116379 0.038793
v -2.250000 0.271552 -0.659483
v -1.241379 0.271552 -0.659483
v -2.250000 0.581897 -1.280173
v -1.241379 0.581897 -1.280173
v -2.250000 1.008621 -1.706897
v -1.241379 1.008621 -1.706897
v -2.250000 1.629310 -2.017242
v -1.241379 1.629310 -2.017242
v -2.250000 2.288793 -2.133621
v -1.241379 2.288793 -2.133621
v 1.280172 2.250000 2.133620
v 1.280172 4.461207 2.133620
v 1.280172 4.461207 -0.116380
v 1.280172 2.250000 -0.116380
v 1.280172 2.250000 -2.211207
v 1.280172 4.461207 -2.211207
v 1.280172 0.038793 -2.211207
v 1.280172 0.000000 -0.116380
v 1.280172 0.038793 2.133620
v 2.250000 2.250000 -2.211207
v 2.250000 2.250000 -0.116380
v 2.250000 0.000000 -0.116380
v 2.250000 0.038793 -2.211207
v 2.250000 2.250000 2.133620
v 2.250000 0.038793 2.133620
v 2.250000 4.461207 -0.116380
v 2.250000 4.461207 2.133620
v 2.250000 4.461207 -2.211207
v 1.241379 3.607759 -1.706897
v 2.250000 3.607759 -1.706897
v 2.250000 2.987069 -2.017242
v 1.241379 2.987069 -2.017242
v 1.241379 4.034483 -1.280173
v 2.250000 4.034483 -1.280173
v 1.241379 4.344828 -0.659483
v 2.250000 4.344828 -0.659483
v 1.241379 4.461207 0.038793
v 2.250000 4.461207 0.038793
v 1.241379 4.344828 0.698276
v 2.250000 4.344828 0.698276
v 1.241379 4.034483 1.318965
v 2.250000 4.034483 1.318965
v 1.241379 3.607759 1.745690
v 2.250000 3.607759 1.745690
v 1.241379 2.987069 2.056034
v 2.250000 2.987069 2.056034
v 1.241379 2.288793 2.211207
v 2.250000 2.288793 2.211207
v 1.241379 1.629310 2.056034
v 2.250000 1.629310 2.056034
v 1.241379 1.008621 1.745690
v 2.250000 1.008621 1.745690
v 1.241379 0.581897 1.318965
v 2.250000 0.581897 1.318965
v 1.241379 0.271552 0.698276
v 2.250000 0.271552 0.698276
v 1.241379 0.116379 0.038793
v 2.250000 0.116379 0.038793
v 1.241379 0.271552 -0.659483
v 2.250000 0.271552 -0.659483
v 1.241379 0.581897 -1.280173
v 2.250000 0.581897 -1.280173
v 1.241379 1.008621 -1.706897
v 2.250000 1.008621 -1.706897
v 1.241379 1.629310 -2.017242
v 2.250000 1.629310 -2.017242
v 1.241379 2.288793 -2.133621
v 2.250000 2.288793 -2.133621
v -0.271552 3.409087 0.319238
v -0.271552 3.417156 -0.146166
v -0.504310 3.417156 -0.146166
v -0.504310 3.409087 0.319238
v -0.504310 3.215168 0.315876
v -0.271552 3.215168 0.315876
v -0.504310 3.223238 -0.149528
v -0.271552 3.223238 -0.149528
v 0.504310 3.215168 0.315876
v 0.504310 3.223238 -0.149528
v 0.504310 3.417156 -0.146166
v 0.504310 3.409087 0.319238
v 0.271552 3.409087 0.319238
v 0.271552 3.417156 -0.146166
v 0.271552 3.223238 -0.149528
v 0.271552 3.215168 0.315876
v -0.931034 2.057711 -0.053350
v -1.280172 2.057711 -0.053350
v -1.280172 2.014220 0.217463
v -0.931034 2.014220 0.217463
v -0.931034 1.900559 0.060311
v -1.280172 1.900559 0.060311
v -1.280172 2.172045 0.065018
v -0.931034 2.172045 0.065018
v 0.931034 2.014220 0.217463
v 1.280172 2.014220 0.217463
v 1.280172 2.057711 -0.053350
v 0.931034 2.057711 -0.053350
v 0.931034 2.172045 0.065018
v 1.280172 2.172045 0.065018
v 1.280172 1.900559 0.060311
v 0.931034 1.900559 0.060311
v 0.155173 1.003156 0.355114
v 0.193965 0.692887 0.349734
v 0.193965 0.709026 -0.581073
v -0.193965 0.692887 0.349734
v -0.155173 1.003156 0.355114
v -0.155173 1.015260 -0.342992
v 0.155173 1.015260 -0.342992
v -0.193965 0.709026 -0.581073
v 0.659483 0.530355 0.773665
v 0.659483 0.685490 0.776354
v -0.659483 0.685490 0.776354
v 0.659483 0.719784 -1.201611
v 0.659483 0.564650 -1.204300
v -0.659483 0.564650 -1.204300
v -0.659483 0.543132 0.036776
v 0.659483 0.543132 0.036776
v 0.659483 0.698267 0.039465
v -0.659483 0.698267 0.039465
v -0.659483 0.719784 -1.201611
v 0.659483 0.526993 0.967583
v 0.659483 0.953613 0.974980
v 0.659483 0.969752 0.044172
v 1.047414 0.953613 0.974980
v 1.047414 0.526993 0.967583
v 1.047414 0.543132 0.036776
v -1.047414 0.526993 0.967583
v -1.047414 0.953613 0.974980
v -1.047414 0.969752 0.044172
v -0.659483 0.953613 0.974980
v -0.659483 0.969752 0.044172
v -0.659483 0.526993 0.967583
v -1.047414 0.543132 0.036776
v 0.659483 1.000684 -1.739875
v 1.047414 0.969752 0.044172
v 1.047414 0.574064 -1.747271
v -1.047414 1.000684 -1.739875
v -0.659483 1.000684 -1.739875
v -0.659483 0.574064 -1.747271
v -1.047414 0.574064 -1.747271
v 1.047414 1.000684 -1.739875
v 0.659483 0.574064 -1.747271
v -0.853448 3.528800 0.127337
v -1.047414 3.528800 0.127337
v -1.047414 1.990685 1.574890
v -0.853448 1.990685 1.574890
v -0.853448 2.081247 -1.410777
v -1.047414 2.081247 -1.410777
v -0.853448 0.953613 0.974980
v -0.853448 1.040140 -1.777986
v -1.047414 1.040140 -1.777986
v -0.853448 2.016910 0.062329
v -1.047414 2.016910 0.062329
v 0.853448 1.990685 1.574890
v 1.047414 1.990685 1.574890
v 1.047414 3.528800 0.127337
v 0.853448 3.528800 0.127337
v 1.047414 2.081247 -1.410777
v 0.853448 2.081247 -1.410777
v 0.853448 0.953613 0.974980
v 1.047414 1.040140 -1.777986
v 0.853448 1.040140 -1.777986
v 1.047414 2.016910 0.062329
v 0.853448 2.016910 0.062329
v -0.659483 0.530355 0.773665
v 0.931034 2.831366 0.076450
v 0.387931 2.831366 0.076450
v 0.387931 3.568256 0.089226
v 0.931034 3.568256 0.089226
v -0.387931 3.568256 0.089226
v -0.387931 2.831366 0.076450
v -0.931034 2.831366 0.076450
v -0.931034 3.568256 0.089226
v -0.271552 2.404746 0.069053
v -0.000000 2.404746 0.069053
v -0.000000 1.784208 0.058294
v -0.504310 1.784208 0.058294
v 0.271552 2.404746 0.069053
v 0.504310 1.784208 0.058294
v 0.504310 0.698267 0.039465
v -0.000000 0.698267 0.039465
v -0.504310 0.698267 0.039465
v -0.000000 3.568256 0.089226
vn 1.0000 -0.0000 -0.0000
vn -1.0000 -0.0000 -0.0000
vn -0.0000 0.5847 -0.8112
vn -0.0000 0.3092 -0.9510
vn -0.0000 0.8112 -0.5847
vn -0.0000 0.9510 -0.3092
vn -0.0000 1.0000 0.0048
vn -0.0000 0.9495 0.3138
vn -0.0000 0.8112 0.5847
vn -0.0000 0.5847 0.8112
vn -0.0000 0.3346 0.9424
vn -0.0000 -0.0062 1.0000
vn -0.0000 -0.3404 0.9403
vn -0.0000 -0.5847 0.8112
vn -0.0000 -0.8112 0.5847
vn -0.0000 -0.9403 0.3404
vn -0.0000 -1.0000 0.0062
vn -0.0000 -0.9424 -0.3346
vn -0.0000 -0.8112 -0.5847
vn -0.0000 -0.5847 -0.8112
vn -0.0000 -0.3138 -0.9495
vn -0.0000 -0.0048 -1.0000
vn 0.5774 0.5672 0.5873
vn 0.5773 0.5873 -0.5673
vn -0.5774 0.5873 -0.5673
vn -0.5773 0.5673 0.5873
vn -0.5774 -0.5873 0.5673
vn 0.5773 -0.5873 0.5673
vn -0.5773 -0.5672 -0.5873
vn 0.5774 -0.5673 -0.5873
vn 0.0108 0.9999 0.0004
vn -0.0000 0.9873 0.1586
vn 0.1573 0.9780 0.1368
vn 0.0011 -0.0000 -1.0000
vn -0.0000 0.0173 -0.9998
vn 0.0172 0.0151 -0.9997
vn 0.5371 0.5982 0.5946
vn 0.7299 0.0795 0.6789
vn 0.5136 0.5662 -0.6446
vn -0.7299 0.0795 0.6789
vn -0.5371 0.5982 0.5946
vn -0.5720 0.7484 -0.3356
vn 0.5720 0.7485 -0.3356
vn -0.5136 0.5662 -0.6446
vn -0.0000 -0.7193 0.6948
vn -0.0000 0.6947 0.7193
vn -0.0000 0.7193 -0.6947
vn -0.0000 -0.6947 -0.7193
vn -0.0000 -0.6948 -0.7192
vn 0.4472 -0.8943 -0.0155
vn -0.4472 -0.8943 -0.0155
vn -0.0000 0.9998 0.0173
vn -0.5773 -0.5873 0.5673
vn -0.5773 0.5672 0.5873
vn -0.7071 0.7070 0.0123
vn 0.5773 0.5673 0.5873
vn 0.5773 -0.5872 0.5673
vn 0.7071 -0.7070 -0.0123
vn 0.7071 0.7070 0.0123
vn 0.4473 -0.8943 -0.0155
vn -0.7071 -0.7070 -0.0123
vn -0.5773 0.5873 -0.5673
vn 0.5773 -0.5673 -0.5873
vn -0.0000 0.6853 0.7282
vn 0.3827 -0.6728 0.6332
vn 0.0795 0.7259 -0.6832
vn -0.0000 -0.0000 -1.0000
vn -0.0000 -1.0000 -0.0000
vn 0.0014 -0.7072 0.7070
vn 0.3827 0.6332 0.6728
vn 0.8001 0.4746 -0.3668
vn -0.0000 0.7282 -0.6853
vn 0.0672 -0.9977 0.0013
vn 0.3827 -0.7997 -0.4626
vn -0.0931 -0.9128 -0.3976
vn -0.0000 -0.5007 0.8656
vn -0.0000 -0.7071 0.7071
vn -0.0000 0.3326 -0.9431
vn -0.0000 1.0000 -0.0000
vn 0.0359 0.9709 -0.2367
vn 0.9996 -0.0169 -0.0210
vn -0.3827 0.0160 -0.9237
vn -0.0148 0.9999 0.0026
vn -0.0000 0.9990 0.0436
vn 0.2100 0.9729 -0.0965
vn -0.9239 -0.0167 0.3823
vn -0.0000 -0.0000 1.0000
vn 0.0804 0.7259 -0.6831
vn -0.0307 -0.9995 0.0005
vn 0.0327 -0.0005 0.9995
vn -0.5197 0.7395 0.4278
vn -0.1070 -0.8606 -0.4979
vn -0.0000 1.0000 -0.0001
vn -0.0000 -0.0001 1.0000
vn 0.3407 0.0010 0.9402
vn 0.0442 0.9622 0.2689
vn 0.9239 0.0066 -0.3826
vn -0.0148 -0.9999 -0.0026
vn -0.9988 0.0426 0.0230
vn -0.0000 -0.7193 0.6947
vn -0.0000 -0.0173 0.9999
vn -0.0000 -0.0176 0.9998
vn -0.2781 0.3797 -0.8824
vn -0.0000 -0.0346 0.9994
vn 0.3333 0.8818 0.3337
vt 0.984375 -0.476562
vt 1.484375 -0.476562
vt 1.484375 -0.992188
vt 0.992188 -0.992188
vt 1.484375 0.000000
vt 0.992188 0.000000
vt 0.484375 -0.476562
vt 0.484375 0.000000
vt 0.992188 -0.476562
vt 0.484375 -0.992188
vt 0.968750 -0.984375
vt 0.968750 0.000000
vt 0.000000 0.000000
vt 0.000000 -0.984375
vt 0.312500 -0.687500
vt 0.312500 -0.312500
vt 0.187500 -0.312500
vt 0.187500 -0.687500
vt 0.406250 -0.796875
vt 0.406250 -0.953125
vt 0.578125 -0.953125
vt 0.578125 -0.796875
vt 0.015625 -0.437500
vt 0.078125 -0.437500
vt 0.078125 -0.468750
vt 0.015625 -0.468750
vt 0.015625 -0.453125
vt 0.078125 -0.453125
vt 1.015625 -0.468750
vt 0.953125 -0.468750
vt 0.953125 -0.437500
vt 1.015625 -0.437500
vt 1.015625 -0.453125
vt 0.953125 -0.453125
vt 0.296875 -0.734375
vt 0.343750 -0.734375
vt 0.343750 -0.375000
vt 0.140625 -0.734375
vt 0.187500 -0.734375
vt 0.187500 -0.468750
vt 0.171875 -0.687500
vt 0.343750 -0.750000
vt 0.343750 -0.390625
vt 0.328125 -0.890625
vt 0.609375 -0.953125
vt 0.609375 -0.625000
vt 0.296875 -0.468750
vt 0.765625 -0.218750
vt 0.765625 -0.109375
vt 0.218750 -0.109375
vt 0.218750 -0.218750
vt 0.328125 -0.671875
vt 0.640625 -0.671875
vt 0.640625 -0.953125
vt 0.328125 -0.187500
vt 0.640625 -0.187500
vt 0.328125 -0.953125
vt 0.203125 -0.734375
vt 0.203125 -0.593750
vt 0.312500 -0.593750
vt 0.000000 -0.687500
vt 0.125000 -0.687500
vt 0.125000 -0.562500
vt 0.000000 -0.562500
vt 0.203125 -0.296875
vt 0.312500 -0.296875
vt 0.125000 -0.312500
vt 0.000000 -0.312500
vt 0.000000 -0.453125
vt 0.031250 -0.453125
vt 0.031250 -0.609375
vt 0.000000 -0.609375
vt 0.000000 -0.296875
vt 0.031250 -0.296875
vt 0.031250 -0.546875
vt 0.000000 -0.546875
vt 0.000000 -0.265625
vt 0.031250 -0.265625
vt 0.031250 -0.593750
vt 0.000000 -0.281250
vt 0.140625 -0.375000
vt 0.171875 -0.468750
vt 0.328125 -0.687500
vt 0.000000 -0.593750
vt 0.968750 -0.593750
vt 0.062500 -0.234375
vt 0.312500 -0.234375
vt 0.312500 0.000000
vt 0.062500 0.000000
vt 0.656250 0.000000
vt 0.656250 -0.234375
vt 0.906250 -0.234375
vt 0.906250 0.000000
vt 0.593750 -0.390625
vt 0.484375 -0.390625
vt 0.484375 -0.601562
vt 0.687500 -0.601562
vt 0.375000 -0.390625
vt 0.281250 -0.601562
vt 0.281250 -0.992188
vt 0.687500 -0.992188
vt 0.484375 -0.375000
vt 0.609375 -0.375000
vt 0.359375 -0.375000
vt 0.000000 -0.968750
vt 0.968750 -0.968750
s 1
usemtl material_0
f 1/1/1 2/2/1 3/3/1
f 1/1/1 3/3/1 4/4/1
f 5/5/1 2/2/1 1/1/1
f 5/5/1 1/1/1 6/6/1
f 2/7/1 5/8/1 7/6/1
f 2/7/1 7/6/1 8/9/1
f 3/10/1 2/7/1 8/9/1
f 3/10/1 8/9/1 9/4/1
f 10/4/2 11/3/2 12/2/2
f 10/4/2 12/2/2 13/1/2
f 14/6/2 13/1/2 12/2/2
f 14/6/2 12/2/2 15/5/2
f 11/10/2 16/4/2 17/9/2
f 11/10/2 17/9/2 12/7/2
f 15/8/2 12/7/2 17/9/2
f 15/8/2 17/9/2 18/6/2
f 59/10/2 60/4/2 61/9/2
f 59/10/2 61/9/2 62/7/2
f 63/8/2 62/7/2 61/9/2
f 63/8/2 61/9/2 64/6/2
f 65/6/2 66/1/2 62/2/2
f 65/6/2 62/2/2 63/5/2
f 67/4/2 59/3/2 62/2/2
f 67/4/2 62/2/2 66/1/2
f 68/5/1 69/2/1 70/1/1
f 68/5/1 70/1/1 71/6/1
f 70/1/1 69/2/1 72/3/1
f 70/1/1 72/3/1 73/4/1
f 72/10/1 69/7/1 74/9/1
f 72/10/1 74/9/1 75/4/1
f 69/7/1 68/8/1 76/6/1
f 69/7/1 76/6/1 74/9/1
usemtl material_1
f 19/11/3 20/12/3 21/13/4
f 19/11/3 21/13/4 22/14/4
f 23/11/5 24/12/5 20/13/3
f 23/11/5 20/13/3 19/14/3
f 25/11/6 26/12/6 24/13/5
f 25/11/6 24/13/5 23/14/5
f 27/11/7 28/12/7 26/13/6
f 27/11/7 26/13/6 25/14/6
f 29/11/8 30/12/8 28/13/7
f 29/11/8 28/13/7 27/14/7
f 31/11/9 32/12/9 30/13/8
f 31/11/9 30/13/8 29/14/8
f 33/11/10 34/12/10 32/13/9
f 33/11/10 32/13/9 31/14/9
f 35/11/11 36/12/11 34/13/10
f 35/11/11 34/13/10 33/14/10
f 37/11/12 38/12/12 36/13/11
f 37/11/12 36/13/11 35/14/11
f 39/11/13 40/12/13 38/13/12
f 39/11/13 38/13/12 37/14/12
f 41/11/14 42/12/14 40/13/13
f 41/11/14 40/13/13 39/14/13
f 43/11/15 44/12/15 42/13/14
f 43/11/15 42/13/14 41/14/14
f 45/11/16 46/12/16 44/13/15
f 45/11/16 44/13/15 43/14/15
f 47/11/17 48/12/17 46/13/16
f 47/11/17 46/13/16 45/14/16
f 49/11/18 50/12/18 48/13/17
f 49/11/18 48/13/17 47/14/17
f 51/11/19 52/12/19 50/13/18
f 51/11/19 50/13/18 49/14/18
f 53/11/20 54/12/20 52/13/19
f 53/11/20 52/13/19 51/14/19
f 55/11/21 56/12/21 54/13/20
f 55/11/21 54/13/20 53/14/20
f 57/11/22 58/12/22 56/13/21
f 57/11/22 56/13/21 55/14/21
f 22/11/4 21/12/4 58/13/22
f 22/11/4 58/13/22 57/14/22
f 77/11/3 78/12/3 79/13/4
f 77/11/3 79/13/4 80/14/4
f 81/11/5 82/12/5 78/13/3
f 81/11/5 78/13/3 77/14/3
f 83/11/6 84/12/6 82/13/5
f 83/11/6 82/13/5 81/14/5
f 85/11/7 86/12/7 84/13/6
f 85/11/7 84/13/6 83/14/6
f 87/11/8 88/12/8 86/13/7
f 87/11/8 86/13/7 85/14/7
f 89/11/9 90/12/9 88/13/8
f 89/11/9 88/13/8 87/14/8
f 91/11/10 92/12/10 90/13/9
f 91/11/10 90/13/9 89/14/9
f 93/11/11 94/12/11 92/13/10
f 93/11/11 92/13/10 91/14/10
f 95/11/12 96/12/12 94/13/11
f 95/11/12 94/13/11 93/14/11
f 97/11/13 98/12/13 96/13/12
f 97/11/13 96/13/12 95/14/12
f 99/11/14 100/12/14 98/13/13
f 99/11/14 98/13/13 97/14/13
f 101/11/15 102/12/15 100/13/14
f 101/11/15 100/13/14 99/14/14
f 103/11/16 104/12/16 102/13/15
f 103/11/16 102/13/15 101/14/15
f 105/11/17 106/12/17 104/13/16
f 105/11/17 104/13/16 103/14/16
f 107/11/18 108/12/18 106/13/17
f 107/11/18 106/13/17 105/14/17
f 109/11/19 110/12/19 108/13/18
f 109/11/19 108/13/18 107/14/18
f 111/11/20 112/12/20 110/13/19
f 111/11/20 110/13/19 109/14/19
f 113/11/21 114/12/21 112/13/20
f 113/11/21 112/13/20 111/14/20
f 115/11/22 116/12/22 114/13/21
f 115/11/22 114/13/21 113/14/21
f 80/11/4 79/12/4 116/13/22
f 80/11/4 116/13/22 115/14/22
usemtl material_2
f 117/15/23 118/16/24 119/17/25
f 117/15/23 119/17/25 120/18/26
f 120/19/26 121/20/27 122/21/28
f 120/19/26 122/21/28 117/22/23
f 122/15/28 121/18/27 123/17/29
f 122/15/28 123/17/29 124/16/30
f 122/15/28 124/16/30 118/17/24
f 122/15/28 118/17/24 117/18/23
f 120/18/26 119/17/25 123/16/29
f 120/18/26 123/16/29 121/15/27
f 125/15/28 126/16/30 127/17/24
f 125/15/28 127/17/24 128/18/23
f 129/18/26 130/17/25 131/16/29
f 129/18/26 131/16/29 132/15/27
f 131/16/29 126/17/30 125/18/28
f 131/16/29 125/18/28 132/15/27
f 129/22/26 132/21/27 125/20/28
f 129/22/26 125/20/28 128/19/23
f 128/18/23 127/17/24 130/16/25
f 128/18/23 130/16/25 129/15/26
f 133/23/31 134/24/32 135/25/33
f 133/23/31 135/25/33 136/26/32
f 137/27/34 138/28/35 139/28/36
f 137/27/34 139/28/36 140/27/35
f 141/29/33 142/30/32 143/31/31
f 141/29/33 143/31/31 144/32/32
f 145/33/36 146/34/35 147/34/34
f 145/33/36 147/34/34 148/33/35
f 149/35/37 150/36/38 151/37/39
f 152/38/40 153/39/41 154/40/42
f 153/41/41 152/42/40 150/43/38
f 155/44/43 151/45/39 156/46/44
f 149/35/37 155/47/43 154/40/42
f 157/48/45 158/49/46 159/50/46
f 160/49/47 161/48/48 162/51/49
f 163/52/50 164/53/51 157/54/45
f 162/55/49 161/56/48 164/53/51
f 165/53/52 166/52/52 159/57/46
f 165/53/52 160/56/47 167/55/47
f 168/35/53 169/58/54 170/59/55
f 171/58/56 172/35/57 173/60/58
f 174/35/53 175/58/54 176/59/55
f 175/61/54 177/62/56 178/63/59
f 177/58/56 179/35/57 163/60/60
f 179/62/57 174/61/53 180/64/61
f 164/60/51 170/59/55 181/65/62
f 182/59/59 173/60/58 183/66/63
f 180/60/61 176/59/55 184/65/62
f 176/64/55 178/63/59 185/67/24
f 178/59/59 163/60/60 186/66/63
f 163/63/60 180/64/61 187/68/29
f 169/62/54 171/61/56 182/64/59
f 172/61/57 168/62/53 164/63/51
f 170/63/55 182/64/59 188/68/24
f 173/64/58 164/63/51 189/67/29
f 190/69/64 191/70/65 192/71/66
f 190/69/64 192/71/67 193/72/68
f 194/73/69 195/74/70 191/70/71
f 194/73/69 191/70/71 190/69/72
f 193/72/73 192/71/74 175/75/75
f 193/72/73 175/75/75 196/76/76
f 194/73/77 197/77/78 198/78/78
f 194/73/77 198/78/78 195/74/79
f 199/69/80 200/70/52 192/71/81
f 199/69/80 192/71/81 193/72/82
f 195/74/83 200/70/84 199/69/85
f 195/74/83 199/69/85 194/73/86
f 201/79/79 202/72/87 203/69/64
f 201/79/88 203/69/64 204/70/65
f 204/70/89 203/69/72 205/68/90
f 204/70/89 205/68/90 206/74/72
f 207/75/76 171/76/91 202/72/92
f 207/75/76 202/72/87 201/79/93
f 205/68/94 208/80/78 209/78/78
f 205/68/94 209/78/78 206/74/78
f 202/72/95 210/69/52 211/70/96
f 202/72/95 211/70/96 201/79/97
f 211/70/98 210/69/84 205/68/99
f 211/70/98 205/68/99 206/74/84
f 149/35/37 151/37/39 155/47/43
f 152/38/40 154/40/42 156/81/44
f 153/41/41 150/43/38 149/82/37
f 155/44/43 156/46/44 154/83/42
f 149/35/37 154/40/42 153/39/41
f 157/48/45 159/50/46 212/51/100
f 160/49/47 162/51/49 167/50/47
f 163/52/50 157/54/45 212/57/100
f 162/55/49 164/53/51 163/52/50
f 165/53/52 159/57/46 158/54/46
f 165/53/52 167/55/47 166/52/52
f 168/35/53 170/59/55 164/60/51
f 171/58/56 173/60/58 182/59/59
f 174/35/53 176/59/55 180/60/61
f 175/61/54 178/63/59 176/64/55
f 177/58/56 163/60/60 178/59/59
f 179/62/57 180/64/61 163/63/60
f 164/60/51 181/65/62 189/66/29
f 182/59/59 183/66/63 188/65/24
f 180/60/61 184/65/62 187/66/29
f 176/64/55 185/67/24 184/68/62
f 178/59/59 186/66/63 185/65/24
f 163/63/60 187/68/29 186/67/63
f 169/62/54 182/64/59 170/63/55
f 172/61/57 164/63/51 173/64/58
f 170/63/55 188/68/24 181/67/62
f 173/64/58 189/67/29 183/68/63
usemtl material_3
f 118/13/24 124/84/30 123/85/29
f 118/13/24 123/85/29 119/12/25
f 127/13/24 126/84/30 131/85/29
f 127/13/24 131/85/29 130/12/25
f 175/84/54 174/14/53 179/11/57
f 172/11/57 171/85/56 169/84/54
f 175/84/54 179/11/57 177/85/56
f 172/11/57 169/84/54 168/14/53
usemtl material_4
f 213/86/87 214/87/67 215/88/87
f 213/86/87 215/88/87 216/89/67
f 217/90/87 218/91/67 219/92/87
f 217/90/87 219/92/87 220/93/67
f 221/94/101 222/95/87 223/96/87
f 221/94/101 223/96/87 224/97/87
f 225/98/102 226/99/87 223/96/87
f 225/98/102 223/96/87 222/95/87
f 227/100/87 228/10/67 223/96/87
f 227/100/87 223/96/87 226/99/87
f 229/101/87 224/97/87 223/96/87
f 229/101/87 223/96/87 228/10/67
f 218/91/67 217/90/87 230/8/35
f 218/91/103 230/8/35 222/102/104
f 218/91/103 222/102/104 221/103/35
f 222/102/104 230/8/35 214/87/105
f 222/102/104 214/87/105 225/104/35
f 214/87/67 230/8/35 215/88/87
usemtl material_5
f 228/10/67 223/96/87 224/97/87
f 228/10/67 224/97/87 229/101/87
f 226/99/87 223/96/87 228/10/67
f 226/99/87 228/10/67 227/100/87
f 222/95/87 223/96/87 226/99/87
f 222/95/87 226/99/87 225/98/102
f 224/97/87 223/96/87 222/95/87
f 224/97/87 222/95/87 221/94/101
f 220/93/67 219/92/87 218/91/67
f 220/93/67 218/91/67 217/90/87
f 216/89/67 215/88/87 214/87/67
f 216/89/67 214/87/67 213/86/87
usemtl material_6
f 185/13/24 186/105/63 187/106/29
f 188/13/24 183/105/63 189/106/29
f 185/13/24 187/106/29 184/12/62
f 188/13/24 189/106/29 181/12/62
