# Blender 5.1.2
# www.blender.org
mtllib Warthog.mtl
o Warthog
v -0.821168 1.051095 -1.395985
v -0.821168 1.051095 -2.250000
v -0.821168 1.182482 -2.250000
v 0.821168 1.051095 -2.250000
v 0.821168 1.051095 -1.395985
v 0.821168 1.182482 -1.395985
v 0.919708 1.018248 -1.855839
v 0.919708 0.788321 -1.855839
v -0.919708 0.788321 -1.855839
v 0.229927 1.905110 -0.607664
v 0.229927 1.839416 -0.246350
v 0.262774 1.708029 -0.312044
v 0.000000 1.905110 -0.607664
v -0.032847 1.839416 -0.246350
v 0.032847 1.708029 -0.312044
v -0.229927 1.839416 -0.246350
v -0.262774 1.905110 -0.607664
v -0.295620 1.839416 -0.640511
v -0.689781 0.000000 -1.855839
v -0.689781 0.854015 -1.855839
v -0.689781 0.427007 -0.870438
v 0.689781 0.854015 -1.855839
v 0.689781 0.000000 -1.855839
v 0.689781 0.000000 -0.870438
v 0.689781 0.361314 -1.461679
v -0.689781 0.361314 -1.461679
v -0.689781 0.755475 -1.625912
v -0.558394 0.427008 1.724453
v -0.558394 0.000000 1.724453
v -0.558394 0.000000 0.739051
v 0.558394 0.427008 0.739051
v 0.558394 0.000000 0.739051
v 0.558394 0.000000 1.724453
v -0.821168 1.051095 -1.395985
v -0.821168 1.182482 -2.250000
v -0.821168 1.182482 -1.395985
v -0.821168 1.182482 -2.250000
v -0.821168 1.051095 -2.250000
v -0.821168 1.051095 -1.395985
v -0.821168 1.182482 -1.395985
v -0.821168 1.182482 -2.250000
v -0.821168 1.051095 -1.395985
v 0.821168 1.051095 -2.250000
v 0.821168 1.182482 -1.395985
v 0.821168 1.182482 -2.250000
v 0.821168 1.182482 -1.395985
v 0.821168 1.051095 -1.395985
v 0.821168 1.051095 -2.250000
v 0.821168 1.182482 -2.250000
v 0.821168 1.182482 -1.395985
v 0.821168 1.051095 -2.250000
v 0.919708 1.018248 -1.855839
v -0.919708 0.788321 -1.855839
v -0.919708 1.018248 -1.855839
v 0.229927 1.905110 -0.607664
v 0.262774 1.708029 -0.312044
v 0.262774 1.839416 -0.640511
v 0.262774 1.708029 -0.312044
v 0.229927 1.839416 -0.246350
v 0.229927 1.905110 -0.607664
v 0.262774 1.839416 -0.640511
v 0.262774 1.708029 -0.312044
v 0.229927 1.905110 -0.607664
v 0.000000 1.905110 -0.607664
v 0.032847 1.708029 -0.312044
v 0.032847 1.839416 -0.640511
v 0.032847 1.708029 -0.312044
v -0.032847 1.839416 -0.246350
v 0.000000 1.905110 -0.607664
v 0.032847 1.839416 -0.640511
v 0.032847 1.708029 -0.312044
v 0.000000 1.905110 -0.607664
v -0.229927 1.839416 -0.246350
v -0.295620 1.839416 -0.640511
v -0.295620 1.708029 -0.312044
v -0.295620 1.839416 -0.640511
v -0.262774 1.905110 -0.607664
v -0.229927 1.839416 -0.246350
v -0.295620 1.708029 -0.312044
v -0.295620 1.839416 -0.640511
v -0.229927 1.839416 -0.246350
v -0.689781 0.000000 -1.855839
v -0.689781 0.427007 -0.870438
v -0.689781 0.000000 -0.870438
v 0.689781 0.854015 -1.855839
v 0.689781 0.000000 -0.870438
v 0.689781 0.427007 -0.870438
v 0.689781 0.361314 -1.461679
v -0.689781 0.755475 -1.625912
v 0.689781 0.755475 -1.625912
v -0.558394 0.427008 1.724453
v -0.558394 0.000000 0.739051
v -0.558394 0.427008 0.739051
v 0.558394 0.427008 0.739051
v 0.558394 0.000000 1.724453
v 0.558394 0.427008 1.724453
v -0.722628 1.018248 -1.395985
v -0.919708 1.018248 -1.395985
v -0.821168 1.248175 -1.395985
v -0.821168 1.248175 -1.395985
v -0.919708 1.018248 -1.395985
v -0.854015 1.116788 -0.541971
v -0.722628 1.018248 -1.395985
v -0.821168 1.248175 -1.395985
v -0.821168 1.248175 -0.673358
v 0.821168 1.248175 -1.395985
v 0.722628 1.018248 -1.395985
v 0.755474 1.116788 -0.541971
v 0.919708 1.018248 -1.395985
v 0.821168 1.248175 -1.395985
v 0.821168 1.248175 -0.673358
v 0.919708 1.018248 -1.395985
v 0.722628 1.018248 -1.395985
v 0.821168 1.248175 -1.395985
v -0.821168 1.248175 -0.673358
v -0.854015 1.116788 -0.541971
v -0.755474 1.116788 -0.541971
v 0.854015 1.116788 -0.541971
v 0.821168 1.248175 -0.673358
v 0.755474 1.116788 -0.541971
v 0.492701 1.905110 -0.180657
v -0.492701 1.905110 -0.180657
v -0.492701 1.839416 0.804744
v 0.919708 0.427007 -0.870438
v 0.919708 0.854015 -1.855839
v 0.919708 0.854015 -0.870438
v -0.919708 0.854015 -1.855839
v -0.919708 0.427007 -0.870438
v -0.919708 0.854015 -0.870438
v -0.919708 1.445256 -0.509124
v -0.919708 1.116788 -0.541971
v -0.919708 0.854015 0.739051
v -0.919708 1.116788 -0.541971
v -0.919708 0.854015 -0.870438
v -0.919708 0.854015 0.739051
v -0.919708 0.952555 -1.855839
v -0.919708 0.854015 -1.855839
v -0.919708 0.854015 -0.870438
v -0.919708 0.854015 -0.870438
v -0.919708 0.427007 -0.870438
v -0.919708 0.427008 0.739051
v 0.919708 1.116788 -0.541971
v 0.919708 1.445256 -0.509124
v 0.919708 1.478102 1.428832
v 0.919708 0.427007 -0.870438
v 0.919708 0.854015 -0.870438
v 0.919708 0.854015 0.739051
v 0.919708 0.854015 -0.870438
v 0.919708 1.116788 -0.541971
v 0.919708 0.854015 0.739051
v 0.919708 0.854015 -1.855839
v 0.919708 0.952555 -1.855839
v 0.919708 1.116788 -0.541971
v 0.919708 1.116788 -0.541971
v 0.919708 0.952555 -1.855839
v -0.919708 0.952555 -1.855839
v 0.919708 1.445256 -0.509124
v 0.919708 1.116788 -0.541971
v -0.919708 1.116788 -0.541971
v -0.624088 1.675183 -0.344891
v -0.624088 1.576643 0.968978
v -0.492701 1.839416 0.804744
v -0.624088 1.576643 0.968978
v 0.624088 1.576643 0.968978
v 0.492701 1.839416 0.804744
v 0.624088 1.576643 0.968978
v 0.624088 1.675183 -0.344891
v 0.492701 1.905110 -0.180657
v -0.525547 1.576642 -0.213504
v -0.624088 1.576643 0.968978
v -0.525547 1.675183 -0.213504
v 0.624088 1.576643 0.968978
v 0.525547 1.576642 -0.213504
v 0.525547 1.675183 -0.213504
v -0.525547 1.576642 -0.213504
v -0.525547 1.675183 -0.213504
v 0.525547 1.675183 -0.213504
v 0.427007 1.478102 1.428832
v 0.919708 1.478102 1.428832
v 0.854015 1.576643 1.297445
v 0.427007 1.478102 1.428832
v 0.854015 1.576643 1.297445
v -0.854015 1.576643 1.297445
v -0.427007 1.478102 1.428832
v -0.854015 1.576643 1.297445
v -0.919708 1.478102 1.428832
v -0.854015 1.576643 1.297445
v 0.854015 1.576643 1.297445
v 0.854015 1.576642 -0.509124
v 0.854015 1.576642 -0.509124
v 0.919708 1.445256 -0.509124
v -0.919708 1.445256 -0.509124
v 0.624088 1.675183 -0.344891
v -0.624088 1.675183 -0.344891
v -0.492701 1.905110 -0.180657
v -0.919708 1.478102 1.428832
v -0.854015 1.576643 1.297445
v -0.854015 1.576642 -0.509124
v 0.854015 1.576643 1.297445
v 0.919708 1.478102 1.428832
v 0.919708 1.445256 -0.509124
v 0.689781 0.131387 -1.034672
v 0.689781 0.000000 -1.363139
v 0.919708 0.000000 -1.363139
v 0.689781 0.427007 -0.870438
v 0.689781 0.131387 -1.034672
v 0.919708 0.131387 -1.034672
v -0.689781 0.000000 -1.363139
v -0.689781 0.131387 -1.034672
v -0.919708 0.131387 -1.034672
v -0.689781 0.131387 -1.034672
v -0.689781 0.427007 -0.870438
v -0.919708 0.427007 -0.870438
v -0.689781 0.131387 -1.691606
v -0.689781 0.000000 -1.363139
v -0.919708 0.000000 -1.363139
v -0.689781 0.427007 -1.855839
v -0.689781 0.131387 -1.691606
v -0.919708 0.131387 -1.691606
v -0.689781 0.755475 -1.625912
v -0.689781 0.427007 -1.855839
v -0.919708 0.427007 -1.855839
v 0.689781 0.000000 -1.363139
v 0.689781 0.131387 -1.691606
v 0.919708 0.131387 -1.691606
v 0.689781 0.131387 -1.691606
v 0.689781 0.427007 -1.855839
v 0.919708 0.427007 -1.855839
v 0.689781 0.427007 -1.855839
v 0.689781 0.755475 -1.625912
v 0.919708 0.755475 -1.625912
v -0.558394 0.131387 0.903285
v -0.558394 0.000000 1.231752
v -0.919708 0.000000 1.231752
v -0.558394 0.427008 0.739051
v -0.558394 0.131387 0.903285
v -0.919708 0.131387 0.903285
v 0.558394 0.000000 1.231752
v 0.558394 0.131387 0.903285
v 0.919708 0.131387 0.903285
v 0.558394 0.131387 0.903285
v 0.558394 0.427008 0.739051
v 0.919708 0.427008 0.739051
v 0.624088 1.576643 0.968978
v -0.624088 1.576643 0.968978
v -0.624088 1.675183 -0.344891
v 0.558394 0.427008 1.724453
v 0.558394 0.131387 1.560219
v 0.919708 0.131387 1.560219
v 0.558394 0.131387 1.560219
v 0.558394 0.000000 1.231752
v 0.919708 0.000000 1.231752
v 0.558394 0.427008 1.724453
v 0.558394 0.131387 1.560219
v 0.919708 0.131387 1.560219
v 0.558394 0.131387 1.560219
v 0.558394 0.000000 1.231752
v 0.919708 0.000000 1.231752
v -0.558394 0.131387 1.560219
v -0.558394 0.427008 1.724453
v -0.919708 0.427008 1.724453
v -0.558394 0.000000 1.231752
v -0.558394 0.131387 1.560219
v -0.919708 0.131387 1.560219
v -0.558394 0.131387 1.560219
v -0.558394 0.427008 1.724453
v -0.919708 0.427008 1.724453
v -0.558394 0.000000 1.231752
v -0.558394 0.131387 1.560219
v -0.919708 0.131387 1.560219
v -0.558394 0.985402 2.250000
v -0.427007 1.478102 1.428832
v -0.919708 1.478102 1.428832
v -0.558394 0.854015 2.151460
v -0.558394 0.985402 2.250000
v -0.919708 0.985402 2.250000
v 0.558394 0.985402 2.250000
v 0.919708 0.985402 2.250000
v 0.919708 1.478102 1.428832
v 0.558394 0.854015 2.151460
v 0.427007 1.051095 1.428832
v -0.427007 1.051095 1.428832
v 0.558394 0.854015 2.151460
v 0.919708 0.854015 2.151460
v 0.919708 0.985402 2.250000
v -0.427007 1.051095 1.428832
v 0.427007 1.051095 1.428832
v 0.427007 1.478102 1.428832
v -0.558394 0.854015 2.151460
v -0.427007 1.051095 1.428832
v -0.427007 1.478102 1.428832
v 0.427007 1.051095 1.428832
v 0.558394 0.854015 2.151460
v 0.558394 0.985402 2.250000
v -0.919708 1.478102 1.428832
v -0.919708 0.854015 0.739051
v -0.919708 0.854015 1.691606
v -0.919708 1.478102 1.428832
v -0.919708 0.854015 1.691606
v -0.919708 0.854015 2.151460
v 0.919708 0.854015 0.739051
v 0.919708 1.478102 1.428832
v 0.919708 0.854015 1.691606
v 0.919708 0.854015 1.691606
v 0.919708 1.478102 1.428832
v 0.919708 0.985402 2.250000
v -0.919708 0.854015 2.151460
v -0.919708 0.427008 1.888686
v -0.558394 0.854015 2.151460
v -0.558394 0.854015 2.151460
v -0.919708 0.427008 1.888686
v 0.919708 0.427008 1.888686
v 0.558394 0.854015 2.151460
v 0.919708 0.427008 1.888686
v 0.919708 0.854015 2.151460
v -0.821168 1.248175 -1.395985
v -0.854015 1.116788 -0.541971
v -0.821168 1.248175 -0.673358
v -0.722628 1.018248 -1.395985
v -0.821168 1.248175 -0.673358
v -0.755474 1.116788 -0.541971
v 0.821168 1.248175 -1.395985
v 0.755474 1.116788 -0.541971
v 0.821168 1.248175 -0.673358
v 0.919708 1.018248 -1.395985
v 0.821168 1.248175 -0.673358
v 0.854015 1.116788 -0.541971
v 0.492701 1.905110 -0.180657
v -0.492701 1.839416 0.804744
v 0.492701 1.839416 0.804744
v -0.919708 1.445256 -0.509124
v -0.919708 0.854015 0.739051
v -0.919708 1.478102 1.428832
v -0.919708 0.952555 -1.855839
v -0.919708 0.854015 -0.870438
v -0.919708 1.116788 -0.541971
v -0.919708 0.854015 -0.870438
v -0.919708 0.427008 0.739051
v -0.919708 0.854015 0.739051
v 0.919708 1.116788 -0.541971
v 0.919708 1.478102 1.428832
v 0.919708 0.854015 0.739051
v 0.919708 0.427007 -0.870438
v 0.919708 0.854015 0.739051
v 0.919708 0.427008 0.739051
v 0.919708 0.854015 -1.855839
v 0.919708 1.116788 -0.541971
v 0.919708 0.854015 -0.870438
v 0.919708 1.116788 -0.541971
v -0.919708 0.952555 -1.855839
v -0.919708 1.116788 -0.541971
v 0.919708 1.445256 -0.509124
v -0.919708 1.116788 -0.541971
v -0.919708 1.445256 -0.509124
v -0.624088 1.675183 -0.344891
v -0.492701 1.839416 0.804744
v -0.492701 1.905110 -0.180657
v -0.624088 1.576643 0.968978
v 0.492701 1.839416 0.804744
v -0.492701 1.839416 0.804744
v 0.624088 1.576643 0.968978
v 0.492701 1.905110 -0.180657
v 0.492701 1.839416 0.804744
v -0.525547 1.576642 -0.213504
v 0.525547 1.675183 -0.213504
v 0.525547 1.576642 -0.213504
v 0.427007 1.478102 1.428832
v -0.854015 1.576643 1.297445
v -0.427007 1.478102 1.428832
v -0.854015 1.576643 1.297445
v 0.854015 1.576642 -0.509124
v -0.854015 1.576642 -0.509124
v 0.854015 1.576642 -0.509124
v -0.919708 1.445256 -0.509124
v -0.854015 1.576642 -0.509124
v 0.624088 1.675183 -0.344891
v -0.492701 1.905110 -0.180657
v 0.492701 1.905110 -0.180657
v -0.919708 1.478102 1.428832
v -0.854015 1.576642 -0.509124
v -0.919708 1.445256 -0.509124
v 0.854015 1.576643 1.297445
v 0.919708 1.445256 -0.509124
v 0.854015 1.576642 -0.509124
v 0.689781 0.131387 -1.034672
v 0.919708 0.000000 -1.363139
v 0.919708 0.131387 -1.034672
v 0.689781 0.427007 -0.870438
v 0.919708 0.131387 -1.034672
v 0.919708 0.427007 -0.870438
v -0.689781 0.000000 -1.363139
v -0.919708 0.131387 -1.034672
v -0.919708 0.000000 -1.363139
v -0.689781 0.131387 -1.034672
v -0.919708 0.427007 -0.870438
v -0.919708 0.131387 -1.034672
v -0.689781 0.131387 -1.691606
v -0.919708 0.000000 -1.363139
v -0.919708 0.131387 -1.691606
v -0.689781 0.427007 -1.855839
v -0.919708 0.131387 -1.691606
v -0.919708 0.427007 -1.855839
v -0.689781 0.755475 -1.625912
v -0.919708 0.427007 -1.855839
v -0.919708 0.755475 -1.625912
v 0.689781 0.000000 -1.363139
v 0.919708 0.131387 -1.691606
v 0.919708 0.000000 -1.363139
v 0.689781 0.131387 -1.691606
v 0.919708 0.427007 -1.855839
v 0.919708 0.131387 -1.691606
v 0.689781 0.427007 -1.855839
v 0.919708 0.755475 -1.625912
v 0.919708 0.427007 -1.855839
v -0.558394 0.131387 0.903285
v -0.919708 0.000000 1.231752
v -0.919708 0.131387 0.903285
v -0.558394 0.427008 0.739051
v -0.919708 0.131387 0.903285
v -0.919708 0.427008 0.739051
v 0.558394 0.000000 1.231752
v 0.919708 0.131387 0.903285
v 0.919708 0.000000 1.231752
v 0.558394 0.131387 0.903285
v 0.919708 0.427008 0.739051
v 0.919708 0.131387 0.903285
v 0.624088 1.576643 0.968978
v -0.624088 1.675183 -0.344891
v 0.624088 1.675183 -0.344891
v 0.558394 0.427008 1.724453
v 0.919708 0.131387 1.560219
v 0.919708 0.427008 1.724453
v 0.558394 0.131387 1.560219
v 0.919708 0.000000 1.231752
v 0.919708 0.131387 1.560219
v 0.558394 0.427008 1.724453
v 0.919708 0.131387 1.560219
v 0.919708 0.427008 1.724453
v 0.558394 0.131387 1.560219
v 0.919708 0.000000 1.231752
v 0.919708 0.131387 1.560219
v -0.558394 0.131387 1.560219
v -0.919708 0.427008 1.724453
v -0.919708 0.131387 1.560219
v -0.558394 0.000000 1.231752
v -0.919708 0.131387 1.560219
v -0.919708 0.000000 1.231752
v -0.558394 0.131387 1.560219
v -0.919708 0.427008 1.724453
v -0.919708 0.131387 1.560219
v -0.558394 0.000000 1.231752
v -0.919708 0.131387 1.560219
v -0.919708 0.000000 1.231752
v -0.558394 0.985402 2.250000
v -0.919708 1.478102 1.428832
v -0.919708 0.985402 2.250000
v -0.558394 0.854015 2.151460
v -0.919708 0.985402 2.250000
v -0.919708 0.854015 2.151460
v 0.558394 0.985402 2.250000
v 0.919708 1.478102 1.428832
v 0.427007 1.478102 1.428832
v 0.558394 0.854015 2.151460
v -0.427007 1.051095 1.428832
v -0.558394 0.854015 2.151460
v 0.558394 0.854015 2.151460
v 0.919708 0.985402 2.250000
v 0.558394 0.985402 2.250000
v -0.427007 1.051095 1.428832
v 0.427007 1.478102 1.428832
v -0.427007 1.478102 1.428832
v -0.558394 0.854015 2.151460
v -0.427007 1.478102 1.428832
v -0.558394 0.985402 2.250000
v 0.427007 1.051095 1.428832
v 0.558394 0.985402 2.250000
v 0.427007 1.478102 1.428832
v -0.919708 1.478102 1.428832
v -0.919708 0.854015 2.151460
v -0.919708 0.985402 2.250000
v 0.919708 0.854015 1.691606
v 0.919708 0.985402 2.250000
v 0.919708 0.854015 2.151460
v -0.558394 0.854015 2.151460
v 0.919708 0.427008 1.888686
v 0.558394 0.854015 2.151460
v 0.919708 0.854015 -1.855839
v 0.919708 0.427007 -0.870438
v -0.919708 0.427007 -0.870438
v -0.919708 0.427007 -0.870438
v 0.919708 0.427007 -0.870438
v 0.919708 0.427008 1.888686
v 0.919708 0.854015 -1.855839
v -0.919708 0.427007 -0.870438
v -0.919708 0.854015 -1.855839
v -0.919708 0.427007 -0.870438
v 0.919708 0.427008 1.888686
v -0.919708 0.427008 1.888686
v 0.919708 0.000000 -1.855839
v 0.919708 0.854015 -1.855839
v 0.919708 0.427007 -0.870438
v -0.919708 0.854015 -1.855839
v -0.919708 0.000000 -1.855839
v -0.919708 0.000000 -0.870438
v 0.919708 0.427008 1.724453
v 0.919708 0.000000 1.724453
v 0.919708 0.000000 0.739051
v -0.919708 0.427008 0.739051
v -0.919708 0.000000 0.739051
v -0.919708 0.000000 1.724453
v 0.919708 0.000000 -1.855839
v 0.919708 0.427007 -0.870438
v 0.919708 0.000000 -0.870438
v -0.919708 0.854015 -1.855839
v -0.919708 0.000000 -0.870438
v -0.919708 0.427007 -0.870438
v 0.919708 0.427008 1.724453
v 0.919708 0.000000 0.739051
v 0.919708 0.427008 0.739051
v -0.919708 0.427008 0.739051
v -0.919708 0.000000 1.724453
v -0.919708 0.427008 1.724453
v -0.689781 0.755475 -1.625912
v -0.689781 0.427007 -1.855839
v -0.919708 0.427007 -1.855839
v -0.689781 0.427007 -1.855839
v -0.689781 0.131387 -1.691606
v -0.919708 0.131387 -1.691606
v -0.689781 0.131387 -1.691606
v -0.689781 0.000000 -1.363139
v -0.919708 0.000000 -1.363139
v -0.689781 0.000000 -1.363139
v -0.689781 0.131387 -1.034672
v -0.919708 0.131387 -1.034672
v -0.689781 0.131387 -1.034672
v -0.689781 0.427007 -0.870438
v -0.919708 0.427007 -0.870438
v 0.689781 0.427007 -0.870438
v 0.689781 0.131387 -1.034672
v 0.919708 0.131387 -1.034672
v 0.689781 0.131387 -1.034672
v 0.689781 0.000000 -1.363139
v 0.919708 0.000000 -1.363139
v 0.689781 0.000000 -1.363139
v 0.689781 0.131387 -1.691606
v 0.919708 0.131387 -1.691606
v 0.689781 0.131387 -1.691606
v 0.689781 0.427007 -1.855839
v 0.919708 0.427007 -1.855839
v 0.689781 0.427007 -1.855839
v 0.689781 0.755475 -1.625912
v 0.919708 0.755475 -1.625912
v -0.558394 0.131387 0.903285
v -0.558394 0.000000 1.231752
v -0.919708 0.000000 1.231752
v -0.558394 0.427008 0.739051
v -0.558394 0.131387 0.903285
v -0.919708 0.131387 0.903285
v 0.558394 0.000000 1.231752
v 0.558394 0.131387 0.903285
v 0.919708 0.131387 0.903285
v 0.558394 0.131387 0.903285
v 0.558394 0.427008 0.739051
v 0.919708 0.427008 0.739051
v 0.919708 0.427008 0.739051
v 0.919708 0.854015 0.739051
v 0.919708 0.854015 1.691606
v 0.919708 0.427008 1.888686
v 0.919708 0.854015 1.691606
v 0.919708 0.854015 2.151460
v -0.919708 0.427008 1.888686
v -0.919708 0.854015 1.691606
v -0.919708 0.854015 0.739051
v -0.919708 0.427008 1.888686
v -0.919708 0.854015 2.151460
v -0.919708 0.854015 1.691606
v -0.689781 0.755475 -1.625912
v -0.919708 0.427007 -1.855839
v -0.919708 0.755475 -1.625912
v -0.689781 0.427007 -1.855839
v -0.919708 0.131387 -1.691606
v -0.919708 0.427007 -1.855839
v -0.689781 0.131387 -1.691606
v -0.919708 0.000000 -1.363139
v -0.919708 0.131387 -1.691606
v -0.689781 0.000000 -1.363139
v -0.919708 0.131387 -1.034672
v -0.919708 0.000000 -1.363139
v -0.689781 0.131387 -1.034672
v -0.919708 0.427007 -0.870438
v -0.919708 0.131387 -1.034672
v 0.689781 0.427007 -0.870438
v 0.919708 0.131387 -1.034672
v 0.919708 0.427007 -0.870438
v 0.689781 0.131387 -1.034672
v 0.919708 0.000000 -1.363139
v 0.919708 0.131387 -1.034672
v 0.689781 0.000000 -1.363139
v 0.919708 0.131387 -1.691606
v 0.919708 0.000000 -1.363139
v 0.689781 0.131387 -1.691606
v 0.919708 0.427007 -1.855839
v 0.919708 0.131387 -1.691606
v 0.689781 0.427007 -1.855839
v 0.919708 0.755475 -1.625912
v 0.919708 0.427007 -1.855839
v -0.558394 0.131387 0.903285
v -0.919708 0.000000 1.231752
v -0.919708 0.131387 0.903285
v -0.558394 0.427008 0.739051
v -0.919708 0.131387 0.903285
v -0.919708 0.427008 0.739051
v 0.558394 0.000000 1.231752
v 0.919708 0.131387 0.903285
v 0.919708 0.000000 1.231752
v 0.558394 0.131387 0.903285
v 0.919708 0.427008 0.739051
v 0.919708 0.131387 0.903285
v 0.919708 0.427008 0.739051
v 0.919708 0.854015 1.691606
v 0.919708 0.427008 1.888686
v -0.919708 0.427008 1.888686
v -0.919708 0.854015 0.739051
v -0.919708 0.427008 0.739051
v 0.919708 0.000000 -1.855839
v 0.919708 0.854015 -1.855839
v 0.919708 0.427007 -0.870438
v -0.919708 0.854015 -1.855839
v -0.919708 0.000000 -1.855839
v -0.919708 0.000000 -0.870438
v 0.919708 0.427008 1.724453
v 0.919708 0.000000 1.724453
v 0.919708 0.000000 0.739051
v -0.919708 0.427008 0.739051
v -0.919708 0.000000 0.739051
v -0.919708 0.000000 1.724453
v 0.919708 0.000000 -1.855839
v 0.919708 0.427007 -0.870438
v 0.919708 0.000000 -0.870438
v -0.919708 0.854015 -1.855839
v -0.919708 0.000000 -0.870438
v -0.919708 0.427007 -0.870438
v 0.919708 0.427008 1.724453
v 0.919708 0.000000 0.739051
v 0.919708 0.427008 0.739051
v -0.919708 0.427008 0.739051
v -0.919708 0.000000 1.724453
v -0.919708 0.427008 1.724453
v 0.919708 0.427008 0.739051
v 0.919708 0.854015 0.739051
v 0.919708 0.854015 1.691606
v 0.919708 0.427008 1.888686
v 0.919708 0.854015 1.691606
v 0.919708 0.854015 2.151460
v -0.919708 0.427008 1.888686
v -0.919708 0.854015 1.691606
v -0.919708 0.854015 0.739051
v -0.919708 0.427008 1.888686
v -0.919708 0.854015 2.151460
v -0.919708 0.854015 1.691606
v 0.919708 0.427008 0.739051
v 0.919708 0.854015 1.691606
v 0.919708 0.427008 1.888686
v -0.919708 0.427008 1.888686
v -0.919708 0.854015 0.739051
v -0.919708 0.427008 0.739051
vn 1.0000 -0.0000 -0.0000
vn -1.0000 -0.0000 -0.0000
vn -0.0000 -0.0000 -1.0000
vn 0.9739 0.2232 0.0406
vn 0.9123 0.3801 0.1521
vn -0.9123 0.3801 0.1521
vn -0.0000 -0.3846 -0.9231
vn -0.9739 -0.2232 -0.0406
vn -0.9123 -0.3801 -0.1521
vn 0.9123 -0.3801 -0.1521
vn -0.9189 0.3938 0.0252
vn 0.9191 0.3939 -0.0000
vn -0.9191 0.3939 -0.0101
vn -0.0000 0.7071 0.7071
vn -0.0000 0.9978 0.0665
vn -0.0000 0.9923 -0.1240
vn -0.0000 0.0995 -0.9950
vn -0.8850 0.4643 0.0348
vn -0.0000 0.5300 0.8480
vn 0.8785 0.4765 0.0357
vn -0.9965 -0.0000 -0.0830
vn 0.9965 -0.0000 -0.0830
vn -0.0000 0.8000 0.6000
vn -0.0000 1.0000 -0.0000
vn -0.0000 0.5812 -0.8137
vn -0.8321 0.5547 -0.0000
vn 0.8377 0.5461 -0.0093
vn -0.0000 -0.9285 0.3714
vn -0.0000 -0.4856 0.8742
vn -0.0000 -0.9285 -0.3714
vn -0.0000 -0.4856 -0.8742
vn -0.0000 0.5735 -0.8192
vn -0.0000 -0.9972 -0.0748
vn -0.0000 0.8575 0.5145
vn -0.0000 -0.6000 0.8000
vn -0.0000 0.9648 0.2631
vn -0.0000 -0.0000 1.0000
vn 0.9839 -0.0000 0.1789
vn -0.9827 -0.1112 0.1483
vn -0.0000 -0.5241 0.8517
vn -0.9701 0.2425 -0.0000
vn 0.9004 0.4347 -0.0155
vn -0.8944 0.4472 -0.0000
vn 0.9588 0.2810 0.0413
vn -0.8774 0.4786 0.0319
vn 0.8862 0.4623 0.0308
vn -0.8944 0.4472 -0.0076
vn 0.8944 0.4472 -0.0000
vn 0.9906 -0.0820 0.1093
vn -0.9874 -0.0000 0.1580
vn -0.0000 -0.9176 -0.3976
vn -0.0000 -1.0000 -0.0000
vt 0.007812 -0.585938
vt 0.210938 -0.585938
vt 0.210938 -0.539062
vt 0.007812 -0.539062
vt 0.406250 0.000000
vt 0.328125 0.000000
vt 0.328125 -0.492188
vt 0.000000 -0.664062
vt 0.218750 -0.640625
vt 0.203125 -0.710938
vt 0.000000 -0.710938
vt 0.000000 -0.992188
vt 0.000000 -0.812500
vt 0.171875 -0.898438
vt 0.171875 -0.992188
vt 0.242188 -0.062500
vt 0.242188 -0.414062
vt 0.320312 -0.414062
vt 0.664062 -0.898438
vt 0.664062 -0.992188
vt 0.484375 -0.992188
vt 0.484375 -0.898438
vt 0.406250 -0.492188
vt 0.320312 -0.070312
vt 0.000000 0.000000
vt 0.007812 -0.617188
vt 0.007812 -0.640625
vt 0.250000 -0.632812
vt 0.007812 -0.593750
vt 0.210938 -0.617188
vt 0.250000 -0.593750
vt 0.515625 -0.507812
vt 0.265625 -0.507812
vt 0.265625 -0.632812
vt 0.171875 -0.812500
vt 0.242188 -0.679688
vt 0.234375 -0.750000
vt 0.484375 -0.812500
vt 0.000000 -0.789062
vt 0.609375 -0.671875
vt 0.984375 -0.242188
vt 0.984375 0.000000
vt 0.531250 0.000000
vt 0.492188 -0.046875
vt 0.421875 -0.046875
vt 0.421875 -0.429688
vt 0.312500 -0.585938
vt 0.476562 -0.593750
vt 0.453125 -0.546875
vt 0.320312 -0.578125
vt 0.453125 -0.554688
vt 0.328125 -0.578125
vt 0.484375 -0.578125
vt 0.468750 -0.546875
vt 0.625000 -0.789062
vt 0.750000 -0.789062
vt 0.617188 -0.726562
vt 0.640625 -0.789062
vt 0.789062 -0.796875
vt 0.789062 -0.765625
vt 0.773438 -0.789062
vt 0.773438 -0.757812
vt 0.632812 -0.765625
vt 0.148438 -0.382812
vt 0.148438 -0.476562
vt 0.210938 -0.453125
vt 0.210938 -0.031250
vt 0.148438 -0.101562
vt 0.148438 -0.015625
vt 0.531250 -0.429688
vt 0.984375 -0.429688
vt 0.515625 -0.054688
vt 0.492188 -0.039062
vt 0.492188 -0.429688
vt 0.882812 -0.656250
vt 0.882812 -0.992188
vt 0.968750 -0.960938
vt 0.585938 -0.656250
vt 0.242188 -0.656250
vt 0.250000 -0.937500
vt 0.437500 -0.929688
vt 0.437500 -0.976562
vt 0.250000 -0.929688
vt 0.250000 -0.976562
vt 0.250000 -0.984375
vt 0.437500 -0.937500
vt 0.453125 -0.929688
vt 0.460938 -0.976562
vt 0.460938 -0.929688
vt 0.867188 -0.273438
vt 0.687500 -0.265625
vt 0.687500 -0.367188
vt 0.398438 -0.937500
vt 0.210938 -0.937500
vt 0.210938 -0.984375
vt 0.203125 -0.937500
vt 0.203125 -0.984375
vt 0.398438 -0.984375
vt 0.398438 -0.976562
vt 0.617188 -0.585938
vt 0.617188 -0.437500
vt 0.523438 -0.445312
vt 0.093750 -0.093750
vt 0.117188 -0.093750
vt 0.117188 0.000000
vt 0.898438 -0.585938
vt 0.992188 -0.585938
vt 0.992188 -0.437500
vt 0.898438 -0.437500
vt 0.093750 -0.375000
vt 0.093750 -0.468750
vt 0.117188 -0.468750
vt 0.781250 -0.648438
vt 0.781250 -0.992188
vt 0.867188 -0.992188
vt 0.750000 -0.812500
vt 0.609375 -0.765625
vt 0.765625 -0.781250
vt 0.664062 -0.812500
vt 0.093750 0.000000
vt 0.000000 -0.468750
vt 0.523438 -0.632812
vt 0.531250 -0.242188
vt 0.328125 -0.539062
vt 0.335938 -0.546875
vt 0.351562 -0.546875
vt 0.640625 -0.796875
vt 0.515625 -0.414062
vt 0.968750 -0.687500
vt 0.867188 -0.375000
vt 0.523438 -0.585938
vt 0.117188 -0.375000
vt 0.859375 -0.648438
vt 0.000000 -0.203125
vt 0.984375 -0.203125
vt 0.000000 -0.984375
vt 0.984375 -0.984375
vt 0.390625 -0.937500
vt 0.390625 -0.984375
vt 0.421875 -0.968750
vt 0.421875 -0.921875
vt 0.695312 -0.898438
s 1
usemtl material_img_0.009
f 1/1/1 2/2/1 3/3/1
f 4/2/2 5/1/2 6/4/2
f 7/5/3 8/6/3 9/7/3
f 10/8/4 11/9/4 12/10/4
f 13/8/5 14/9/5 15/10/5
f 16/9/6 17/8/6 18/11/6
f 19/12/1 20/13/1 21/14/1
f 22/13/2 23/12/2 24/15/2
f 25/16/7 26/17/7 27/18/7
f 28/19/1 29/20/1 30/21/1
f 31/22/2 32/21/2 33/20/2
f 34/1/1 35/3/1 36/4/1
f 37/3/2 38/2/2 39/1/2
f 40/4/2 41/3/2 42/1/2
f 43/2/2 44/4/2 45/3/2
f 46/4/1 47/1/1 48/2/1
f 49/3/1 50/4/1 51/2/1
f 52/5/3 53/7/3 54/23/3
f 55/8/5 56/10/5 57/11/5
f 58/10/8 59/9/8 60/8/8
f 61/11/9 62/10/9 63/8/9
f 64/8/5 65/10/5 66/11/5
f 67/10/9 68/9/9 69/8/9
f 70/11/9 71/10/9 72/8/9
f 73/9/6 74/11/6 75/10/6
f 76/11/10 77/8/10 78/9/10
f 79/10/10 80/11/10 81/9/10
f 82/12/1 83/14/1 84/15/1
f 85/13/2 86/15/2 87/14/2
f 88/16/7 89/18/7 90/24/7
f 91/19/1 92/21/1 93/22/1
f 94/22/2 95/20/2 96/19/2
f 499/12/1 500/13/1 501/14/1
f 502/13/2 503/12/2 504/15/2
f 505/19/1 506/20/1 507/21/1
f 508/22/2 509/21/2 510/20/2
f 511/12/1 512/14/1 513/15/1
f 514/13/2 515/15/2 516/14/2
f 517/19/1 518/21/1 519/22/1
f 520/22/2 521/20/2 522/19/2
f 625/12/1 626/13/1 627/14/1
f 628/13/2 629/12/2 630/15/2
f 631/19/1 632/20/1 633/21/1
f 634/22/2 635/21/2 636/20/2
f 637/12/1 638/14/1 639/15/1
f 640/13/2 641/15/2 642/14/2
f 643/19/1 644/21/1 645/22/1
f 646/22/2 647/20/2 648/19/2
usemtl material_img_1.008
f 97/25/3 98/25/3 99/25/3
f 100/26/11 101/27/11 102/28/11
f 103/29/12 104/26/12 105/30/12
f 106/26/13 107/29/13 108/31/13
f 109/27/12 110/26/12 111/30/12
f 112/25/3 113/25/3 114/25/3
f 115/30/14 116/28/14 117/31/14
f 118/28/14 119/30/14 120/31/14
f 121/32/15 122/33/15 123/34/15
f 124/14/1 125/13/1 126/35/1
f 127/13/2 128/14/2 129/35/2
f 130/36/2 131/37/2 132/38/2
f 133/37/2 134/35/2 135/38/2
f 136/39/2 137/13/2 138/35/2
f 139/35/2 140/14/2 141/22/2
f 142/37/1 143/36/1 144/40/1
f 145/14/1 146/35/1 147/38/1
f 148/35/1 149/37/1 150/38/1
f 151/13/1 152/39/1 153/37/1
f 154/41/16 155/42/16 156/43/16
f 157/44/17 158/45/17 159/46/17
f 160/47/18 161/48/18 162/49/18
f 163/50/19 164/48/19 165/51/19
f 166/52/20 167/53/20 168/54/20
f 169/55/21 170/56/21 171/57/21
f 172/58/22 173/59/22 174/60/22
f 175/61/3 176/62/3 177/63/3
f 178/64/23 179/65/23 180/66/23
f 181/64/23 182/66/23 183/67/23
f 184/68/23 185/67/23 186/69/23
f 187/70/24 188/71/24 189/41/24
f 190/72/3 191/73/3 192/74/3
f 193/75/25 194/76/25 195/77/25
f 196/40/26 197/78/26 198/79/26
f 199/78/27 200/40/27 201/36/27
f 202/80/28 203/81/28 204/82/28
f 205/83/29 206/81/29 207/82/29
f 208/81/28 209/80/28 210/84/28
f 211/81/29 212/83/29 213/85/29
f 214/86/30 215/83/30 216/84/30
f 217/81/31 218/83/31 219/84/31
f 220/87/32 221/83/32 222/85/32
f 223/83/30 224/86/30 225/82/30
f 226/83/31 227/81/31 228/82/31
f 229/84/32 230/88/32 231/89/32
f 232/86/30 233/83/30 234/84/30
f 235/81/31 236/83/31 237/84/31
f 238/83/30 239/86/30 240/82/30
f 241/83/31 242/81/31 243/82/31
f 244/90/33 245/91/33 246/92/33
f 247/93/29 248/94/29 249/95/29
f 250/93/28 251/96/28 252/97/28
f 253/81/29 254/83/29 255/84/29
f 256/86/28 257/83/28 258/84/28
f 259/94/29 260/93/29 261/98/29
f 262/96/28 263/93/28 264/99/28
f 265/83/29 266/81/29 267/82/29
f 268/83/28 269/86/28 270/82/28
f 271/100/34 272/101/34 273/102/34
f 274/103/35 275/104/35 276/105/35
f 277/106/34 278/107/34 279/108/34
f 280/106/36 281/109/36 282/101/36
f 283/110/35 284/111/35 285/112/35
f 286/113/37 287/114/37 288/115/37
f 289/116/38 290/117/38 291/40/38
f 292/117/39 293/116/39 294/118/39
f 295/40/2 296/38/2 297/119/2
f 298/40/2 299/119/2 300/116/2
f 301/38/1 302/40/1 303/119/1
f 304/119/1 305/40/1 306/118/1
f 307/120/40 308/25/40 309/103/40
f 310/103/40 311/25/40 312/121/40
f 313/110/40 314/121/40 315/111/40
f 316/26/41 317/28/41 318/30/41
f 319/29/42 320/30/42 321/31/42
f 322/26/43 323/31/43 324/30/43
f 325/27/44 326/30/44 327/28/44
f 328/32/15 329/34/15 330/122/15
f 331/36/2 332/38/2 333/40/2
f 334/39/2 335/35/2 336/37/2
f 337/35/2 338/22/2 339/38/2
f 340/37/1 341/40/1 342/38/1
f 343/14/1 344/38/1 345/22/1
f 346/13/1 347/37/1 348/35/1
f 349/41/16 350/43/16 351/123/16
f 352/44/17 353/46/17 354/74/17
f 355/47/45 356/49/45 357/124/45
f 358/50/19 359/51/19 360/125/19
f 361/52/46 362/54/46 363/126/46
f 364/61/3 365/63/3 366/127/3
f 367/64/23 368/67/23 369/68/23
f 370/70/24 371/41/24 372/123/24
f 373/72/3 374/74/3 375/128/3
f 376/75/25 377/77/25 378/129/25
f 379/40/47 380/79/47 381/36/47
f 382/78/48 383/36/48 384/79/48
f 385/80/28 386/82/28 387/84/28
f 388/83/29 389/82/29 390/85/29
f 391/81/28 392/84/28 393/82/28
f 394/81/29 395/85/29 396/82/29
f 397/86/30 398/84/30 399/82/30
f 400/81/31 401/84/31 402/82/31
f 403/87/32 404/85/32 405/88/32
f 406/83/30 407/82/30 408/84/30
f 409/83/31 410/82/31 411/84/31
f 412/84/32 413/89/32 414/83/32
f 415/86/30 416/84/30 417/82/30
f 418/81/31 419/84/31 420/82/31
f 421/83/30 422/82/30 423/84/30
f 424/83/31 425/82/31 426/84/31
f 427/90/33 428/92/33 429/130/33
f 430/93/29 431/95/29 432/98/29
f 433/93/28 434/97/28 435/99/28
f 436/81/29 437/84/29 438/82/29
f 439/86/28 440/84/28 441/82/28
f 442/94/29 443/98/29 444/95/29
f 445/96/28 446/99/28 447/97/28
f 448/83/29 449/82/29 450/84/29
f 451/83/28 452/82/28 453/84/28
f 454/100/34 455/102/34 456/131/34
f 457/103/35 458/105/35 459/120/35
f 460/106/34 461/108/34 462/109/34
f 463/106/36 464/101/36 465/100/36
f 466/110/35 467/112/35 468/132/35
f 469/113/37 470/115/37 471/133/37
f 472/116/49 473/40/49 474/118/49
f 475/117/50 476/118/50 477/40/50
f 478/40/2 479/116/2 480/118/2
f 481/119/1 482/118/1 483/116/1
f 484/103/40 485/121/40 486/110/40
f 523/93/32 524/96/32 525/97/32
f 526/93/31 527/96/31 528/95/31
f 529/93/30 530/94/30 531/95/30
f 532/138/28 533/96/28 534/97/28
f 535/93/29 536/96/29 537/97/29
f 538/97/29 539/139/29 540/93/29
f 541/95/28 542/98/28 543/93/28
f 544/97/30 545/139/30 546/138/30
f 547/95/31 548/99/31 549/93/31
f 550/97/32 551/140/32 552/141/32
f 553/93/30 554/96/30 555/97/30
f 556/93/31 557/94/31 558/95/31
f 559/96/30 560/93/30 561/99/30
f 562/94/31 563/93/31 564/98/31
f 565/22/1 566/38/1 567/119/1
f 568/142/1 569/119/1 570/116/1
f 571/142/2 572/119/2 573/38/2
f 574/142/2 575/116/2 576/119/2
f 577/93/32 578/97/32 579/98/32
f 580/93/31 581/95/31 582/99/31
f 583/93/30 584/95/30 585/98/30
f 586/138/28 587/97/28 588/139/28
f 589/93/29 590/97/29 591/139/29
f 592/97/29 593/93/29 594/96/29
f 595/95/28 596/93/28 597/94/28
f 598/97/30 599/138/30 600/96/30
f 601/95/31 602/93/31 603/94/31
f 604/97/32 605/141/32 606/96/32
f 607/93/30 608/97/30 609/99/30
f 610/93/31 611/95/31 612/98/31
f 613/96/30 614/99/30 615/97/30
f 616/94/31 617/98/31 618/95/31
f 619/22/1 620/119/1 621/142/1
f 622/142/2 623/38/2 624/22/2
f 649/22/1 650/38/1 651/119/1
f 652/142/1 653/119/1 654/116/1
f 655/142/2 656/119/2 657/38/2
f 658/142/2 659/116/2 660/119/2
f 661/22/1 662/119/1 663/142/1
f 664/142/2 665/38/2 666/22/2
usemtl material_img_2.003
f 487/25/51 488/134/51 489/135/51
f 490/135/52 491/134/52 492/136/52
f 493/25/51 494/135/51 495/42/51
f 496/135/52 497/136/52 498/137/52
