# Blender 5.1.2
# www.blender.org
mtllib Mr Grimm.mtl
o Mr_Grimm_(2)
v -0.964287 0.346154 -0.667580
v -0.469781 0.346154 -0.667580
v -0.469781 0.346154 0.815936
v -0.815934 0.000000 -0.865386
v -0.815934 1.335165 -0.865386
v -0.815934 0.000000 -2.250000
v -0.815934 1.335165 -0.865386
v -0.815934 1.335165 -2.250000
v -0.815934 0.000000 -2.250000
v -0.074174 0.197801 1.508243
v -0.074174 0.197801 2.250000
v -0.074174 0.939562 1.508243
v -0.074174 0.197801 2.250000
v -0.074174 0.445056 2.250000
v -0.074174 0.939562 1.508243
v -0.074174 0.197801 -0.222528
v -0.074174 0.197801 0.519232
v -0.074174 0.445056 -0.222528
v -0.074174 0.197801 0.519232
v -0.074174 0.939562 0.519232
v -0.074174 0.445056 -0.222528
v 0.914837 0.939562 1.508243
v 0.914837 0.445056 2.250000
v 0.914837 0.197801 1.508243
v 0.914837 0.445056 2.250000
v 0.914837 0.197801 2.250000
v 0.914837 0.197801 1.508243
v 0.914837 0.445056 -0.222528
v 0.914837 0.939562 0.519232
v 0.914837 0.197801 -0.222528
v 0.914837 0.939562 0.519232
v 0.914837 0.197801 0.519232
v 0.914837 0.197801 -0.222528
v 0.914837 0.197801 1.508243
v 1.310440 0.445056 1.508243
v 0.914837 0.939562 1.508243
v -0.469781 0.939562 1.508243
v -0.469781 0.445056 1.508243
v -0.074174 0.939562 1.508243
v -0.469781 0.445056 1.508243
v -0.074174 0.197801 1.508243
v -0.074174 0.939562 1.508243
v -0.074174 0.939562 0.519232
v -0.074174 0.197801 0.519232
v -0.469781 0.939562 0.519232
v -0.074174 0.197801 0.519232
v -0.469781 0.445056 0.519232
v -0.469781 0.939562 0.519232
v 1.310440 0.445056 0.519232
v 0.914837 0.197801 0.519232
v 0.914837 0.939562 0.519232
v 1.310440 0.445056 0.519232
v 1.310440 0.445056 1.508243
v 0.914837 0.197801 0.519232
v 1.310440 0.445056 1.508243
v 0.914837 0.197801 1.508243
v 0.914837 0.197801 0.519232
v 0.914837 0.939562 0.519232
v 0.914837 0.939562 1.508243
v 1.310440 0.445056 0.519232
v 0.914837 0.939562 1.508243
v 1.310440 0.445056 1.508243
v 1.310440 0.445056 0.519232
v -0.074174 0.197801 1.508243
v -0.469781 0.445056 1.508243
v -0.074174 0.197801 0.519232
v -0.469781 0.445056 1.508243
v -0.469781 0.445056 0.519232
v -0.074174 0.197801 0.519232
v -0.469781 0.939562 0.519232
v -0.469781 0.939562 1.508243
v -0.074174 0.939562 0.519232
v -0.469781 0.939562 1.508243
v -0.074174 0.939562 1.508243
v -0.074174 0.939562 0.519232
v 0.914837 0.445056 2.250000
v -0.074174 0.445056 2.250000
v 0.914837 0.197801 2.250000
v -0.074174 0.445056 2.250000
v -0.074174 0.197801 2.250000
v 0.914837 0.197801 2.250000
v -0.074174 0.445056 -0.222528
v 0.914837 0.445056 -0.222528
v -0.074174 0.197801 -0.222528
v 0.914837 0.445056 -0.222528
v 0.914837 0.197801 -0.222528
v -0.074174 0.197801 -0.222528
v -0.074174 0.939562 0.519232
v 0.914837 0.939562 0.519232
v -0.074174 0.445056 -0.222528
v 0.914837 0.939562 0.519232
v 0.914837 0.445056 -0.222528
v -0.074174 0.445056 -0.222528
v 0.618133 1.137363 -0.667580
v 0.222530 1.137363 -0.667580
v 0.420332 1.285715 -0.667580
v 0.519234 0.939562 -0.667580
v 0.271979 0.939562 -0.667580
v 0.618133 1.137363 -0.667580
v 0.271979 0.939562 -0.667580
v 0.222530 1.137363 -0.667580
v 0.618133 1.137363 -0.667580
v 0.914837 0.197801 0.568682
v 0.914837 0.197801 1.458794
v 0.914837 0.000000 0.568682
v 0.914837 0.197801 1.458794
v 0.914837 0.000000 1.458794
v 0.914837 0.000000 0.568682
v 0.420332 0.197801 0.568682
v 0.914837 0.197801 0.568682
v 0.420332 0.000000 1.013738
v 0.914837 0.197801 0.568682
v 0.914837 0.000000 1.013738
v 0.420332 0.000000 1.013738
v 0.914837 0.197801 1.458794
v 0.420332 0.197801 1.458794
v 0.914837 0.000000 1.013738
v 0.420332 0.197801 1.458794
v 0.420332 0.000000 1.013738
v 0.914837 0.000000 1.013738
v 0.914837 0.197801 2.250000
v -0.074174 0.197801 2.250000
v -0.074174 0.197801 -0.222528
v 0.914837 0.445056 2.250000
v 0.914837 0.939562 1.508243
v -0.074174 0.445056 2.250000
v 0.914837 0.939562 1.508243
v -0.074174 0.939562 1.508243
v -0.074174 0.445056 2.250000
v 0.222530 1.137363 -0.667580
v 0.222530 1.137363 0.519232
v 0.420332 1.285715 -0.667580
v 0.222530 1.137363 0.519232
v 0.420332 1.285715 0.519232
v 0.420332 1.285715 -0.667580
v 0.420332 1.285715 -0.667580
v 0.420332 1.285715 0.519232
v 0.618133 1.137363 -0.667580
v 0.420332 1.285715 0.519232
v 0.618133 1.137363 0.519232
v 0.618133 1.137363 -0.667580
v 0.618133 1.137363 -0.667580
v 0.618133 1.137363 0.519232
v 0.519234 0.939562 -0.667580
v 0.618133 1.137363 0.519232
v 0.519234 0.939562 0.519232
v 0.519234 0.939562 -0.667580
v 0.519234 0.939562 -0.667580
v 0.519234 0.939562 0.519232
v 0.271979 0.939562 -0.667580
v 0.519234 0.939562 0.519232
v 0.271979 0.939562 0.519232
v 0.271979 0.939562 -0.667580
v 0.271979 0.939562 -0.667580
v 0.271979 0.939562 0.519232
v 0.222530 1.137363 -0.667580
v 0.271979 0.939562 0.519232
v 0.222530 1.137363 0.519232
v 0.222530 1.137363 -0.667580
v -0.618129 0.593404 -2.151101
v -0.815934 0.593404 -2.151101
v -0.618129 0.989011 -1.953296
v -0.815934 0.593404 -2.151101
v -0.815934 0.989011 -1.953296
v -0.618129 0.989011 -1.953296
v -0.469781 1.285715 1.607142
v -0.964287 1.285715 1.607142
v -0.469781 0.692307 2.002749
v -0.964287 1.285715 1.607142
v -0.964287 0.692307 2.002749
v -0.469781 0.692307 2.002749
v -0.469781 0.692307 2.002749
v -0.964287 0.692307 2.002749
v -0.469781 0.049449 1.458794
v -0.964287 0.692307 2.002749
v -0.964287 0.049449 1.458794
v -0.469781 0.049449 1.458794
v -0.964287 0.346154 0.815936
v -0.469781 0.346154 0.815936
v -0.964287 0.049449 1.458794
v -0.469781 0.346154 0.815936
v -0.469781 0.049449 1.458794
v -0.964287 0.049449 1.458794
v -0.618129 0.049449 -1.656592
v -0.815934 0.049449 -1.656592
v -0.618129 0.593404 -2.151101
v -0.815934 0.049449 -1.656592
v -0.815934 0.593404 -2.151101
v -0.618129 0.593404 -2.151101
v -0.865384 2.175824 -0.519232
v -0.568680 2.175824 -0.519232
v -0.815934 1.780221 -1.409341
v -0.568680 2.175824 -0.519232
v -0.568680 1.780221 -1.409341
v -0.815934 1.780221 -1.409341
v -0.568680 1.780221 -1.409341
v -0.568680 2.175824 -0.519232
v -0.717032 1.780221 -0.815933
v -0.865384 2.175824 -0.519232
v -0.717032 1.780221 -0.815933
v -0.568680 2.175824 -0.519232
v -0.865384 2.175824 -0.519232
v -0.815934 1.780221 -1.409341
v -0.717032 1.780221 -0.815933
v -0.618129 1.335165 -2.250000
v -0.618129 1.335165 -0.865386
v -0.618129 0.000000 -2.250000
v -0.618129 1.335165 -0.865386
v -0.618129 0.000000 -0.865386
v -0.618129 0.000000 -2.250000
v -0.420328 1.532966 0.420330
v -0.469781 1.532966 -0.222528
v -0.964287 1.532966 0.420330
v -0.469781 1.532966 -0.222528
v -0.964287 1.532966 -0.222528
v -0.964287 1.532966 0.420330
v -0.469781 1.335165 0.519232
v -0.568680 1.780221 -0.321427
v -0.964287 1.335165 0.519232
v -0.568680 1.780221 -0.321427
v -0.865384 1.780221 -0.321427
v -0.964287 1.335165 0.519232
v -0.568680 1.780221 -0.321427
v -0.618129 1.780221 -1.409341
v -0.865384 1.780221 -0.321427
v -0.618129 1.780221 -1.409341
v -0.815934 1.780221 -1.409341
v -0.865384 1.780221 -0.321427
v -0.815934 1.780221 -1.409341
v -0.618129 1.780221 -1.409341
v -0.914833 1.483517 -1.260989
v -0.618129 1.780221 -1.409341
v -0.519230 1.483517 -1.260989
v -0.914833 1.483517 -1.260989
v -0.519230 1.483517 -1.260989
v -0.618129 1.780221 -1.409341
v -0.469781 1.335165 -0.964285
v -0.618129 1.780221 -1.409341
v -0.469781 1.335165 0.519232
v -0.469781 1.335165 -0.964285
v -0.618129 1.780221 -1.409341
v -0.568680 1.780221 -0.321427
v -0.469781 1.335165 0.519232
v -0.964287 1.186813 0.519232
v -0.964287 1.285715 1.607142
v -0.865384 1.335165 0.519232
v -0.964287 1.285715 1.607142
v -0.865384 1.681318 1.607142
v -0.865384 1.335165 0.519232
v -0.865384 1.335165 0.519232
v -0.865384 1.681318 1.607142
v -0.568680 1.335165 0.519232
v -0.865384 1.681318 1.607142
v -0.568680 1.681318 1.607142
v -0.568680 1.335165 0.519232
v -0.568680 1.335165 0.519232
v -0.568680 1.681318 1.607142
v -0.469781 1.186813 0.519232
v -0.568680 1.681318 1.607142
v -0.469781 1.285715 1.607142
v -0.469781 1.186813 0.519232
v -0.865384 1.780221 -0.321427
v -0.815934 1.780221 -1.409341
v -0.964287 1.335165 0.519232
v -0.964287 1.335165 -0.964285
v -0.964287 1.335165 0.519232
v -0.914833 1.483517 -1.260989
v -0.964287 1.335165 0.519232
v -0.815934 1.780221 -1.409341
v -0.914833 1.483517 -1.260989
v -0.964287 1.285715 2.052199
v -0.964287 1.335165 0.519232
v -0.964287 0.000000 2.151101
v -0.964287 1.335165 0.519232
v -0.964287 0.197801 0.519232
v -0.964287 0.000000 2.151101
v -0.964287 1.335165 0.519232
v -0.964287 1.335165 -0.964285
v -0.964287 0.197801 0.519232
v -0.964287 1.335165 -0.964285
v -0.964287 0.346154 -0.667580
v -0.964287 0.197801 0.519232
v -0.469781 0.346154 -0.667580
v -0.469781 1.335165 -0.964285
v -0.469781 0.000000 2.151101
v -0.469781 1.335165 -0.964285
v -0.469781 1.285715 2.052199
v -0.469781 0.000000 2.151101
v -0.964287 0.346154 -0.667580
v -0.469781 0.346154 0.815936
v -0.964287 0.346154 0.815936
v 0.914837 0.197801 0.568682
v 0.914837 0.000000 0.568682
v 0.914837 0.197801 1.458794
v 0.914837 0.000000 0.568682
v 0.914837 0.000000 1.458794
v 0.914837 0.197801 1.458794
v 0.914837 0.197801 2.250000
v -0.074174 0.197801 -0.222528
v 0.914837 0.197801 -0.222528
v 0.222530 1.335165 1.508243
v 0.024729 0.939562 1.508243
v 0.618133 1.335165 1.508243
v 0.024729 0.939562 1.508243
v 0.815934 0.939562 1.508243
v 0.618133 1.335165 1.508243
v 0.914837 0.939562 1.508243
v 0.914837 0.939562 0.519232
v -0.074174 0.939562 1.508243
v 0.914837 0.939562 0.519232
v -0.074174 0.939562 0.519232
v -0.074174 0.939562 1.508243
v 0.618133 1.335165 0.519232
v 0.618133 1.335165 1.508243
v 0.815934 0.939562 0.519232
v 0.618133 1.335165 1.508243
v 0.815934 0.939562 1.508243
v 0.815934 0.939562 0.519232
v 0.618133 1.335165 1.508243
v 0.618133 1.335165 0.519232
v 0.222530 1.335165 1.508243
v 0.618133 1.335165 0.519232
v 0.222530 1.335165 0.519232
v 0.222530 1.335165 1.508243
v 0.024729 0.939562 0.519232
v 0.024729 0.939562 1.508243
v 0.222530 1.335165 0.519232
v 0.024729 0.939562 1.508243
v 0.222530 1.335165 1.508243
v 0.222530 1.335165 0.519232
v 0.618133 1.335165 0.519232
v 0.815934 0.939562 0.519232
v 0.222530 1.335165 0.519232
v 0.815934 0.939562 0.519232
v 0.024729 0.939562 0.519232
v 0.222530 1.335165 0.519232
v -0.815934 0.494506 -1.557693
v -0.815934 1.186813 -0.815933
v -0.964287 0.543955 -1.656592
v -0.815934 1.186813 -0.815933
v -0.964287 1.236262 -0.914835
v -0.964287 0.543955 -1.656592
v -0.964287 0.543955 -1.656592
v -0.964287 1.236262 -0.914835
v -0.815934 0.593404 -1.656592
v -0.964287 1.236262 -0.914835
v -0.815934 1.285715 -0.914835
v -0.815934 0.593404 -1.656592
v -0.815934 0.494506 -1.557693
v -0.964287 0.543955 -1.656592
v -0.815934 1.186813 -0.815933
v -0.964287 0.543955 -1.656592
v -0.964287 1.236262 -0.914835
v -0.815934 1.186813 -0.815933
v -0.964287 0.543955 -1.656592
v -0.815934 0.593404 -1.656592
v -0.964287 1.236262 -0.914835
v -0.815934 0.593404 -1.656592
v -0.815934 1.285715 -0.914835
v -0.964287 1.236262 -0.914835
v -0.964287 1.335165 -0.964285
v -0.469781 1.335165 -0.964285
v -0.964287 0.346154 -0.667580
v -0.469781 1.335165 -0.964285
v -0.469781 0.346154 -0.667580
v -0.964287 0.346154 -0.667580
v -0.914833 1.483517 -1.260989
v -0.519230 1.483517 -1.260989
v -0.964287 1.335165 -0.964285
v -0.519230 1.483517 -1.260989
v -0.469781 1.335165 -0.964285
v -0.964287 1.335165 -0.964285
v -0.618129 0.989011 -1.211539
v -0.618129 0.989011 -1.953296
v -0.815934 0.989011 -1.211539
v -0.618129 0.989011 -1.953296
v -0.815934 0.989011 -1.953296
v -0.815934 0.989011 -1.211539
v -0.469781 0.543955 -1.656592
v -0.469781 1.236262 -0.914835
v -0.618129 0.494506 -1.557693
v -0.469781 1.236262 -0.914835
v -0.618129 1.186813 -0.815933
v -0.618129 0.494506 -1.557693
v -0.618129 0.593404 -1.656592
v -0.618129 1.285715 -0.914835
v -0.469781 0.543955 -1.656592
v -0.618129 1.285715 -0.914835
v -0.469781 1.236262 -0.914835
v -0.469781 0.543955 -1.656592
v -0.717032 1.780221 -0.815933
v -0.420328 2.225273 -0.074176
v -0.618129 1.780221 -0.667580
v -0.420328 2.225273 -0.074176
v -0.420328 2.076925 -0.074176
v -0.618129 1.780221 -0.667580
v -0.815934 1.780221 -0.667580
v -1.013736 2.076925 -0.074176
v -0.717032 1.780221 -0.815933
v -1.013736 2.076925 -0.074176
v -1.013736 2.225273 -0.074176
v -0.717032 1.780221 -0.815933
v -0.469781 0.543955 -1.656592
v -0.618129 0.494506 -1.557693
v -0.469781 1.236262 -0.914835
v -0.618129 0.494506 -1.557693
v -0.618129 1.186813 -0.815933
v -0.469781 1.236262 -0.914835
v -0.618129 0.593404 -1.656592
v -0.469781 0.543955 -1.656592
v -0.618129 1.285715 -0.914835
v -0.469781 0.543955 -1.656592
v -0.469781 1.236262 -0.914835
v -0.618129 1.285715 -0.914835
v -0.717032 1.780221 -0.815933
v -0.618129 1.780221 -0.667580
v -0.420328 2.225273 -0.074176
v -0.618129 1.780221 -0.667580
v -0.420328 2.076925 -0.074176
v -0.420328 2.225273 -0.074176
v -0.815934 1.780221 -0.667580
v -0.717032 1.780221 -0.815933
v -1.013736 2.076925 -0.074176
v -0.717032 1.780221 -0.815933
v -1.013736 2.225273 -0.074176
v -1.013736 2.076925 -0.074176
v -0.420328 1.483517 0.964288
v -1.013736 1.483517 0.964288
v -0.519230 1.236262 0.766483
v -1.013736 1.483517 0.964288
v -0.914833 1.236262 0.766483
v -0.519230 1.236262 0.766483
v -0.222526 0.642858 -0.370880
v -0.420328 0.642858 -0.370880
v -0.173077 1.434067 -0.222528
v -0.420328 0.642858 -0.370880
v -0.420328 1.532966 -0.222528
v -0.173077 1.434067 -0.222528
v -0.420328 1.038461 0.024727
v -0.370878 0.346154 -0.222528
v -0.173077 1.434067 -0.222528
v -0.370878 0.346154 -0.222528
v -0.222526 0.642858 -0.370880
v -0.173077 1.434067 -0.222528
v -1.260987 1.434067 -0.222528
v -1.211537 0.642858 -0.370880
v -1.013736 1.038461 0.024727
v -1.211537 0.642858 -0.370880
v -1.063185 0.346154 -0.222528
v -1.013736 1.038461 0.024727
v -1.260987 1.434067 -0.222528
v -1.013736 1.532966 -0.222528
v -1.211537 0.642858 -0.370880
v -1.013736 1.532966 -0.222528
v -1.013736 0.642858 -0.370880
v -1.211537 0.642858 -0.370880
v -0.222526 2.027472 0.024727
v -0.222526 2.126375 -0.074176
v -0.321429 2.225273 0.074176
v -0.222526 2.126375 -0.074176
v -0.271976 2.225273 -0.074176
v -0.321429 2.225273 0.074176
v -0.469781 2.175824 -0.074176
v -0.420328 2.076925 0.024727
v -0.420328 2.225273 -0.074176
v -0.420328 2.076925 0.024727
v -0.321429 2.225273 0.074176
v -0.420328 2.225273 -0.074176
v -0.271976 2.225273 -0.074176
v -0.420328 2.225273 -0.074176
v -0.321429 2.225273 0.074176
v -0.222526 2.126375 -0.074176
v -0.469781 2.175824 -0.074176
v -0.271976 2.225273 -0.074176
v -0.469781 2.175824 -0.074176
v -0.420328 2.225273 -0.074176
v -0.271976 2.225273 -0.074176
v -0.222526 2.027472 0.024727
v -0.420328 2.076925 0.024727
v -0.222526 2.126375 -0.074176
v -0.420328 2.076925 0.024727
v -0.469781 2.175824 -0.074176
v -0.222526 2.126375 -0.074176
v -1.211537 2.126375 -0.074176
v -0.964287 2.175824 -0.074176
v -1.211537 2.027472 0.024727
v -0.964287 2.175824 -0.074176
v -1.013736 2.076925 0.024727
v -1.211537 2.027472 0.024727
v -1.162088 2.225273 -0.074176
v -1.013736 2.225273 -0.074176
v -1.211537 2.126375 -0.074176
v -1.013736 2.225273 -0.074176
v -0.964287 2.175824 -0.074176
v -1.211537 2.126375 -0.074176
v -1.013736 2.225273 -0.074176
v -1.162088 2.225273 -0.074176
v -1.112635 2.225273 0.074176
v -1.013736 2.225273 -0.074176
v -1.112635 2.225273 0.074176
v -0.964287 2.175824 -0.074176
v -1.112635 2.225273 0.074176
v -1.013736 2.076925 0.024727
v -0.964287 2.175824 -0.074176
v -1.112635 2.225273 0.074176
v -1.162088 2.225273 -0.074176
v -1.211537 2.027472 0.024727
v -1.162088 2.225273 -0.074176
v -1.211537 2.126375 -0.074176
v -1.211537 2.027472 0.024727
v -0.420328 2.076925 0.024727
v -0.222526 2.027472 0.024727
v -0.370878 1.928573 0.568682
v -0.222526 2.027472 0.024727
v -0.123624 1.928573 0.469779
v -0.370878 1.928573 0.568682
v -1.211537 2.027472 0.024727
v -1.013736 2.076925 0.024727
v -1.310440 1.928573 0.469779
v -1.013736 2.076925 0.024727
v -1.063185 1.928573 0.568682
v -1.310440 1.928573 0.469779
v -0.123624 1.928573 0.469779
v -0.222526 2.027472 0.024727
v -0.222526 2.175824 0.667584
v -0.222526 2.027472 0.024727
v -0.321429 2.225273 0.074176
v -0.222526 2.175824 0.667584
v -0.420328 2.076925 0.024727
v -0.370878 1.928573 0.568682
v -0.321429 2.225273 0.074176
v -0.370878 1.928573 0.568682
v -0.222526 2.175824 0.667584
v -0.321429 2.225273 0.074176
v -0.222526 2.076925 1.260989
v -0.123624 1.928573 0.469779
v -0.271976 2.274727 1.260989
v -0.123624 1.928573 0.469779
v -0.222526 2.175824 0.667584
v -0.271976 2.274727 1.260989
v -0.123624 1.928573 0.469779
v -0.222526 2.076925 1.260989
v -0.370878 1.928573 0.568682
v -1.112635 2.225273 0.074176
v -1.211537 2.175824 0.667584
v -1.013736 2.076925 0.024727
v -1.211537 2.175824 0.667584
v -1.063185 1.928573 0.568682
v -1.013736 2.076925 0.024727
v -1.211537 2.175824 0.667584
v -1.112635 2.225273 0.074176
v -1.310440 1.928573 0.469779
v -1.112635 2.225273 0.074176
v -1.211537 2.027472 0.024727
v -1.310440 1.928573 0.469779
v -0.420328 1.483517 0.964288
v -0.420328 1.532966 0.420330
v -0.222526 2.076925 1.260989
v -0.420328 1.532966 0.420330
v -0.370878 1.928573 0.568682
v -0.222526 2.076925 1.260989
v -0.420328 1.532966 0.420330
v -0.964287 1.532966 0.420330
v -0.222526 2.175824 0.667584
v -0.964287 1.532966 0.420330
v -1.211537 2.175824 0.667584
v -0.222526 2.175824 0.667584
v -1.211537 2.076925 1.260989
v -1.063185 1.928573 0.568682
v -1.013736 1.483517 0.964288
v -1.063185 1.928573 0.568682
v -0.964287 1.532966 0.420330
v -1.013736 1.483517 0.964288
v -1.162088 2.274727 1.260989
v -1.211537 2.175824 0.667584
v -1.211537 2.076925 1.260989
v -1.211537 2.175824 0.667584
v -1.310440 1.928573 0.469779
v -1.211537 2.076925 1.260989
v -1.211537 2.076925 1.260989
v -1.310440 1.928573 0.469779
v -1.063185 1.928573 0.568682
v -1.211537 2.175824 0.667584
v -1.162088 2.274727 1.260989
v -0.222526 2.175824 0.667584
v -1.162088 2.274727 1.260989
v -0.271976 2.274727 1.260989
v -0.222526 2.175824 0.667584
v -0.271976 2.274727 1.260989
v -1.162088 2.274727 1.260989
v -0.222526 2.076925 1.260989
v -1.162088 2.274727 1.260989
v -1.211537 2.076925 1.260989
v -0.222526 2.076925 1.260989
v -0.222526 2.076925 1.260989
v -1.211537 2.076925 1.260989
v -0.420328 1.483517 0.964288
v -1.211537 2.076925 1.260989
v -1.013736 1.483517 0.964288
v -0.420328 1.483517 0.964288
v -0.964287 1.532966 0.420330
v -1.112635 1.483517 0.519232
v -1.013736 1.483517 0.964288
v -0.964287 1.532966 0.420330
v -1.013736 1.532966 -0.222528
v -1.112635 1.483517 0.519232
v -1.013736 1.532966 -0.222528
v -1.260987 1.434067 -0.222528
v -1.112635 1.483517 0.519232
v -0.321429 1.483517 0.519232
v -0.420328 1.532966 0.420330
v -0.420328 1.483517 0.964288
v -0.321429 1.483517 0.519232
v -0.173077 1.434067 -0.222528
v -0.420328 1.532966 0.420330
v -0.173077 1.434067 -0.222528
v -0.420328 1.532966 -0.222528
v -0.420328 1.532966 0.420330
v -1.260987 0.543955 -0.618131
v -1.013736 0.543955 -0.618131
v -1.063185 0.346154 -0.222528
v -1.211537 0.642858 -0.370880
v -1.260987 0.543955 -0.618131
v -1.063185 0.346154 -0.222528
v -1.211537 0.642858 -0.370880
v -1.013736 0.642858 -0.370880
v -1.260987 0.543955 -0.618131
v -1.013736 0.642858 -0.370880
v -1.013736 0.543955 -0.618131
v -1.260987 0.543955 -0.618131
v -0.173077 0.543955 -0.618131
v -0.420328 0.543955 -0.618131
v -0.222526 0.642858 -0.370880
v -0.420328 0.543955 -0.618131
v -0.420328 0.642858 -0.370880
v -0.222526 0.642858 -0.370880
v -0.173077 0.543955 -0.618131
v -0.222526 0.642858 -0.370880
v -0.370878 0.346154 -0.222528
v -0.420328 0.543955 -0.618131
v -0.173077 0.543955 -0.618131
v -0.370878 0.346154 -0.222528
v -0.173077 1.434067 -0.222528
v -0.321429 1.483517 0.519232
v -0.420328 1.038461 0.024727
v -0.321429 1.483517 0.519232
v -0.420328 1.285715 0.519232
v -0.420328 1.038461 0.024727
v -0.321429 1.483517 0.519232
v -0.420328 1.483517 0.964288
v -0.420328 1.285715 0.519232
v -1.013736 1.285715 0.519232
v -1.112635 1.483517 0.519232
v -1.013736 1.038461 0.024727
v -1.112635 1.483517 0.519232
v -1.260987 1.434067 -0.222528
v -1.013736 1.038461 0.024727
v -1.112635 1.483517 0.519232
v -1.013736 1.285715 0.519232
v -1.013736 1.483517 0.964288
v -0.568680 1.681318 1.607142
v -0.865384 1.681318 1.607142
v -0.469781 1.434067 1.607142
v -0.865384 1.681318 1.607142
v -0.964287 1.434067 1.607142
v -0.469781 1.434067 1.607142
v -0.469781 1.434067 1.607142
v -0.964287 1.434067 1.607142
v -0.469781 1.285715 1.607142
v -0.964287 1.434067 1.607142
v -0.964287 1.285715 1.607142
v -0.469781 1.285715 1.607142
v -1.054502 2.233423 1.081539
v -0.396241 2.233423 1.081539
v -1.054502 2.956400 1.081539
v -0.396241 2.956400 1.081539
vn -0.0000 -1.0000 -0.0000
vn -1.0000 -0.0000 -0.0000
vn 1.0000 -0.0000 -0.0000
vn -0.0000 -0.0000 1.0000
vn -0.0000 -0.0000 -1.0000
vn 0.5300 -0.8480 -0.0000
vn 0.7809 0.6247 -0.0000
vn -0.5300 -0.8480 -0.0000
vn -0.0000 1.0000 -0.0000
vn -0.0000 0.8321 -0.5547
vn -0.0000 -0.9138 -0.4061
vn -0.0000 -0.9138 0.4061
vn -0.0000 0.8321 0.5547
vn -0.6000 0.8000 -0.0000
vn 0.6000 0.8000 -0.0000
vn 0.8944 -0.4472 -0.0000
vn -0.9701 -0.2425 -0.0000
vn -0.0000 0.4472 -0.8944
vn -0.0000 0.5547 0.8321
vn -0.0000 -0.6459 0.7634
vn -0.0000 -0.9080 -0.4191
vn -0.0000 -0.6727 -0.7399
vn -0.0000 0.9138 -0.4061
vn 0.8516 -0.4790 0.2129
vn -0.0000 -0.6000 0.8000
vn -0.8847 -0.4423 0.1474
vn -0.0000 0.8838 0.4679
vn -0.0000 -0.4472 -0.8944
vn 0.9487 0.3162 -0.0000
vn 0.9898 0.1350 -0.0450
vn -0.8310 0.5540 -0.0504
vn -0.9673 0.2418 -0.0769
vn -0.0000 0.9529 -0.3032
vn 0.8194 0.5463 -0.1738
vn 0.9699 0.2425 -0.0220
vn -0.9898 0.1350 -0.0450
vn -0.9487 0.3162 -0.0000
vn 0.8944 0.4472 -0.0000
vn -0.8944 0.4472 -0.0000
vn -0.5727 -0.5993 0.5594
vn -0.2368 0.7103 -0.6629
vn 0.5727 0.5993 -0.5594
vn 0.2368 -0.7103 0.6629
vn -0.0000 -0.2873 -0.9578
vn -0.0000 -0.8944 -0.4472
vn 0.5727 -0.5993 0.5594
vn 0.2368 0.7103 -0.6629
vn 0.7804 0.3468 -0.5203
vn 0.9487 -0.0000 -0.3162
vn -0.7276 0.4851 -0.4851
vn -0.9285 -0.0000 -0.3714
vn -0.5727 0.5993 -0.5594
vn -0.2368 -0.7103 0.6629
vn -0.7804 -0.3468 0.5203
vn -0.9487 -0.0000 0.3162
vn 0.7276 -0.4851 0.4851
vn 0.9285 -0.0000 0.3714
vn -0.0000 -0.6247 0.7809
vn -0.0000 0.1843 -0.9829
vn 0.0656 0.1640 -0.9843
vn 0.8069 -0.1467 0.5722
vn 0.8339 -0.1516 0.5307
vn -0.8121 -0.1562 0.5622
vn -0.8242 -0.1374 0.5494
vn -0.0718 0.1795 -0.9811
vn -0.0000 0.1644 -0.9864
vn 0.8704 0.3482 0.3482
vn 0.8571 0.4286 0.2857
vn -0.4851 0.4851 0.7276
vn -0.7804 0.3468 0.5203
vn -0.1741 -0.6963 -0.6963
vn -0.1470 -0.7352 -0.6617
vn 0.1400 -0.7001 -0.7001
vn 0.1849 -0.7396 -0.6472
vn 0.6396 0.6396 0.4264
vn 0.7243 0.2716 0.6338
vn -0.8823 0.3676 0.2941
vn -0.8165 0.4082 0.4082
vn -0.2357 -0.9428 -0.2357
vn -0.0797 -0.9767 -0.1993
vn 0.2394 -0.9577 -0.1596
vn 0.1013 -0.9621 -0.2532
vn 0.8932 0.4382 -0.1011
vn 0.8782 0.4660 -0.1075
vn -0.8443 0.4925 0.2111
vn -0.8736 0.4509 0.1832
vn 0.9674 0.2418 0.0756
vn 0.9332 0.3589 0.0179
vn 0.0772 -0.9781 0.1931
vn 0.8451 0.5025 0.1827
vn 0.8734 0.4439 0.2005
vn -0.8889 0.4444 -0.1111
vn -0.8811 0.4637 -0.0927
vn 0.9524 -0.3037 -0.0276
vn 0.9787 -0.0475 -0.1995
vn -0.0000 0.3590 -0.9333
vn -0.9579 -0.2427 -0.1533
vn -0.9733 -0.2032 -0.1070
vn -0.9694 0.2423 0.0404
vn -0.9415 0.3323 0.0554
vn -0.0772 -0.9781 0.1931
vn -0.0000 0.9864 -0.1644
vn -0.0000 -0.4472 0.8944
vn -0.2783 0.9585 0.0618
vn -0.3022 0.9530 0.0232
vn -0.3714 0.9284 0.0124
vn 0.3773 0.9223 0.0838
vn 0.4269 0.9040 0.0251
vn 0.3714 0.9285 -0.0000
vn -0.9045 -0.3015 0.3015
vn -0.0000 0.9285 -0.3714
vn 0.9045 -0.3015 0.3015
vn 0.8824 -0.4236 0.2047
vn 0.8729 -0.4364 0.2182
vn 0.8773 -0.4386 0.1949
vn -0.8729 -0.4364 0.2182
vn -0.8824 -0.4236 0.2047
vn -0.8773 -0.4386 0.1949
vt 0.851562 -0.500000
vt 0.859375 -0.531250
vt 0.882812 -0.531250
vt 0.468750 -0.992188
vt 0.460938 -0.648438
vt 0.093750 -0.992188
vt 0.093750 -0.648438
vt 0.679688 -0.992188
vt 0.671875 -0.992188
vt 0.679688 -0.859375
vt 0.671875 -0.937500
vt 0.687500 -0.992188
vt 0.687500 -0.937500
vt 0.687500 -0.859375
vt 0.781250 -0.984375
vt 0.992188 -0.984375
vt 0.992188 -0.781250
vt 0.695312 -0.828125
vt 0.828125 -0.828125
vt 0.695312 -0.781250
vt 0.914062 -0.781250
vt 0.914062 -0.773438
vt 0.679688 -0.773438
vt 0.914062 -0.835938
vt 0.679688 -0.835938
vt 0.679688 -0.937500
vt 0.679688 -0.781250
vt 0.062500 -0.992188
vt 0.062500 -0.656250
vt 0.000000 -0.992188
vt 0.000000 -0.656250
vt 0.687500 -0.867188
vt 0.679688 -0.867188
vt 0.179688 -0.789062
vt 0.382812 -0.789062
vt 0.281250 -0.710938
vt 0.218750 -0.906250
vt 0.343750 -0.914062
vt 0.460938 -0.906250
vt 0.093750 -0.906250
vt 0.460938 -0.992188
vt 0.281250 0.000000
vt 0.281250 -0.109375
vt 0.398438 0.000000
vt 0.398438 -0.109375
vt 0.273438 -0.109375
vt 0.656250 -0.992188
vt 0.656250 -0.781250
vt 0.492188 -0.992188
vt 0.492188 -0.781250
vt 0.976562 -0.656250
vt 0.476562 -0.656250
vt 0.984375 -0.765625
vt 0.484375 -0.765625
vt 0.992188 -0.656250
vt 0.992188 -0.765625
vt 0.476562 -0.765625
vt 0.992188 -0.648438
vt 0.484375 -0.648438
vt 0.976562 -0.648438
vt 0.273438 0.000000
vt 0.773438 -0.515625
vt 0.773438 -0.585938
vt 0.953125 -0.523438
vt 0.953125 -0.578125
vt 0.859375 -0.062500
vt 0.679688 0.000000
vt 0.726562 -0.062500
vt 0.367188 -0.023438
vt 0.445312 -0.023438
vt 0.976562 -0.031250
vt 0.890625 -0.031250
vt 0.976562 -0.046875
vt 0.890625 -0.039062
vt 0.390625 -0.507812
vt 0.656250 -0.523438
vt 0.390625 -0.601562
vt 0.656250 -0.585938
vt 0.960938 -0.539062
vt 0.960938 -0.578125
vt 0.492188 -0.695312
vt 0.492188 -0.750000
vt 0.585938 -0.671875
vt 0.585938 -0.781250
vt 0.828125 -0.125000
vt 0.859375 -0.046875
vt 0.757812 -0.156250
vt 0.382812 -0.171875
vt 0.585938 -0.062500
vt 0.406250 -0.195312
vt 0.125000 -0.140625
vt 0.406250 -0.164062
vt 0.125000 -0.070312
vt 0.492188 -0.515625
vt 0.210938 -0.515625
vt 0.492188 -0.585938
vt 0.210938 -0.585938
vt 0.000000 -0.171875
vt 0.382812 -0.164062
vt 0.000000 -0.476562
vt 0.398438 -0.437500
vt 0.695312 -0.406250
vt 0.882812 -0.500000
vt 0.343750 -0.140625
vt 0.187500 -0.250000
vt 0.640625 -0.140625
vt 0.796875 -0.250000
vt 0.312500 -0.750000
vt 0.296875 -0.281250
vt 0.250000 -0.750000
vt 0.234375 -0.281250
vt 0.171875 -0.281250
vt 0.171875 -0.750000
vt 0.307258 0.309690
vt 0.332206 0.270686
vt 0.000000 0.000000
vt 0.306927 0.276606
vt 0.312952 0.274808
vt 0.311115 0.274808
vt 0.303771 0.280316
vt 0.303771 0.278480
vt 0.792730 0.113905
vt 0.745285 0.113905
vt 0.808545 0.074368
vt 0.729470 0.074368
vt 0.659938 0.052996
vt 0.644715 0.052996
vt 0.659938 0.048429
vt 0.644715 0.048429
vt 0.762271 0.555995
vt 0.992682 0.555995
vt 0.992682 0.786406
vt 0.762271 0.786406
s 1
usemtl material_img_0
f 1/1/1 2/2/1 3/3/1
f 4/4/2 5/5/2 6/6/2
f 7/5/2 8/7/2 9/6/2
f 10/8/2 11/9/2 12/10/2
f 13/9/2 14/11/2 15/10/2
f 16/12/2 17/12/2 18/13/2
f 19/12/2 20/14/2 21/13/2
f 22/10/3 23/11/3 24/8/3
f 25/11/3 26/9/3 27/8/3
f 28/13/3 29/14/3 30/12/3
f 31/14/3 32/12/3 33/12/3
f 34/15/4 35/16/4 36/17/4
f 37/18/4 38/19/4 39/20/4
f 40/19/4 41/21/4 42/20/4
f 43/20/5 44/21/5 45/18/5
f 46/21/5 47/19/5 48/18/5
f 49/16/5 50/15/5 51/17/5
f 52/22/6 53/23/6 54/24/6
f 55/23/6 56/25/6 57/24/6
f 58/22/7 59/23/7 60/24/7
f 61/23/7 62/25/7 63/24/7
f 64/8/8 65/26/8 66/12/8
f 67/26/8 68/13/8 69/12/8
f 70/21/9 71/27/9 72/24/9
f 73/27/9 74/25/9 75/24/9
f 76/22/4 77/23/4 78/24/4
f 79/23/4 80/25/4 81/24/4
f 82/28/5 83/29/5 84/30/5
f 85/29/5 86/31/5 87/30/5
f 88/32/10 89/33/10 90/12/10
f 91/33/10 92/8/10 93/12/10
f 94/34/5 95/35/5 96/36/5
f 97/37/5 98/38/5 99/34/5
f 100/38/5 101/35/5 102/34/5
f 103/39/3 104/40/3 105/41/3
f 106/40/3 107/6/3 108/41/3
f 109/42/11 110/43/11 111/44/11
f 112/43/11 113/45/11 114/44/11
f 115/45/12 116/44/12 117/46/12
f 118/44/12 119/42/12 120/46/12
f 121/23/1 122/25/1 123/24/1
f 124/47/13 125/48/13 126/49/13
f 127/48/13 128/50/13 129/49/13
f 130/51/14 131/52/14 132/53/14
f 133/52/14 134/54/14 135/53/14
f 136/55/15 137/52/15 138/56/15
f 139/52/15 140/57/15 141/56/15
f 142/58/16 143/59/16 144/56/16
f 145/59/16 146/54/16 147/56/16
f 148/51/1 149/52/1 150/56/1
f 151/52/1 152/54/1 153/56/1
f 154/60/17 155/59/17 156/53/17
f 157/59/17 158/54/17 159/53/17
f 160/42/18 161/43/18 162/44/18
f 163/43/18 164/45/18 165/44/18
f 166/45/19 167/44/19 168/43/19
f 169/44/19 170/61/19 171/43/19
f 172/45/20 173/44/20 174/43/20
f 175/44/20 176/42/20 177/43/20
f 178/42/21 179/43/21 180/44/21
f 181/43/21 182/45/21 183/44/21
f 184/42/22 185/43/22 186/44/22
f 187/43/22 188/45/22 189/44/22
f 190/62/23 191/63/23 192/64/23
f 193/63/23 194/65/23 195/64/23
f 196/66/24 197/67/24 198/68/24
f 199/69/25 200/45/25 201/70/25
f 202/67/26 203/66/26 204/68/26
f 205/7/3 206/5/3 207/6/3
f 208/5/3 209/4/3 210/6/3
f 211/71/9 212/72/9 213/73/9
f 214/72/9 215/74/9 216/73/9
f 217/75/27 218/76/27 219/77/27
f 220/76/27 221/78/27 222/77/27
f 223/76/9 224/79/9 225/78/9
f 226/79/9 227/80/9 228/78/9
f 229/81/28 230/82/28 231/83/28
f 232/82/28 233/84/28 234/83/28
f 235/85/29 236/86/29 237/87/29
f 238/86/29 239/88/29 240/87/29
f 241/86/30 242/89/30 243/88/30
f 244/90/31 245/91/31 246/92/31
f 247/91/32 248/93/32 249/92/32
f 250/94/33 251/95/33 252/96/33
f 253/95/33 254/97/33 255/96/33
f 256/92/34 257/93/34 258/90/34
f 259/93/35 260/91/35 261/90/35
f 262/89/36 263/86/36 264/88/36
f 265/87/37 266/88/37 267/85/37
f 268/88/37 269/86/37 270/85/37
f 271/98/2 272/99/2 273/100/2
f 274/99/2 275/101/2 276/100/2
f 277/99/2 278/87/2 279/101/2
f 280/87/2 281/102/2 282/101/2
f 283/102/3 284/87/3 285/100/3
f 286/87/3 287/98/3 288/100/3
f 289/1/1 290/3/1 291/103/1
f 292/39/2 293/41/2 294/40/2
f 295/41/2 296/6/2 297/40/2
f 298/23/1 299/24/1 300/22/1
f 337/114/40 338/114/40 339/114/40
f 340/114/40 341/114/40 342/114/40
f 343/114/41 344/114/41 345/114/41
f 346/114/41 347/114/41 348/114/41
f 349/115/42 350/115/42 351/115/42
f 352/115/42 353/115/42 354/115/42
f 355/115/43 356/115/43 357/115/43
f 358/115/43 359/115/43 360/115/43
f 379/114/46 380/114/46 381/114/46
f 382/114/46 383/114/46 384/114/46
f 385/114/47 386/114/47 387/114/47
f 388/114/47 389/114/47 390/114/47
f 391/117/48 392/117/48 393/117/48
f 394/117/49 395/117/49 396/117/49
f 397/117/50 398/117/50 399/117/50
f 400/117/51 401/117/51 402/117/51
f 403/115/52 404/115/52 405/115/52
f 406/115/52 407/115/52 408/115/52
f 409/115/53 410/115/53 411/115/53
f 412/115/53 413/115/53 414/115/53
f 415/118/54 416/119/54 417/120/54
f 418/119/55 419/121/55 420/120/55
f 421/119/56 422/118/56 423/121/56
f 424/118/57 425/120/57 426/121/57
f 661/122/4 662/123/4 663/124/4
f 664/123/4 665/125/4 666/124/4
f 667/126/4 668/127/4 669/128/4
f 670/127/4 671/129/4 672/128/4
s 0
f 673/130/4 674/131/4 676/132/4 675/133/4
s 1
usemtl material_img_1
f 301/104/4 302/105/4 303/106/4
f 304/105/4 305/107/4 306/106/4
f 307/108/9 308/109/9 309/110/9
f 310/109/9 311/111/9 312/110/9
f 313/112/38 314/113/38 315/109/38
f 316/113/38 317/108/38 318/109/38
f 319/108/9 320/109/9 321/110/9
f 322/109/9 323/111/9 324/110/9
f 325/109/39 326/108/39 327/112/39
f 328/108/39 329/113/39 330/112/39
f 331/106/5 332/107/5 333/104/5
f 334/107/5 335/105/5 336/104/5
f 361/116/44 362/116/44 363/116/44
f 364/116/44 365/116/44 366/116/44
f 367/116/45 368/116/45 369/116/45
f 370/116/45 371/116/45 372/116/45
f 373/116/9 374/116/9 375/116/9
f 376/116/9 377/116/9 378/116/9
f 427/116/58 428/116/58 429/116/58
f 430/116/58 431/116/58 432/116/58
f 433/116/59 434/116/59 435/116/59
f 436/116/60 437/116/60 438/116/60
f 439/116/61 440/116/61 441/116/61
f 442/116/62 443/116/62 444/116/62
f 445/116/63 446/116/63 447/116/63
f 448/116/64 449/116/64 450/116/64
f 451/116/65 452/116/65 453/116/65
f 454/116/66 455/116/66 456/116/66
f 457/116/67 458/116/67 459/116/67
f 460/116/68 461/116/68 462/116/68
f 463/116/69 464/116/69 465/116/69
f 466/116/70 467/116/70 468/116/70
f 469/116/9 470/116/9 471/116/9
f 472/116/5 473/116/5 474/116/5
f 475/116/5 476/116/5 477/116/5
f 478/116/71 479/116/71 480/116/71
f 481/116/72 482/116/72 483/116/72
f 484/116/73 485/116/73 486/116/73
f 487/116/74 488/116/74 489/116/74
f 490/116/5 491/116/5 492/116/5
f 493/116/5 494/116/5 495/116/5
f 496/116/9 497/116/9 498/116/9
f 499/116/75 500/116/75 501/116/75
f 502/116/76 503/116/76 504/116/76
f 505/116/77 506/116/77 507/116/77
f 508/116/78 509/116/78 510/116/78
f 511/116/79 512/116/79 513/116/79
f 514/116/80 515/116/80 516/116/80
f 517/116/81 518/116/81 519/116/81
f 520/116/82 521/116/82 522/116/82
f 523/116/83 524/116/83 525/116/83
f 526/116/84 527/116/84 528/116/84
f 529/116/85 530/116/85 531/116/85
f 532/116/86 533/116/86 534/116/86
f 535/116/87 536/116/87 537/116/87
f 538/116/88 539/116/88 540/116/88
f 541/116/89 542/116/89 543/116/89
f 544/116/90 545/116/90 546/116/90
f 547/116/91 548/116/91 549/116/91
f 550/116/92 551/116/92 552/116/92
f 553/116/93 554/116/93 555/116/93
f 556/116/94 557/116/94 558/116/94
f 559/116/95 560/116/95 561/116/95
f 562/116/96 563/116/96 564/116/96
f 565/116/96 566/116/96 567/116/96
f 568/116/97 569/116/97 570/116/97
f 571/116/98 572/116/98 573/116/98
f 574/116/99 575/116/99 576/116/99
f 577/116/100 578/116/100 579/116/100
f 580/116/101 581/116/101 582/116/101
f 583/116/102 584/116/102 585/116/102
f 586/116/102 587/116/102 588/116/102
f 589/116/4 590/116/4 591/116/4
f 592/116/4 593/116/4 594/116/4
f 595/116/103 596/116/103 597/116/103
f 598/116/103 599/116/103 600/116/103
f 601/116/104 602/116/104 603/116/104
f 604/116/105 605/116/105 606/116/105
f 607/116/106 608/116/106 609/116/106
f 610/116/107 611/116/107 612/116/107
f 613/116/108 614/116/108 615/116/108
f 616/116/109 617/116/109 618/116/109
f 619/116/45 620/116/45 621/116/45
f 622/116/110 623/116/110 624/116/110
f 625/116/111 626/116/111 627/116/111
f 628/116/111 629/116/111 630/116/111
f 631/116/111 632/116/111 633/116/111
f 634/116/111 635/116/111 636/116/111
f 637/116/112 638/116/112 639/116/112
f 640/116/45 641/116/45 642/116/45
f 643/116/113 644/116/113 645/116/113
f 646/116/114 647/116/114 648/116/114
f 649/116/115 650/116/115 651/116/115
f 652/116/116 653/116/116 654/116/116
f 655/116/117 656/116/117 657/116/117
f 658/116/118 659/116/118 660/116/118
