# Blender 5.1.2
# www.blender.org
mtllib Mr Slam.mtl
o Mr_Slam
v 0.193370 0.966849 2.142572
v -0.193370 0.966849 2.142572
v -0.193370 0.837936 2.164058
v 0.193370 0.837936 2.164058
v 0.429711 0.601595 2.250000
v 0.429711 0.773479 2.250000
v -0.429711 0.773479 2.250000
v -0.429711 0.601595 2.250000
v 0.343769 1.009820 -0.177866
v 0.343769 1.009820 -0.500149
v -0.343769 1.009820 -0.500149
v -0.343769 1.009820 -0.177866
v 0.343769 0.773479 -0.586091
v -0.343769 0.773479 -0.586091
v -0.279312 1.009820 2.121087
v -0.279312 1.009820 1.519492
v -0.322283 0.816450 1.519492
v -0.322283 0.816450 2.121087
v 0.279312 1.074277 2.121087
v 0.257826 1.117248 0.788983
v 0.171884 1.461017 0.788983
v 0.193370 1.375074 2.099601
v 0.343769 0.773479 0.788983
v 0.343769 0.773479 2.164058
v -0.257826 1.117248 0.788983
v -0.279312 1.074277 2.121087
v -0.193370 1.375074 2.099601
v -0.171884 1.461017 0.788983
v -0.343769 0.773479 2.164058
v -0.343769 0.773479 0.788983
v 0.343769 0.429711 1.648405
v -0.343769 0.429711 1.648405
v 0.343769 0.773479 1.820289
v 0.429711 0.773479 1.820289
v 0.429711 0.601595 1.820289
v -0.429711 0.773479 1.820289
v -0.343769 0.773479 1.820289
v -0.429711 0.601595 1.820289
v 0.343769 0.773479 1.648405
v -0.343769 0.773479 1.648405
v -0.343769 0.429711 -0.242322
v -0.343769 0.773479 -0.242322
v -0.343769 0.601595 -0.757975
v 0.343769 0.773479 -0.242322
v 0.343769 0.429711 -0.242322
v 0.343769 0.601595 -0.757975
v -0.429711 1.375074 -0.070438
v -0.429711 1.375074 0.788983
v -0.343769 1.890727 0.788983
v -0.343769 1.890727 0.101446
v 0.343769 1.890727 0.788983
v 0.429711 1.375074 0.788983
v 0.429711 1.375074 -0.070438
v 0.343769 1.890727 0.101446
v 0.386740 1.009820 -0.177866
v -0.386740 1.009820 -0.177866
v 0.193370 1.375074 0.788983
v -0.193370 1.375074 0.788983
v 0.343769 0.429711 0.874926
v -0.343769 0.429711 0.874926
v -0.343769 0.773479 0.874926
v 0.343769 0.773479 0.874926
v 0.343769 0.429711 0.359273
v -0.343769 0.429711 0.359273
v -0.343769 0.773479 0.359273
v 0.343769 0.773479 0.359273
v 0.537138 1.267647 -0.586091
v 0.494167 1.310618 -0.586091
v 0.494167 1.310618 -0.156380
v 0.537138 1.267647 -0.156380
v -0.537138 1.267647 -0.156380
v -0.494167 1.310618 -0.156380
v -0.494167 1.310618 -0.586091
v -0.537138 1.267647 -0.586091
v 0.429711 1.375074 0.359273
v 0.429711 1.203190 0.359273
v 0.601595 1.203190 0.359273
v 0.601595 1.375074 0.359273
v 0.601595 1.203190 -0.156380
v 0.601595 1.375074 -0.156380
v 0.429711 1.203190 -0.156380
v 0.429711 1.375074 -0.156380
v -0.429711 1.203190 0.359273
v -0.601595 1.203190 0.359273
v -0.601595 1.203190 -0.156380
v -0.429711 1.203190 -0.156380
v -0.429711 1.375074 -0.156380
v -0.601595 1.375074 -0.156380
v -0.601595 1.375074 0.359273
v -0.429711 1.375074 0.359273
v 0.343769 0.257826 0.788983
v 0.343769 0.257826 0.445215
v 0.343769 0.773479 0.445215
v -0.343769 0.773479 0.445215
v -0.343769 0.257826 0.445215
v -0.343769 0.257826 0.788983
v 0.408225 0.000000 1.734347
v 0.408225 0.859421 1.734347
v 0.408225 0.859421 0.874926
v 0.408225 0.000000 0.874926
v 0.794965 0.000000 0.874926
v 0.794965 0.859421 0.874926
v 0.794965 0.859421 1.734347
v 0.794965 0.000000 1.734347
v 0.794965 0.429711 1.734347
v 0.408225 0.429711 1.734347
v 0.408225 0.128913 1.605434
v 0.794965 0.128913 1.605434
v 0.794965 0.730508 1.605434
v 0.408225 0.730508 1.605434
v 0.794965 0.859421 1.304636
v 0.408225 0.859421 1.304636
v 0.794965 0.730508 1.003839
v 0.408225 0.730508 1.003839
v 0.794965 0.429711 0.874926
v 0.408225 0.429711 0.874926
v 0.794965 0.128913 1.003839
v 0.408225 0.128913 1.003839
v 0.794965 0.000000 1.304636
v 0.408225 0.000000 1.304636
v -0.408225 0.859421 0.874926
v -0.408225 0.859421 1.734347
v -0.408225 0.000000 1.734347
v -0.408225 0.000000 0.874926
v -0.794965 0.000000 0.874926
v -0.794965 0.000000 1.734347
v -0.794965 0.859421 1.734347
v -0.794965 0.859421 0.874926
v -0.794965 0.128913 1.003839
v -0.408225 0.128913 1.003839
v -0.408225 0.000000 1.304636
v -0.794965 0.000000 1.304636
v -0.408225 0.128913 1.605434
v -0.794965 0.128913 1.605434
v -0.408225 0.429711 1.734347
v -0.794965 0.429711 1.734347
v -0.408225 0.730508 1.605434
v -0.794965 0.730508 1.605434
v -0.408225 0.859421 1.304636
v -0.794965 0.859421 1.304636
v -0.408225 0.730508 1.003839
v -0.794965 0.730508 1.003839
v -0.408225 0.429711 0.874926
v -0.794965 0.429711 0.874926
v 0.408225 0.000000 0.359273
v 0.408225 0.859421 0.359273
v 0.408225 0.859421 -0.500149
v 0.408225 0.000000 -0.500149
v 0.794965 0.000000 -0.500149
v 0.794965 0.859421 -0.500149
v 0.794965 0.859421 0.359273
v 0.794965 0.000000 0.359273
v 0.794965 0.429711 0.359273
v 0.408225 0.429711 0.359273
v 0.408225 0.128913 0.230359
v 0.794965 0.128913 0.230359
v 0.794965 0.730508 0.230359
v 0.408225 0.730508 0.230359
v 0.794965 0.859421 -0.070438
v 0.408225 0.859421 -0.070438
v 0.794965 0.730508 -0.371236
v 0.408225 0.730508 -0.371236
v 0.794965 0.429711 -0.500149
v 0.408225 0.429711 -0.500149
v 0.794965 0.128913 -0.371236
v 0.408225 0.128913 -0.371236
v 0.794965 0.000000 -0.070438
v 0.408225 0.000000 -0.070438
v -0.408225 0.859421 -0.500149
v -0.408225 0.859421 0.359273
v -0.408225 0.000000 0.359273
v -0.408225 0.000000 -0.500149
v -0.794965 0.000000 -0.500149
v -0.794965 0.000000 0.359273
v -0.794965 0.859421 0.359273
v -0.794965 0.859421 -0.500149
v -0.794965 0.128913 -0.371236
v -0.408225 0.128913 -0.371236
v -0.408225 0.000000 -0.070438
v -0.794965 0.000000 -0.070438
v -0.408225 0.128913 0.230359
v -0.794965 0.128913 0.230359
v -0.408225 0.429711 0.359273
v -0.794965 0.429711 0.359273
v -0.408225 0.730508 0.230359
v -0.794965 0.730508 0.230359
v -0.408225 0.859421 -0.070438
v -0.794965 0.859421 -0.070438
v -0.408225 0.730508 -0.371236
v -0.794965 0.730508 -0.371236
v -0.408225 0.429711 -0.500149
v -0.794965 0.429711 -0.500149
v -0.773479 2.088516 -1.768137
v 0.773479 2.088516 -1.768137
v 0.773479 2.449142 -2.250000
v -0.773479 2.449142 -2.250000
v 0.773479 2.654765 -1.361596
v -0.773479 2.654765 -1.361596
v -0.773479 3.015390 -1.843459
v 0.773479 3.014645 -1.821990
v 0.773479 2.337204 -1.501578
v -0.773479 2.337204 -1.501578
v 0.773479 2.848109 -1.978228
v -0.773479 2.848109 -1.978228
v -0.773479 2.683807 -2.198871
v 0.773479 2.683807 -2.198871
v -0.773479 2.337948 -1.523046
v 0.257826 1.960940 -0.568874
v 0.257826 2.196350 -0.539214
v 0.257826 2.443057 -1.454917
v 0.257826 2.210626 -1.570451
v 0.343769 2.443057 -1.454917
v 0.343769 2.196350 -0.539214
v 0.343769 1.960940 -0.568874
v 0.343769 2.210626 -1.570451
v -0.343769 2.210626 -1.570451
v -0.343769 1.960940 -0.568874
v -0.343769 2.196350 -0.539214
v -0.343769 2.443057 -1.454917
v -0.257826 2.210626 -1.570451
v -0.257826 2.443057 -1.454917
v -0.257826 2.196350 -0.539214
v -0.257826 1.960940 -0.568874
v 0.257826 2.068283 -0.565151
v 0.343769 2.068283 -0.565151
v 0.343769 2.337204 -1.501578
v 0.257826 2.337204 -1.501578
v -0.343769 2.068283 -0.565151
v -0.257826 2.068283 -0.565151
v -0.257826 2.337204 -1.501578
v -0.343769 2.337204 -1.501578
v -0.343769 2.216399 -0.433290
v -0.343769 1.008661 -0.174902
v -0.343769 1.012758 -0.411185
v -0.343769 2.179770 -0.799200
v -0.343769 0.857554 -0.134548
v -0.343769 0.796837 -0.350469
v -0.429711 1.012758 -0.411185
v -0.429711 1.008661 -0.174902
v -0.429711 2.216399 -0.433290
v -0.429711 2.179770 -0.799200
v -0.429711 0.857554 -0.134548
v -0.429711 0.796837 -0.350469
v 0.429711 2.216399 -0.433290
v 0.429711 1.008661 -0.174902
v 0.429711 1.012758 -0.411185
v 0.429711 2.179770 -0.799200
v 0.429711 0.857554 -0.134548
v 0.429711 0.796837 -0.350469
v 0.343769 1.012758 -0.411185
v 0.343769 1.008661 -0.174902
v 0.343769 2.216399 -0.433290
v 0.343769 2.179770 -0.799200
v 0.343769 0.857554 -0.134548
v 0.343769 0.796837 -0.350469
v 0.429711 2.198271 -0.626985
v 0.343769 2.198271 -0.626985
v 0.343769 0.837936 -0.242322
v 0.429711 0.837936 -0.242322
v -0.343769 2.198271 -0.626985
v -0.429711 2.198271 -0.626985
v -0.429711 0.837936 -0.242322
v -0.343769 0.837936 -0.242322
vn -0.0000 0.1644 0.9864
vn 0.5724 0.4464 0.6878
vn 0.6998 0.6998 -0.1431
vn -0.6796 0.1913 0.7082
vn -0.0000 -0.0000 1.0000
vn 0.6389 0.7693 -0.0000
vn 0.5979 0.6565 -0.4598
vn -0.5980 0.6565 -0.4598
vn -0.6389 0.7693 -0.0000
vn 0.7593 0.3496 -0.5489
vn -0.7593 0.3496 -0.5489
vn -0.9762 0.2169 -0.0000
vn 0.6924 0.2473 0.6778
vn 0.9701 0.2425 -0.0078
vn 0.5969 0.8014 0.0387
vn 0.4920 0.6452 0.5845
vn 0.9914 0.0488 0.1211
vn 0.6436 -0.2636 0.7185
vn -0.9701 0.2426 -0.0011
vn -0.6951 0.2475 0.6750
vn -0.4947 0.6448 0.5826
vn -0.5987 0.7998 0.0426
vn -0.6453 -0.2623 0.7175
vn -0.9909 0.0511 0.1245
vn 0.6473 -0.7295 0.2209
vn -0.6453 -0.2622 0.7175
vn -0.6473 -0.7295 0.2209
vn 0.0329 0.9990 0.0299
vn 0.6717 -0.2624 -0.6928
vn -0.2575 0.9659 -0.0263
vn -0.0000 1.0000 -0.0000
vn 1.0000 -0.0000 -0.0000
vn -0.0000 -0.0000 -1.0000
vn -0.8907 0.2188 -0.3985
vn -1.0000 -0.0000 -0.0000
vn -0.6728 -0.7303 -0.1185
vn -0.9996 -0.0292 -0.0000
vn -0.5568 -0.1909 -0.8084
vn 0.9996 -0.0292 -0.0000
vn 0.6728 -0.7303 -0.1185
vn 0.5568 -0.1909 -0.8084
vn -0.7315 0.1918 -0.6543
vn -0.7384 0.0086 0.6743
vn -0.9257 0.3689 -0.0839
vn -0.6785 0.2326 -0.6969
vn -0.9996 -0.0293 -0.0000
vn 0.6885 0.2448 0.6827
vn 0.7384 0.0086 0.6743
vn 0.7315 0.1918 -0.6543
vn 0.5966 0.7775 0.1987
vn 0.9914 0.0487 0.1211
vn 0.9996 -0.0293 -0.0000
vn -0.0000 0.2822 -0.9594
vn 0.7071 -0.7071 -0.0000
vn -0.7071 -0.7071 -0.0000
vn 0.7071 0.7071 -0.0000
vn -0.7071 0.7071 -0.0000
vn -0.0000 0.7071 0.7071
vn -0.7500 -0.6597 0.0474
vn 0.2627 -0.7169 -0.6458
vn -0.4821 0.6195 0.6195
vn 0.5773 -0.5774 -0.5774
vn -0.2894 -0.2894 -0.9124
vn -0.0000 -0.8465 -0.5323
vn -0.4330 0.8839 0.1767
vn -0.0000 -1.0000 -0.0000
vn 0.5067 0.1651 0.8462
vn -0.3443 -0.3443 -0.8735
vn -0.5773 -0.5773 -0.5774
vn 0.7421 0.0108 -0.6703
vn -0.3443 0.3443 0.8735
vn -0.5860 0.7910 0.1759
vn 0.9659 -0.2583 -0.0168
vn 0.9659 0.2531 0.0540
vn -0.0000 -0.9191 -0.3939
vn -0.9909 0.0491 0.1253
vn -0.0000 -0.7071 0.7071
vn -0.0000 0.7071 -0.7071
vn -0.0000 -0.7071 -0.7071
vn -0.0000 0.8006 0.5992
vn 0.0040 -0.2460 -0.9693
vn 0.1001 0.1790 -0.9787
vn 0.0383 -0.0040 -0.9993
vn 0.0082 -0.7878 -0.6158
vn 0.3273 -0.0596 0.9430
vn -0.4261 0.0406 0.9038
vn -0.0683 -0.9977 0.0025
vn -0.0000 0.7312 -0.6822
vn -0.0000 0.6842 -0.7293
vn 0.0111 0.6273 -0.7787
vn -0.0000 0.2129 -0.9771
vn -0.0000 0.3260 -0.9454
vn -0.0000 -0.2579 0.9662
vn -0.0000 0.1319 0.9913
vn 1.0000 -0.0002 -0.0000
vn -0.0000 0.9612 0.2760
vn -0.0000 0.2721 0.9623
vt 0.101562 -0.359375
vt 0.101562 -0.468750
vt 0.156250 -0.468750
vt 0.156250 -0.359375
vt 0.984375 -0.351562
vt 0.984375 -0.234375
vt 0.750000 -0.234375
vt 0.750000 -0.351562
vt 0.015625 -0.609375
vt 0.054688 -0.609375
vt 0.054688 -0.515625
vt 0.015625 -0.515625
vt 0.093750 -0.609375
vt 0.101562 -0.523438
vt 0.539062 -0.523438
vt 0.179688 -0.523438
vt 0.179688 -0.593750
vt 0.539062 -0.593750
vt 0.179688 -0.484375
vt 0.992188 -0.484375
vt 0.992188 -0.359375
vt 0.203125 -0.359375
vt 0.992188 -0.609375
vt 0.156250 -0.609375
vt 0.359375 -0.242188
vt 0.242188 -0.242188
vt 0.250000 -0.351562
vt 0.367188 -0.351562
vt 0.984375 -0.265625
vt 0.960938 -0.234375
vt 0.765625 -0.234375
vt 0.742188 -0.273438
vt 0.796875 -0.234375
vt 0.742188 -0.281250
vt 0.984375 -0.281250
vt 0.984375 -0.273438
vt 0.937500 -0.226562
vt 0.328125 -0.234375
vt 0.242188 -0.234375
vt 0.359375 -0.351562
vt 0.648438 -0.351562
vt 0.640625 -0.234375
vt 0.703125 -0.234375
vt 0.734375 -0.296875
vt 0.734375 -0.343750
vt 0.726562 -0.242188
vt 0.640625 -0.242188
vt 0.648438 -0.343750
vt 0.937500 -0.789062
vt 0.750000 -0.789062
vt 0.750000 -0.625000
vt 0.898438 -0.625000
vt 0.750000 -0.976562
vt 0.976562 -0.976562
vt 0.000000 -0.125000
vt 0.171875 -0.125000
vt 0.148438 0.000000
vt 0.015625 0.000000
vt 0.007812 -0.523438
vt 0.132812 -0.617188
vt 0.125000 -0.531250
vt 0.156250 0.000000
vt 0.007812 0.000000
vt 0.109375 -0.523438
vt 0.109375 -0.609375
vt 0.164062 -0.523438
vt 0.093750 -0.539062
vt 0.109375 -0.585938
vt 0.117188 -0.539062
vt 0.046875 -0.539062
vt 0.023438 -0.539062
vt 0.039062 -0.585938
vt 0.468750 -0.242188
vt 0.476562 -0.343750
vt 0.453125 -0.234375
vt 0.476562 -0.351562
vt 0.546875 -0.242188
vt 0.554688 -0.343750
vt 0.539062 -0.234375
vt 0.554688 -0.351562
vt 0.054688 -0.523438
vt 0.843750 -0.625000
vt 0.953125 -0.625000
vt 0.953125 -0.312500
vt 0.843750 -0.312500
vt 0.843750 -0.531250
vt 0.953125 -0.531250
vt 0.953125 -0.296875
vt 0.187500 -0.750000
vt 0.296875 -0.750000
vt 0.296875 -0.359375
vt 0.187500 -0.359375
vt 0.390625 -0.828125
vt 0.390625 -0.984375
vt 0.734375 -0.984375
vt 0.734375 -0.828125
vt 0.000000 -0.625000
vt 0.382812 -0.625000
vt 0.382812 -0.992188
vt 0.000000 -0.992188
vt 0.734375 -0.625000
vt 0.406250 -0.625000
vt 0.406250 -0.812500
vt 0.734375 -0.812500
vt 0.984375 -0.304688
vt 0.750000 -0.304688
vt 0.273438 -0.257812
vt 0.601562 -0.257812
vt 0.601562 -0.335938
vt 0.281250 -0.328125
vt 0.742188 -0.289062
vt 0.984375 -0.296875
vt 0.750000 -0.226562
vt 0.750000 -0.296875
vt 0.984375 -0.289062
vt 0.750000 -0.242188
vt 0.945312 -0.218750
vt 0.945312 -0.101562
vt 0.601562 -0.101562
vt 0.601562 -0.218750
vt 0.953125 -0.226562
vt 0.945312 -0.093750
vt 0.609375 -0.093750
vt 0.617188 -0.218750
vt 0.968750 -0.203125
vt 0.960938 -0.093750
vt 0.570312 -0.117188
vt 0.632812 -0.273438
vt 0.578125 -0.117188
vt 0.968750 -0.101562
vt 0.976562 -0.210938
vt 0.640625 -0.281250
vt 0.921875 -0.210938
vt 0.984375 -0.101562
vt 0.562500 -0.093750
vt 0.593750 -0.257812
vt 0.562500 -0.101562
vt 0.984375 -0.109375
vt 0.921875 -0.218750
vt 0.593750 -0.265625
vt 0.359375 -0.085938
vt 0.375000 0.000000
vt 0.750000 0.000000
vt 0.765625 -0.085938
vt 0.257812 -0.273438
vt 0.265625 -0.335938
vt 0.695312 -0.335938
vt 0.687500 -0.281250
vt 0.289062 0.000000
vt 0.015625 -0.289062
vt 0.117188 -0.328125
vt 0.429688 -0.054688
vt 1.117188 -0.328125
vt 1.015625 -0.289062
vt 0.984375 -0.328125
vt 1.062500 -0.382812
vt 0.703125 -0.335938
vt 0.703125 -0.242188
vt 0.257812 -0.250000
vt 0.257812 -0.335938
vt 0.703125 -0.250000
vt 0.257812 -0.257812
vt 0.257812 -0.343750
s 1
usemtl material_0.009
f 1/1/1 2/2/1 3/3/1
f 1/1/1 3/3/1 4/4/1
f 5/5/2 6/6/3 7/7/4
f 5/5/2 7/7/4 8/8/5
f 9/9/6 10/10/7 11/11/8
f 9/9/6 11/11/8 12/12/9
f 11/11/8 10/10/7 13/13/10
f 11/11/8 13/13/10 14/14/11
f 15/15/12 16/16/12 17/17/12
f 15/15/12 17/17/12 18/18/12
f 19/19/13 20/20/14 21/21/15
f 19/19/13 21/21/15 22/22/16
f 23/23/17 20/20/14 19/19/13
f 23/23/17 19/19/13 24/24/18
f 25/20/19 26/19/20 27/22/21
f 25/20/19 27/22/21 28/21/22
f 29/24/23 26/19/20 25/20/19
f 29/24/23 25/20/19 30/23/24
f 21/21/15 28/21/22 27/22/21
f 21/21/15 27/22/21 22/22/16
f 19/19/13 26/19/20 29/24/23
f 19/19/13 29/24/23 24/24/18
f 27/22/21 26/19/20 19/19/13
f 27/22/21 19/19/13 22/22/16
f 31/25/25 24/26/18 29/27/26
f 31/25/25 29/27/26 32/28/27
f 6/29/3 24/30/28 29/31/29
f 6/29/3 29/31/29 7/32/4
f 33/6/30 24/33/28 6/34/3
f 33/6/30 6/34/3 34/35/31
f 34/6/32 6/7/3 5/8/2
f 34/6/32 5/8/33 35/5/32
f 36/34/34 7/36/4 29/37/29
f 36/34/34 29/37/29 37/7/31
f 38/5/35 8/8/35 7/7/33
f 38/5/35 7/7/4 36/6/34
f 39/38/32 24/39/18 31/40/25
f 40/38/35 32/40/27 29/39/26
f 41/41/36 42/42/37 14/43/11
f 41/41/36 14/43/11 43/44/38
f 13/43/10 44/42/39 45/41/40
f 13/43/10 45/41/40 46/44/41
f 43/45/38 46/46/41 45/47/40
f 43/45/38 45/47/40 41/48/36
f 47/49/42 48/50/43 49/51/44
f 47/49/42 49/51/44 50/52/45
f 30/53/24 48/50/43 47/49/42
f 30/53/24 47/49/42 42/54/46
f 51/51/47 52/50/48 53/49/49
f 51/51/47 53/49/49 54/52/50
f 53/49/49 52/50/48 23/53/51
f 53/49/49 23/53/51 44/54/52
f 48/55/43 52/56/48 51/57/47
f 48/55/43 51/57/47 49/58/44
f 49/59/44 51/9/47 54/60/50
f 49/59/44 54/60/50 50/61/45
f 54/57/50 53/56/49 47/55/42
f 54/57/50 47/55/42 50/58/45
f 53/56/49 55/62/53 56/63/53
f 53/56/49 56/63/53 47/55/42
f 14/64/11 13/65/10 46/24/41
f 14/64/11 46/24/41 43/66/38
f 57/67/5 23/68/51 52/69/48
f 58/70/5 48/71/43 30/72/24
f 59/73/54 31/25/25 32/28/27
f 59/73/54 32/28/27 60/74/55
f 40/38/35 61/75/35 60/76/55
f 40/38/35 60/76/55 32/40/27
f 62/75/32 39/38/32 31/40/25
f 62/75/32 31/40/25 59/76/54
f 63/77/54 59/73/54 60/74/55
f 63/77/54 60/74/55 64/78/55
f 45/47/40 63/77/54 64/78/55
f 45/47/40 64/78/55 41/48/36
f 61/75/35 65/79/35 64/80/55
f 61/75/35 64/80/55 60/76/55
f 65/79/35 42/42/37 41/41/36
f 65/79/35 41/41/36 64/80/55
f 66/79/32 62/75/32 59/76/54
f 66/79/32 59/76/54 63/80/54
f 44/42/39 66/79/32 63/80/54
f 44/42/39 63/80/54 45/41/40
f 10/10/7 9/9/6 44/10/39
f 10/10/7 44/10/39 13/13/10
f 12/12/9 11/11/8 14/14/11
f 12/12/9 14/14/11 42/81/37
f 105/101/5 106/102/5 107/103/77
f 105/101/5 107/103/77 108/104/77
f 109/101/58 110/102/58 106/103/5
f 109/101/58 106/103/5 105/104/5
f 111/101/31 112/102/31 110/103/58
f 111/101/31 110/103/58 109/104/58
f 113/101/78 114/102/78 112/103/31
f 113/101/78 112/103/31 111/104/31
f 115/101/33 116/102/33 114/103/78
f 115/101/33 114/103/78 113/104/78
f 117/101/79 118/102/79 116/103/33
f 117/101/79 116/103/33 115/104/33
f 119/101/66 120/102/66 118/103/79
f 119/101/66 118/103/79 117/104/79
f 108/101/77 107/102/77 120/103/66
f 108/101/77 120/103/66 119/104/66
f 129/104/79 130/103/79 131/102/66
f 129/104/79 131/102/66 132/101/66
f 132/104/66 131/103/66 133/102/77
f 132/104/66 133/102/77 134/101/77
f 134/104/77 133/103/77 135/102/5
f 134/104/77 135/102/5 136/101/5
f 136/104/5 135/103/5 137/102/58
f 136/104/5 137/102/58 138/101/58
f 138/104/58 137/103/58 139/102/31
f 138/104/58 139/102/31 140/101/31
f 140/104/31 139/103/31 141/102/78
f 140/104/31 141/102/78 142/101/78
f 142/104/78 141/103/78 143/102/33
f 142/104/78 143/102/33 144/101/33
f 144/104/33 143/103/33 130/102/79
f 144/104/33 130/102/79 129/101/79
f 153/101/5 154/102/5 155/103/77
f 153/101/5 155/103/77 156/104/77
f 157/101/58 158/102/58 154/103/5
f 157/101/58 154/103/5 153/104/5
f 159/101/31 160/102/31 158/103/58
f 159/101/31 158/103/58 157/104/58
f 161/101/78 162/102/78 160/103/31
f 161/101/78 160/103/31 159/104/31
f 163/101/33 164/102/33 162/103/78
f 163/101/33 162/103/78 161/104/78
f 165/101/79 166/102/79 164/103/33
f 165/101/79 164/103/33 163/104/33
f 167/101/66 168/102/66 166/103/79
f 167/101/66 166/103/79 165/104/79
f 156/101/77 155/102/77 168/103/66
f 156/101/77 168/103/66 167/104/66
f 177/104/79 178/103/79 179/102/66
f 177/104/79 179/102/66 180/101/66
f 180/104/66 179/103/66 181/102/77
f 180/104/66 181/102/77 182/101/77
f 182/104/77 181/103/77 183/102/5
f 182/104/77 183/102/5 184/101/5
f 184/104/5 183/103/5 185/102/58
f 184/104/5 185/102/58 186/101/58
f 186/104/58 185/103/58 187/102/31
f 186/104/58 187/102/31 188/101/31
f 188/104/31 187/103/31 189/102/78
f 188/104/31 189/102/78 190/101/78
f 190/104/78 189/103/78 191/102/33
f 190/104/78 191/102/33 192/101/33
f 192/104/33 191/103/33 178/102/79
f 192/104/33 178/102/79 177/101/79
f 193/105/80 194/106/66 195/8/80
f 193/105/80 195/8/80 196/5/80
f 197/107/81 198/108/82 199/109/83
f 197/107/81 199/109/83 200/110/84
f 201/111/85 202/112/86 198/6/82
f 201/111/85 198/6/82 197/113/81
f 202/114/86 201/115/85 194/6/87
f 202/114/86 194/6/87 193/116/88
usemtl material_1.007
f 67/82/56 68/83/56 69/84/55
f 67/82/56 69/84/55 70/85/56
f 71/85/57 72/84/57 73/83/54
f 71/85/57 73/83/54 74/82/57
f 75/85/58 76/86/59 77/87/60
f 75/85/58 77/87/60 78/88/61
f 78/89/61 77/90/60 79/91/62
f 78/89/61 79/91/62 80/92/63
f 80/88/63 79/87/62 81/86/64
f 80/88/63 81/86/33 82/85/65
f 75/89/58 78/90/61 80/91/63
f 75/89/58 80/91/63 82/92/65
f 81/92/64 79/91/62 77/90/60
f 81/92/66 77/90/60 76/89/59
f 83/89/67 84/90/68 85/91/69
f 83/89/67 85/91/69 86/92/66
f 87/92/70 88/91/71 89/90/72
f 87/92/70 89/90/72 90/89/58
f 87/85/70 86/86/33 85/87/69
f 87/85/70 85/87/69 88/88/71
f 88/92/71 85/91/69 84/90/68
f 88/92/71 84/90/68 89/89/72
f 89/88/72 84/87/68 83/86/67
f 89/88/72 83/86/67 90/85/58
usemtl material_2.006
f 91/93/73 92/94/32 93/95/74
f 91/93/73 93/95/74 23/96/75
f 30/96/76 94/95/35 95/94/32
f 30/96/76 95/94/32 96/93/35
f 97/97/35 98/98/35 99/99/35
f 97/97/35 99/99/35 100/100/35
f 101/100/32 102/99/32 103/98/32
f 101/100/32 103/98/32 104/97/32
f 121/100/32 122/99/32 123/98/32
f 121/100/32 123/98/32 124/97/32
f 125/97/35 126/98/35 127/99/35
f 125/97/35 127/99/35 128/100/35
f 145/97/35 146/98/35 147/99/35
f 145/97/35 147/99/35 148/100/35
f 149/100/32 150/99/32 151/98/32
f 149/100/32 151/98/32 152/97/32
f 169/100/32 170/99/32 171/98/32
f 169/100/32 171/98/32 172/97/32
f 173/97/35 174/98/35 175/99/35
f 173/97/35 175/99/35 176/100/35
f 200/117/89 203/118/89 204/119/89
f 200/117/90 204/119/90 199/120/33
f 196/121/91 205/122/91 206/123/91
f 196/121/91 206/123/91 195/124/91
f 199/125/92 204/126/35 202/127/93
f 199/125/92 202/127/93 198/128/33
f 201/129/32 203/130/32 200/131/32
f 201/129/32 200/131/32 197/132/32
f 195/133/32 206/134/32 201/135/94
f 195/133/32 201/135/94 194/136/66
f 207/137/95 205/138/35 196/139/35
f 207/137/95 196/139/35 193/140/35
f 208/141/35 209/142/35 210/143/35
f 208/141/35 210/143/35 211/144/35
f 212/143/32 213/142/32 214/141/32
f 212/143/32 214/141/32 215/144/32
f 216/144/35 217/141/35 218/142/35
f 216/144/35 218/142/35 219/143/35
f 220/144/32 221/143/32 222/142/32
f 220/144/32 222/142/32 223/141/32
f 224/145/96 225/146/96 226/147/96
f 224/145/96 226/147/96 227/148/96
f 228/145/96 229/146/96 230/147/96
f 228/145/96 230/147/96 231/148/96
f 232/149/32 233/150/32 234/151/32
f 232/149/32 234/151/32 235/152/32
f 234/153/32 233/154/32 236/155/32
f 234/153/32 236/155/32 237/156/32
f 238/151/35 239/150/35 240/149/35
f 238/151/35 240/149/35 241/152/35
f 242/155/35 239/154/35 238/153/35
f 242/155/35 238/153/35 243/156/35
f 244/149/32 245/150/32 246/151/32
f 244/149/32 246/151/32 247/152/32
f 246/153/32 245/154/32 248/155/32
f 246/153/32 248/155/32 249/156/32
f 250/151/35 251/150/35 252/149/35
f 250/151/35 252/149/35 253/152/35
f 254/155/35 251/154/35 250/153/35
f 254/155/35 250/153/35 255/156/35
f 256/157/97 257/158/97 258/159/97
f 256/157/97 258/159/97 259/160/97
f 260/157/97 261/161/97 262/162/97
f 260/157/97 262/162/97 263/163/97
